<svg xmlns="http://www.w3.org/2000/svg" xmlns:xlink="http://www.w3.org/1999/xlink" width="1140" height="678" fill="none"><style><![CDATA[.B{stroke:#51979F}.C{fill:#51979F}.D{fill:#D8E7E0}.E{fill:#fff}]]></style><g class="B"><g stroke-width="5"><path d="M2.5 2.5h1135v673H2.5z"/><path d="M408.5 2.5h403v285h-403z"/><path d="M408.5 2.5h179v155h-179zm-2.5 371h408M413.5 474v204m399-204v204"/></g><g fill="#D9EAE4"><path d="M773.5 544.5h31v116h-31zm-352 0h31v116h-31z"/></g></g><path d="M548 486h101v58H548z" class="C"/><g class="B D"><use xlink:href="#A"/><use xlink:href="#A" x="-2" y="2"/><use xlink:href="#B"/><use xlink:href="#B" x="2" y="-2"/><use xlink:href="#C"/><use xlink:href="#C" x="-2" y="-2"/><use xlink:href="#D"/><use xlink:href="#D" x="2" y="2"/></g><circle cx="183" cy="315" r="27" class="C"/><path d="M180.476 320H178.5v-7.615l-2.358.73V311.5l4.122-1.477h.212V320zm8.6-10.056v1.627h-.19c-.893.014-1.613.246-2.16.698s-.87 1.077-.978 1.88c.53-.537 1.196-.806 2.003-.806.866 0 1.554.3 2.064.93s.766 1.436.766 2.448a3.64 3.64 0 0 1-.424 1.757 2.98 2.98 0 0 1-1.189 1.223c-.51.292-1.09.438-1.737.438-1.048 0-1.895-.365-2.542-1.094s-.964-1.702-.964-2.92v-.71c0-1.08.202-2.032.608-2.857s.996-1.47 1.757-1.92c.766-.456 1.652-.686 2.66-.69h.328zm-1.928 4.984c-.32 0-.608.084-.868.253a1.48 1.48 0 0 0-.574.656v.6c0 .66.13 1.18.4 1.552s.624.554 1.093.554c.424 0 .766-.166 1.026-.5s.396-.773.396-1.306c0-.542-.132-.98-.396-1.312s-.62-.5-1.067-.5z" class="E"/><g class="B D"><use xlink:href="#A" x="1" y="-110"/><use xlink:href="#A" x="-1" y="-108"/><use xlink:href="#B" x="1" y="-110"/><use xlink:href="#B" x="3" y="-112"/><use xlink:href="#C" x="1" y="-110"/><use xlink:href="#C" x="-1" y="-112"/><use xlink:href="#D" x="1" y="-110"/><use xlink:href="#D" x="3" y="-108"/></g><circle cx="184" cy="205" r="27" class="C"/><path d="M180.476 210H178.5v-7.615l-2.358.73V201.5l4.122-1.477h.212V210zm3.534-4.895l.574-5.058h5.578v1.647h-3.958l-.246 2.14c.47-.25.968-.376 1.497-.376.948 0 1.69.294 2.23.882s.806 1.4.806 2.468c0 .642-.136 1.22-.4 1.73s-.656.9-1.162 1.183-1.103.417-1.79.417c-.602 0-1.16-.12-1.675-.363s-.923-.6-1.223-1.032a2.81 2.81 0 0 1-.472-1.511h1.955c.04.415.184.74.43.97s.576.342.977.342c.447 0 .79-.16 1.032-.48s.363-.78.363-1.367c0-.565-.14-.998-.417-1.3s-.673-.45-1.183-.45c-.47 0-.85.123-1.142.37l-.19.178-1.572-.4z" class="E"/><g class="B D"><use xlink:href="#A" x="154" y="-169"/><use xlink:href="#A" x="152" y="-167"/><use xlink:href="#B" x="154" y="-169"/><use xlink:href="#B" x="156" y="-171"/><use xlink:href="#C" x="154" y="-169"/><use xlink:href="#C" x="152" y="-171"/><use xlink:href="#D" x="154" y="-169"/><use xlink:href="#D" x="156" y="-167"/></g><circle cx="337" cy="146" r="27" class="C"/><path d="M339.52 147.254h1.128v1.593h-1.128V151h-1.975v-2.153h-4.08l-.09-1.244 4.15-6.556h1.996v6.207zm-4.176 0h2.2v-3.514l-.13.226-2.07 3.288z" class="E"/><g class="B D"><use xlink:href="#A" x="154" y="-71"/><use xlink:href="#A" x="152" y="-69"/><use xlink:href="#B" x="154" y="-71"/><use xlink:href="#B" x="156" y="-73"/><use xlink:href="#C" x="154" y="-71"/><use xlink:href="#C" x="152" y="-73"/><use xlink:href="#D" x="154" y="-71"/><use xlink:href="#D" x="156" y="-69"/></g><circle cx="337" cy="244" r="27" class="C"/><path d="M333.97 244.105l.574-5.058h5.578v1.647h-3.958l-.246 2.14c.47-.25.968-.376 1.497-.376.948 0 1.69.294 2.23.882s.806 1.4.806 2.468c0 .642-.137 1.22-.4 1.73s-.656.9-1.162 1.183-1.103.417-1.79.417c-.602 0-1.16-.12-1.675-.363s-.923-.6-1.224-1.032-.453-.945-.47-1.51h1.955c.04.415.184.74.43.97s.576.342.977.342c.447 0 .79-.16 1.032-.48s.363-.78.363-1.367c0-.565-.14-.998-.417-1.3s-.673-.45-1.183-.45c-.47 0-.85.123-1.142.37l-.19.178-1.572-.4z" class="E"/><g class="B D"><use xlink:href="#A" x="155" y="20"/><use xlink:href="#A" x="153" y="22"/><use xlink:href="#B" x="155" y="20"/><use xlink:href="#B" x="157" y="18"/><use xlink:href="#C" x="155" y="20"/><use xlink:href="#C" x="153" y="18"/><use xlink:href="#D" x="155" y="20"/><use xlink:href="#D" x="157" y="22"/></g><circle cx="338" cy="335" r="27" class="C"/><path d="M340.036 329.944v1.627h-.19c-.894.014-1.614.246-2.16.698s-.87 1.077-.978 1.88c.53-.537 1.196-.806 2.003-.806.866 0 1.554.3 2.064.93s.766 1.436.766 2.448a3.64 3.64 0 0 1-.424 1.757 2.98 2.98 0 0 1-1.189 1.223c-.51.292-1.09.438-1.737.438-1.048 0-1.895-.365-2.543-1.094-.642-.73-.963-1.702-.963-2.92v-.71c0-1.08.202-2.032.608-2.857s.996-1.47 1.757-1.92 1.652-.686 2.66-.69h.328zm-1.928 4.984c-.32 0-.608.084-.868.253s-.45.382-.574.656v.6c0 .66.13 1.18.4 1.552s.624.554 1.093.554c.424 0 .766-.166 1.026-.5s.396-.773.396-1.306c0-.542-.132-.98-.396-1.312a1.29 1.29 0 0 0-1.067-.499z" class="E"/><g class="B D"><use xlink:href="#A" x="1" y="288"/><use xlink:href="#A" x="-1" y="290"/><use xlink:href="#B" x="1" y="288"/><use xlink:href="#B" x="3" y="286"/><use xlink:href="#C" x="1" y="288"/><use xlink:href="#C" x="-1" y="286"/><use xlink:href="#D" x="1" y="288"/><use xlink:href="#D" x="3" y="290"/></g><circle cx="184" cy="603" r="27" class="C"/><path d="M185.298 604.02c-.515.506-1.117.76-1.805.76-.88 0-1.583-.3-2.112-.902s-.793-1.422-.793-2.447a3.81 3.81 0 0 1 .424-1.791 3.13 3.13 0 0 1 1.196-1.272c.5-.305 1.085-.458 1.723-.458.656 0 1.24.164 1.75.492s.907.8 1.19 1.415.426 1.32.43 2.113v.73c0 1.66-.413 2.962-1.238 3.9s-1.993 1.454-3.506 1.518l-.486.007v-1.648l.438-.007c1.718-.077 2.648-.884 2.79-2.42zm-1.32-.75a1.36 1.36 0 0 0 .82-.247c.232-.164.408-.362.526-.594v-.814c0-.67-.127-1.19-.383-1.558s-.597-.554-1.025-.554c-.396 0-.722.182-.978.547s-.382.813-.382 1.36.123.99.37 1.34.6.52 1.053.52z" class="E"/><g class="B D"><use xlink:href="#A" x="790" y="297"/><use xlink:href="#A" x="788" y="299"/><use xlink:href="#B" x="790" y="297"/><use xlink:href="#B" x="792" y="295"/><use xlink:href="#C" x="790.005" y="297"/><use xlink:href="#C" x="788.005" y="295"/><use xlink:href="#D" x="790" y="297"/><use xlink:href="#D" x="792" y="299"/></g><circle cx="973" cy="612" r="27" class="C"/><path d="M966.687 611.148h1.052c.502 0 .873-.125 1.115-.376s.362-.583.362-.998c0-.4-.12-.713-.362-.936s-.566-.335-.985-.335c-.378 0-.695.105-.95.314s-.383.474-.383.807h-1.975a2.43 2.43 0 0 1 .417-1.395c.282-.414.674-.738 1.175-.97a3.94 3.94 0 0 1 1.668-.349c1.053 0 1.878.253 2.475.76s.895 1.194.895 2.078c0 .456-.14.875-.417 1.258s-.642.677-1.093.882c.56.2.977.5 1.25.902s.417.875.417 1.422c0 .884-.324 1.593-.97 2.126s-1.495.8-2.557.8c-.993 0-1.807-.262-2.44-.786s-.943-1.217-.943-2.08h1.975c0 .374.14.68.417.916s.63.356 1.04.356c.47 0 .836-.123 1.1-.37s.403-.58.403-.99c0-.994-.547-1.49-1.64-1.49h-1.045v-1.545zm6.323.957l.574-5.058h5.578v1.647h-3.958l-.246 2.14c.47-.25.968-.376 1.497-.376.948 0 1.69.294 2.23.882s.806 1.4.806 2.468c0 .642-.136 1.22-.4 1.73s-.656.9-1.162 1.183-1.103.417-1.79.417c-.602 0-1.16-.12-1.675-.363s-.923-.6-1.223-1.032a2.81 2.81 0 0 1-.472-1.511h1.955c.04.415.184.74.43.97s.576.342.977.342c.447 0 .79-.16 1.032-.48s.363-.78.363-1.367c0-.565-.14-.998-.417-1.3s-.673-.45-1.183-.45c-.47 0-.85.123-1.142.37l-.19.178-1.572-.4z" class="E"/><g class="B D"><use xlink:href="#A" x="791" y="204"/><use xlink:href="#A" x="789" y="206"/><use xlink:href="#B" x="791" y="204"/><use xlink:href="#B" x="793" y="202"/><use xlink:href="#C" x="791.005" y="204"/><use xlink:href="#C" x="789.005" y="202"/><use xlink:href="#D" x="791" y="204"/><use xlink:href="#D" x="793" y="206"/></g><circle cx="974" cy="519" r="27" class="C"/><path d="M968.687 518.148h1.052c.502 0 .873-.125 1.115-.376s.362-.583.362-.998c0-.4-.12-.713-.362-.936s-.566-.335-.985-.335c-.378 0-.695.105-.95.314s-.383.474-.383.807h-1.975a2.43 2.43 0 0 1 .417-1.395c.282-.414.674-.738 1.175-.97a3.94 3.94 0 0 1 1.668-.349c1.053 0 1.878.253 2.475.76s.895 1.194.895 2.078c0 .456-.14.875-.417 1.258s-.642.677-1.093.882c.56.2.977.5 1.25.902s.417.875.417 1.422c0 .884-.324 1.593-.97 2.126s-1.495.8-2.557.8c-.993 0-1.807-.262-2.44-.786s-.943-1.217-.943-2.08h1.975c0 .374.14.68.417.916s.63.356 1.04.356c.47 0 .836-.123 1.1-.37s.403-.58.403-.99c0-.994-.547-1.49-1.64-1.49h-1.045v-1.545zm11.874 2.106h1.127v1.593h-1.127V524h-1.976v-2.153h-4.08l-.09-1.244 4.15-6.556h1.997v6.207zm-4.177 0h2.2v-3.514l-.13.226-2.07 3.288z" class="E"/><g class="B D"><use xlink:href="#A" x="815" y="21"/><use xlink:href="#A" x="813" y="23"/><use xlink:href="#B" x="815" y="21"/><use xlink:href="#B" x="817" y="19"/><use xlink:href="#C" x="815.005" y="21"/><use xlink:href="#C" x="813.005" y="19"/><use xlink:href="#D" x="815" y="21"/><use xlink:href="#D" x="817" y="23"/></g><circle cx="998" cy="336" r="27" class="C"/><path d="M991.687 335.148h1.052c.502 0 .873-.125 1.115-.376s.362-.583.362-.998c0-.4-.12-.713-.362-.936s-.566-.335-.985-.335c-.378 0-.695.105-.95.314s-.383.474-.383.807h-1.975a2.43 2.43 0 0 1 .417-1.395c.282-.414.674-.738 1.175-.97a3.94 3.94 0 0 1 1.668-.349c1.053 0 1.878.253 2.475.76s.895 1.194.895 2.078c0 .456-.14.875-.417 1.258s-.642.677-1.093.882c.56.2.977.5 1.25.902s.417.875.417 1.422c0 .884-.324 1.593-.97 2.126s-1.495.8-2.557.8c-.993 0-1.807-.262-2.44-.786s-.943-1.217-.943-2.08h1.975c0 .374.14.68.417.916s.63.356 1.04.356c.47 0 .836-.123 1.1-.37.27-.25.403-.58.403-.99 0-.994-.547-1.49-1.64-1.49h-1.045v-1.545zm8.04 0h1.054c.5 0 .87-.125 1.1-.376s.36-.583.36-.998c0-.4-.12-.713-.36-.936-.23-.223-.56-.335-.98-.335-.38 0-.7.105-.952.314s-.383.474-.383.807H997.6a2.43 2.43 0 0 1 .417-1.395c.282-.414.674-.738 1.175-.97s1.058-.35 1.668-.35c1.05 0 1.88.253 2.47.76.6.5.9 1.194.9 2.078 0 .456-.14.875-.42 1.258-.27.383-.64.677-1.1.882.56.2.98.5 1.25.902.28.4.42.875.42 1.422 0 .884-.33 1.593-.97 2.126-.65.533-1.5.8-2.56.8-.993 0-1.807-.262-2.44-.786s-.943-1.217-.943-2.08h1.975c0 .374.14.68.417.916s.63.356 1.04.356c.47 0 .83-.123 1.1-.37.27-.25.4-.58.4-.99 0-.994-.54-1.49-1.64-1.49h-1.044v-1.545z" class="E"/><g class="B D"><use xlink:href="#A" x="815" y="-70"/><use xlink:href="#A" x="813" y="-68"/><use xlink:href="#B" x="815" y="-70"/><use xlink:href="#B" x="817" y="-72"/><use xlink:href="#C" x="815.005" y="-70"/><use xlink:href="#C" x="813.005" y="-72"/><use xlink:href="#D" x="815" y="-70"/><use xlink:href="#D" x="817" y="-68"/></g><circle cx="998" cy="245" r="27" class="C"/><path d="M992.687 244.148h1.052c.502 0 .873-.125 1.115-.376s.362-.583.362-.998c0-.4-.12-.713-.362-.936s-.566-.335-.985-.335c-.378 0-.695.105-.95.314s-.383.474-.383.807h-1.975a2.43 2.43 0 0 1 .417-1.395c.282-.414.674-.738 1.175-.97a3.94 3.94 0 0 1 1.668-.349c1.053 0 1.878.253 2.475.76.597.5.895 1.194.895 2.078 0 .456-.14.875-.417 1.258s-.642.677-1.093.882c.56.2.977.5 1.25.902s.417.875.417 1.422c0 .884-.324 1.593-.97 2.126s-1.495.8-2.557.8c-.993 0-1.807-.262-2.44-.786s-.943-1.217-.943-2.08h1.975c0 .374.14.68.417.916s.63.356 1.04.356c.47 0 .836-.123 1.1-.37.27-.25.403-.58.403-.99 0-.994-.547-1.49-1.64-1.49h-1.045v-1.545zM1005.54 250h-6.824v-1.354l3.224-3.43c.44-.483.76-.905.97-1.265.22-.36.32-.702.32-1.025 0-.442-.1-.79-.33-1.04s-.54-.383-.96-.383c-.44 0-.8.155-1.06.465-.25.305-.38.708-.38 1.2h-1.982c0-.606.143-1.16.43-1.66a3.05 3.05 0 0 1 1.232-1.176c.53-.287 1.13-.43 1.8-.43 1.02 0 1.82.246 2.38.738.57.493.86 1.188.86 2.085 0 .493-.13.994-.4 1.504-.25.51-.7 1.105-1.3 1.784l-2.26 2.386h4.28V250z" class="E"/><g class="B D"><use xlink:href="#A" x="815" y="-166"/><use xlink:href="#A" x="813" y="-164"/><use xlink:href="#B" x="815" y="-166"/><use xlink:href="#B" x="817" y="-168"/><use xlink:href="#C" x="815.005" y="-166"/><use xlink:href="#C" x="813.005" y="-168"/><use xlink:href="#D" x="815" y="-166"/><use xlink:href="#D" x="817" y="-164"/></g><circle cx="998" cy="149" r="27" class="C"/><path d="M992.687 148.148h1.052c.502 0 .873-.125 1.115-.376s.362-.583.362-.998c0-.4-.12-.713-.362-.936s-.566-.335-.985-.335c-.378 0-.695.105-.95.314s-.383.474-.383.807h-1.975a2.43 2.43 0 0 1 .417-1.395c.282-.414.674-.738 1.175-.97a3.94 3.94 0 0 1 1.668-.349c1.053 0 1.878.253 2.475.76.597.5.895 1.194.895 2.078 0 .456-.14.875-.417 1.258s-.642.677-1.093.882c.56.2.977.5 1.25.902s.417.875.417 1.422c0 .884-.324 1.593-.97 2.126s-1.495.8-2.557.8c-.993 0-1.807-.262-2.44-.786s-.943-1.217-.943-2.08h1.975c0 .374.14.68.417.916s.63.356 1.04.356c.47 0 .836-.123 1.1-.37.27-.25.403-.58.403-.99 0-.994-.547-1.49-1.64-1.49h-1.045v-1.545zM1003.5 154h-1.97v-7.615l-2.36.73V145.5l4.12-1.477h.2V154z" class="E"/><g class="B D"><use xlink:href="#E"/><use xlink:href="#E" y="2.828"/><use xlink:href="#F"/><use xlink:href="#G"/></g><path d="M326 467h44v52h-44z" class="C"/><path d="M350.444 488.154L346.596 497h-2.085l3.855-8.354h-4.95v-1.6h7.027v1.107z" class="E"/><g class="B D"><use xlink:href="#E" y="102.478"/><use xlink:href="#H"/><use xlink:href="#F" y="102.479"/><use xlink:href="#G" y="102.478"/></g><path d="M326 569.48h44v52h-44z" class="C"/><path d="M350.164 592.17c0 .483-.12.912-.362 1.285s-.574.673-.998.896a2.87 2.87 0 0 1 1.148.964c.283.405.424.884.424 1.435 0 .884-.3 1.584-.902 2.1s-1.42.766-2.454.766-1.855-.258-2.46-.773-.9-1.212-.9-2.092c0-.55.142-1.032.424-1.442s.663-.73 1.142-.957c-.424-.223-.757-.522-.998-.896s-.356-.802-.356-1.285c0-.847.283-1.522.848-2.023s1.333-.76 2.304-.76 1.73.25 2.297.752.854 1.173.854 2.03zm-1.77 4.437c0-.433-.126-.78-.376-1.04s-.588-.4-1.012-.4c-.42 0-.754.13-1.005.4s-.376.6-.376 1.04c0 .424.123.765.37 1.025s.588.4 1.026.4c.428 0 .763-.126 1.004-.376.247-.25.37-.597.37-1.04zm-.206-4.34c0-.387-.102-.697-.307-.93s-.495-.355-.868-.355-.657.114-.862.342-.307.542-.307.943c0 .396.102.715.307.957s.495.362.87.362.66-.12.86-.362.307-.56.307-.957z" class="E"/><g class="B D"><use xlink:href="#E" x="765.002" y="31"/><use xlink:href="#E" x="765.002" y="33.828"/><use xlink:href="#F" x="764.998" y="31"/><use xlink:href="#G" x="764.998" y="31"/></g><path d="M1091 498h44v52h-44z" class="C"/><path d="M1113.5 528h-6.82v-1.354l3.22-3.43c.44-.483.76-.905.97-1.265.22-.36.33-.702.33-1.025 0-.442-.12-.79-.34-1.04s-.54-.383-.96-.383c-.44 0-.8.155-1.06.465-.25.305-.38.708-.38 1.2h-1.98c0-.606.14-1.16.43-1.66a3.03 3.03 0 0 1 1.23-1.176c.53-.287 1.13-.43 1.8-.43 1.02 0 1.82.246 2.38.738.57.493.86 1.188.86 2.085 0 .493-.13.994-.4 1.504-.25.51-.7 1.105-1.3 1.784l-2.26 2.386h4.28V528zm8.04 0h-6.82v-1.354l3.22-3.43c.44-.483.76-.905.97-1.265.22-.36.32-.702.32-1.025 0-.442-.1-.79-.33-1.04s-.54-.383-.96-.383c-.44 0-.8.155-1.06.465-.25.305-.38.708-.38 1.2h-1.98c0-.606.14-1.16.43-1.66a3.03 3.03 0 0 1 1.23-1.176c.53-.287 1.13-.43 1.8-.43 1.02 0 1.82.246 2.38.738.57.493.86 1.188.86 2.085 0 .493-.13.994-.4 1.504-.25.51-.7 1.105-1.3 1.784l-2.26 2.386h4.28V528z" class="E"/><g class="B D"><use xlink:href="#E" x="765.002" y="126.478"/><use xlink:href="#H" x="765.002" y="24"/><use xlink:href="#F" x="764.998" y="126.479"/><use xlink:href="#G" x="764.998" y="126.478"/></g><path d="M1091 593.48h44v52h-44z" class="C"/><path d="M1113.5 623.48h-6.82v-1.354l3.22-3.43c.44-.483.76-.905.97-1.265.22-.36.33-.702.33-1.025 0-.442-.12-.79-.34-1.04-.22-.256-.54-.383-.96-.383-.44 0-.8.155-1.06.465-.25.305-.38.708-.38 1.2h-1.98c0-.607.14-1.16.43-1.662s.7-.893 1.23-1.175c.53-.287 1.13-.43 1.8-.43 1.02 0 1.82.246 2.38.738.57.492.86 1.187.86 2.085 0 .492-.13.994-.4 1.504-.25.51-.7 1.105-1.3 1.784l-2.26 2.386h4.28v1.593zm3.23-5.852h1.05c.5 0 .87-.125 1.1-.376s.36-.583.36-.998c0-.4-.12-.713-.36-.936-.23-.224-.56-.335-.98-.335-.38 0-.7.105-.95.314-.26.205-.38.474-.38.807h-1.98c0-.52.14-.985.42-1.395s.67-.738 1.17-.97c.5-.233 1.06-.35 1.67-.35 1.05 0 1.88.253 2.47.76.6.5.9 1.194.9 2.078 0 .456-.14.875-.42 1.258-.27.383-.64.676-1.1.882.56.2.98.5 1.25.902.28.4.42.875.42 1.422 0 .884-.33 1.593-.97 2.126-.65.533-1.5.8-2.56.8-1 0-1.8-.263-2.44-.787s-.94-1.216-.94-2.078h1.97c0 .374.14.68.42.916s.63.356 1.04.356c.47 0 .83-.123 1.1-.37s.4-.58.4-.992c0-.993-.54-1.5-1.64-1.5h-1.04v-1.545z" class="E"/><g class="B D"><use xlink:href="#E" x="765.002" y="-240"/><use xlink:href="#E" x="765.002" y="-237.172"/><use xlink:href="#F" x="764.998" y="-240"/><use xlink:href="#G" x="764.998" y="-240"/></g><path d="M1091 227h44v52h-44z" class="C"/><path d="M1113.5 257h-6.82v-1.354l3.22-3.43c.44-.483.76-.905.97-1.265.22-.36.33-.702.33-1.025 0-.442-.12-.79-.34-1.04s-.54-.383-.96-.383c-.44 0-.8.155-1.06.465-.25.305-.38.708-.38 1.2h-1.98c0-.606.14-1.16.43-1.66a3.03 3.03 0 0 1 1.23-1.176c.53-.287 1.13-.43 1.8-.43 1.02 0 1.82.246 2.38.738.57.493.86 1.188.86 2.085 0 .493-.13.994-.4 1.504-.25.51-.7 1.105-1.3 1.784l-2.26 2.386h4.28V257zm7.92-4.115c0 1.376-.3 2.43-.86 3.158s-1.4 1.094-2.5 1.094c-1.1 0-1.92-.358-2.5-1.074s-.87-1.74-.88-3.076v-1.832c0-1.4.3-2.445.86-3.165.58-.72 1.4-1.08 2.5-1.08 1.1 0 1.92.358 2.5 1.073.58.71.87 1.734.9 3.07v1.832zm-1.98-2c0-.825-.1-1.424-.34-1.798s-.58-.567-1.06-.567c-.46 0-.8.18-1.03.54-.22.355-.33.914-.35 1.675v2.42c0 .81.1 1.415.33 1.81.23.392.58.588 1.07.588.48 0 .83-.19 1.04-.567.22-.38.33-.957.34-1.737v-2.365z" class="E"/><g class="B D"><use xlink:href="#E" x="765.002" y="-336"/><use xlink:href="#E" x="765.002" y="-333.172"/><use xlink:href="#F" x="764.998" y="-336"/><use xlink:href="#G" x="764.998" y="-336"/></g><path d="M1091 131h44v52h-44z" class="C"/><path d="M1111.48 161h-1.98v-7.615l-2.36.73V152.5l4.12-1.477h.22V161zm7.86-3.98c-.52.506-1.12.76-1.8.76-.88 0-1.58-.3-2.1-.902s-.8-1.422-.8-2.447c0-.652.14-1.25.42-1.79a3.16 3.16 0 0 1 1.2-1.272c.5-.305 1.08-.458 1.72-.458.66 0 1.24.164 1.75.492s.9.8 1.2 1.415.43 1.32.43 2.113v.73c0 1.66-.4 2.962-1.24 3.9-.82.948-2 1.454-3.5 1.518l-.5.007v-1.648l.44-.007c1.72-.077 2.65-.884 2.8-2.42zm-1.32-.75c.32 0 .6-.083.82-.247s.4-.362.52-.594v-.814c0-.67-.12-1.19-.38-1.558a1.18 1.18 0 0 0-1.02-.554c-.4 0-.73.182-.98.547-.26.36-.38.813-.38 1.36s.12.99.36 1.34a1.25 1.25 0 0 0 1.06.52z" class="E"/><g class="B D"><use xlink:href="#E" x="765.002" y="-144.522"/><use xlink:href="#H" x="765.002" y="-247"/><use xlink:href="#F" x="764.998" y="-144.521"/><use xlink:href="#G" x="764.998" y="-144.522"/></g><path d="M1091 322.48h44v52h-44z" class="C"/><path d="M1113.5 352.48h-6.82v-1.354l3.22-3.43c.44-.483.76-.905.97-1.265.22-.36.33-.702.33-1.025 0-.442-.12-.79-.34-1.04-.22-.256-.54-.383-.96-.383-.44 0-.8.155-1.06.465-.25.305-.38.708-.38 1.2h-1.98c0-.607.14-1.16.43-1.662s.7-.893 1.23-1.175 1.13-.43 1.8-.43c1.02 0 1.82.246 2.38.738.57.492.86 1.187.86 2.085 0 .492-.13.994-.4 1.504-.25.51-.7 1.105-1.3 1.784l-2.26 2.386h4.28v1.593zm6 0h-1.97v-7.615l-2.36.73v-1.606l4.12-1.477h.2v9.967z" class="E"/><g class="B D"><use xlink:href="#E" x="-321" y="7.478"/><use xlink:href="#H" x="-321" y="-95"/><use xlink:href="#F" x="-321" y="7.479"/><use xlink:href="#G" x="-321" y="7.478"/></g><path d="M5 474.48h44v52H5z" class="C"/><path d="M23.476 504.48H21.5v-7.615l-2.358.73v-1.606l4.122-1.477h.212v9.967zm8.04 0H29.54v-7.615l-2.358.73v-1.606l4.122-1.477h.212v9.967z" class="E"/><g class="B D"><use xlink:href="#E" x="-321" y="-88.522"/><use xlink:href="#H" x="-321" y="-191"/><use xlink:href="#F" x="-321" y="-88.521"/><use xlink:href="#G" x="-321" y="-88.522"/></g><path d="M5 378.48h44v52H5z" class="C"/><path d="M23.476 408.48H21.5v-7.615l-2.358.73v-1.606l4.122-1.477h.212v9.967zm10.063 0h-6.822v-1.354l3.22-3.43c.442-.483.768-.905.978-1.265s.32-.702.32-1.025c0-.442-.112-.79-.335-1.04-.223-.256-.542-.383-.957-.383-.447 0-.8.155-1.06.465s-.383.708-.383 1.2h-1.982c0-.607.143-1.16.43-1.662s.702-.893 1.23-1.175 1.128-.43 1.798-.43c1.025 0 1.82.246 2.386.738s.855 1.187.855 2.085c0 .492-.128.994-.383 1.504s-.693 1.105-1.313 1.784l-2.263 2.386h4.28v1.593z" class="E"/><g class="B D"><use xlink:href="#E" x="-321" y="-182.522"/><use xlink:href="#H" x="-321" y="-285"/><use xlink:href="#F" x="-321" y="-182.521"/><use xlink:href="#G" x="-321" y="-182.522"/></g><path d="M5 284.48h44v52H5z" class="C"/><path d="M23.476 314.48H21.5v-7.615l-2.358.73v-1.606l4.122-1.477h.212v9.967zm5.25-5.852h1.053c.5 0 .873-.125 1.114-.376s.362-.583.362-.998c0-.4-.12-.713-.362-.936s-.565-.335-.984-.335c-.378 0-.695.105-.95.314s-.383.474-.383.807H26.6c0-.52.14-.985.417-1.395a2.82 2.82 0 0 1 1.176-.97c.506-.233 1.062-.35 1.668-.35 1.053 0 1.878.253 2.475.76.597.5.895 1.194.895 2.078 0 .456-.14.875-.417 1.258s-.643.676-1.094.882c.56.2.978.5 1.25.902s.417.875.417 1.422c0 .884-.324 1.593-.97 2.126s-1.495.8-2.557.8c-.993 0-1.807-.263-2.44-.787s-.943-1.216-.943-2.078h1.976c0 .374.14.68.417.916s.63.356 1.04.356c.47 0 .836-.123 1.1-.37s.403-.58.403-.992c0-.993-.547-1.5-1.64-1.5h-1.046v-1.545z" class="E"/><g class="B D"><use xlink:href="#E" x="-321" y="-273.522"/><use xlink:href="#H" x="-321" y="-376"/><use xlink:href="#F" x="-321" y="-273.521"/><use xlink:href="#G" x="-321" y="-273.522"/></g><path d="M5 193.48h44v52H5z" class="C"/><path d="M23.476 223.48H21.5v-7.615l-2.358.73v-1.606l4.122-1.477h.212v9.967zm9.085-3.746h1.128v1.592H32.56v2.154h-1.975v-2.154h-4.08l-.09-1.244 4.15-6.555h1.996v6.207zm-4.177 0h2.2v-3.514l-.13.226-2.07 3.288z" class="E"/><g class="B D"><use xlink:href="#I"/><use xlink:href="#I" x="2.828"/><use xlink:href="#J"/><use xlink:href="#J" x="-2.829"/></g><path d="M198.48 49.077v-44h52v44z" class="C"/><path d="M226.978 32.077h-6.822v-1.354l3.22-3.432c.442-.483.768-.905.978-1.265s.32-.702.32-1.025c0-.442-.112-.788-.335-1.04s-.542-.383-.957-.383c-.447 0-.8.155-1.06.465s-.383.71-.383 1.2h-1.983c0-.606.144-1.16.43-1.66s.702-.893 1.23-1.176 1.128-.43 1.798-.43c1.026 0 1.82.246 2.386.738.57.492.855 1.187.855 2.085 0 .492-.128.994-.383 1.504s-.693 1.105-1.313 1.784l-2.262 2.386h4.28v1.593z" class="E"/><g class="B D"><use xlink:href="#I" x="-114"/><use xlink:href="#I" x="-111.172"/><use xlink:href="#J" x="-114"/><use xlink:href="#J" x="-116.829"/></g><path d="M84.48 49.077v-44h52v44z" class="C"/><path d="M110.954 32.077h-1.975v-7.615l-2.36.73v-1.606l4.122-1.477h.212v9.967z" class="E"/><g class="B D"><use xlink:href="#I" x="112"/><use xlink:href="#I" x="114.828"/><use xlink:href="#J" x="112"/><use xlink:href="#J" x="109.171"/></g><path d="M310.48 49.077v-44h52v44z" class="C"/><path d="M334.165 26.226h1.053c.5 0 .873-.125 1.114-.376s.363-.583.363-.998c0-.4-.12-.713-.363-.937-.237-.223-.565-.335-.984-.335-.378 0-.695.105-.95.314a.98.98 0 0 0-.383.807h-1.976c0-.52.14-.984.417-1.395s.675-.738 1.176-.97 1.062-.35 1.668-.35c1.053 0 1.878.253 2.475.76s.895 1.194.895 2.078c0 .456-.14.875-.417 1.258s-.642.677-1.094.882c.56.2.978.5 1.25.902s.417.875.417 1.422c0 .884-.323 1.593-.97 2.126s-1.495.8-2.557.8c-.993 0-1.807-.262-2.44-.786s-.944-1.217-.944-2.078h1.976c0 .374.14.68.417.916s.63.356 1.04.356c.47 0 .836-.123 1.1-.37.27-.25.404-.58.404-.99 0-.994-.547-1.5-1.64-1.5h-1.046v-1.545z" class="E"/><g class="B D"><use xlink:href="#I" x="720"/><use xlink:href="#I" x="722.828"/><use xlink:href="#J" x="720"/><use xlink:href="#J" x="717.171"/></g><path d="M918.48 49.077v-44h52v44z" class="C"/><path d="M940.954 32.077h-1.975v-7.615l-2.36.73v-1.606l4.122-1.477h.212v9.967zm10.008-8.846l-3.848 8.846h-2.085l3.855-8.353h-4.95v-1.6h7.027v1.107z" class="E"/><g class="B D"><use xlink:href="#I" x="831.002"/><use xlink:href="#I" x="833.832"/><use xlink:href="#J" x="831.003"/><use xlink:href="#J" x="828.183"/></g><path d="M1029.48 49.077v-44h52v44z" class="C"/><path d="M1051.95 32.077h-1.97v-7.615l-2.36.73v-1.606l4.12-1.477h.2v9.967zm9.73-7.308c0 .483-.12.912-.36 1.285s-.57.672-1 .895c.48.232.87.554 1.15.964s.42.884.42 1.436c0 .884-.3 1.584-.9 2.1s-1.42.766-2.45.766c-1.04 0-1.86-.258-2.46-.773-.6-.515-.9-1.212-.9-2.092 0-.55.14-1.032.42-1.442s.66-.73 1.14-.957c-.42-.223-.75-.522-1-.895-.23-.374-.35-.802-.35-1.285 0-.848.28-1.522.85-2.023.56-.506 1.33-.76 2.3-.76s1.73.25 2.3.752.85 1.174.85 2.03zm-1.77 4.436c0-.433-.12-.78-.37-1.04-.26-.26-.6-.4-1.02-.4-.42 0-.75.13-1 .4s-.38.6-.38 1.04c0 .424.13.766.37 1.025.25.26.6.4 1.03.4.43 0 .76-.125 1-.376.25-.25.37-.597.37-1.04zm-.2-4.34c0-.387-.1-.697-.3-.93-.2-.237-.5-.355-.87-.355s-.66.114-.86.342c-.2.228-.3.542-.3.943s.1.715.3.957c.2.242.5.362.87.362.37 0 .66-.12.86-.362s.3-.56.3-.957z" class="E"/><g class="B D"><use xlink:href="#E" x="-321" y="102.957"/><use xlink:href="#H" x="-321" y="0.479"/><use xlink:href="#F" x="-321" y="102.958"/><use xlink:href="#G" x="-321" y="102.957"/></g><path d="M5 569.958h44v52H5z" class="C"/><path d="M23.476 599.958H21.5v-7.616l-2.358.732v-1.607l4.122-1.476h.212v9.967zm9.94-4.116c0 1.377-.285 2.43-.855 3.16s-1.404 1.093-2.502 1.093c-1.085 0-1.914-.357-2.488-1.073s-.868-1.74-.882-3.076v-1.832c0-1.4.287-2.445.86-3.165s1.4-1.08 2.495-1.08 1.914.358 2.488 1.073.868 1.734.882 3.07v1.832zm-1.976-2.01c0-.825-.114-1.425-.342-1.798s-.574-.568-1.053-.568c-.465 0-.81.18-1.032.54s-.335.914-.35 1.675v2.42c0 .81.11 1.415.328 1.812s.58.588 1.066.588.832-.2 1.046-.568.326-.957.335-1.736v-2.365z" class="E"/><g class="B D"><use xlink:href="#E" x="488" y="-340"/><use xlink:href="#E" x="488" y="-337.172"/><use xlink:href="#F" x="488" y="-340"/><use xlink:href="#G" x="488" y="-340"/></g><path d="M814 127h44v52h-44z" class="C"/><path d="M835.5 157h-6.822v-1.354l3.22-3.43c.443-.483.768-.905.978-1.265s.32-.702.32-1.025c0-.442-.11-.79-.335-1.04s-.542-.383-.957-.383c-.446 0-.8.155-1.06.465s-.383.708-.383 1.2h-1.982c0-.606.143-1.16.43-1.66s.702-.894 1.23-1.176c.528-.287 1.128-.43 1.798-.43 1.025 0 1.82.246 2.385.738.57.493.855 1.188.855 2.085 0 .493-.128.994-.383 1.504s-.693 1.105-1.313 1.784l-2.262 2.386h4.28V157zm5.838-3.98c-.515.506-1.117.76-1.805.76-.88 0-1.583-.3-2.112-.902s-.793-1.422-.793-2.447a3.81 3.81 0 0 1 .424-1.791 3.13 3.13 0 0 1 1.196-1.272c.5-.305 1.085-.458 1.723-.458.656 0 1.24.164 1.75.492s.907.8 1.19 1.415.426 1.32.43 2.113v.73c0 1.66-.413 2.962-1.237 3.9s-1.994 1.454-3.507 1.518l-.486.007v-1.648l.438-.007c1.718-.077 2.648-.884 2.79-2.42zm-1.32-.75c.32 0 .592-.083.82-.247s.408-.362.526-.594v-.814c0-.67-.127-1.19-.383-1.558s-.597-.554-1.025-.554c-.396 0-.722.182-.977.547-.256.36-.383.813-.383 1.36s.123.99.37 1.34.6.52 1.053.52z" class="E"/><g class="B D"><use xlink:href="#H" x="488" y="-541.306"/><use xlink:href="#E" x="488" y="-433.173"/><use xlink:href="#G" x="488" y="-433.172"/><use xlink:href="#F" x="488" y="-438.838"/></g><path d="M814 31h44v52h-44z" class="C"/><path d="M830.687 55.148h1.052c.502 0 .873-.125 1.115-.376s.362-.583.362-.998c0-.4-.12-.713-.362-.937s-.566-.335-.985-.335c-.378 0-.695.105-.95.315s-.383.474-.383.807h-1.975c0-.52.14-.984.417-1.395s.674-.738 1.175-.97 1.062-.35 1.668-.35c1.053 0 1.878.253 2.475.76s.895 1.194.895 2.078c0 .456-.14.875-.417 1.258s-.642.677-1.093.882c.56.2.977.5 1.25.902s.417.875.417 1.422c0 .884-.324 1.593-.97 2.126s-1.495.8-2.557.8c-.993 0-1.807-.262-2.44-.786s-.943-1.217-.943-2.078h1.975c0 .374.14.68.417.916s.63.355 1.04.355c.47 0 .836-.123 1.1-.37s.403-.58.403-.99c0-.993-.547-1.5-1.64-1.5h-1.045v-1.545zm12.728 1.736c0 1.376-.285 2.43-.854 3.158s-1.404 1.094-2.502 1.094c-1.085 0-1.914-.358-2.49-1.073s-.868-1.74-.882-3.076v-1.832c0-1.4.288-2.445.862-3.165.58-.72 1.4-1.08 2.495-1.08s1.914.358 2.488 1.073.868 1.734.882 3.07v1.832zm-1.976-2c0-.825-.113-1.424-.34-1.798s-.575-.567-1.053-.567c-.465 0-.81.18-1.032.54s-.335.914-.35 1.675v2.42c0 .81.11 1.415.328 1.812s.58.588 1.067.588.83-.19 1.045-.567.326-.957.335-1.736v-2.365z" class="E"/><g class="B D"><use xlink:href="#E" x="488" y="-244.522"/><use xlink:href="#H" x="488" y="-347"/><use xlink:href="#F" x="488" y="-244.521"/><use xlink:href="#G" x="488" y="-244.522"/></g><path d="M814 222.48h44v52h-44z" class="C"/><path d="M835.5 252.48h-6.822v-1.354l3.22-3.43c.443-.483.768-.905.978-1.265s.32-.702.32-1.025c0-.442-.11-.79-.335-1.04-.223-.256-.542-.383-.957-.383-.446 0-.8.155-1.06.465s-.383.708-.383 1.2h-1.982c0-.607.143-1.16.43-1.662s.702-.893 1.23-1.175 1.128-.43 1.798-.43c1.025 0 1.82.246 2.385.738.57.492.855 1.187.855 2.085 0 .492-.128.994-.383 1.504s-.693 1.105-1.313 1.784l-2.262 2.386h4.28v1.593zm7.704-7.308c0 .483-.12.912-.362 1.285s-.574.673-.998.896a2.87 2.87 0 0 1 1.148.964c.283.405.424.884.424 1.435 0 .884-.3 1.584-.902 2.1s-1.42.766-2.454.766-1.855-.258-2.46-.773-.9-1.212-.9-2.092c0-.55.142-1.032.424-1.442s.663-.73 1.142-.957c-.424-.223-.757-.522-.998-.896s-.356-.802-.356-1.285c0-.847.283-1.522.848-2.023s1.333-.76 2.304-.76 1.732.25 2.297.752.854 1.173.854 2.03zm-1.77 4.437c0-.433-.126-.78-.376-1.04s-.588-.4-1.012-.4c-.42 0-.754.13-1.005.4s-.376.6-.376 1.04c0 .424.123.765.37 1.025s.588.4 1.026.4c.428 0 .763-.126 1.004-.376.247-.25.37-.597.37-1.04zm-.205-4.34c0-.387-.103-.697-.308-.93s-.495-.355-.868-.355-.656.114-.862.342-.307.542-.307.943.102.715.307.957.495.362.87.362.66-.12.86-.362.308-.56.308-.957z" class="E"/><g class="B D"><use xlink:href="#E" x="489" y="30"/><use xlink:href="#E" x="489" y="32.828"/><use xlink:href="#F" x="489" y="30"/><use xlink:href="#G" x="489" y="30"/></g><path d="M815 497h44v52h-44z" class="C"/><path d="M836.5 527h-6.822v-1.354l3.22-3.43c.443-.483.768-.905.978-1.265s.32-.702.32-1.025c0-.442-.11-.79-.335-1.04s-.542-.383-.957-.383c-.446 0-.8.155-1.06.465s-.383.708-.383 1.2h-1.982c0-.606.143-1.16.43-1.66s.702-.894 1.23-1.176 1.128-.43 1.798-.43c1.025 0 1.82.246 2.385.738.57.493.855 1.188.855 2.085 0 .493-.128.994-.383 1.504s-.693 1.105-1.313 1.784l-2.262 2.386h4.28V527zm6.576-10.056v1.627h-.19c-.893.014-1.613.246-2.16.698s-.87 1.077-.978 1.88c.53-.537 1.196-.806 2.003-.806.866 0 1.554.3 2.064.93s.766 1.436.766 2.448a3.64 3.64 0 0 1-.424 1.757 2.98 2.98 0 0 1-1.189 1.223c-.51.292-1.09.438-1.737.438-1.048 0-1.895-.365-2.542-1.094s-.964-1.702-.964-2.92v-.71c0-1.08.202-2.032.608-2.857.4-.83.996-1.47 1.757-1.92.766-.456 1.652-.686 2.66-.69h.328zm-1.928 4.984c-.32 0-.608.084-.868.253a1.48 1.48 0 0 0-.574.656v.6c0 .66.13 1.18.4 1.552s.624.554 1.093.554c.424 0 .766-.166 1.026-.5s.396-.773.396-1.306c0-.542-.132-.98-.396-1.312s-.62-.5-1.067-.5z" class="E"/><g class="B D"><use xlink:href="#E" x="489" y="126.478"/><use xlink:href="#H" x="489" y="24"/><use xlink:href="#F" x="489" y="126.479"/><use xlink:href="#G" x="489" y="126.478"/></g><path d="M815 593.48h44v52h-44z" class="C"/><path d="M836.5 623.48h-6.822v-1.354l3.22-3.43c.443-.483.768-.905.978-1.265s.32-.702.32-1.025c0-.442-.11-.79-.335-1.04-.223-.256-.542-.383-.957-.383-.446 0-.8.155-1.06.465-.255.305-.383.708-.383 1.2h-1.982c0-.607.143-1.16.43-1.662s.702-.893 1.23-1.175c.528-.287 1.128-.43 1.798-.43 1.025 0 1.82.246 2.385.738.57.492.855 1.187.855 2.085 0 .492-.128.994-.383 1.504s-.693 1.105-1.313 1.784l-2.262 2.386h4.28v1.593zm1.51-4.895l.574-5.058h5.578v1.647h-3.958l-.246 2.14c.47-.25.968-.376 1.497-.376.948 0 1.69.294 2.23.882s.806 1.4.806 2.467c0 .643-.136 1.22-.4 1.73s-.656.9-1.162 1.183-1.103.417-1.79.417c-.602 0-1.16-.12-1.675-.363s-.923-.6-1.223-1.032-.454-.946-.472-1.51h1.955c.04.415.184.74.43.97s.576.342.977.342c.447 0 .79-.16 1.032-.48s.363-.78.363-1.367c0-.565-.14-.998-.417-1.3s-.673-.45-1.183-.45c-.47 0-.85.123-1.142.37l-.19.178-1.572-.4z" class="E"/><g class="B"><g stroke-width="5"><path d="M568.635 675.5c.675-6.452 3.834-14.205 8.728-20.64 4.954-6.515 11.333-11.238 18.137-12.185V675.5h-26.865zM1137.5 75.636c-6.45.674-14.2 3.834-20.64 8.727-6.52 4.954-11.24 11.333-12.2 18.137h32.83V75.636zm-730-14c-6.452.674-14.205 3.834-20.64 8.727-6.515 4.954-11.238 11.333-12.185 18.137H407.5V61.636zm-405 14c6.452.674 14.205 3.834 20.64 8.727 6.515 4.954 11.238 11.333 12.185 18.137H2.5V75.636z"/></g></g><defs><path id="A" d="M200.38 283.707l13.63 13.03-9.674 10.12-13.63-13.03z"/><path id="B" d="M166.338 345.856l-13.63-13.03 9.674-10.12 13.63 13.03z"/><path id="C" d="M214.365 332.886l-13.03 13.63-10.12-9.674 13.03-13.63z"/><path id="D" d="M151.707 296.338l13.03-13.63 10.12 9.674-13.03 13.63z"/><path id="E" d="M338.698 459.16l18.85-.425.316 13.996-18.85.425z"/><path id="F" d="M357.422 528.038l-18.85.425-.316-13.996 18.85-.425z"/><path id="G" d="M357.422 525.21l-18.85.425-.316-13.997 18.85-.425z"/><path id="H" d="M338.698 564.466l18.85-.425.316 13.997-18.85.425z"/><path id="I" d="M190.638 36.38l-.425-18.85 13.996-.316.425 18.852z"/><path id="J" d="M259.517 17.655l.425 18.852-13.996.316-.425-18.852z"/></defs></svg>