<svg width="400" height="92" viewBox="0 0 400 92" fill="none" xmlns="http://www.w3.org/2000/svg">
<path fill-rule="evenodd" clip-rule="evenodd" d="M44.167 0.167C44.167 0.26 43.698 0.333 43.095 0.333C42.365 0.333 41.944 0.413 41.774 0.583C41.624 0.733 41.216 0.833 40.757 0.833C40.229 0.833 39.96 0.911 39.894 1.083C39.839 1.226 39.59 1.333 39.316 1.333C38.998 1.333 38.833 1.419 38.833 1.583C38.833 1.757 38.659 1.833 38.262 1.833C37.948 1.833 37.587 1.937 37.461 2.063C37.334 2.189 36.992 2.345 36.699 2.41C36.405 2.474 36.167 2.633 36.167 2.763C36.167 2.893 36.054 3 35.917 3C35.779 3 35.667 3.112 35.667 3.25C35.667 3.417 35.5 3.5 35.167 3.5C34.833 3.5 34.667 3.583 34.667 3.75C34.667 3.917 34.499 4 34.161 4C33.866 4 33.616 4.104 33.56 4.25C33.508 4.388 33.36 4.5 33.232 4.5C33.104 4.5 33 4.612 33 4.75C33 4.887 32.887 5 32.75 5C32.612 5 32.5 5.112 32.5 5.25C32.5 5.388 32.387 5.5 32.25 5.5C32.112 5.5 31.85 5.65 31.667 5.833C31.483 6.017 31.256 6.167 31.161 6.167C31.067 6.167 30.946 6.279 30.894 6.417C30.841 6.554 30.693 6.667 30.566 6.667C30.438 6.667 30.333 6.779 30.333 6.917C30.333 7.054 30.221 7.167 30.083 7.167C29.946 7.167 29.833 7.24 29.833 7.329C29.833 7.418 29.496 7.829 29.083 8.241C28.671 8.654 28.333 9.052 28.333 9.125C28.333 9.199 28.183 9.388 28 9.545C27.817 9.702 27.667 9.943 27.667 10.082C27.667 10.22 27.554 10.333 27.417 10.333C27.279 10.333 27.167 10.438 27.167 10.566C27.167 10.693 27.054 10.841 26.917 10.894C26.779 10.946 26.667 11.179 26.667 11.411C26.667 11.675 26.573 11.833 26.417 11.833C26.279 11.833 26.167 11.938 26.167 12.066C26.167 12.193 26.054 12.341 25.917 12.394C25.779 12.446 25.667 12.604 25.667 12.745C25.667 12.885 25.554 13 25.417 13C25.279 13 25.167 13.112 25.167 13.25C25.167 13.387 25.052 13.5 24.911 13.5C24.771 13.5 24.613 13.613 24.56 13.75C24.506 13.893 24.257 14 23.982 14C23.665 14 23.5 14.085 23.5 14.25C23.5 14.45 23.249 14.5 22.245 14.5C21.283 14.5 20.967 14.558 20.894 14.75C20.825 14.93 20.543 15 19.894 15C19.244 15 18.963 15.07 18.894 15.25C18.841 15.388 18.599 15.501 18.357 15.502C17.66 15.506 17.167 15.686 17.167 15.936C17.167 16.081 16.981 16.167 16.667 16.167C16.333 16.167 16.167 16.25 16.167 16.417C16.167 16.591 15.991 16.667 15.583 16.667C15.176 16.667 15 16.742 15 16.917C15 17.083 14.833 17.167 14.5 17.167C14.167 17.167 14 17.25 14 17.417C14 17.583 13.833 17.667 13.5 17.667C13.179 17.667 13 17.751 13 17.903C13 18.034 12.775 18.19 12.5 18.25C12.225 18.31 12 18.429 12 18.513C12 18.598 11.88 18.667 11.734 18.667C11.588 18.667 11.43 18.817 11.382 19C11.334 19.183 11.191 19.333 11.064 19.333C10.937 19.333 10.833 19.446 10.833 19.583C10.833 19.74 10.675 19.833 10.411 19.833C10.179 19.833 9.946 19.946 9.894 20.083C9.841 20.221 9.693 20.333 9.566 20.333C9.438 20.333 9.333 20.446 9.333 20.583C9.333 20.721 9.25 20.833 9.147 20.833C8.905 20.833 7.667 22.071 7.667 22.314C7.667 22.416 7.554 22.5 7.417 22.5C7.279 22.5 7.167 22.613 7.167 22.75C7.167 22.887 7.054 23 6.917 23C6.779 23 6.667 23.113 6.667 23.25C6.667 23.387 6.554 23.5 6.417 23.5C6.279 23.5 6.167 23.613 6.167 23.75C6.167 23.887 6.09 24 5.996 24C5.903 24 5.736 24.206 5.625 24.458C5.514 24.71 5.328 24.977 5.212 25.05C5.095 25.123 5 25.292 5 25.425C5 25.558 4.904 25.667 4.787 25.667C4.67 25.667 4.427 26.003 4.246 26.415C4.065 26.827 3.823 27.164 3.708 27.165C3.588 27.166 3.5 27.379 3.5 27.667C3.5 28 3.417 28.167 3.25 28.167C3.075 28.167 3 28.343 3 28.75C3 29.222 2.937 29.333 2.667 29.333C2.407 29.333 2.333 29.444 2.333 29.833C2.333 30.167 2.25 30.333 2.083 30.333C1.919 30.333 1.833 30.498 1.833 30.816C1.833 31.09 1.726 31.339 1.583 31.394C1.413 31.459 1.333 31.725 1.333 32.227C1.333 32.729 1.253 32.995 1.083 33.06C0.903 33.13 0.833 33.413 0.833 34.083C0.833 34.754 0.764 35.037 0.583 35.106C0.384 35.183 0.333 35.539 0.333 36.851C0.333 37.839 0.267 38.5 0.167 38.5C0.063 38.5 0 39.5 0 41.167C0 42.833 0.063 43.833 0.167 43.833C0.267 43.833 0.333 44.494 0.333 45.482C0.333 46.794 0.384 47.151 0.583 47.227C0.764 47.296 0.833 47.58 0.833 48.25C0.833 48.92 0.903 49.204 1.083 49.273C1.253 49.338 1.333 49.604 1.333 50.101C1.333 50.641 1.399 50.833 1.583 50.833C1.764 50.833 1.833 51.019 1.833 51.505C1.833 51.949 1.918 52.21 2.083 52.273C2.228 52.329 2.333 52.578 2.333 52.867C2.333 53.224 2.427 53.389 2.667 53.452C2.903 53.513 3 53.679 3 54.019C3 54.335 3.086 54.5 3.25 54.5C3.417 54.5 3.5 54.667 3.5 55C3.5 55.333 3.583 55.5 3.75 55.5C3.889 55.5 4 55.648 4 55.833C4 56.019 4.111 56.167 4.25 56.167C4.406 56.167 4.5 56.325 4.5 56.589C4.5 56.821 4.613 57.054 4.75 57.106C4.888 57.159 5 57.307 5 57.434C5 57.562 5.112 57.667 5.25 57.667C5.388 57.667 5.5 57.779 5.5 57.915C5.5 58.052 5.65 58.258 5.833 58.372C6.017 58.487 6.167 58.677 6.167 58.796C6.167 58.914 6.392 59.231 6.667 59.5C6.942 59.769 7.167 60.066 7.167 60.161C7.167 60.256 7.279 60.333 7.417 60.333C7.554 60.333 7.667 60.446 7.667 60.583C7.667 60.721 7.779 60.833 7.917 60.833C8.054 60.833 8.167 60.946 8.167 61.083C8.167 61.221 8.282 61.333 8.422 61.333C8.562 61.333 8.72 61.446 8.773 61.583C8.826 61.721 8.973 61.833 9.101 61.833C9.229 61.833 9.333 61.94 9.333 62.07C9.333 62.2 9.558 62.356 9.833 62.417C10.108 62.477 10.333 62.633 10.333 62.763C10.333 62.893 10.404 63 10.49 63C10.576 63 10.892 63.225 11.194 63.5C11.495 63.775 11.912 64 12.12 64C12.347 64 12.5 64.101 12.5 64.25C12.5 64.387 12.642 64.5 12.816 64.5C12.989 64.5 13.174 64.612 13.227 64.75C13.28 64.887 13.438 65 13.578 65C13.718 65 13.983 65.15 14.167 65.333C14.35 65.517 14.65 65.667 14.833 65.667C15.017 65.667 15.167 65.74 15.167 65.83C15.167 65.92 15.373 66.044 15.625 66.105C15.877 66.166 16.231 66.318 16.412 66.442C16.593 66.565 16.874 66.667 17.037 66.667C17.2 66.667 17.333 66.74 17.333 66.83C17.333 66.92 17.521 67.041 17.75 67.098L18.167 67.203L18.169 77.56C18.171 88.077 18.194 88.667 18.603 88.667C18.73 88.667 18.833 88.817 18.833 89C18.833 89.192 18.944 89.333 19.095 89.333C19.239 89.333 19.47 89.446 19.607 89.583C19.745 89.721 20.069 89.833 20.327 89.833C20.592 89.833 20.84 89.943 20.894 90.083C20.967 90.275 21.283 90.333 22.245 90.333C23.249 90.333 23.5 90.383 23.5 90.583C23.5 90.788 23.785 90.833 25.066 90.833C26.303 90.833 26.651 90.886 26.727 91.083C26.807 91.291 27.264 91.333 29.411 91.333C31.026 91.333 32 91.396 32 91.5C32 91.61 37.611 91.667 48.5 91.667C59.389 91.667 65 91.61 65 91.5C65 91.395 66.132 91.333 68.063 91.333C70.582 91.333 71.163 91.289 71.333 91.083C71.489 90.895 71.909 90.833 73.026 90.833C74.192 90.833 74.531 90.78 74.606 90.583C74.682 90.387 75.021 90.333 76.19 90.333C77.358 90.333 77.698 90.28 77.773 90.083C77.836 89.918 78.098 89.833 78.544 89.833C79.115 89.833 79.316 89.73 79.859 89.16L80.5 88.486V77.826V67.167H80.922C81.154 67.167 81.387 67.054 81.44 66.917C81.493 66.777 81.741 66.667 82 66.667C82.259 66.667 82.507 66.556 82.56 66.417C82.613 66.279 82.848 66.167 83.083 66.167C83.318 66.167 83.554 66.054 83.606 65.917C83.659 65.779 83.889 65.667 84.117 65.667C84.391 65.667 84.561 65.554 84.618 65.333C84.679 65.101 84.846 65 85.168 65C85.426 65 85.674 64.889 85.727 64.75C85.78 64.612 85.929 64.5 86.058 64.5C86.187 64.5 86.386 64.387 86.5 64.25C86.614 64.112 86.848 64 87.02 64C87.193 64 87.333 63.887 87.333 63.75C87.333 63.612 87.446 63.5 87.583 63.5C87.721 63.5 87.833 63.387 87.833 63.25C87.833 63.102 87.986 63 88.209 63C88.426 63 88.812 62.753 89.121 62.417C89.415 62.096 89.734 61.833 89.828 61.833C89.923 61.833 90 61.721 90 61.583C90 61.446 90.112 61.333 90.25 61.333C90.388 61.333 90.5 61.221 90.5 61.083C90.5 60.946 90.612 60.833 90.75 60.833C90.888 60.833 91 60.721 91 60.583C91 60.446 91.112 60.333 91.25 60.333C91.388 60.333 91.5 60.221 91.5 60.083C91.5 59.946 91.594 59.832 91.708 59.83C91.962 59.827 92.667 59.108 92.667 58.852C92.667 58.75 92.779 58.667 92.917 58.667C93.054 58.667 93.167 58.586 93.167 58.488C93.167 58.39 93.279 58.197 93.417 58.06C93.554 57.922 93.667 57.665 93.667 57.488C93.667 57.311 93.779 57.167 93.917 57.167C94.054 57.167 94.167 57.062 94.167 56.934C94.167 56.807 94.279 56.659 94.417 56.606C94.563 56.55 94.667 56.301 94.667 56.005C94.667 55.636 94.745 55.499 94.958 55.498C95.137 55.497 95.378 55.223 95.581 54.79C95.763 54.401 96.006 54.023 96.122 53.95C96.238 53.877 96.333 53.604 96.333 53.343C96.333 53.075 96.442 52.827 96.583 52.773C96.748 52.71 96.833 52.449 96.833 52.005C96.833 51.519 96.902 51.333 97.083 51.333C97.258 51.333 97.333 51.157 97.333 50.75C97.333 50.343 97.409 50.167 97.583 50.167C97.777 50.167 97.833 49.947 97.833 49.186C97.833 48.346 97.881 48.193 98.167 48.118C98.46 48.042 98.5 47.891 98.5 46.869C98.5 46.04 98.572 45.648 98.75 45.5C99.103 45.207 99.122 37.916 98.771 37.412C98.645 37.231 98.51 36.57 98.47 35.942C98.417 35.093 98.326 34.759 98.116 34.642C97.916 34.53 97.833 34.266 97.833 33.742C97.833 33.194 97.768 33 97.583 33C97.398 33 97.333 32.805 97.333 32.245C97.333 31.727 97.255 31.459 97.083 31.394C96.941 31.339 96.833 31.09 96.833 30.816C96.833 30.498 96.748 30.333 96.583 30.333C96.41 30.333 96.333 30.159 96.333 29.762C96.333 29.448 96.221 29.078 96.083 28.94C95.946 28.803 95.833 28.619 95.833 28.532C95.833 28.445 95.721 28.281 95.583 28.167C95.446 28.053 95.333 27.811 95.333 27.631C95.333 27.442 95.191 27.265 95 27.215C94.764 27.153 94.667 26.988 94.667 26.647C94.667 26.348 94.579 26.167 94.435 26.167C94.307 26.167 94.156 25.979 94.098 25.75C94.041 25.521 93.92 25.333 93.83 25.333C93.74 25.333 93.667 25.181 93.667 24.995C93.667 24.809 93.554 24.613 93.417 24.56C93.279 24.508 93.167 24.36 93.167 24.232C93.167 24.104 93.054 24 92.917 24C92.779 24 92.667 23.887 92.667 23.75C92.667 23.613 92.56 23.5 92.43 23.5C92.3 23.5 92.144 23.275 92.083 23C92.023 22.725 91.906 22.5 91.823 22.5C91.74 22.5 91.418 22.256 91.107 21.958C90.102 20.995 89.305 20.333 89.151 20.333C89.068 20.333 89 20.221 89 20.083C89 19.944 88.852 19.833 88.667 19.833C88.481 19.833 88.333 19.722 88.333 19.583C88.333 19.445 88.185 19.333 88.001 19.333C87.819 19.333 87.576 19.183 87.461 19C87.347 18.817 87.167 18.667 87.061 18.667C86.955 18.667 86.826 18.554 86.773 18.417C86.72 18.279 86.533 18.167 86.356 18.167C86.18 18.167 85.992 18.054 85.94 17.917C85.887 17.779 85.71 17.664 85.547 17.661C85.384 17.658 85.104 17.546 84.926 17.411C84.749 17.277 84.475 17.167 84.319 17.167C84.163 17.167 83.992 17.054 83.94 16.917C83.887 16.779 83.662 16.667 83.44 16.667C83.217 16.667 82.992 16.554 82.94 16.417C82.876 16.252 82.615 16.167 82.172 16.167C81.711 16.167 81.5 16.094 81.5 15.936C81.5 15.694 81.011 15.506 80.37 15.502C80.161 15.501 79.946 15.387 79.894 15.25C79.823 15.067 79.535 15 78.816 15C78.054 15 77.833 14.944 77.833 14.75C77.833 14.554 77.604 14.5 76.768 14.5C75.974 14.5 75.678 14.436 75.606 14.25C75.543 14.085 75.282 14 74.839 14C74.352 14 74.167 13.931 74.167 13.75C74.167 13.612 74.054 13.5 73.917 13.5C73.779 13.5 73.667 13.387 73.667 13.25C73.667 13.112 73.554 13 73.417 13C73.279 13 73.167 12.887 73.167 12.75C73.167 12.612 73.017 12.35 72.833 12.167C72.65 11.983 72.5 11.721 72.5 11.583C72.5 11.446 72.387 11.333 72.25 11.333C72.112 11.333 72 11.221 72 11.083C72 10.946 71.887 10.833 71.75 10.833C71.583 10.833 71.5 10.667 71.5 10.333C71.5 10 71.417 9.833 71.25 9.833C71.112 9.833 71 9.721 71 9.583C71 9.446 70.887 9.333 70.75 9.333C70.612 9.333 70.5 9.25 70.5 9.148C70.5 8.892 69.796 8.173 69.542 8.17C69.427 8.168 69.333 8.054 69.333 7.917C69.333 7.779 69.221 7.667 69.083 7.667C68.946 7.667 68.833 7.554 68.833 7.417C68.833 7.279 68.721 7.167 68.583 7.167C68.446 7.167 68.333 7.054 68.333 6.917C68.333 6.779 68.221 6.667 68.083 6.667C67.946 6.667 67.833 6.554 67.833 6.417C67.833 6.279 67.726 6.167 67.595 6.167C67.463 6.167 67.308 6.017 67.25 5.833C67.192 5.65 67.037 5.5 66.905 5.5C66.774 5.5 66.667 5.421 66.667 5.325C66.667 5.228 66.442 5.071 66.167 4.975C65.892 4.879 65.667 4.733 65.667 4.65C65.667 4.568 65.554 4.5 65.417 4.5C65.279 4.5 65.167 4.387 65.167 4.25C65.167 4.083 65 4 64.667 4C64.333 4 64.167 3.917 64.167 3.75C64.167 3.612 64.062 3.5 63.934 3.5C63.807 3.5 63.659 3.388 63.606 3.25C63.551 3.107 63.303 3 63.025 3C62.679 3 62.514 2.904 62.452 2.667C62.394 2.446 62.224 2.333 61.95 2.333C61.722 2.333 61.492 2.221 61.44 2.083C61.384 1.937 61.134 1.833 60.839 1.833C60.501 1.833 60.333 1.751 60.333 1.583C60.333 1.399 60.141 1.333 59.601 1.333C59.104 1.333 58.838 1.253 58.773 1.083C58.71 0.918 58.448 0.833 58 0.833C57.552 0.833 57.29 0.749 57.227 0.583C57.155 0.395 56.85 0.333 55.982 0.333C55.327 0.333 54.833 0.262 54.833 0.167C54.833 0.059 52.944 0 49.5 0C46.056 0 44.167 0.059 44.167 0.167ZM53.06 5.75C53.131 5.933 53.419 6 54.142 6C54.988 6 55.14 6.047 55.215 6.333C55.276 6.566 55.445 6.668 55.776 6.672C56.037 6.675 56.396 6.787 56.574 6.922C56.751 7.057 57.108 7.167 57.365 7.167C57.67 7.167 57.833 7.254 57.833 7.417C57.833 7.583 58 7.667 58.333 7.667C58.667 7.667 58.833 7.75 58.833 7.917C58.833 8.091 59.009 8.167 59.417 8.167C59.824 8.167 60 8.242 60 8.417C60 8.554 60.104 8.667 60.232 8.667C60.36 8.667 60.508 8.779 60.56 8.917C60.613 9.054 60.846 9.167 61.078 9.167C61.342 9.167 61.5 9.26 61.5 9.417C61.5 9.554 61.578 9.667 61.672 9.667C61.767 9.667 62.062 9.889 62.327 10.161C62.593 10.432 63.003 10.703 63.238 10.762C63.474 10.821 63.667 10.974 63.667 11.101C63.667 11.229 63.779 11.333 63.917 11.333C64.054 11.333 64.167 11.446 64.167 11.583C64.167 11.721 64.279 11.833 64.417 11.833C64.554 11.833 64.667 11.946 64.667 12.083C64.667 12.221 64.771 12.333 64.899 12.333C65.026 12.333 65.173 12.502 65.226 12.708C65.278 12.915 65.549 13.332 65.827 13.635C66.106 13.939 66.333 14.258 66.333 14.344C66.333 14.43 66.446 14.5 66.583 14.5C66.74 14.5 66.833 14.658 66.833 14.922C66.833 15.154 66.946 15.387 67.083 15.44C67.221 15.492 67.333 15.64 67.333 15.768C67.333 15.896 67.446 16 67.583 16C67.758 16 67.833 16.176 67.833 16.583C67.833 16.991 67.909 17.167 68.083 17.167C68.24 17.167 68.333 17.325 68.333 17.589C68.333 17.821 68.446 18.054 68.583 18.106C68.721 18.159 68.834 18.363 68.836 18.559C68.84 19.179 69.031 19.667 69.269 19.667C69.431 19.667 69.5 19.887 69.5 20.399C69.5 20.896 69.58 21.162 69.75 21.227C69.933 21.297 70 21.586 70 22.31C70 23.034 70.067 23.323 70.25 23.394C70.454 23.472 70.5 23.875 70.5 25.578C70.5 27.323 70.541 27.667 70.75 27.667C70.917 27.667 71 27.833 71 28.167C71 28.483 71.085 28.667 71.232 28.667C71.36 28.667 71.508 28.779 71.56 28.917C71.702 29.285 75.465 29.285 75.606 28.917C75.659 28.779 75.805 28.667 75.931 28.667C76.057 28.667 76.211 28.46 76.272 28.208C76.334 27.956 76.467 27.697 76.567 27.631C76.876 27.431 76.913 24.437 76.611 24.135C76.431 23.955 76.343 23.44 76.304 22.357L76.25 20.833H76.804C77.108 20.833 77.47 20.946 77.607 21.083C77.745 21.221 78.106 21.333 78.411 21.333C78.749 21.333 79.002 21.431 79.06 21.583C79.113 21.721 79.337 21.833 79.558 21.833C79.779 21.833 80.053 21.946 80.167 22.083C80.281 22.221 80.517 22.333 80.692 22.333C80.867 22.333 81.054 22.446 81.106 22.583C81.16 22.722 81.407 22.833 81.665 22.833C81.988 22.833 82.154 22.934 82.215 23.167C82.268 23.368 82.442 23.5 82.656 23.5C82.851 23.5 83.054 23.613 83.106 23.75C83.159 23.887 83.307 24 83.434 24C83.562 24 83.667 24.113 83.667 24.25C83.667 24.387 83.782 24.5 83.922 24.5C84.062 24.5 84.22 24.613 84.273 24.75C84.326 24.887 84.473 25 84.601 25C84.729 25 84.833 25.113 84.833 25.25C84.833 25.387 84.938 25.5 85.066 25.5C85.193 25.5 85.341 25.613 85.394 25.75C85.446 25.887 85.586 26 85.705 26C85.823 26 86.013 26.15 86.128 26.333C86.242 26.517 86.448 26.667 86.585 26.667C86.721 26.667 86.833 26.807 86.833 26.98C86.833 27.152 86.946 27.386 87.083 27.5C87.221 27.614 87.333 27.811 87.333 27.937C87.333 28.063 87.446 28.167 87.583 28.167C87.721 28.167 87.833 28.279 87.833 28.417C87.833 28.556 87.981 28.667 88.167 28.667C88.352 28.667 88.5 28.778 88.5 28.917C88.5 29.054 88.612 29.167 88.75 29.167C88.925 29.167 89 29.343 89 29.75C89 30.157 89.075 30.333 89.25 30.333C89.417 30.333 89.5 30.5 89.5 30.833C89.5 31.167 89.583 31.333 89.75 31.333C89.906 31.333 90 31.491 90 31.755C90 31.987 90.112 32.22 90.25 32.273C90.388 32.326 90.5 32.506 90.5 32.673C90.5 32.84 90.612 33.089 90.75 33.226C90.888 33.364 91 33.676 91 33.92C91 34.224 91.105 34.392 91.333 34.452C91.608 34.523 91.667 34.679 91.667 35.332C91.667 35.834 91.759 36.202 91.917 36.333C92.106 36.491 92.167 36.918 92.167 38.104C92.167 39.382 92.212 39.667 92.417 39.667C92.615 39.667 92.667 39.905 92.667 40.816C92.667 41.683 92.605 41.988 92.417 42.06C92.216 42.137 92.167 42.505 92.167 43.911C92.167 45.361 92.123 45.667 91.917 45.667C91.729 45.667 91.667 45.868 91.667 46.474C91.667 47.07 91.579 47.361 91.333 47.583C91.15 47.749 91 48.09 91 48.341C91 48.593 90.888 48.841 90.75 48.894C90.593 48.954 90.5 49.209 90.5 49.583C90.5 49.957 90.407 50.213 90.25 50.273C90.112 50.326 90 50.502 90 50.664C90 50.826 89.887 51.053 89.75 51.167C89.612 51.281 89.5 51.515 89.5 51.687C89.5 51.859 89.388 52 89.25 52C89.083 52 89 52.167 89 52.5C89 52.833 88.917 53 88.75 53C88.612 53 88.5 53.112 88.5 53.25C88.5 53.387 88.388 53.5 88.25 53.5C88.112 53.5 88 53.612 88 53.75C88 53.888 87.85 54.15 87.667 54.333C87.483 54.517 87.333 54.779 87.333 54.917C87.333 55.054 87.221 55.167 87.083 55.167C86.946 55.167 86.833 55.279 86.833 55.417C86.833 55.554 86.721 55.667 86.583 55.667C86.446 55.667 86.333 55.779 86.333 55.917C86.333 56.054 86.221 56.167 86.083 56.167C85.946 56.167 85.833 56.279 85.833 56.417C85.833 56.554 85.721 56.667 85.583 56.667C85.446 56.667 85.333 56.779 85.333 56.917C85.333 57.054 85.218 57.167 85.078 57.167C84.938 57.167 84.78 57.279 84.727 57.417C84.674 57.554 84.569 57.667 84.494 57.667C84.221 57.667 83.181 58.422 83.174 58.625C83.17 58.74 83.054 58.833 82.917 58.833C82.779 58.833 82.667 58.946 82.667 59.083C82.667 59.251 82.499 59.333 82.161 59.333C81.866 59.333 81.616 59.437 81.56 59.583C81.508 59.721 81.283 59.833 81.06 59.833C80.838 59.833 80.613 59.946 80.56 60.083C80.508 60.221 80.283 60.333 80.06 60.333C79.838 60.333 79.613 60.446 79.56 60.583C79.507 60.722 79.259 60.833 79.003 60.833C78.749 60.833 78.447 60.946 78.333 61.083C78.219 61.221 77.866 61.333 77.547 61.333C77.109 61.333 76.948 61.414 76.882 61.667C76.806 61.956 76.654 62 75.731 62C74.896 62 74.667 62.054 74.667 62.25C74.667 62.387 74.554 62.5 74.417 62.5C74.197 62.5 74.167 63.778 74.167 73V83.5H71.768C69.789 83.5 69.352 83.456 69.273 83.25C69.192 83.038 68.596 83 65.327 83C62.126 83 61.434 82.958 61.226 82.75C60.848 82.372 37.48 82.372 37.167 82.75C36.993 82.959 36.334 83 33.167 83C29.999 83 29.34 83.041 29.167 83.25C28.999 83.452 28.48 83.5 26.48 83.5H24V72.75V62H22.984C22.109 62 21.957 61.954 21.882 61.667C21.811 61.397 21.654 61.333 21.064 61.333C20.526 61.333 20.333 61.268 20.333 61.083C20.333 60.91 20.159 60.833 19.768 60.833C19.419 60.833 19.166 60.738 19.106 60.583C19.054 60.446 18.864 60.333 18.685 60.333C18.295 60.333 17.303 59.833 17.117 59.542C17.043 59.427 16.808 59.333 16.593 59.333C16.378 59.333 16.159 59.221 16.106 59.083C16.054 58.946 15.876 58.833 15.712 58.833C15.548 58.833 15.32 58.683 15.205 58.5C15.091 58.317 14.923 58.167 14.832 58.167C14.617 58.167 14 57.549 14 57.333C14 57.242 13.896 57.167 13.768 57.167C13.64 57.167 13.492 57.054 13.44 56.917C13.387 56.779 13.229 56.667 13.089 56.667C12.948 56.667 12.833 56.59 12.833 56.496C12.833 56.402 12.644 56.253 12.414 56.166C12.183 56.078 11.922 55.817 11.834 55.586C11.747 55.356 11.598 55.167 11.504 55.167C11.41 55.167 11.333 55.062 11.333 54.934C11.333 54.807 11.221 54.659 11.083 54.606C10.946 54.554 10.833 54.396 10.833 54.255C10.833 54.115 10.721 54 10.583 54C10.446 54 10.333 53.887 10.333 53.75C10.333 53.612 10.221 53.5 10.083 53.5C9.946 53.5 9.833 53.387 9.833 53.25C9.833 53.112 9.683 52.85 9.5 52.667C9.317 52.483 9.167 52.258 9.167 52.167C9.167 52.075 9.054 52 8.917 52C8.749 52 8.667 51.833 8.667 51.495C8.667 51.199 8.563 50.95 8.417 50.894C8.279 50.841 8.167 50.616 8.167 50.394C8.167 50.171 8.054 49.946 7.917 49.894C7.774 49.839 7.667 49.59 7.667 49.316C7.667 48.998 7.581 48.833 7.417 48.833C7.231 48.833 7.167 48.638 7.167 48.078C7.167 47.561 7.088 47.293 6.917 47.227C6.747 47.162 6.667 46.896 6.667 46.399C6.667 45.889 6.565 45.565 6.333 45.333C5.819 44.819 5.819 37.716 6.333 37.25C6.588 37.02 6.667 36.737 6.667 36.052C6.667 35.41 6.737 35.129 6.917 35.06C7.061 35.005 7.167 34.756 7.167 34.47C7.167 34.199 7.279 33.864 7.417 33.726C7.554 33.589 7.667 33.219 7.667 32.905C7.667 32.508 7.743 32.333 7.917 32.333C8.083 32.333 8.167 32.167 8.167 31.833C8.167 31.5 8.25 31.333 8.417 31.333C8.583 31.333 8.667 31.167 8.667 30.833C8.667 30.5 8.75 30.333 8.917 30.333C9.054 30.333 9.167 30.229 9.167 30.101C9.167 29.973 9.273 29.828 9.402 29.779C9.631 29.691 10.047 29.055 10.265 28.458C10.324 28.298 10.476 28.167 10.603 28.167C10.73 28.167 10.833 28.089 10.833 27.994C10.833 27.9 11.058 27.602 11.333 27.333C11.608 27.065 11.833 26.767 11.833 26.672C11.833 26.578 11.946 26.5 12.083 26.5C12.221 26.5 12.333 26.387 12.333 26.25C12.333 26.113 12.438 26 12.566 26C12.693 26 12.841 25.887 12.894 25.75C12.946 25.613 13.104 25.5 13.245 25.5C13.385 25.5 13.5 25.387 13.5 25.25C13.5 25.113 13.612 25 13.75 25C13.887 25 14 24.887 14 24.75C14 24.613 14.112 24.5 14.25 24.5C14.387 24.5 14.5 24.396 14.5 24.268C14.5 24.141 14.687 23.989 14.917 23.932C15.146 23.874 15.333 23.753 15.333 23.663C15.333 23.574 15.49 23.5 15.682 23.5C15.891 23.5 16.066 23.366 16.118 23.167C16.18 22.931 16.346 22.833 16.686 22.833C17.002 22.833 17.167 22.748 17.167 22.583C17.167 22.417 17.333 22.333 17.667 22.333C18 22.333 18.167 22.25 18.167 22.083C18.167 21.919 18.331 21.833 18.649 21.833C18.924 21.833 19.172 21.726 19.227 21.583C19.282 21.439 19.531 21.333 19.816 21.333C20.088 21.333 20.422 21.221 20.56 21.083C20.701 20.942 21.108 20.833 21.493 20.833C21.947 20.833 22.209 20.749 22.273 20.583C22.348 20.388 22.683 20.333 23.809 20.332C24.761 20.332 25.412 20.247 25.727 20.082C26.374 19.745 28.792 19.749 29.24 20.089C29.455 20.251 29.967 20.333 30.764 20.333C31.677 20.333 31.987 20.393 32.06 20.583C32.124 20.749 32.385 20.833 32.833 20.833C33.281 20.833 33.543 20.918 33.606 21.083C33.677 21.266 33.965 21.333 34.684 21.333C35.446 21.333 35.667 21.389 35.667 21.583C35.667 21.764 35.852 21.833 36.339 21.833C36.782 21.833 37.043 21.748 37.106 21.583C37.169 21.42 37.429 21.333 37.855 21.333C38.407 21.333 38.538 21.263 38.708 20.875C38.819 20.623 39.005 20.357 39.121 20.283C39.39 20.115 39.424 17.167 39.158 17.167C39.062 17.167 38.904 16.942 38.808 16.667C38.671 16.272 38.536 16.167 38.17 16.167C37.846 16.167 37.679 16.066 37.618 15.833C37.55 15.57 37.391 15.5 36.867 15.5C36.43 15.5 36.169 15.414 36.106 15.25C36.041 15.08 35.774 15 35.269 15C34.857 15 34.499 14.915 34.464 14.808C34.428 14.701 33.888 14.571 33.255 14.516C32.265 14.43 31.416 14 32.236 14C32.381 14 32.5 13.887 32.5 13.75C32.5 13.612 32.577 13.5 32.672 13.5C32.766 13.5 32.892 13.374 32.951 13.221C33.087 12.865 33.616 12.333 33.833 12.333C33.925 12.333 34 12.221 34 12.083C34 11.946 34.112 11.833 34.25 11.833C34.387 11.833 34.5 11.721 34.5 11.583C34.5 11.446 34.612 11.333 34.75 11.333C34.887 11.333 35 11.221 35 11.083C35 10.946 35.094 10.832 35.208 10.83C35.462 10.827 36.167 10.108 36.167 9.852C36.167 9.75 36.27 9.667 36.396 9.667C36.523 9.667 36.719 9.554 36.833 9.417C36.947 9.279 37.182 9.167 37.354 9.167C37.526 9.167 37.667 9.054 37.667 8.917C37.667 8.76 37.825 8.667 38.089 8.667C38.321 8.667 38.554 8.554 38.606 8.417C38.659 8.279 38.844 8.167 39.018 8.167C39.191 8.167 39.333 8.054 39.333 7.917C39.333 7.75 39.5 7.667 39.833 7.667C40.167 7.667 40.333 7.583 40.333 7.417C40.333 7.237 40.517 7.167 40.988 7.167C41.348 7.167 41.755 7.054 41.893 6.917C42.03 6.779 42.279 6.666 42.446 6.664C43.017 6.66 43.5 6.461 43.5 6.231C43.5 6.06 43.76 6 44.5 6C45.278 6 45.5 5.944 45.5 5.75C45.5 5.535 46.026 5.5 49.232 5.5C52.396 5.5 52.979 5.538 53.06 5.75ZM242.333 15.25C242.219 15.387 241.929 15.501 241.688 15.502C240.993 15.506 240.5 15.686 240.5 15.936C240.5 16.082 240.314 16.167 239.995 16.167C239.699 16.167 239.45 16.271 239.394 16.417C239.341 16.554 239.116 16.667 238.894 16.667C238.671 16.667 238.446 16.779 238.394 16.917C238.341 17.054 238.193 17.167 238.066 17.167C237.938 17.167 237.833 17.279 237.833 17.417C237.833 17.554 237.718 17.667 237.578 17.667C237.438 17.667 237.28 17.779 237.227 17.917C237.174 18.054 237.027 18.167 236.899 18.167C236.771 18.167 236.667 18.271 236.667 18.399C236.667 18.527 236.554 18.674 236.417 18.727C236.279 18.78 236.167 18.938 236.167 19.078C236.167 19.218 236.054 19.333 235.917 19.333C235.779 19.333 235.667 19.438 235.667 19.566C235.667 19.693 235.554 19.841 235.417 19.894C235.279 19.946 235.167 20.179 235.167 20.411C235.167 20.675 235.073 20.833 234.917 20.833C234.755 20.833 234.667 20.996 234.667 21.293C234.667 21.573 234.536 21.835 234.333 21.961C234.15 22.076 234 22.348 234 22.567C234 22.785 233.887 23.008 233.75 23.06C233.57 23.129 233.5 23.41 233.5 24.06C233.5 24.71 233.43 24.991 233.25 25.06C233.033 25.144 233 26.181 233 32.995V40.833H230.484C228.616 40.833 227.854 40.895 227.526 41.072C227.282 41.204 226.877 41.355 226.625 41.409L226.167 41.506L226.17 43.962C226.173 47.333 225.976 47.167 229.982 47.167H233V61.333C233 73.193 233.037 75.5 233.228 75.5C233.353 75.5 233.646 75.65 233.879 75.833C234.907 76.642 239.333 76.158 239.333 75.236C239.333 75.126 239.446 74.992 239.583 74.94C239.803 74.856 239.833 73.152 239.833 61.005V47.167H245.083C249.639 47.167 250.333 47.134 250.333 46.917C250.333 46.779 250.448 46.667 250.589 46.667C250.729 46.667 250.892 46.535 250.951 46.375C251.011 46.215 251.139 46.03 251.238 45.965C251.54 45.764 251.579 42.698 251.284 42.365C251.147 42.21 251.007 41.933 250.974 41.75C250.933 41.525 250.758 41.399 250.431 41.361C250.166 41.331 249.843 41.2 249.713 41.07C249.519 40.877 248.596 40.833 244.655 40.833H239.833V33.684C239.833 27.484 239.866 26.523 240.083 26.44C240.248 26.376 240.333 26.115 240.333 25.672C240.333 25.186 240.402 25 240.583 25C240.75 25 240.833 24.833 240.833 24.5C240.833 24.206 240.921 24 241.045 24C241.162 24 241.399 23.738 241.572 23.417C241.744 23.096 241.989 22.833 242.115 22.833C242.241 22.833 242.387 22.721 242.44 22.583C242.492 22.446 242.64 22.333 242.768 22.333C242.896 22.333 243 22.221 243 22.083C243 21.917 243.167 21.833 243.5 21.833C243.82 21.833 244 21.748 244 21.598C244 21.325 245.298 21.216 247.486 21.304C248.515 21.346 248.833 21.415 248.833 21.596C248.833 21.747 249.009 21.833 249.316 21.833C249.59 21.833 249.839 21.941 249.894 22.083C249.95 22.229 250.199 22.333 250.495 22.333C250.833 22.333 251 22.416 251 22.583C251 22.721 251.112 22.833 251.25 22.833C251.387 22.833 251.5 22.91 251.5 23.004C251.5 23.097 251.706 23.265 251.958 23.377C252.21 23.488 252.494 23.678 252.588 23.799C252.873 24.164 254.835 23.999 255.066 23.59C255.167 23.411 255.344 23.162 255.458 23.037C255.573 22.912 255.667 22.702 255.667 22.571C255.667 22.44 255.779 22.333 255.917 22.333C256.083 22.333 256.167 22.167 256.167 21.833C256.167 21.5 256.25 21.333 256.417 21.333C256.618 21.333 256.667 21.074 256.667 20C256.667 18.926 256.618 18.667 256.417 18.667C256.279 18.667 256.167 18.554 256.167 18.417C256.167 18.279 256.054 18.167 255.917 18.167C255.779 18.167 255.667 18.054 255.667 17.917C255.667 17.779 255.554 17.667 255.417 17.667C255.279 17.667 255.167 17.554 255.167 17.417C255.167 17.279 255.026 17.167 254.854 17.167C254.682 17.167 254.447 17.054 254.333 16.917C254.219 16.779 253.985 16.667 253.813 16.667C253.641 16.667 253.5 16.554 253.5 16.417C253.5 16.25 253.333 16.167 253 16.167C252.685 16.167 252.5 16.081 252.5 15.936C252.5 15.694 252.011 15.506 251.37 15.502C251.161 15.501 250.946 15.387 250.894 15.25C250.812 15.037 250.185 15 246.669 15C243.203 15 242.508 15.04 242.333 15.25ZM154.333 15.621C154.196 15.673 154.023 15.817 153.95 15.941C153.877 16.065 153.708 16.167 153.575 16.167C153.365 16.167 153.333 20.025 153.333 45.83V75.494L153.743 75.597C153.969 75.653 154.24 75.805 154.347 75.933C154.64 76.286 158.804 76.271 158.94 75.917C158.992 75.779 159.142 75.667 159.273 75.667C159.404 75.667 159.56 75.535 159.621 75.375C159.682 75.215 159.829 74.984 159.949 74.863C160.124 74.686 160.167 72.355 160.167 62.988C160.167 52.739 160.197 51.333 160.417 51.333C160.554 51.333 160.667 51.221 160.667 51.083C160.667 50.946 160.779 50.833 160.917 50.833C161.054 50.833 161.167 50.721 161.167 50.583C161.167 50.446 161.279 50.333 161.417 50.333C161.554 50.333 161.667 50.221 161.667 50.083C161.667 49.916 161.834 49.833 162.172 49.833C162.467 49.833 162.717 49.729 162.773 49.583C162.826 49.446 162.973 49.333 163.101 49.333C163.229 49.333 163.333 49.183 163.333 49C163.333 48.741 163.444 48.667 163.833 48.667C164.167 48.667 164.333 48.583 164.333 48.417C164.333 48.243 164.508 48.167 164.905 48.167C165.219 48.167 165.589 48.054 165.726 47.917C165.864 47.779 166.192 47.667 166.456 47.667C166.72 47.667 167.082 47.557 167.26 47.422C167.737 47.061 172.747 47.056 173.107 47.417C173.245 47.554 173.494 47.667 173.661 47.667C173.828 47.667 174.008 47.779 174.06 47.917C174.113 48.054 174.346 48.167 174.578 48.167C174.842 48.167 175 48.26 175 48.417C175 48.554 175.112 48.667 175.25 48.667C175.387 48.667 175.5 48.782 175.5 48.922C175.5 49.062 175.612 49.22 175.75 49.273C175.887 49.326 176 49.464 176 49.581C176 49.697 176.112 49.886 176.25 50C176.387 50.114 176.5 50.348 176.5 50.52C176.5 50.693 176.612 50.833 176.75 50.833C176.93 50.833 177 51.018 177 51.499C177 51.983 177.09 52.22 177.333 52.372C177.661 52.577 177.667 52.761 177.667 63.52C177.667 73.04 177.699 74.486 177.917 74.667C178.054 74.781 178.167 75.001 178.167 75.156C178.167 76.047 182.909 76.727 183.696 75.949C183.818 75.829 184.048 75.682 184.208 75.621C184.394 75.55 184.5 75.334 184.5 75.023C184.5 74.744 184.607 74.495 184.75 74.44C184.968 74.356 185 73.108 185 64.609C185 56.159 184.967 54.847 184.75 54.667C184.556 54.506 184.5 54.056 184.5 52.66C184.5 50.724 184.427 50.333 184.066 50.333C183.893 50.333 183.833 50.077 183.833 49.333C183.833 48.556 183.778 48.333 183.583 48.333C183.409 48.333 183.333 48.157 183.333 47.75C183.333 47.343 183.258 47.167 183.083 47.167C182.917 47.167 182.833 47 182.833 46.667C182.833 46.333 182.75 46.167 182.583 46.167C182.427 46.167 182.333 46.009 182.333 45.745C182.333 45.513 182.221 45.28 182.083 45.227C181.946 45.174 181.832 45.045 181.83 44.941C181.827 44.7 181.098 44 180.852 44C180.75 44 180.667 43.887 180.667 43.75C180.667 43.612 180.554 43.5 180.417 43.5C180.279 43.5 180.167 43.387 180.167 43.25C180.167 43.112 180.054 43 179.917 43C179.779 43 179.667 42.887 179.667 42.75C179.667 42.612 179.551 42.5 179.41 42.5C179.268 42.5 178.992 42.35 178.795 42.167C178.598 41.983 178.339 41.833 178.219 41.833C178.098 41.833 178 41.759 178 41.669C178 41.578 177.694 41.455 177.319 41.395C176.945 41.335 176.599 41.184 176.551 41.06C176.495 40.913 176.185 40.833 175.667 40.833C175.111 40.833 174.84 40.757 174.773 40.583C174.63 40.211 167.809 40.211 167.5 40.583C167.363 40.749 166.99 40.833 166.396 40.833C165.749 40.833 165.5 40.897 165.5 41.061C165.5 41.203 165.237 41.325 164.809 41.382C164.429 41.433 164.073 41.546 164.018 41.633C163.962 41.72 163.673 41.844 163.375 41.909C163.073 41.974 162.833 42.131 162.833 42.263C162.833 42.405 162.665 42.5 162.411 42.5C162.179 42.5 161.946 42.612 161.894 42.75C161.841 42.887 161.656 43 161.482 43C161.309 43 161.167 43.104 161.167 43.231C161.167 43.36 160.947 43.494 160.667 43.536L160.167 43.609V30.216C160.167 18.465 160.136 16.811 159.917 16.727C159.779 16.674 159.667 16.527 159.667 16.399C159.667 16.271 159.572 16.167 159.457 16.167C159.341 16.167 159.153 16.017 159.039 15.833C158.831 15.501 155.095 15.333 154.333 15.621ZM261.667 15.833C261.483 16.017 261.258 16.167 261.167 16.167C261.075 16.167 260.998 16.41 260.995 16.708C260.992 17.006 260.879 17.396 260.745 17.574C260.37 18.069 260.375 73.684 260.75 74.06C260.887 74.197 261 74.579 261 74.909C261 75.388 261.08 75.539 261.4 75.661C261.621 75.744 261.85 75.892 261.91 75.99C262.062 76.235 270.938 76.235 271.09 75.99C271.15 75.892 271.379 75.744 271.6 75.661L272 75.508V65.855C272 57.429 272.032 56.19 272.25 56.106C272.407 56.046 272.5 55.791 272.5 55.423C272.5 55.017 272.602 54.772 272.833 54.628C273.017 54.513 273.167 54.288 273.167 54.127C273.167 53.965 273.237 53.833 273.322 53.833C273.408 53.833 273.53 53.668 273.594 53.465C273.658 53.263 273.926 52.909 274.189 52.678C274.452 52.448 274.667 52.163 274.667 52.046C274.667 51.929 274.779 51.833 274.917 51.833C275.054 51.833 275.167 51.721 275.167 51.583C275.167 51.416 275.334 51.333 275.672 51.333C275.967 51.333 276.217 51.229 276.273 51.083C276.336 50.92 276.595 50.833 277.023 50.833C277.451 50.833 277.71 50.747 277.773 50.583C277.847 50.39 278.169 50.333 279.184 50.333C280.243 50.333 280.5 50.382 280.5 50.583C280.5 50.772 280.704 50.833 281.333 50.833C281.963 50.833 282.167 50.894 282.167 51.083C282.167 51.221 282.243 51.333 282.336 51.333C282.556 51.333 284.167 52.953 284.167 53.174C284.167 53.267 284.279 53.387 284.417 53.44C284.559 53.494 284.667 53.743 284.667 54.018C284.667 54.389 284.743 54.5 285 54.5C285.33 54.5 285.333 54.611 285.333 64.5C285.333 73.278 285.364 74.5 285.583 74.5C285.748 74.5 285.833 74.665 285.833 74.986C285.833 76.041 286.395 76.167 291.133 76.167C294.346 76.167 295.36 76.116 295.53 75.949C295.651 75.829 295.881 75.682 296.042 75.621C296.202 75.56 296.333 75.363 296.333 75.184C296.333 75.004 296.446 74.745 296.583 74.607C296.945 74.245 296.961 56.424 296.6 55.908C296.448 55.691 296.347 54.973 296.308 53.843C296.268 52.649 296.185 52.089 296.042 52.042C295.914 51.999 295.833 51.664 295.833 51.173C295.833 50.666 295.742 50.298 295.583 50.167C295.446 50.053 295.333 49.736 295.333 49.464C295.333 49.109 295.239 48.944 295 48.882C294.75 48.816 294.667 48.654 294.667 48.231C294.667 47.84 294.59 47.667 294.417 47.667C294.25 47.667 294.167 47.5 294.167 47.167C294.167 46.833 294.083 46.667 293.917 46.667C293.779 46.667 293.667 46.554 293.667 46.417C293.667 46.279 293.554 46.167 293.417 46.167C293.279 46.167 293.167 46.036 293.167 45.877C293.167 45.544 291.068 43.5 290.727 43.5C290.602 43.5 290.5 43.387 290.5 43.25C290.5 43.112 290.396 43 290.268 43C290.14 43 289.992 42.887 289.94 42.75C289.887 42.612 289.654 42.5 289.422 42.5C289.172 42.5 289 42.405 289 42.267C289 41.979 287.799 41.333 287.263 41.333C287.046 41.333 286.826 41.221 286.773 41.083C286.709 40.916 286.44 40.832 285.964 40.828C285.571 40.825 285.104 40.713 284.926 40.578C284.44 40.21 277.333 40.215 277.333 40.583C277.333 40.777 277.113 40.833 276.351 40.833C275.632 40.833 275.343 40.9 275.273 41.083C275.22 41.221 274.987 41.333 274.755 41.333C274.522 41.333 274.052 41.483 273.71 41.667C273.368 41.85 272.993 42 272.877 42C272.762 42 272.667 42.112 272.667 42.25C272.667 42.389 272.519 42.5 272.333 42.5C272.003 42.5 272 42.389 272 29.333C272 20.667 271.943 16.167 271.833 16.167C271.742 16.167 271.517 16.017 271.333 15.833C271.016 15.516 270.778 15.5 266.5 15.5C262.222 15.5 261.984 15.516 261.667 15.833ZM130.227 40.583C130.16 40.757 129.889 40.833 129.333 40.833C128.778 40.833 128.507 40.909 128.44 41.083C128.379 41.241 128.124 41.333 127.75 41.333C127.376 41.333 127.121 41.426 127.06 41.583C127.008 41.721 126.785 41.833 126.567 41.833C126.348 41.833 126.076 41.983 125.961 42.167C125.835 42.369 125.573 42.5 125.293 42.5C125.011 42.5 124.833 42.59 124.833 42.732C124.833 42.859 124.646 43.011 124.417 43.068C124.188 43.126 124 43.247 124 43.337C124 43.426 123.85 43.5 123.667 43.5C123.481 43.5 123.333 43.611 123.333 43.75C123.333 43.887 123.218 44 123.078 44C122.938 44 122.78 44.112 122.727 44.25C122.674 44.387 122.527 44.5 122.399 44.5C122.271 44.5 122.167 44.612 122.167 44.75C122.167 44.887 122.054 45 121.917 45C121.778 45 121.667 45.148 121.667 45.333C121.667 45.519 121.556 45.667 121.417 45.667C121.279 45.667 121.167 45.779 121.167 45.917C121.167 46.054 121.054 46.167 120.917 46.167C120.779 46.167 120.667 46.279 120.667 46.417C120.667 46.554 120.554 46.667 120.417 46.667C120.279 46.667 120.167 46.779 120.167 46.917C120.167 47.054 120.068 47.167 119.948 47.167C119.649 47.167 119 48.075 119 48.493C119 48.684 118.891 48.833 118.75 48.833C118.583 48.833 118.5 49 118.5 49.333C118.5 49.667 118.417 49.833 118.25 49.833C118.112 49.833 118 49.937 118 50.063C118 50.189 117.888 50.386 117.75 50.5C117.612 50.614 117.498 50.867 117.495 51.062C117.492 51.257 117.379 51.562 117.245 51.74C117.11 51.918 117 52.237 117 52.449C117 52.66 116.85 52.983 116.667 53.167C116.402 53.432 116.333 53.722 116.333 54.583C116.333 55.435 116.28 55.667 116.083 55.667C115.727 55.667 115.707 61.577 116.063 61.783C116.211 61.869 116.319 62.326 116.364 63.058C116.416 63.908 116.507 64.241 116.717 64.358C116.898 64.459 117 64.724 117 65.092C117 65.492 117.076 65.667 117.25 65.667C117.417 65.667 117.5 65.833 117.5 66.167C117.5 66.5 117.583 66.667 117.75 66.667C117.917 66.667 118 66.833 118 67.167C118 67.5 118.083 67.667 118.25 67.667C118.417 67.667 118.5 67.833 118.5 68.167C118.5 68.5 118.583 68.667 118.75 68.667C118.889 68.667 119 68.815 119 69.002C119 69.186 119.15 69.465 119.333 69.622C119.517 69.779 119.667 70.003 119.667 70.12C119.667 70.238 119.779 70.333 119.917 70.333C120.054 70.333 120.167 70.446 120.167 70.583C120.167 70.721 120.279 70.833 120.417 70.833C120.554 70.833 120.667 70.946 120.667 71.083C120.667 71.221 120.779 71.333 120.917 71.333C121.054 71.333 121.167 71.446 121.167 71.583C121.167 71.721 121.279 71.833 121.417 71.833C121.554 71.833 121.668 71.927 121.67 72.042C121.673 72.257 122.376 73 122.577 73C122.639 73 122.803 73.112 122.94 73.25C123.078 73.387 123.335 73.5 123.512 73.5C123.689 73.5 123.833 73.612 123.833 73.75C123.833 73.887 123.938 74 124.066 74C124.193 74 124.341 74.112 124.394 74.25C124.446 74.387 124.671 74.5 124.894 74.5C125.116 74.5 125.341 74.612 125.394 74.75C125.449 74.893 125.697 75 125.975 75C126.321 75 126.486 75.096 126.548 75.333C126.615 75.589 126.776 75.667 127.24 75.667C127.623 75.667 127.879 75.758 127.94 75.917C128.007 76.092 128.28 76.167 128.851 76.167C129.465 76.167 129.667 76.229 129.667 76.417C129.667 76.773 137.853 76.794 138.149 76.438C138.253 76.312 138.691 76.17 139.122 76.121C139.553 76.073 139.933 75.95 139.967 75.85C140 75.749 140.165 75.667 140.334 75.667C140.817 75.667 141.167 75.484 141.167 75.232C141.167 75.085 141.35 75 141.667 75C142 75 142.167 74.917 142.167 74.75C142.167 74.612 142.279 74.5 142.417 74.5C142.554 74.5 142.667 74.387 142.667 74.25C142.667 74.083 142.834 74 143.172 74C143.467 74 143.717 73.896 143.773 73.75C143.826 73.612 143.973 73.5 144.101 73.5C144.229 73.5 144.333 73.387 144.333 73.25C144.333 73.112 144.446 73 144.583 73C144.721 73 144.833 72.887 144.833 72.75C144.833 72.612 144.946 72.5 145.083 72.5C145.222 72.5 145.333 72.352 145.333 72.167C145.333 71.981 145.444 71.833 145.583 71.833C145.721 71.833 145.833 71.721 145.833 71.583C145.833 71.444 145.981 71.333 146.167 71.333C146.352 71.333 146.5 71.222 146.5 71.083C146.5 70.946 146.612 70.833 146.75 70.833C146.887 70.833 147 70.715 147 70.571C147 70.427 147.112 70.197 147.25 70.06C147.387 69.922 147.5 69.665 147.5 69.488C147.5 69.311 147.612 69.167 147.75 69.167C147.939 69.167 148 68.962 148 68.328C148 67.736 147.926 67.461 147.75 67.394C147.612 67.341 147.5 67.156 147.5 66.982C147.5 66.809 147.387 66.667 147.25 66.667C147.112 66.667 147 66.554 147 66.417C147 66.279 146.858 66.167 146.684 66.167C146.511 66.167 146.326 66.054 146.273 65.917C146.22 65.779 145.987 65.667 145.755 65.667C145.491 65.667 145.333 65.573 145.333 65.417C145.333 65.222 145.111 65.167 144.333 65.167C143.556 65.167 143.333 65.222 143.333 65.417C143.333 65.561 143.182 65.667 142.975 65.667C142.778 65.667 142.377 65.91 142.083 66.208C141.79 66.506 141.238 67.026 140.858 67.363C140.478 67.7 140.167 68.056 140.167 68.154C140.167 68.253 140.054 68.333 139.917 68.333C139.779 68.333 139.667 68.446 139.667 68.583C139.667 68.75 139.5 68.833 139.167 68.833C138.833 68.833 138.667 68.917 138.667 69.083C138.667 69.258 138.491 69.333 138.083 69.333C137.676 69.333 137.5 69.409 137.5 69.583C137.5 69.775 137.286 69.833 136.578 69.833C135.912 69.833 135.63 69.903 135.56 70.083C135.486 70.277 135.163 70.333 134.137 70.333C133.179 70.333 132.74 70.264 132.56 70.083C132.405 69.928 131.995 69.833 131.483 69.833C130.902 69.833 130.628 69.759 130.56 69.583C130.507 69.444 130.259 69.333 130 69.333C129.741 69.333 129.493 69.223 129.44 69.083C129.387 68.946 129.154 68.833 128.922 68.833C128.658 68.833 128.5 68.74 128.5 68.583C128.5 68.419 128.335 68.333 128.019 68.333C127.679 68.333 127.513 68.236 127.452 68C127.404 67.817 127.245 67.667 127.099 67.667C126.953 67.667 126.833 67.554 126.833 67.417C126.833 67.279 126.721 67.167 126.583 67.167C126.446 67.167 126.333 67.054 126.333 66.917C126.333 66.779 126.229 66.667 126.101 66.667C125.974 66.667 125.822 66.479 125.765 66.25C125.707 66.021 125.587 65.833 125.497 65.833C125.407 65.833 125.333 65.683 125.333 65.5C125.333 65.315 125.222 65.167 125.083 65.167C124.929 65.167 124.833 65.01 124.833 64.76C124.833 64.536 124.757 64.306 124.664 64.248C124.571 64.191 124.387 63.887 124.256 63.572C124.125 63.257 123.938 63 123.842 63C123.745 63 123.667 62.662 123.667 62.245C123.667 61.727 123.588 61.459 123.417 61.394C123.208 61.313 123.167 60.822 123.167 58.399C123.167 55.933 123.204 55.5 123.417 55.5C123.601 55.5 123.667 55.308 123.667 54.769C123.667 54.179 123.731 54.022 124 53.952C124.227 53.892 124.333 53.724 124.333 53.427C124.333 53.186 124.446 52.946 124.583 52.894C124.726 52.839 124.833 52.59 124.833 52.316C124.833 51.998 124.919 51.833 125.083 51.833C125.221 51.833 125.333 51.721 125.333 51.583C125.333 51.446 125.446 51.333 125.583 51.333C125.721 51.333 125.833 51.261 125.833 51.172C125.833 51.018 126.937 49.833 127.08 49.833C127.243 49.833 128 49.029 128 48.856C128 48.752 128.225 48.667 128.5 48.667C128.833 48.667 129 48.583 129 48.417C129 48.279 129.145 48.167 129.321 48.167C129.498 48.167 129.755 48.054 129.893 47.917C130.03 47.779 130.402 47.667 130.718 47.667C131.034 47.667 131.386 47.554 131.5 47.417C131.667 47.216 132.177 47.167 134.104 47.167C136.123 47.167 136.5 47.206 136.5 47.417C136.5 47.602 136.694 47.667 137.25 47.667C137.806 47.667 138 47.731 138 47.917C138 48.056 138.148 48.167 138.333 48.167C138.519 48.167 138.667 48.278 138.667 48.417C138.667 48.583 138.833 48.667 139.167 48.667C139.457 48.667 139.667 48.754 139.667 48.876C139.667 49.065 140.175 49.567 141.317 50.505C141.537 50.685 141.819 50.833 141.942 50.833C142.066 50.833 142.167 50.946 142.167 51.083C142.167 51.28 142.398 51.333 143.25 51.333C144.064 51.333 144.333 51.276 144.333 51.101C144.333 50.974 144.508 50.826 144.721 50.772C144.935 50.719 145.314 50.485 145.563 50.254C145.813 50.023 146.059 49.833 146.11 49.833C146.161 49.833 146.381 49.665 146.599 49.458C147.093 48.99 147.223 46.167 146.75 46.167C146.612 46.167 146.5 46.054 146.5 45.917C146.5 45.778 146.352 45.667 146.167 45.667C145.944 45.667 145.833 45.556 145.833 45.333C145.833 45.148 145.722 45 145.583 45C145.446 45 145.333 44.887 145.333 44.75C145.333 44.612 145.221 44.5 145.083 44.5C144.946 44.5 144.833 44.387 144.833 44.25C144.833 44.112 144.721 44 144.583 44C144.446 44 144.333 43.887 144.333 43.75C144.333 43.612 144.229 43.5 144.101 43.5C143.973 43.5 143.826 43.387 143.773 43.25C143.72 43.112 143.534 43 143.359 43C143.184 43 142.947 42.887 142.833 42.75C142.719 42.612 142.523 42.5 142.396 42.5C142.27 42.5 142.167 42.389 142.167 42.253C142.167 42.117 141.961 41.955 141.71 41.892C141.459 41.829 141.153 41.677 141.031 41.555C140.909 41.433 140.595 41.333 140.333 41.333C140.071 41.333 139.745 41.221 139.607 41.083C139.469 40.945 139.062 40.833 138.696 40.833C138.263 40.833 138.003 40.747 137.94 40.583C137.858 40.371 137.272 40.333 134.083 40.333C130.894 40.333 130.308 40.371 130.227 40.583ZM203.74 40.578C203.562 40.713 203.102 40.825 202.717 40.828C202.311 40.831 201.96 40.928 201.883 41.058C201.81 41.182 201.456 41.329 201.097 41.385C200.738 41.442 200.4 41.549 200.347 41.622C200.294 41.696 200.044 41.847 199.792 41.958C199.54 42.069 199.333 42.236 199.333 42.33C199.333 42.423 199.183 42.5 199 42.5C198.815 42.5 198.667 42.611 198.667 42.75C198.667 42.917 198.5 43 198.167 43C197.833 43 197.667 43.083 197.667 43.25C197.667 43.387 197.554 43.5 197.417 43.5C197.279 43.5 197.167 43.612 197.167 43.75C197.167 43.887 197.054 44 196.917 44C196.779 44 196.667 44.112 196.667 44.25C196.667 44.387 196.535 44.501 196.375 44.503C195.923 44.507 194.5 45.868 194.5 46.297C194.5 46.514 194.397 46.667 194.25 46.667C194.112 46.667 194 46.779 194 46.917C194 47.054 193.887 47.167 193.75 47.167C193.611 47.167 193.5 47.315 193.5 47.5C193.5 47.683 193.423 47.833 193.33 47.833C193.236 47.833 193.069 48.04 192.958 48.292C192.848 48.544 192.662 48.81 192.545 48.883C192.429 48.957 192.333 49.168 192.333 49.354C192.333 49.539 192.221 49.803 192.083 49.94C191.946 50.078 191.833 50.44 191.833 50.744C191.833 51.082 191.736 51.335 191.583 51.394C191.412 51.459 191.333 51.727 191.333 52.245C191.333 52.805 191.269 53 191.083 53C190.879 53 190.833 53.287 190.833 54.583C190.833 55.88 190.788 56.167 190.583 56.167C190.373 56.167 190.333 56.537 190.333 58.5C190.333 60.463 190.373 60.833 190.583 60.833C190.788 60.833 190.833 61.12 190.833 62.417C190.833 63.713 190.879 64 191.083 64C191.272 64 191.333 64.202 191.333 64.821C191.333 65.329 191.429 65.738 191.583 65.893C191.721 66.03 191.833 66.338 191.833 66.577C191.833 66.815 191.946 67.054 192.083 67.106C192.226 67.161 192.333 67.41 192.333 67.684C192.333 68.002 192.419 68.167 192.583 68.167C192.739 68.167 192.833 68.324 192.833 68.582C192.833 68.817 192.978 69.088 193.167 69.205C193.35 69.32 193.5 69.508 193.5 69.623C193.5 69.739 193.612 69.833 193.75 69.833C193.917 69.833 194 70 194 70.333C194 70.667 194.083 70.833 194.25 70.833C194.387 70.833 194.5 70.946 194.5 71.083C194.5 71.221 194.612 71.333 194.75 71.333C194.887 71.333 195 71.446 195 71.583C195 71.721 195.112 71.833 195.25 71.833C195.387 71.833 195.501 71.927 195.503 72.042C195.506 72.296 196.226 73 196.482 73C196.583 73 196.667 73.112 196.667 73.25C196.667 73.387 196.77 73.5 196.896 73.5C197.023 73.5 197.219 73.612 197.333 73.75C197.447 73.887 197.682 74 197.854 74C198.026 74 198.167 74.112 198.167 74.25C198.167 74.417 198.333 74.5 198.667 74.5C199 74.5 199.167 74.583 199.167 74.75C199.167 74.925 199.343 75 199.75 75C200.222 75 200.333 75.063 200.333 75.333C200.333 75.59 200.444 75.667 200.816 75.667C201.09 75.667 201.339 75.774 201.394 75.917C201.458 76.084 201.726 76.168 202.203 76.172C202.596 76.175 203.062 76.287 203.24 76.422C203.728 76.791 212.631 76.786 212.773 76.417C212.84 76.242 213.112 76.167 213.673 76.167C214.165 76.167 214.573 76.07 214.726 75.917C214.864 75.779 215.214 75.667 215.504 75.667C215.891 75.667 216.054 75.578 216.118 75.333C216.183 75.086 216.346 75 216.749 75C217.048 75 217.386 74.887 217.5 74.75C217.614 74.612 217.888 74.5 218.109 74.5C218.33 74.5 218.554 74.387 218.606 74.25C218.659 74.112 218.836 74 219 74C219.164 74 219.341 73.887 219.394 73.75C219.446 73.612 219.679 73.5 219.911 73.5C220.175 73.5 220.333 73.406 220.333 73.25C220.333 73.112 220.446 73 220.583 73C220.721 73 220.833 72.887 220.833 72.75C220.833 72.612 220.946 72.5 221.083 72.5C221.221 72.5 221.333 72.358 221.333 72.184C221.333 72.011 221.446 71.826 221.583 71.773C221.721 71.72 221.833 71.56 221.833 71.417C221.833 71.273 221.721 71.113 221.583 71.06C221.429 71.001 221.333 70.748 221.333 70.399C221.333 70.007 221.256 69.833 221.083 69.833C220.946 69.833 220.833 69.721 220.833 69.583C220.833 69.446 220.721 69.333 220.583 69.333C220.417 69.333 220.333 69.167 220.333 68.833C220.333 68.5 220.25 68.333 220.083 68.333C219.946 68.333 219.832 68.24 219.83 68.125C219.82 67.362 218.027 66.831 217.44 67.417C217.303 67.554 217.073 67.667 216.929 67.667C216.785 67.667 216.517 67.817 216.333 68C216.15 68.183 215.933 68.333 215.851 68.333C215.769 68.333 215.659 68.446 215.606 68.583C215.55 68.729 215.301 68.833 215.005 68.833C214.667 68.833 214.5 68.916 214.5 69.083C214.5 69.264 214.314 69.333 213.828 69.333C213.385 69.333 213.124 69.418 213.06 69.583C212.995 69.753 212.729 69.833 212.227 69.833C211.725 69.833 211.459 69.913 211.394 70.083C211.314 70.291 210.852 70.333 208.667 70.333C206.482 70.333 206.019 70.291 205.94 70.083C205.877 69.92 205.617 69.833 205.19 69.833C204.762 69.833 204.502 69.747 204.44 69.583C204.387 69.446 204.162 69.333 203.94 69.333C203.717 69.333 203.492 69.221 203.44 69.083C203.384 68.937 203.134 68.833 202.839 68.833C202.501 68.833 202.333 68.751 202.333 68.583C202.333 68.446 202.221 68.333 202.083 68.333C201.946 68.333 201.833 68.25 201.833 68.149C201.833 67.908 200.092 66.167 199.851 66.167C199.75 66.167 199.667 66.054 199.667 65.917C199.667 65.779 199.554 65.667 199.417 65.667C199.249 65.667 199.167 65.499 199.167 65.161C199.167 64.866 199.063 64.616 198.917 64.56C198.779 64.508 198.667 64.332 198.667 64.169C198.667 64.007 198.554 63.781 198.417 63.667C198.279 63.553 198.167 63.243 198.167 62.98C198.167 62.664 198.081 62.5 197.917 62.5C197.72 62.5 197.667 62.269 197.667 61.417V60.333H210.333C221.481 60.333 223 60.303 223 60.083C223 59.946 223.112 59.833 223.25 59.833C223.465 59.833 223.5 59.287 223.5 55.917C223.5 52.546 223.465 52 223.25 52C223.062 52 223 51.798 223 51.184C223 50.651 222.922 50.339 222.774 50.282C222.649 50.234 222.498 49.889 222.438 49.514C222.367 49.071 222.243 48.833 222.081 48.833C221.927 48.833 221.833 48.674 221.833 48.411C221.833 48.179 221.721 47.946 221.583 47.894C221.446 47.841 221.333 47.656 221.333 47.482C221.333 47.309 221.221 47.167 221.083 47.167C220.927 47.167 220.833 47.009 220.833 46.745C220.833 46.513 220.721 46.28 220.583 46.227C220.446 46.174 220.333 46.027 220.333 45.899C220.333 45.771 220.221 45.667 220.083 45.667C219.946 45.667 219.832 45.573 219.83 45.458C219.827 45.204 219.108 44.5 218.852 44.5C218.75 44.5 218.667 44.387 218.667 44.25C218.667 44.112 218.554 44 218.417 44C218.279 44 218.167 43.887 218.167 43.75C218.167 43.612 218.062 43.5 217.934 43.5C217.807 43.5 217.659 43.387 217.606 43.25C217.554 43.112 217.321 43 217.089 43C216.825 43 216.667 42.906 216.667 42.75C216.667 42.575 216.491 42.5 216.083 42.5C215.611 42.5 215.5 42.437 215.5 42.167C215.5 41.949 215.389 41.833 215.179 41.833C215.002 41.833 214.745 41.721 214.607 41.583C214.47 41.446 214.172 41.333 213.946 41.333C213.72 41.333 213.492 41.221 213.44 41.083C213.37 40.903 213.087 40.833 212.417 40.833C211.746 40.833 211.463 40.764 211.394 40.583C211.253 40.216 204.225 40.211 203.74 40.578ZM314.833 40.583C314.833 40.778 314.612 40.833 313.842 40.833C313.187 40.833 312.805 40.91 312.717 41.058C312.643 41.182 312.289 41.329 311.93 41.385C311.571 41.442 311.233 41.549 311.18 41.622C311.127 41.696 310.877 41.847 310.625 41.958C310.373 42.069 310.167 42.236 310.167 42.33C310.167 42.423 310.017 42.5 309.833 42.5C309.648 42.5 309.5 42.611 309.5 42.75C309.5 42.917 309.333 43 309 43C308.667 43 308.5 43.083 308.5 43.25C308.5 43.387 308.387 43.5 308.25 43.5C308.112 43.5 308 43.607 308 43.737C308 43.867 307.775 44.023 307.5 44.083C307.225 44.144 307 44.262 307 44.347C307 44.431 306.906 44.501 306.792 44.503C306.538 44.506 305.833 45.226 305.833 45.482C305.833 45.583 305.721 45.667 305.583 45.667C305.446 45.667 305.333 45.779 305.333 45.917C305.333 46.054 305.221 46.167 305.083 46.167C304.946 46.167 304.833 46.271 304.833 46.399C304.833 46.527 304.721 46.674 304.583 46.727C304.446 46.78 304.333 47.013 304.333 47.245C304.333 47.513 304.24 47.667 304.078 47.667C303.938 47.667 303.775 47.798 303.716 47.958C303.657 48.119 303.509 48.31 303.388 48.383C303.266 48.457 303.167 48.7 303.167 48.925C303.167 49.177 303.071 49.333 302.917 49.333C302.75 49.333 302.667 49.5 302.667 49.833C302.667 50.167 302.583 50.333 302.417 50.333C302.244 50.333 302.167 50.507 302.167 50.896C302.167 51.206 302.054 51.553 301.917 51.667C301.757 51.799 301.667 52.168 301.667 52.687C301.667 53.299 301.605 53.5 301.417 53.5C301.215 53.5 301.167 53.759 301.167 54.833C301.167 55.857 301.113 56.167 300.936 56.167C300.601 56.167 300.505 56.707 300.502 58.611C300.5 60.443 300.576 60.833 300.934 60.833C301.116 60.833 301.167 61.163 301.167 62.339C301.167 63.523 301.22 63.864 301.417 63.94C301.585 64.004 301.667 64.269 301.667 64.75C301.667 65.231 301.748 65.496 301.917 65.56C302.063 65.616 302.167 65.866 302.167 66.161C302.167 66.499 302.249 66.667 302.417 66.667C302.583 66.667 302.667 66.833 302.667 67.167C302.667 67.5 302.75 67.667 302.917 67.667C303.083 67.667 303.167 67.833 303.167 68.167C303.167 68.5 303.25 68.667 303.417 68.667C303.554 68.667 303.667 68.779 303.667 68.917C303.667 69.054 303.817 69.317 304 69.5C304.183 69.683 304.333 69.946 304.333 70.083C304.333 70.221 304.446 70.333 304.583 70.333C304.721 70.333 304.833 70.446 304.833 70.583C304.833 70.721 304.946 70.833 305.083 70.833C305.221 70.833 305.333 70.946 305.333 71.083C305.333 71.221 305.446 71.333 305.583 71.333C305.721 71.333 305.833 71.446 305.833 71.583C305.833 71.721 305.946 71.833 306.083 71.833C306.221 71.833 306.335 71.927 306.336 72.042C306.34 72.296 307.059 73 307.315 73C307.417 73 307.5 73.112 307.5 73.25C307.5 73.389 307.648 73.5 307.833 73.5C308.017 73.5 308.167 73.574 308.167 73.663C308.167 73.753 308.354 73.874 308.583 73.932C308.813 73.989 309 74.141 309 74.268C309 74.415 309.184 74.5 309.5 74.5C309.833 74.5 310 74.583 310 74.75C310 74.923 310.174 75 310.564 75C310.988 75 311.149 75.083 311.215 75.333C311.275 75.561 311.442 75.667 311.746 75.667C311.991 75.667 312.303 75.779 312.44 75.917C312.595 76.071 313.004 76.167 313.512 76.167C314.131 76.167 314.333 76.228 314.333 76.417C314.333 76.633 314.954 76.667 318.922 76.667C322.847 76.667 323.524 76.631 323.606 76.417C323.673 76.243 323.945 76.167 324.5 76.167C325.055 76.167 325.327 76.091 325.394 75.917C325.454 75.758 325.71 75.667 326.094 75.667C326.558 75.667 326.718 75.589 326.785 75.333C326.851 75.083 327.012 75 327.436 75C327.826 75 328 74.923 328 74.75C328 74.583 328.167 74.5 328.5 74.5C328.833 74.5 329 74.417 329 74.25C329 74.094 329.158 74 329.422 74C329.654 74 329.887 73.887 329.94 73.75C329.992 73.612 330.142 73.5 330.273 73.5C330.404 73.5 330.554 73.387 330.606 73.25C330.659 73.112 330.807 73 330.934 73C331.062 73 331.167 72.887 331.167 72.75C331.167 72.612 331.283 72.5 331.426 72.5C332.336 72.5 333.095 70.285 332.417 69.607C332.279 69.47 332.167 69.239 332.167 69.095C332.167 68.951 332.054 68.833 331.917 68.833C331.779 68.833 331.667 68.721 331.667 68.583C331.667 68.446 331.554 68.333 331.417 68.333C331.279 68.333 331.165 68.24 331.164 68.125C331.16 67.871 330.441 67.167 330.185 67.167C330.083 67.167 330 67.054 330 66.917C330 66.779 329.887 66.667 329.75 66.667C329.597 66.667 329.5 66.511 329.5 66.268C329.5 66.048 329.387 65.826 329.25 65.773C329.112 65.72 329 65.562 329 65.422C329 65.282 328.925 65.167 328.833 65.167C328.742 65.167 328.517 65.017 328.333 64.833C328.081 64.581 327.778 64.5 327.085 64.5C326.35 64.5 326.128 64.566 325.961 64.833C325.835 65.036 325.573 65.167 325.293 65.167C324.996 65.167 324.833 65.255 324.833 65.417C324.833 65.573 324.675 65.667 324.411 65.667C324.179 65.667 323.946 65.779 323.894 65.917C323.839 66.06 323.59 66.167 323.31 66.167C323.031 66.167 322.782 66.273 322.727 66.417C322.663 66.584 322.399 66.667 321.931 66.667C321.546 66.667 321.085 66.777 320.907 66.911C320.442 67.263 317.907 67.267 317.773 66.917C317.71 66.753 317.451 66.667 317.023 66.667C316.595 66.667 316.336 66.58 316.273 66.417C316.22 66.279 315.987 66.167 315.755 66.167C315.491 66.167 315.333 66.073 315.333 65.917C315.333 65.779 315.191 65.667 315.018 65.667C314.844 65.667 314.659 65.554 314.606 65.417C314.554 65.279 314.321 65.167 314.089 65.167C313.778 65.167 313.667 65.079 313.667 64.833C313.667 64.648 313.556 64.5 313.417 64.5C313.264 64.5 313.167 64.345 313.167 64.101C313.167 63.882 313.054 63.659 312.917 63.606C312.779 63.554 312.667 63.396 312.667 63.255C312.667 63.115 312.554 63 312.417 63C312.254 63 312.167 62.837 312.167 62.532C312.167 62.274 312.057 61.918 311.922 61.74C311.2 60.785 310.632 60.833 322.658 60.833C331.92 60.833 333.671 60.796 333.783 60.599C333.857 60.471 334.104 60.339 334.333 60.308C334.698 60.257 334.757 60.156 334.803 59.5C334.834 59.071 334.958 58.693 335.095 58.617C335.45 58.418 335.439 54.629 335.083 54.333C334.902 54.183 334.833 53.785 334.833 52.891C334.833 51.947 334.774 51.634 334.583 51.56C334.443 51.506 334.333 51.259 334.333 50.996C334.333 50.471 333.569 48.833 333.325 48.833C333.238 48.833 333.167 48.691 333.167 48.518C333.167 48.344 333.054 48.159 332.917 48.106C332.779 48.054 332.667 47.821 332.667 47.589C332.667 47.34 332.572 47.167 332.436 47.167C332.309 47.167 332.157 47.035 332.099 46.875C331.891 46.308 331.48 45.667 331.324 45.667C331.238 45.667 331.167 45.596 331.167 45.509C331.167 45.279 330.412 44.5 330.189 44.5C330.085 44.5 330 44.421 330 44.325C330 44.228 329.775 44.071 329.5 43.975C329.225 43.879 329 43.733 329 43.65C329 43.568 328.887 43.5 328.75 43.5C328.612 43.5 328.5 43.387 328.5 43.25C328.5 43.112 328.396 43 328.268 43C328.14 43 327.992 42.887 327.94 42.75C327.884 42.604 327.634 42.5 327.339 42.5C327.003 42.5 326.833 42.417 326.833 42.253C326.833 42.117 326.628 41.955 326.377 41.892C326.125 41.829 325.82 41.677 325.698 41.555C325.576 41.433 325.227 41.333 324.923 41.333C324.584 41.333 324.332 41.236 324.273 41.083C324.208 40.913 323.941 40.833 323.44 40.833C322.938 40.833 322.672 40.753 322.606 40.583C322.525 40.371 321.93 40.333 318.672 40.333C315.371 40.333 314.833 40.368 314.833 40.583ZM354.333 40.583C354.216 40.725 353.853 40.833 353.497 40.833C353.093 40.833 352.835 40.922 352.773 41.083C352.72 41.221 352.527 41.333 352.344 41.333C351.856 41.333 350.667 41.995 350.667 42.267C350.667 42.415 350.484 42.5 350.167 42.5C349.833 42.5 349.667 42.583 349.667 42.75C349.667 42.887 349.554 43 349.417 43C349.279 43 349.167 43.112 349.167 43.25C349.167 43.387 349.08 43.5 348.975 43.5C348.87 43.5 348.514 43.779 348.184 44.12L347.583 44.74L347.532 44.12C347.498 43.715 347.396 43.5 347.24 43.5C347.071 43.5 347 43.302 347 42.828C347 42.406 346.913 42.123 346.766 42.067C346.638 42.017 346.495 41.832 346.449 41.655C346.389 41.428 346.218 41.333 345.867 41.333C345.578 41.333 345.329 41.228 345.273 41.083C345.135 40.725 341.547 40.72 341.074 41.078C340.896 41.213 340.63 41.325 340.484 41.328C339.632 41.345 339.667 40.613 339.667 58.708V75.474L340.167 75.583C340.442 75.644 340.667 75.8 340.667 75.93C340.667 76.28 349.299 76.284 349.433 75.933C349.483 75.805 349.668 75.662 349.845 75.615C350.022 75.569 350.167 75.412 350.167 75.266C350.167 75.12 350.279 75 350.417 75C350.636 75 350.667 73.687 350.667 64.184C350.667 54.724 350.698 53.357 350.917 53.273C351.054 53.22 351.167 53.025 351.167 52.839C351.167 52.649 351.276 52.5 351.417 52.5C351.556 52.5 351.667 52.352 351.667 52.167C351.667 51.921 351.778 51.833 352.089 51.833C352.321 51.833 352.554 51.721 352.606 51.583C352.659 51.446 352.844 51.333 353.018 51.333C353.191 51.333 353.333 51.221 353.333 51.083C353.333 50.902 353.519 50.833 354.005 50.833C354.449 50.833 354.71 50.748 354.773 50.583C354.844 50.398 355.139 50.333 355.914 50.333C356.64 50.333 357.023 50.41 357.167 50.583C357.325 50.775 357.76 50.833 359.02 50.833C360.373 50.833 360.667 50.789 360.667 50.583C360.667 50.446 360.779 50.333 360.917 50.333C361.083 50.333 361.167 50.167 361.167 49.833C361.167 49.5 361.25 49.333 361.417 49.333C361.556 49.333 361.667 49.185 361.667 49C361.667 48.817 361.773 48.667 361.903 48.667C362.034 48.667 362.188 48.448 362.247 48.181C362.306 47.913 362.462 47.653 362.594 47.602C362.725 47.552 362.833 47.321 362.833 47.089C362.833 46.825 362.927 46.667 363.083 46.667C363.258 46.667 363.333 46.491 363.333 46.083C363.333 45.676 363.409 45.5 363.583 45.5C363.721 45.5 363.833 45.396 363.833 45.268C363.833 45.14 363.946 44.992 364.083 44.94C364.99 44.592 364.087 41.333 363.084 41.333C362.966 41.333 362.826 41.221 362.773 41.083C362.708 40.913 362.441 40.833 361.94 40.833C361.438 40.833 361.172 40.753 361.106 40.583C361.026 40.373 360.497 40.333 357.776 40.333C355.104 40.333 354.505 40.377 354.333 40.583ZM378.227 40.583C378.16 40.757 377.889 40.833 377.336 40.833C376.832 40.833 376.465 40.925 376.333 41.083C376.219 41.221 375.908 41.333 375.641 41.333C375.364 41.333 375.115 41.44 375.06 41.583C375.008 41.721 374.785 41.833 374.567 41.833C374.348 41.833 374.076 41.983 373.961 42.167C373.847 42.35 373.581 42.5 373.371 42.5C373.161 42.5 372.946 42.612 372.894 42.75C372.841 42.887 372.665 43 372.503 43C372.34 43 372.114 43.112 372 43.25C371.886 43.387 371.689 43.5 371.563 43.5C371.437 43.5 371.333 43.612 371.333 43.75C371.333 43.887 371.236 44 371.117 44C370.998 44 370.717 44.222 370.492 44.493C370.267 44.764 370.03 44.989 369.964 44.993C369.694 45.009 368.667 46.103 368.667 46.374C368.667 46.535 368.554 46.667 368.417 46.667C368.279 46.667 368.167 46.779 368.167 46.917C368.167 47.054 368.075 47.167 367.964 47.167C367.64 47.167 367 48.014 367 48.443C367 48.679 366.901 48.833 366.75 48.833C366.613 48.833 366.5 48.938 366.5 49.066C366.5 49.193 366.387 49.341 366.25 49.394C366.113 49.446 366 49.671 366 49.894C366 50.116 365.887 50.341 365.75 50.394C365.613 50.446 365.498 50.698 365.495 50.953C365.492 51.208 365.379 51.562 365.245 51.74C365.11 51.918 365 52.271 365 52.524C365 52.783 364.877 53.052 364.717 53.142C364.507 53.259 364.416 53.593 364.363 54.442C364.324 55.07 364.207 55.637 364.104 55.702C363.791 55.9 363.752 60.357 364.058 61.032C364.195 61.335 364.337 62.06 364.374 62.643C364.422 63.413 364.517 63.746 364.72 63.86C364.909 63.966 365 64.232 365 64.68C365 65.116 365.086 65.377 365.25 65.44C365.393 65.495 365.5 65.744 365.5 66.023C365.5 66.303 365.607 66.551 365.75 66.606C365.893 66.661 366 66.91 366 67.184C366 67.457 366.091 67.669 366.208 67.671C366.323 67.673 366.561 67.992 366.738 68.379C367.101 69.175 367.648 69.826 367.958 69.83C368.073 69.832 368.167 70.023 368.167 70.255C368.167 70.487 368.279 70.72 368.417 70.773C368.554 70.826 368.667 70.973 368.667 71.101C368.667 71.229 368.779 71.333 368.917 71.333C369.054 71.333 369.167 71.446 369.167 71.583C369.167 71.721 369.279 71.833 369.417 71.833C369.554 71.833 369.835 71.987 370.042 72.174C370.248 72.362 370.535 72.624 370.681 72.758C370.826 72.891 371.032 73 371.139 73C371.246 73 371.333 73.112 371.333 73.25C371.333 73.387 371.446 73.5 371.583 73.5C371.721 73.5 371.833 73.612 371.833 73.75C371.833 73.917 372 74 372.333 74C372.667 74 372.833 74.083 372.833 74.25C372.833 74.417 373 74.5 373.333 74.5C373.667 74.5 373.833 74.583 373.833 74.75C373.833 74.887 373.946 75 374.083 75C374.221 75 374.483 75.15 374.667 75.333C374.85 75.517 375.217 75.667 375.482 75.667C375.757 75.667 376.006 75.774 376.06 75.917C376.126 76.087 376.392 76.167 376.894 76.167C377.395 76.167 377.662 76.247 377.727 76.417C377.868 76.785 385.774 76.79 386.26 76.422C386.438 76.287 386.904 76.175 387.297 76.172C387.774 76.168 388.042 76.084 388.106 75.917C388.159 75.779 388.389 75.667 388.617 75.667C388.891 75.667 389.061 75.554 389.118 75.333C389.18 75.097 389.346 75 389.686 75C390.002 75 390.167 74.914 390.167 74.75C390.167 74.575 390.343 74.5 390.75 74.5C391.157 74.5 391.333 74.425 391.333 74.25C391.333 74.094 391.491 74 391.755 74C391.987 74 392.22 73.887 392.273 73.75C392.326 73.612 392.473 73.5 392.601 73.5C392.729 73.5 392.833 73.387 392.833 73.25C392.833 73.112 392.946 73 393.083 73C393.221 73 393.333 72.896 393.333 72.769C393.333 72.643 393.483 72.5 393.667 72.452C393.85 72.404 394 72.245 394 72.099C394 71.934 394.143 71.833 394.38 71.833C394.793 71.833 395.262 71.376 395.505 70.738C395.589 70.515 395.735 70.333 395.829 70.333C395.923 70.333 396 70.221 396 70.083C396 69.946 396.113 69.833 396.25 69.833C396.387 69.833 396.5 69.739 396.5 69.623C396.5 69.508 396.65 69.32 396.833 69.205C397.022 69.088 397.167 68.817 397.167 68.582C397.167 68.324 397.261 68.167 397.417 68.167C397.554 68.167 397.667 68.062 397.667 67.934C397.667 67.807 397.779 67.659 397.917 67.606C398.054 67.554 398.167 67.315 398.167 67.077C398.167 66.838 398.279 66.53 398.417 66.393C398.554 66.255 398.667 65.886 398.667 65.571C398.667 65.175 398.743 65 398.917 65C399.102 65 399.167 64.806 399.167 64.25C399.167 63.694 399.231 63.5 399.417 63.5C399.618 63.5 399.667 63.241 399.667 62.167C399.667 61.389 399.736 60.833 399.833 60.833C399.937 60.833 400 59.944 400 58.5C400 57.056 399.937 56.167 399.833 56.167C399.736 56.167 399.667 55.611 399.667 54.833C399.667 53.759 399.618 53.5 399.417 53.5C399.231 53.5 399.167 53.306 399.167 52.75C399.167 52.194 399.102 52 398.917 52C398.744 52 398.667 51.826 398.667 51.434C398.667 51.086 398.571 50.832 398.417 50.773C398.279 50.72 398.167 50.496 398.167 50.276C398.167 50.055 398.054 49.781 397.917 49.667C397.779 49.553 397.667 49.318 397.667 49.146C397.667 48.974 397.554 48.833 397.417 48.833C397.278 48.833 397.167 48.685 397.167 48.5C397.167 48.317 397.017 48.017 396.833 47.833C396.65 47.65 396.5 47.425 396.5 47.333C396.5 47.242 396.387 47.167 396.25 47.167C396.113 47.167 396 47.054 396 46.917C396 46.779 395.887 46.667 395.75 46.667C395.613 46.667 395.5 46.554 395.5 46.417C395.5 46.279 395.387 46.167 395.25 46.167C395.113 46.167 395 46.054 395 45.917C395 45.779 394.887 45.667 394.75 45.667C394.613 45.667 394.499 45.573 394.497 45.458C394.494 45.204 393.774 44.5 393.518 44.5C393.417 44.5 393.333 44.387 393.333 44.25C393.333 44.112 393.221 44 393.083 44C392.946 44 392.833 43.887 392.833 43.75C392.833 43.583 392.667 43.5 392.333 43.5C392 43.5 391.833 43.417 391.833 43.25C391.833 43.111 391.685 43 391.5 43C391.315 43 391.167 42.889 391.167 42.75C391.167 42.583 391 42.5 390.667 42.5C390.33 42.5 390.167 42.417 390.167 42.246C390.167 42.098 389.962 41.951 389.677 41.894C389.408 41.84 389.148 41.692 389.099 41.565C389.044 41.422 388.761 41.333 388.356 41.333C387.929 41.333 387.669 41.247 387.606 41.083C387.541 40.913 387.275 40.833 386.773 40.833C386.271 40.833 386.005 40.753 385.94 40.583C385.858 40.371 385.272 40.333 382.083 40.333C378.894 40.333 378.308 40.371 378.227 40.583ZM47.667 46.917C47.553 47.054 47.316 47.167 47.142 47.167C46.925 47.167 46.794 47.32 46.727 47.656C46.673 47.925 46.525 48.185 46.398 48.234C46.045 48.37 46.052 74.5 46.406 74.5C46.54 74.5 46.668 74.694 46.697 74.942C46.726 75.184 46.897 75.466 47.076 75.567C47.256 75.667 47.505 75.844 47.63 75.958C47.979 76.278 50.648 76.243 50.773 75.917C50.826 75.779 50.976 75.667 51.106 75.667C51.237 75.667 51.392 75.535 51.451 75.375C51.51 75.215 51.658 75.023 51.779 74.95C52.132 74.737 52.103 48.127 51.75 47.833C51.612 47.719 51.5 47.523 51.5 47.396C51.5 47.27 51.35 47.167 51.167 47.167C50.981 47.167 50.833 47.056 50.833 46.917C50.833 46.713 50.558 46.667 49.354 46.667C48.242 46.667 47.823 46.729 47.667 46.917ZM210.333 46.917C210.333 47.081 210.498 47.167 210.816 47.167C211.09 47.167 211.339 47.274 211.394 47.417C211.45 47.563 211.699 47.667 211.995 47.667C212.333 47.667 212.5 47.749 212.5 47.917C212.5 48.054 212.612 48.167 212.75 48.167C212.887 48.167 213 48.279 213 48.417C213 48.554 213.079 48.667 213.175 48.667C213.359 48.667 213.715 49.024 214.655 50.149C214.969 50.525 215.325 50.833 215.446 50.833C215.58 50.833 215.667 51.03 215.667 51.333C215.667 51.667 215.75 51.833 215.917 51.833C216.101 51.833 216.167 52.026 216.167 52.566C216.167 53.063 216.247 53.328 216.417 53.394C216.563 53.45 216.667 53.699 216.667 53.995V54.5H207.167H197.667V54C197.667 53.667 197.75 53.5 197.917 53.5C198.084 53.5 198.167 53.333 198.167 52.995C198.167 52.699 198.271 52.45 198.417 52.394C198.559 52.339 198.667 52.09 198.667 51.816C198.667 51.498 198.752 51.333 198.917 51.333C199.054 51.333 199.167 51.23 199.167 51.104C199.167 50.977 199.279 50.781 199.417 50.667C199.554 50.553 199.667 50.318 199.667 50.146C199.667 49.944 199.785 49.833 200 49.833C200.183 49.833 200.333 49.729 200.333 49.601C200.333 49.473 200.446 49.326 200.583 49.273C200.721 49.22 200.833 49.062 200.833 48.922C200.833 48.76 200.987 48.667 201.255 48.667C201.487 48.667 201.72 48.554 201.773 48.417C201.826 48.279 201.973 48.167 202.101 48.167C202.229 48.167 202.333 48.054 202.333 47.917C202.333 47.749 202.501 47.667 202.839 47.667C203.134 47.667 203.384 47.563 203.44 47.417C203.502 47.253 203.762 47.167 204.19 47.167C204.617 47.167 204.877 47.08 204.94 46.917C205.019 46.709 205.484 46.667 207.684 46.667C209.928 46.667 210.333 46.705 210.333 46.917ZM320.667 49.583C320.667 49.721 320.807 49.833 320.98 49.833C321.152 49.833 321.386 49.946 321.5 50.083C321.614 50.221 321.811 50.333 321.937 50.333C322.063 50.333 322.167 50.446 322.167 50.583C322.167 50.721 322.279 50.833 322.417 50.833C322.554 50.833 322.667 50.946 322.667 51.083C322.667 51.222 322.815 51.333 323 51.333C323.26 51.333 323.333 51.444 323.333 51.839C323.333 52.134 323.437 52.384 323.583 52.44C323.745 52.502 323.833 52.76 323.833 53.171C323.833 53.523 323.926 53.843 324.042 53.89C324.156 53.936 321.624 53.98 318.415 53.987L312.581 54L312.641 53.25C312.681 52.747 312.777 52.5 312.933 52.5C313.062 52.5 313.167 52.35 313.167 52.167C313.167 51.981 313.278 51.833 313.417 51.833C313.554 51.833 313.667 51.747 313.667 51.642C313.667 51.404 314.647 50.439 315.042 50.289C315.202 50.227 315.333 50.1 315.333 50.005C315.333 49.911 315.523 49.833 315.755 49.833C315.987 49.833 316.22 49.721 316.273 49.583C316.351 49.379 316.762 49.333 318.518 49.333C320.317 49.333 320.667 49.374 320.667 49.583ZM383.394 50.583C383.459 50.755 383.727 50.833 384.245 50.833C384.805 50.833 385 50.898 385 51.083C385 51.24 385.158 51.333 385.422 51.333C385.654 51.333 385.887 51.446 385.94 51.583C385.992 51.721 386.14 51.833 386.268 51.833C386.396 51.833 386.5 51.948 386.5 52.089C386.5 52.229 386.626 52.392 386.779 52.451C387.135 52.587 387.667 53.116 387.667 53.333C387.667 53.425 387.779 53.5 387.917 53.5C388.054 53.5 388.167 53.612 388.167 53.75C388.167 53.887 388.279 54 388.417 54C388.583 54 388.667 54.167 388.667 54.5C388.667 54.833 388.75 55 388.917 55C389.102 55 389.167 55.195 389.167 55.755C389.167 56.273 389.245 56.541 389.417 56.606C389.618 56.683 389.667 57.056 389.667 58.5C389.667 59.944 389.618 60.317 389.417 60.394C389.245 60.459 389.167 60.727 389.167 61.245C389.167 61.805 389.102 62 388.917 62C388.75 62 388.667 62.167 388.667 62.5C388.667 62.833 388.583 63 388.417 63C388.279 63 388.167 63.112 388.167 63.25C388.167 63.387 388.054 63.5 387.917 63.5C387.779 63.5 387.667 63.572 387.667 63.66C387.667 63.864 386.358 65.167 386.153 65.167C386.069 65.167 386 65.279 386 65.417C386 65.583 385.833 65.667 385.5 65.667C385.167 65.667 385 65.75 385 65.917C385 66.082 384.835 66.167 384.512 66.167C384.243 66.167 383.911 66.279 383.774 66.417C383.585 66.606 383.115 66.667 381.845 66.667C380.464 66.667 380.167 66.622 380.167 66.417C380.167 66.244 379.993 66.167 379.601 66.167C379.252 66.167 378.999 66.071 378.94 65.917C378.887 65.779 378.689 65.667 378.5 65.667C378.311 65.667 378.113 65.554 378.06 65.417C378.008 65.279 377.86 65.167 377.732 65.167C377.604 65.167 377.5 65.094 377.5 65.004C377.5 64.915 377.275 64.726 377 64.583C376.697 64.426 376.5 64.193 376.5 63.99C376.5 63.807 376.387 63.613 376.25 63.56C376.113 63.508 376 63.36 376 63.232C376 63.104 375.887 63 375.75 63C375.594 63 375.5 62.842 375.5 62.578C375.5 62.346 375.387 62.113 375.25 62.06C375.107 62.006 375 61.757 375 61.482C375 61.217 374.85 60.85 374.667 60.667C374.218 60.218 374.158 56.781 374.595 56.537C374.74 56.456 374.899 56.077 374.951 55.695C375.009 55.263 375.13 55 375.272 55C375.414 55 375.5 54.812 375.5 54.5C375.5 54.167 375.583 54 375.75 54C375.887 54 376 53.896 376 53.768C376 53.64 376.113 53.492 376.25 53.44C376.387 53.387 376.5 53.229 376.5 53.089C376.5 52.948 376.574 52.833 376.665 52.833C376.918 52.833 377.5 52.285 377.5 52.046C377.5 51.929 377.65 51.833 377.833 51.833C378.019 51.833 378.167 51.722 378.167 51.583C378.167 51.417 378.333 51.333 378.667 51.333C379 51.333 379.167 51.25 379.167 51.083C379.167 50.898 379.361 50.833 379.917 50.833C380.472 50.833 380.667 50.769 380.667 50.583C380.667 50.382 380.924 50.333 381.982 50.333C382.998 50.333 383.32 50.39 383.394 50.583ZM31.5 59.083C31.5 59.222 31.352 59.333 31.167 59.333C30.981 59.333 30.833 59.444 30.833 59.583C30.833 59.721 30.721 59.833 30.583 59.833C30.365 59.833 30.333 60.85 30.333 67.987V76.141L30.846 76.654C31.198 77.006 31.521 77.167 31.875 77.167C32.158 77.167 32.528 77.291 32.695 77.442C32.979 77.699 33.021 77.699 33.305 77.442C33.487 77.278 33.892 77.167 34.31 77.167C34.779 77.167 35.042 77.084 35.106 76.917C35.159 76.779 35.307 76.667 35.434 76.667C35.562 76.667 35.667 76.563 35.667 76.437C35.667 76.311 35.779 76.114 35.917 76C36.278 75.7 36.296 60.539 35.935 60.401C35.808 60.352 35.66 60.092 35.606 59.823C35.524 59.411 35.429 59.333 35.004 59.333C34.667 59.333 34.5 59.25 34.5 59.083C34.5 58.88 34.222 58.833 33 58.833C31.778 58.833 31.5 58.88 31.5 59.083ZM64.167 59.083C64.167 59.221 64.054 59.333 63.917 59.333C63.779 59.333 63.667 59.446 63.667 59.583C63.667 59.721 63.554 59.833 63.417 59.833C63.198 59.833 63.167 60.863 63.167 68.102V76.37L63.542 76.765C63.817 77.056 64.099 77.162 64.607 77.164C65.065 77.166 65.33 77.251 65.394 77.417C65.446 77.554 65.607 77.667 65.75 77.667C65.893 77.667 66.054 77.554 66.106 77.417C66.172 77.247 66.438 77.167 66.94 77.167C67.441 77.167 67.708 77.087 67.773 76.917C67.826 76.779 67.973 76.667 68.101 76.667C68.229 76.667 68.333 76.525 68.333 76.351C68.333 76.178 68.446 75.992 68.583 75.94C68.945 75.801 68.963 60.539 68.602 60.401C68.475 60.352 68.327 60.092 68.273 59.823C68.197 59.443 68.084 59.333 67.772 59.333C67.55 59.333 67.326 59.221 67.273 59.083C67.198 58.887 66.856 58.833 65.672 58.833C64.445 58.833 64.167 58.88 64.167 59.083Z" fill="#076A73"/>
</svg>
