<?xml version="1.0" encoding="UTF-8" standalone="no"?>
<!-- Created with Inkscape (http://www.inkscape.org/) -->
<svg
   xmlns:svg="http://www.w3.org/2000/svg"
   xmlns="http://www.w3.org/2000/svg"
   version="1.0"
   width="744.09448"
   height="421.65353"
   id="svg7965">
  <defs
     id="defs7967" />
  <g
     transform="translate(-41.80753,-249.71311)"
     id="layer1">
    <g
       transform="translate(17.716556,17.753962)"
       id="g8273">
      <path
         d="M 268.42867,260.02625 C 218.99045,265.98628 172.52346,279.34795 130.68028,303.94403 C 102.33948,322.56246 78.28845,351.71195 78.62249,388.24564 C 76.63581,424.77928 98.7177,455.33539 127.39263,474.30543 C 226.25144,531.91889 353.75004,533.50118 472.3877,522.97009 L 484.7473,521.88006 C 484.7473,521.88006 666.4662,508.58868 682.6232,407.56734 C 689.2162,366.8142 670.1582,331.63429 638.4593,309.90403 C 617.0279,295.46991 600.5719,288.82418 600.5719,288.82418 C 502.0295,250.90168 389.75632,247.45576 280.99916,258.69007 L 268.42867,260.02625 z "
         style="font-size:2.27740002px;letter-spacing:0;word-spacing:0;fill:#ffffff;fill-rule:nonzero;stroke:#672c06;stroke-width:6.69842196;stroke-miterlimit:4;font-family:fnt2, &quot;GillSans&quot;, Arial"
         id="path1397" />
      <path
         d="M 57.70089,552.94598 C 58.24591,551.15268 59.26562,550.37913 61.60387,550.37913 C 66.64969,550.37913 79.95862,554.17665 81.64646,555.17877 C 84.21329,556.76103 84.88137,558.32577 86.00656,568.27676 C 88.46796,592.09921 94.72683,624.78258 94.72683,626.34732 C 94.72683,629.58222 89.90957,630.70744 86.21752,630.70744 C 81.4179,630.70744 79.85316,630.05691 79.18511,628.91415 C 78.62249,628.03511 75.70398,617.39849 75.36996,615.27118 C 73.13717,615.83377 70.90433,615.27118 69.00561,615.27118 C 66.2102,615.27118 61.04135,615.83377 60.93579,616.29091 C 59.59964,621.40702 58.24591,633.06331 57.57781,634.8566 C 57.36685,635.52468 55.34502,635.85872 53.21768,635.85872 C 48.75208,635.85872 41.80753,631.72715 41.80753,629.26581 C 41.80753,616.85344 53.1122,568.50525 57.70089,552.94598 z M 66.87825,600.27441 C 68.21443,600.27441 71.90645,600.06347 71.90645,599.16684 C 71.90645,597.25044 69.65604,581.69117 69.65604,578.56172 C 69.65604,574.43016 69.21654,573.86756 68.54847,573.86756 C 67.88037,573.86756 67.52878,574.88722 66.98373,580.35502 C 66.42113,587.73911 63.85428,598.16472 63.85428,599.27229 C 63.85428,600.06347 64.97952,600.27441 66.87825,600.27441"
         style="font-size:2.27740002px;letter-spacing:0;word-spacing:0;fill:#ed8d46;fill-rule:nonzero;stroke:none;stroke-width:0.38100001;stroke-miterlimit:4;font-family:fnt2, &quot;GillSans&quot;, Arial"
         id="path1401" />
      <path
         d="M 98.08482,583.85367 C 98.08482,575.151 97.909,572.90054 97.909,571.31828 C 97.909,569.66563 99.40342,568.01299 100.88023,568.01299 C 103.83386,568.01299 105.2228,568.3646 107.66653,569.41953 C 110.26855,570.54472 112.11459,571.23037 112.11459,572.26765 C 112.11459,572.90054 111.83326,574.27191 111.83326,575.32672 C 111.83326,581.77908 112.02668,588.12587 112.02668,594.56061 C 112.02668,600.3096 111.92117,606.04105 111.92117,613.72399 C 111.92117,614.67339 112.71235,614.93711 114.54077,615.20089 C 118.72512,615.8162 121.06337,616.15027 124.45657,617.97866 C 125.86301,618.75226 126.2147,625.73196 126.2147,626.34732 C 126.2147,626.94508 125.77518,627.47251 124.45657,627.56044 C 117.0725,628.07023 106.52376,631.92054 105.57439,631.92054 C 104.71295,631.92054 98.17275,627.64828 97.99691,624.6771 C 97.7508,617.80281 97.57496,611.54394 97.57496,605.09167 C 97.57496,598.72732 98.08482,590.90366 98.08482,583.85367"
         style="font-size:2.27740002px;letter-spacing:0;word-spacing:0;fill:#ed8d46;fill-rule:nonzero;stroke:none;stroke-width:0.38100001;stroke-miterlimit:4;font-family:fnt2, &quot;GillSans&quot;, Arial"
         id="path1405" />
      <path
         d="M 129.78364,583.85367 C 129.78364,575.151 129.6078,572.90054 129.6078,571.31828 C 129.6078,569.66563 131.08468,568.01299 132.56148,568.01299 C 135.53271,568.01299 136.9216,568.3646 139.34778,569.41953 C 141.96735,570.54472 143.79584,571.23037 143.79584,572.26765 C 143.79584,572.90054 143.53207,574.27191 143.53207,575.32672 C 143.53207,581.77908 143.70791,588.12587 143.70791,594.56061 C 143.70791,600.3096 143.61997,606.04105 143.61997,613.72399 C 143.61997,614.67339 144.41115,614.93711 146.23962,615.20089 C 150.40635,615.8162 152.76217,616.15027 156.15537,617.97866 C 157.54427,618.75226 157.89595,625.73196 157.89595,626.34732 C 157.89595,626.94508 157.47398,627.47251 156.15537,627.56044 C 148.75373,628.07023 138.22257,631.92054 137.25564,631.92054 C 136.39415,631.92054 129.87155,627.64828 129.69573,624.6771 C 129.43205,617.80281 129.25619,611.54394 129.25619,605.09167 C 129.25619,598.72732 129.78364,590.90366 129.78364,583.85367"
         style="font-size:2.27740002px;letter-spacing:0;word-spacing:0;fill:#ed8d46;fill-rule:nonzero;stroke:none;stroke-width:0.38100001;stroke-miterlimit:4;font-family:fnt2, &quot;GillSans&quot;, Arial"
         id="path1409" />
      <path
         d="M 202.65753,552.94598 C 203.22015,551.15268 204.23984,550.37913 206.57816,550.37913 C 211.6239,550.37913 224.93283,554.17665 226.6031,555.17877 C 229.1875,556.76103 229.85558,558.32577 230.98077,568.27676 C 233.44217,592.09921 239.70105,624.78258 239.70105,626.34732 C 239.70105,629.58222 234.88383,630.70744 231.19178,630.70744 C 226.39212,630.70744 224.82738,630.05691 224.14173,628.91415 C 223.57913,628.03511 220.67826,617.39849 220.34423,615.27118 C 218.09379,615.83377 215.861,615.27118 213.96227,615.27118 C 211.16686,615.27118 206.01556,615.83377 205.91008,616.29091 C 204.5563,621.40702 203.22015,633.06331 202.55207,634.8566 C 202.32351,635.52468 200.30166,635.85872 198.19195,635.85872 C 193.70875,635.85872 186.78177,631.72715 186.78177,629.26581 C 186.78177,616.85344 198.06887,568.50525 202.65753,552.94598 z M 211.83492,600.27441 C 213.17109,600.27441 216.86312,600.06347 216.86312,599.16684 C 216.86312,597.25044 214.63033,581.69117 214.63033,578.56172 C 214.63033,574.43016 214.19083,573.86756 213.52268,573.86756 C 212.83703,573.86756 212.50299,574.88722 211.9404,580.35502 C 211.39542,587.73911 208.81095,598.16472 208.81095,599.27229 C 208.81095,600.06347 209.93619,600.27441 211.83492,600.27441"
         style="font-size:2.27740002px;letter-spacing:0;word-spacing:0;fill:#ed8d46;fill-rule:nonzero;stroke:none;stroke-width:0.38100001;stroke-miterlimit:4;font-family:fnt2, &quot;GillSans&quot;, Arial"
         id="path1413" />
      <path
         d="M 289.01623,599.87008 C 289.01623,614.93711 288.66457,624.25518 288.40087,629.74049 C 288.31296,631.28759 288.04921,631.92054 284.39233,631.92054 C 282.30019,631.92054 275.77759,630.77773 275.77759,628.7735 C 275.77759,620.8444 277.35993,596.23078 277.35993,593.69907 C 277.35993,592.2926 277.27202,591.25532 276.92036,591.25532 C 276.39293,591.25532 276.12923,592.57392 275.8655,594.05073 C 274.21285,603.7028 271.87458,614.14596 271.0834,616.15027 C 270.556,617.62705 269.25494,625.64405 268.3935,625.64405 C 266.12549,625.64405 262.20498,624.94078 261.25554,623.90349 C 260.28859,622.93654 256.80753,605.35542 255.92844,598.12953 C 255.50652,594.38474 255.15493,593.87488 254.62743,593.87488 C 254.27584,593.87488 253.9418,594.47265 253.9418,596.05496 C 253.9418,597.00433 254.99666,604.91586 254.99666,630.42614 C 254.99666,631.56891 254.53957,631.92054 252.6232,631.92054 C 250.7069,631.92054 245.59074,630.16237 243.93814,628.86141 C 243.05905,628.15814 242.97112,627.29669 242.79538,625.38032 C 242.5316,622.42669 242.44369,619.27969 242.44369,607.09591 C 242.44369,589.42683 243.14696,583.67783 243.14696,576.02999 C 243.14696,573.14667 245.59074,571.31828 248.98389,571.31828 C 251.93757,571.31828 259.77871,573.32251 260.90392,573.76203 C 261.87085,574.11367 262.20498,581.77908 263.52349,586.73692 C 264.82453,591.69483 264.5608,596.23078 265.42227,596.23078 C 266.47717,596.23078 267.51446,587.07096 268.3935,583.43173 C 269.43078,578.91331 271.69877,571.51167 271.69877,570.3689 C 271.69877,568.18885 272.20865,568.01299 273.703,568.01299 C 275.35564,568.01299 281.96618,569.41953 285.0077,570.89631 C 288.48881,572.63689 289.01623,572.90054 289.01623,575.41468 L 289.01623,599.87008"
         style="font-size:2.27740002px;letter-spacing:0;word-spacing:0;fill:#ed8d46;fill-rule:nonzero;stroke:none;stroke-width:0.38100001;stroke-miterlimit:4;font-family:fnt2, &quot;GillSans&quot;, Arial"
         id="path1417" />
      <path
         d="M 311.92443,594.29683 C 320.09967,594.29683 321.22492,594.66606 322.5435,596.65275 C 324.19614,599.18438 324.45982,599.51842 324.45982,603.7028 C 324.45982,605.6191 324.19614,605.88285 322.36768,606.23444 C 316.44282,607.09591 312.27609,607.88708 309.74435,608.23867 C 309.04118,608.32658 308.77743,608.67824 308.77743,609.36389 C 308.77743,614.14596 308.86534,615.28873 308.86534,615.90406 C 308.86534,616.76558 309.12904,616.85344 309.92019,616.85344 C 311.13332,616.85344 313.8408,616.57214 318.35914,616.57214 C 320.80294,616.57214 321.06662,616.85344 323.40497,619.80712 C 325.58502,622.51462 325.93663,623.63982 325.93663,627.3846 C 325.93663,628.07023 325.4092,628.33398 321.48859,628.7735 C 315.22972,629.47674 304.61069,631.92054 303.30971,631.92054 C 302.07903,631.92054 299.82862,630.33819 297.9123,628.86141 C 296.68162,627.89446 295.20475,625.29246 295.11689,622.16301 C 295.02898,617.89072 294.94107,614.49762 294.94107,611.01653 C 294.94107,595.96703 296.15412,579.5111 296.15412,573.14667 C 296.15412,570.54472 296.59369,570.10518 297.47273,570.10518 C 301.04175,570.10518 306.87865,569.92941 312.43431,569.92941 C 318.09544,569.92941 322.96545,570.19309 324.45982,573.49835 C 325.67295,576.38167 326.20035,578.03429 326.20035,581.25165 C 326.20035,582.04276 326.02453,582.30651 325.32126,582.37677 C 321.15453,582.90427 311.92443,583.85367 310.53553,583.85367 C 309.65652,583.85367 309.39277,584.02942 309.30486,584.99642 C 309.04118,587.95005 308.86534,591.25532 308.86534,592.99587 C 308.86534,594.05073 309.30486,594.29683 310.44762,594.29683 L 311.92443,594.29683"
         style="font-size:2.27740002px;letter-spacing:0;word-spacing:0;fill:#ed8d46;fill-rule:nonzero;stroke:none;stroke-width:0.38100001;stroke-miterlimit:4;font-family:fnt2, &quot;GillSans&quot;, Arial"
         id="path1421" />
      <path
         d="M 332.30103,583.08004 C 332.30103,577.59473 332.58235,575.50258 332.58235,573.32251 C 332.58235,571.14246 337.52265,570.3689 339.36863,569.66563 C 340.84546,569.13823 345.89128,568.01299 349.02071,568.01299 C 352.7655,568.01299 362.34721,569.33162 364.77339,574.44773 C 365.74039,576.53987 370.96198,581.42742 370.96198,588.21377 C 370.96198,597.35597 359.99129,604.75766 359.99129,606.32235 C 359.99129,608.13321 364.4218,613.97019 366.60185,617.45123 C 369.48517,621.98717 370.52248,624.16722 370.52248,626.1539 C 370.52248,627.73619 367.48094,631.92054 366.17988,631.92054 C 363.64825,631.92054 357.37175,625.97809 353.55665,621.3015 C 350.05802,617.11719 346.92857,612.66916 346.24287,612.66916 C 345.80337,612.66916 345.71547,612.93291 345.71547,614.14596 C 345.71547,615.28873 345.89128,616.85344 345.89128,619.45546 C 345.89128,620.93231 345.71547,623.97385 345.71547,629.12513 C 345.71547,631.12936 344.83638,631.92054 342.76183,631.92054 C 340.93337,631.92054 338.66541,631.12936 336.04582,629.9866 C 334.65687,629.37129 332.30103,628.86141 332.30103,625.02871 L 332.30103,583.08004 z M 352.94134,580.21437 C 351.72819,580.21437 350.42722,580.46047 349.19655,580.46047 C 347.01643,580.46047 346.68237,582.04276 346.59455,583.85367 C 346.41869,588.38954 346.24287,592.8376 346.24287,598.05924 C 346.24287,598.65696 346.33078,598.92071 346.68237,598.92071 C 347.456,598.92071 357.89915,590.74546 357.89915,584.46901 C 357.89915,581.25165 355.54334,580.21437 352.94134,580.21437"
         style="font-size:2.27740002px;letter-spacing:0;word-spacing:0;fill:#ed8d46;fill-rule:nonzero;stroke:none;stroke-width:0.38100001;stroke-miterlimit:4;font-family:fnt2, &quot;GillSans&quot;, Arial"
         id="path1425" />
      <path
         d="M 379.33062,630.51405 C 377.41424,629.81078 376.5528,629.37129 376.5528,628.7735 C 376.5528,618.57645 376.20119,610.75286 376.20119,602.7534 C 376.20119,596.38897 376.64071,583.67783 376.64071,579.33528 C 376.64071,572.98847 376.20119,572.10946 376.20119,571.05453 C 376.20119,569.05032 377.59008,568.01299 380.98326,568.01299 C 382.63591,568.01299 384.90389,568.71626 387.61137,569.66563 C 390.12546,570.63258 391.16277,571.05453 391.16277,572.02155 C 391.16277,573.84994 390.91664,574.97513 390.91664,576.82117 C 390.91664,582.81637 390.82873,588.74123 390.82873,594.82426 C 390.82873,607.97499 391.00454,613.28449 391.00454,615.8162 C 391.00454,620.58068 390.82873,625.55614 390.82873,630.33819 C 390.82873,631.28759 386.99603,631.92054 384.55228,631.92054 C 381.24694,631.92054 380.12179,630.77773 379.33062,630.51405"
         style="font-size:2.27740002px;letter-spacing:0;word-spacing:0;fill:#ed8d46;fill-rule:nonzero;stroke:none;stroke-width:0.38100001;stroke-miterlimit:4;font-family:fnt2, &quot;GillSans&quot;, Arial"
         id="path1429" />
      <path
         d="M 402.50263,579.33528 C 407.90006,568.80417 408.58569,568.01299 413.63151,568.01299 C 419.90796,568.01299 424.6021,569.33162 426.4306,570.98426 C 427.7316,572.10946 430.1753,576.38167 430.7028,578.80785 C 431.6522,583.16795 432.0038,586.64906 432.0038,590.99156 C 432.0038,592.90796 431.9159,595.70335 431.0544,596.14287 C 429.7359,596.82857 426.7822,597.00433 425.9911,597.00433 C 422.5979,597.00433 421.6485,596.30106 420.2596,592.99587 C 419.46844,591.34322 419.11685,589.16315 418.78274,584.55687 C 418.67726,582.81637 418.43115,581.95485 417.39387,581.95485 C 415.98733,581.95485 414.42262,587.70392 412.68214,593.69907 C 410.94161,599.60633 409.99221,606.12898 409.99221,607.79915 C 409.99221,614.93711 411.89096,619.20935 414.59846,619.20935 C 419.73219,619.20935 424.0044,609.80348 424.1626,608.74853 C 424.6021,606.76187 424.9538,606.12898 427.1338,606.12898 C 428.9622,606.12898 430.527,607.18381 432.1796,608.13321 C 434.096,609.18812 435.0454,610.40117 435.0454,612.22964 C 435.0454,616.41394 432.6895,621.3015 431.1423,624.34309 C 429.0502,628.33398 424.5143,631.92054 416.9368,631.92054 C 404.48932,631.92054 396.05032,620.33455 396.05032,604.65215 C 396.05032,596.30106 400.14676,583.85367 402.50263,579.33528"
         style="font-size:2.27740002px;letter-spacing:0;word-spacing:0;fill:#ed8d46;fill-rule:nonzero;stroke:none;stroke-width:0.38100001;stroke-miterlimit:4;font-family:fnt2, &quot;GillSans&quot;, Arial"
         id="path1433" />
      <path
         d="M 448.4598,570.01722 C 448.8993,568.62835 449.6904,568.01299 451.5189,568.01299 C 455.4219,568.01299 465.7948,570.98426 467.0958,571.77539 C 469.1001,572.98847 469.6099,574.2016 470.4889,581.95485 C 472.4053,600.48542 477.2753,625.89018 477.2753,627.10328 C 477.2753,629.65258 473.5305,630.51405 470.6472,630.51405 C 466.92,630.51405 465.6893,629.9866 465.1794,629.12513 C 464.7399,628.42191 462.472,620.15873 462.2258,618.50608 C 460.4677,618.94568 458.7272,618.50608 457.2504,618.50608 C 455.0703,618.50608 451.0793,618.94568 450.9915,619.27969 C 449.9366,623.28813 448.8993,632.34244 448.3719,633.73141 C 448.1961,634.25881 446.6314,634.52257 444.9787,634.52257 C 441.4976,634.52257 436.1002,631.28759 436.1002,629.37129 C 436.1002,619.71921 444.8908,582.1131 448.4598,570.01722 z M 455.5977,606.83223 C 456.6526,606.83223 459.5183,606.67393 459.5183,605.97076 C 459.5183,604.49388 457.7778,592.38051 457.7778,589.95428 C 457.7778,586.73692 457.4262,586.2974 456.8987,586.2974 C 456.3889,586.2974 456.1252,587.07096 455.6856,591.34322 C 455.2461,597.09224 453.2595,605.17958 453.2595,606.04105 C 453.2595,606.67393 454.1209,606.83223 455.5977,606.83223"
         style="font-size:2.27740002px;letter-spacing:0;word-spacing:0;fill:#ed8d46;fill-rule:nonzero;stroke:none;stroke-width:0.38100001;stroke-miterlimit:4;font-family:fnt2, &quot;GillSans&quot;, Arial"
         id="path1437" />
      <path
         d="M 481.3014,630.33819 C 480.9497,621.54767 480.8618,610.50665 480.8618,606.83223 C 480.8618,599.18438 481.5475,586.64906 481.5475,578.5441 C 481.5475,577.94636 481.3893,577.06727 481.3893,576.45196 C 481.3893,573.41042 483.1298,572.02155 484.9407,572.02155 C 490.1623,572.02155 491.1292,573.23458 494.1708,574.11367 C 496.263,574.72903 497.5639,576.18828 497.7574,579.66932 C 497.8277,581.6736 503.9284,600.3096 504.5436,600.3096 C 504.7898,600.3096 504.8777,599.97556 504.8777,597.4439 C 504.8777,594.82426 504.5436,590.1301 504.5436,571.51167 C 504.5436,568.55806 505.2293,568.01299 511.33,568.01299 C 514.5474,568.01299 517.7647,569.33162 517.7647,570.89631 C 517.7647,618.75226 517.3252,624.41337 517.3252,626.1539 C 517.3252,627.03294 517.5889,627.99994 517.5889,628.68559 C 517.5889,630.16237 516.6395,630.86564 513.8441,630.86564 C 509.7477,630.86564 506.5303,630.33819 505.3173,628.24604 C 497.3881,614.49762 493.8367,603.96648 493.4851,603.96648 C 493.2214,603.96648 493.0456,604.05439 493.0456,604.75766 C 493.0456,606.67393 493.573,617.29303 493.573,628.24604 C 493.573,631.56891 492.0786,633.64348 488.2635,633.64348 C 487.1208,633.64348 481.3893,632.6941 481.3014,630.33819"
         style="font-size:2.27740002px;letter-spacing:0;word-spacing:0;fill:#ed8d46;fill-rule:nonzero;stroke:none;stroke-width:0.38100001;stroke-miterlimit:4;font-family:fnt2, &quot;GillSans&quot;, Arial"
         id="path1441" />
      <path
         d="M 573.8486,625.22208 C 573.8486,631.60408 572.5124,632.51828 568.0292,632.51828 C 565.5679,632.51828 559.7485,629.93388 558.5178,629.58222 C 557.0586,629.26581 556.496,627.47251 556.496,625.22208 C 556.496,616.06236 555.951,605.98833 555.951,593.43537 C 555.951,572.09181 556.285,566.14943 556.285,562.56286 C 556.285,560.66409 556.0565,558.87082 556.0565,556.97206 C 556.0565,555.17877 556.8476,554.05355 558.7464,553.84261 C 567.0096,553.17454 577.3297,552.8405 583.7116,552.8405 C 587.1575,552.8405 588.8277,553.17454 589.742,554.17665 C 593.2055,558.09726 594.4185,561.45527 594.4185,566.48347 C 594.4185,569.27888 593.2055,569.61292 588.2827,570.06996 C 584.2567,570.40407 575.9759,570.84359 574.8507,571.40619 C 574.3057,571.63477 573.9541,572.17975 573.9541,583.1504 C 573.9541,584.39863 574.0772,584.71514 575.0793,584.71514 C 576.3099,584.71514 578.5428,584.39863 580.002,584.39863 C 582.1293,584.39863 586.8411,584.9437 589.4079,585.73481 C 590.8496,586.19192 593.6625,592.0113 593.6625,595.80883 C 593.6625,599.16684 593.2055,599.60633 589.8475,600.27441 C 583.5886,601.38205 577.3297,602.17319 575.5364,602.29626 C 574.5167,602.29626 573.8486,602.73578 573.8486,603.861 L 573.8486,625.22208"
         style="font-size:2.27740002px;letter-spacing:0;word-spacing:0;fill:#ed8d46;fill-rule:nonzero;stroke:none;stroke-width:0.38100001;stroke-miterlimit:4;font-family:fnt2, &quot;GillSans&quot;, Arial"
         id="path1445" />
      <path
         d="M 600.4137,580.81208 C 603.2091,574.72903 606.4265,568.01299 612.0877,568.01299 C 613.3007,568.01299 617.6608,569.13823 622.1089,570.63258 C 626.4515,572.10946 628.192,573.69172 631.761,578.98367 C 635.5937,584.55687 636.7188,593.69907 636.7188,599.3602 C 636.7188,609.62762 633.9235,617.97866 629.405,625.02871 C 626.5217,629.47674 622.6012,631.92054 619.8409,631.92054 C 618.0828,631.92054 616.9576,631.65682 615.9203,631.28759 C 614.7775,630.95355 613.8281,630.86564 612.2634,630.86564 C 607.1298,630.86564 603.9124,627.8241 600.9412,623.28813 C 597.9876,618.75226 595.5437,612.49331 595.5437,604.1423 C 595.5437,594.82426 597.8997,586.12158 600.4137,580.81208 z M 614.7775,619.36762 C 619.4014,619.36762 622.1089,604.1423 622.1089,595.70335 C 622.1089,590.99156 620.2629,580.89999 616.9576,580.89999 C 615.4808,580.89999 610.1713,595.01765 610.1713,604.58179 C 610.1713,616.32603 612.703,619.36762 614.7775,619.36762"
         style="font-size:2.27740002px;letter-spacing:0;word-spacing:0;fill:#ed8d46;fill-rule:nonzero;stroke:none;stroke-width:0.38100001;stroke-miterlimit:4;font-family:fnt2, &quot;GillSans&quot;, Arial"
         id="path1449" />
      <path
         d="M 643.8744,580.81208 C 646.6698,574.72903 649.8695,568.01299 655.5307,568.01299 C 656.7613,568.01299 661.1215,569.13823 665.552,570.63258 C 669.8945,572.10946 671.6526,573.69172 675.204,578.98367 C 679.0367,584.55687 680.1794,593.69907 680.1794,599.3602 C 680.1794,609.62762 677.384,617.97866 672.8657,625.02871 C 669.9824,629.47674 666.0618,631.92054 663.284,631.92054 C 661.5434,631.92054 660.4182,631.65682 659.3634,631.28759 C 658.2382,630.95355 657.2712,630.86564 655.7065,630.86564 C 650.5904,630.86564 647.3554,627.8241 644.4018,623.28813 C 641.4306,618.75226 639.0044,612.49331 639.0044,604.1423 C 639.0044,594.82426 641.3603,586.12158 643.8744,580.81208 z M 658.2382,619.36762 C 662.8444,619.36762 665.552,604.1423 665.552,595.70335 C 665.552,590.99156 663.7235,580.89999 660.4182,580.89999 C 658.9414,580.89999 653.6319,595.01765 653.6319,604.58179 C 653.6319,616.32603 656.146,619.36762 658.2382,619.36762"
         style="font-size:2.27740002px;letter-spacing:0;word-spacing:0;fill:#ed8d46;fill-rule:nonzero;stroke:none;stroke-width:0.38100001;stroke-miterlimit:4;font-family:fnt2, &quot;GillSans&quot;, Arial"
         id="path1453" />
      <path
         d="M 692.8907,629.74049 C 689.6733,629.47674 685.8581,629.03722 685.8581,625.29246 C 685.8581,617.20512 685.3132,608.50242 685.3132,603.43903 C 685.3132,591.51899 685.6824,579.75723 686.7197,572.02155 C 686.9834,569.66563 688.8118,569.05032 691.5017,569.05032 C 700.9956,569.05032 712.476,572.54895 717.4515,582.81637 C 719.614,587.44017 721.2666,593.5233 721.2666,598.39328 C 721.2666,609.80348 716.9944,616.76558 709.1708,625.29246 C 705.2502,629.56468 701.523,631.92054 700.1165,631.92054 C 698.3935,631.92054 694.5433,629.81078 692.8907,629.74049 z M 705.1623,588.74123 C 703.4394,586.03372 702.0328,584.3811 700.644,584.3811 C 699.8528,584.3811 699.6066,584.73269 699.6066,585.69969 C 699.6066,586.91274 699.7649,588.21377 699.7649,590.20046 C 699.7649,592.22224 698.9913,608.50242 698.9913,615.5349 C 700.644,614.3218 701.8747,611.63185 703.8612,607.97499 C 705.7952,604.40602 706.8325,599.69424 706.8325,595.61544 C 706.8325,592.38051 705.8656,589.77851 705.1623,588.74123"
         style="font-size:2.27740002px;letter-spacing:0;word-spacing:0;fill:#ed8d46;fill-rule:nonzero;stroke:none;stroke-width:0.38100001;stroke-miterlimit:4;font-family:fnt2, &quot;GillSans&quot;, Arial"
         id="path1457" />
      <path
         d="M 743.3837,568.4877 L 746.9879,559.08175 L 750.4689,559.08175 L 750.4689,571.88088 L 748.201,571.88088 L 748.201,561.45527 L 748.1306,561.45527 L 744.1222,571.88088 L 742.5925,571.88088 L 738.5841,561.45527 L 738.5314,561.45527 L 738.5314,571.88088 L 736.2457,571.88088 L 736.2457,559.08175 L 739.7444,559.08175 L 743.3837,568.4877 z M 734.0129,560.92776 L 730.0748,560.92776 L 730.0748,571.88088 L 727.8068,571.88088 L 727.8068,560.92776 L 723.8511,560.92776 L 723.8511,559.08175 L 734.0129,559.08175 L 734.0129,560.92776"
         style="font-size:2.27740002px;letter-spacing:0;word-spacing:0;fill:#ed8d46;fill-rule:nonzero;stroke:none;stroke-width:0.38100001;stroke-miterlimit:4;font-family:fnt2, &quot;GillSans&quot;, Arial"
         id="path1461" />
      <path
         d="M 650.5025,504.91425 C 650.5025,498.12788 655.6361,493.04694 662.194,493.04694 C 668.6638,493.04694 673.7448,498.12788 673.7448,504.91425 C 673.7448,511.77085 668.6638,516.83424 662.194,516.83424 C 655.6361,516.83424 650.5025,511.77085 650.5025,504.91425 z M 662.194,519.19013 C 669.9824,519.19013 676.6105,513.17739 676.6105,504.91425 C 676.6105,496.68627 669.9824,490.69107 662.194,490.69107 C 654.3,490.69107 647.6367,496.68627 647.6367,504.91425 C 647.6367,513.17739 654.3,519.19013 662.194,519.19013 z M 659.17,506.0394 L 662.0533,506.0394 L 666.3958,513.17739 L 669.1736,513.17739 L 664.5147,505.93394 C 666.9232,505.63505 668.7869,504.35166 668.7869,501.3804 C 668.7869,498.12788 666.8529,496.68627 662.9499,496.68627 L 656.6734,496.68627 L 656.6734,513.17739 L 659.17,513.17739 L 659.17,506.0394 z M 659.17,503.92971 L 659.17,498.8136 L 662.5631,498.8136 C 664.3213,498.8136 666.1673,499.18281 666.1673,501.22221 C 666.1673,503.77142 664.2685,503.92971 662.1588,503.92971 L 659.17,503.92971"
         style="font-size:2.27740002px;letter-spacing:0;word-spacing:0;fill:#672c06;fill-rule:nonzero;stroke:none;stroke-width:0.38100001;stroke-miterlimit:4;font-family:fnt2, &quot;GillSans&quot;, Arial"
         id="path1465" />
      <path
         d="M 570.561,356.52922 L 603.3498,314.10589 L 541.2883,314.10589 C 537.6139,317.09469 538.8973,321.82402 539.706,326.79948 C 503.1372,301.93972 445.8402,285.80026 381.51069,285.80026 C 349.37232,285.80026 319.00965,289.79118 292.11049,296.87635 L 286.64279,274.05607 C 389.22882,264.10508 495.1553,267.14667 588.1069,300.70905 C 588.1069,300.70905 603.6486,306.59879 623.867,319.36265 C 653.7726,338.59644 671.7405,369.73269 665.5168,405.79162 C 650.2915,495.19182 478.84,506.95368 478.84,506.95368 L 473.3723,484.69592 C 537.5787,467.16747 581.4436,431.84695 581.4436,391.12896 C 581.4436,379.01554 577.6989,367.35925 570.561,356.52922"
         style="font-size:2.27740002px;letter-spacing:0;word-spacing:0;fill:#ad6006;fill-rule:nonzero;stroke:none;stroke-width:0.38100001;stroke-miterlimit:4;font-family:fnt2, &quot;GillSans&quot;, Arial"
         id="path1469" />
      <path
         d="M 292.12804,421.64983 L 252.46497,421.64983 C 244.69413,435.0115 222.9286,446.49206 232.26419,463.5985 L 185.62141,463.5985 C 224.49334,422.56411 260.23585,376.25534 295.0641,332.10898 C 299.09018,325.90282 287.59217,325.44578 293.49936,321.40207 L 347.91304,321.40207 L 340.44111,390.88286 C 332.67026,394.59247 323.6511,400.20082 319.60744,408.90352 C 317.74381,414.19545 316.81203,422.56411 320.53919,427.53957 C 323.6511,433.14792 329.87478,435.94333 335.46567,437.82453 C 334.21735,447.14257 336.3974,456.44296 341.98823,463.5985 L 272.05035,463.5985 C 274.84576,455.82765 287.59217,455.22986 289.13926,445.27891 L 292.12804,421.64983"
         style="font-size:2.27740002px;letter-spacing:0;word-spacing:0;fill:#672c06;fill-rule:nonzero;stroke:none;stroke-width:0.38100001;stroke-miterlimit:4;font-family:fnt2, &quot;GillSans&quot;, Arial"
         id="path1473" />
      <path
         d="M 274.2304,396.77252 C 280.45421,387.13807 289.77222,376.57174 297.2266,366.3044 L 294.43119,396.77252 L 274.2304,396.77252"
         style="font-size:2.27740002px;letter-spacing:0;word-spacing:0;fill:#ffffff;fill-rule:nonzero;stroke:none;stroke-width:0.38100001;stroke-miterlimit:4;font-family:fnt2, &quot;GillSans&quot;, Arial"
         id="path1477" />
      <path
         d="M 473.4954,469.20694 C 462.2961,467.34328 448.0906,459.18563 445.8226,449.00615 C 443.5547,438.82665 450.1827,411.69891 452.3452,393.04528 L 395.15373,467.65975 C 383.95449,466.72792 370.8565,458.06044 367.49851,449.93798 C 364.10531,441.81545 365.49428,439.54747 366.32056,434.27316 C 375.95506,430.52837 396.2965,420.01483 387.68173,400.85135 C 405.05194,395.80558 395.18885,377.64421 388.33216,380.26381 C 393.04397,376.95856 390.02,365.09127 377.71319,364.31771 C 377.95929,362.75302 383.14576,344.5389 382.91721,338.3855 C 382.63591,331.10687 376.57042,326.76436 380.08663,321.40207 L 429.3491,321.40207 C 423.4418,350.93845 417.85099,380.61544 412.26019,410.45066 C 429.6479,390.88286 445.8226,366.00548 461.3644,343.3082 C 467.1134,333.72651 462.9291,326.99287 461.3644,321.40207 L 512.965,321.40207 C 495.2432,347.21121 498.0386,381.86369 490.5843,411.69891 C 509.8532,390.24987 528.8232,364.14189 545.6133,339.58101 C 550.2723,333.97261 543.1167,325.44578 548.0922,321.40207 L 587.2982,321.40207 L 473.4954,469.20694"
         style="font-size:2.27740002px;letter-spacing:0;word-spacing:0;fill:#672c06;fill-rule:nonzero;stroke:none;stroke-width:0.38100001;stroke-miterlimit:4;font-family:fnt2, &quot;GillSans&quot;, Arial"
         id="path1481" />
      <path
         d="M 391.47926,388.19293 C 386.62682,379.59571 373.70465,389.63456 377.32641,392.34204 C 378.85595,393.48488 379.22516,393.08048 380.54367,392.16627 C 382.42497,390.84769 383.04028,388.08744 383.04028,388.08744 C 389.22882,385.52057 391.95394,390.79495 385.37855,394.41661 C 381.66891,396.45603 378.32852,396.2099 375.16388,395.85832 C 364.79101,394.73312 359.92101,396.64945 353.27538,401.78318 C 349.67121,405.08845 346.40107,410.5034 349.0559,414.14273 C 351.74576,417.78201 357.5124,416.86776 361.433,416.25242 C 366.2151,414.01963 368.0963,409.87052 366.02169,407.62008 C 363.94709,405.35212 356.03559,405.54549 352.0798,407.98931 C 352.04468,404.13905 355.50817,401.95895 359.42877,400.83378 C 364.24599,399.91952 371.98171,399.67342 375.00568,405.38729 C 376.79891,412.03297 370.34664,417.6062 366.25027,419.87415 C 361.13416,422.28281 353.89071,424.09365 348.15924,421.38615 C 343.64085,419.87415 340.31801,414.14273 341.83001,409.62431 C 344.73087,398.93503 356.79158,388.94891 368.85226,392.5354 C 368.85226,392.5354 361.8725,390.26749 361.11654,386.13588 C 360.37815,379.15619 364.75582,377.34537 368.67645,374.93671 C 371.98171,374.3214 377.71319,372.5281 380.13934,376.44871 C 381.29968,379.15619 378.64494,379.33203 378.64494,379.33203 C 376.20119,376.50145 373.12448,377.64421 371.29604,378.40022 C 367.53368,379.9122 366.02169,383.48114 368.67645,385.1865 C 370.59277,386.43482 374.40792,386.39965 374.40792,386.39965 C 397.12279,378.20683 372.052,356.54684 353.27538,378.55842 C 350.26896,382.47903 350.26896,388.21047 350.5678,392.42995 C 329.27706,398.89986 316.77686,417.18425 330.06824,427.71534 C 340.91582,434.65991 356.89704,432.5326 367.76224,427.71534 C 375.00568,423.79478 383.14576,416.86776 383.74355,408.11234 C 383.69076,408.0596 383.65564,407.98931 383.58528,407.93657 C 383.58528,403.64674 381.28211,400.79861 379.50646,399.25144 L 379.01415,398.58334 C 386.76747,400.1657 394.53839,393.6431 391.47926,388.19293"
         style="font-size:2.27740002px;letter-spacing:0;word-spacing:0;fill:#ed8d46;fill-rule:nonzero;stroke:none;stroke-width:0.38100001;stroke-miterlimit:4;font-family:fnt2, &quot;GillSans&quot;, Arial"
         id="path1485" />
      <path
         d="M 238.82201,464.86434 C 239.29669,466.90376 240.17571,468.9959 241.33609,471.15843 L 166.86228,471.15843 C 178.0439,459.32628 189.01458,447.35351 199.84459,434.95878 C 188.15309,421.56192 181.57775,406.8289 181.57775,391.12896 C 181.57775,352.25703 221.53973,318.30782 280.98161,300.05857 L 274.7579,275.23396 C 228.13265,280.50834 184.30278,292.32282 144.81558,314.08834 C 118.09214,330.56189 95.39488,356.3534 95.71138,388.70281 C 93.84774,421.01692 114.68142,448.07432 141.72125,464.86434 C 234.97169,515.83212 355.27961,517.23864 467.1837,507.9206 L 463.0346,487.31549 C 438.1396,493.18758 410.5548,496.44011 381.51069,496.44011 C 325.58502,496.44011 275.10949,484.36188 238.82201,464.86434"
         style="font-size:2.27740002px;letter-spacing:0;word-spacing:0;fill:#ed8d46;fill-rule:nonzero;stroke:none;stroke-width:0.38100001;stroke-miterlimit:4;font-family:fnt2, &quot;GillSans&quot;, Arial"
         id="path1489" />
    </g>
  </g>
</svg>
