<?xml version="1.0" encoding="UTF-8" standalone="no"?>
<!-- Created with Inkscape (http://www.inkscape.org/) -->

<svg
   xmlns:dc="http://purl.org/dc/elements/1.1/"
   xmlns:cc="http://creativecommons.org/ns#"
   xmlns:rdf="http://www.w3.org/1999/02/22-rdf-syntax-ns#"
   xmlns:svg="http://www.w3.org/2000/svg"
   xmlns="http://www.w3.org/2000/svg"
   xmlns:xlink="http://www.w3.org/1999/xlink"
   version="1.1"
   width="715.74799"
   height="330.94489"
   id="svg19499">
  <defs
     id="defs19501">
    <clipPath
       id="clip4">
      <path
         d="m 99.375,135.45312 161.62109,0 0,-74.085932 -161.62109,0 0,74.085932 z m 0,0"
         id="path12115" />
    </clipPath>
    <clipPath
       id="clip2">
      <path
         d="m 154.35547,61.632812 c -0.26172,1.105469 -1.25,3.527344 -4.53125,6.21875 l 0,0 c -3.6211,2.976563 -6.25,3.5 -6.25,3.5 l 0,0 c 0.82422,0.449219 2.27734,1.074219 3.96875,0.910157 l 0,0 c 1.73047,-0.171875 3.72656,-0.71875 5.22265,-3.042969 l 0,0 c 0.99219,-1.542969 1.44922,-3.820312 1.59375,-4.757812 l 0,0 c 0.14063,-0.941407 0.28516,-1.9375 0.29297,-2.320313 l 0,0 c 0.004,-0.285156 -0.11328,-0.460937 -0.28125,-0.507813 l 0,0 -0.0156,0 z m 0,0"
         id="path11852" />
    </clipPath>
    <clipPath
       id="clip3">
      <path
         d="m 148.86719,56.09375 -10.6836,11.175781 11.1836,10.695313 10.6875,-11.175782 -11.1875,-10.695312 z m 0,0"
         id="path11855" />
    </clipPath>
    <linearGradient
       x1="-0.00390625"
       y1="0"
       x2="0.67578101"
       y2="0"
       id="linear0"
       gradientUnits="userSpaceOnUse"
       gradientTransform="matrix(-15.675164,16.395721,16.39574,15.675164,154.37065,61.524124)">
      <stop
         id="stop11858"
         style="stop-color:#ddeb50;stop-opacity:1"
         offset="0.00792307" />
      <stop
         id="stop11860"
         style="stop-color:#ddeb50;stop-opacity:1"
         offset="0.015625" />
      <stop
         id="stop11862"
         style="stop-color:#dcea50;stop-opacity:1"
         offset="0.0234375" />
      <stop
         id="stop11864"
         style="stop-color:#dbe94f;stop-opacity:1"
         offset="0.03125" />
      <stop
         id="stop11866"
         style="stop-color:#dae84f;stop-opacity:1"
         offset="0.0390625" />
      <stop
         id="stop11868"
         style="stop-color:#d8e74f;stop-opacity:1"
         offset="0.046875" />
      <stop
         id="stop11870"
         style="stop-color:#d7e74e;stop-opacity:1"
         offset="0.0546875" />
      <stop
         id="stop11872"
         style="stop-color:#d6e64e;stop-opacity:1"
         offset="0.0625" />
      <stop
         id="stop11874"
         style="stop-color:#d5e54e;stop-opacity:1"
         offset="0.0703125" />
      <stop
         id="stop11876"
         style="stop-color:#d4e44d;stop-opacity:1"
         offset="0.078125" />
      <stop
         id="stop11878"
         style="stop-color:#d3e34d;stop-opacity:1"
         offset="0.0859375" />
      <stop
         id="stop11880"
         style="stop-color:#d2e24d;stop-opacity:1"
         offset="0.09375" />
      <stop
         id="stop11882"
         style="stop-color:#d1e14d;stop-opacity:1"
         offset="0.101562" />
      <stop
         id="stop11884"
         style="stop-color:#d0e14c;stop-opacity:1"
         offset="0.109375" />
      <stop
         id="stop11886"
         style="stop-color:#cfe04c;stop-opacity:1"
         offset="0.117188" />
      <stop
         id="stop11888"
         style="stop-color:#cedf4c;stop-opacity:1"
         offset="0.125" />
      <stop
         id="stop11890"
         style="stop-color:#cdde4b;stop-opacity:1"
         offset="0.13281199" />
      <stop
         id="stop11892"
         style="stop-color:#ccdd4b;stop-opacity:1"
         offset="0.140625" />
      <stop
         id="stop11894"
         style="stop-color:#cbdc4b;stop-opacity:1"
         offset="0.14843801" />
      <stop
         id="stop11896"
         style="stop-color:#cadc4b;stop-opacity:1"
         offset="0.15625" />
      <stop
         id="stop11898"
         style="stop-color:#c9db4a;stop-opacity:1"
         offset="0.16406199" />
      <stop
         id="stop11900"
         style="stop-color:#c8da4a;stop-opacity:1"
         offset="0.171875" />
      <stop
         id="stop11902"
         style="stop-color:#c7d94a;stop-opacity:1"
         offset="0.17968801" />
      <stop
         id="stop11904"
         style="stop-color:#c6d849;stop-opacity:1"
         offset="0.1875" />
      <stop
         id="stop11906"
         style="stop-color:#c5d749;stop-opacity:1"
         offset="0.19531199" />
      <stop
         id="stop11908"
         style="stop-color:#c4d749;stop-opacity:1"
         offset="0.203125" />
      <stop
         id="stop11910"
         style="stop-color:#c4d649;stop-opacity:1"
         offset="0.21093699" />
      <stop
         id="stop11912"
         style="stop-color:#c3d548;stop-opacity:1"
         offset="0.21875" />
      <stop
         id="stop11914"
         style="stop-color:#c2d448;stop-opacity:1"
         offset="0.22656199" />
      <stop
         id="stop11916"
         style="stop-color:#c1d348;stop-opacity:1"
         offset="0.234375" />
      <stop
         id="stop11918"
         style="stop-color:#c0d348;stop-opacity:1"
         offset="0.24218801" />
      <stop
         id="stop11920"
         style="stop-color:#bfd247;stop-opacity:1"
         offset="0.25" />
      <stop
         id="stop11922"
         style="stop-color:#bed147;stop-opacity:1"
         offset="0.25781199" />
      <stop
         id="stop11924"
         style="stop-color:#bdd047;stop-opacity:1"
         offset="0.265625" />
      <stop
         id="stop11926"
         style="stop-color:#bccf47;stop-opacity:1"
         offset="0.27343801" />
      <stop
         id="stop11928"
         style="stop-color:#bbcf46;stop-opacity:1"
         offset="0.28125" />
      <stop
         id="stop11930"
         style="stop-color:#bace46;stop-opacity:1"
         offset="0.28906199" />
      <stop
         id="stop11932"
         style="stop-color:#b9cd46;stop-opacity:1"
         offset="0.296875" />
      <stop
         id="stop11934"
         style="stop-color:#b8cc46;stop-opacity:1"
         offset="0.30468801" />
      <stop
         id="stop11936"
         style="stop-color:#b7cb45;stop-opacity:1"
         offset="0.3125" />
      <stop
         id="stop11938"
         style="stop-color:#b6cb45;stop-opacity:1"
         offset="0.32031199" />
      <stop
         id="stop11940"
         style="stop-color:#b5ca45;stop-opacity:1"
         offset="0.328125" />
      <stop
         id="stop11942"
         style="stop-color:#b4c945;stop-opacity:1"
         offset="0.33593801" />
      <stop
         id="stop11944"
         style="stop-color:#b3c844;stop-opacity:1"
         offset="0.34375" />
      <stop
         id="stop11946"
         style="stop-color:#b2c844;stop-opacity:1"
         offset="0.35156199" />
      <stop
         id="stop11948"
         style="stop-color:#b1c744;stop-opacity:1"
         offset="0.359375" />
      <stop
         id="stop11950"
         style="stop-color:#b1c644;stop-opacity:1"
         offset="0.36718699" />
      <stop
         id="stop11952"
         style="stop-color:#b0c543;stop-opacity:1"
         offset="0.375" />
      <stop
         id="stop11954"
         style="stop-color:#afc443;stop-opacity:1"
         offset="0.38281301" />
      <stop
         id="stop11956"
         style="stop-color:#aec443;stop-opacity:1"
         offset="0.390625" />
      <stop
         id="stop11958"
         style="stop-color:#adc343;stop-opacity:1"
         offset="0.39843801" />
      <stop
         id="stop11960"
         style="stop-color:#acc242;stop-opacity:1"
         offset="0.40625" />
      <stop
         id="stop11962"
         style="stop-color:#abc142;stop-opacity:1"
         offset="0.41406199" />
      <stop
         id="stop11964"
         style="stop-color:#aac142;stop-opacity:1"
         offset="0.421875" />
      <stop
         id="stop11966"
         style="stop-color:#a9c042;stop-opacity:1"
         offset="0.42968801" />
      <stop
         id="stop11968"
         style="stop-color:#a8bf41;stop-opacity:1"
         offset="0.4375" />
      <stop
         id="stop11970"
         style="stop-color:#a7be41;stop-opacity:1"
         offset="0.44531199" />
      <stop
         id="stop11972"
         style="stop-color:#a6be41;stop-opacity:1"
         offset="0.453125" />
      <stop
         id="stop11974"
         style="stop-color:#a6bd41;stop-opacity:1"
         offset="0.46093801" />
      <stop
         id="stop11976"
         style="stop-color:#a5bc41;stop-opacity:1"
         offset="0.46875" />
      <stop
         id="stop11978"
         style="stop-color:#a4bc40;stop-opacity:1"
         offset="0.47656199" />
      <stop
         id="stop11980"
         style="stop-color:#a3bb40;stop-opacity:1"
         offset="0.484375" />
      <stop
         id="stop11982"
         style="stop-color:#a2ba40;stop-opacity:1"
         offset="0.49218801" />
      <stop
         id="stop11984"
         style="stop-color:#a1b940;stop-opacity:1"
         offset="0.5" />
      <stop
         id="stop11986"
         style="stop-color:#a0b93f;stop-opacity:1"
         offset="0.50781202" />
      <stop
         id="stop11988"
         style="stop-color:#9fb83f;stop-opacity:1"
         offset="0.515625" />
      <stop
         id="stop11990"
         style="stop-color:#9eb73f;stop-opacity:1"
         offset="0.52343798" />
      <stop
         id="stop11992"
         style="stop-color:#9eb73f;stop-opacity:1"
         offset="0.53125" />
      <stop
         id="stop11994"
         style="stop-color:#9db63f;stop-opacity:1"
         offset="0.53906202" />
      <stop
         id="stop11996"
         style="stop-color:#9cb53e;stop-opacity:1"
         offset="0.546875" />
      <stop
         id="stop11998"
         style="stop-color:#9bb43e;stop-opacity:1"
         offset="0.55468798" />
      <stop
         id="stop12000"
         style="stop-color:#9ab43e;stop-opacity:1"
         offset="0.5625" />
      <stop
         id="stop12002"
         style="stop-color:#99b33e;stop-opacity:1"
         offset="0.57031202" />
      <stop
         id="stop12004"
         style="stop-color:#98b23e;stop-opacity:1"
         offset="0.578125" />
      <stop
         id="stop12006"
         style="stop-color:#97b23d;stop-opacity:1"
         offset="0.58593798" />
      <stop
         id="stop12008"
         style="stop-color:#97b13d;stop-opacity:1"
         offset="0.59375" />
      <stop
         id="stop12010"
         style="stop-color:#96b03d;stop-opacity:1"
         offset="0.60156202" />
      <stop
         id="stop12012"
         style="stop-color:#95b03d;stop-opacity:1"
         offset="0.609375" />
      <stop
         id="stop12014"
         style="stop-color:#94af3c;stop-opacity:1"
         offset="0.61718798" />
      <stop
         id="stop12016"
         style="stop-color:#93ae3c;stop-opacity:1"
         offset="0.625" />
      <stop
         id="stop12018"
         style="stop-color:#92ad3c;stop-opacity:1"
         offset="0.63281202" />
      <stop
         id="stop12020"
         style="stop-color:#92ad3c;stop-opacity:1"
         offset="0.640625" />
      <stop
         id="stop12022"
         style="stop-color:#91ac3c;stop-opacity:1"
         offset="0.64843798" />
      <stop
         id="stop12024"
         style="stop-color:#90ab3b;stop-opacity:1"
         offset="0.65625" />
      <stop
         id="stop12026"
         style="stop-color:#8fab3b;stop-opacity:1"
         offset="0.66406202" />
      <stop
         id="stop12028"
         style="stop-color:#8eaa3b;stop-opacity:1"
         offset="0.671875" />
      <stop
         id="stop12030"
         style="stop-color:#8da93b;stop-opacity:1"
         offset="0.67968798" />
      <stop
         id="stop12032"
         style="stop-color:#8ca93b;stop-opacity:1"
         offset="0.6875" />
      <stop
         id="stop12034"
         style="stop-color:#8ca83b;stop-opacity:1"
         offset="0.69531202" />
      <stop
         id="stop12036"
         style="stop-color:#8ba73a;stop-opacity:1"
         offset="0.703125" />
      <stop
         id="stop12038"
         style="stop-color:#8aa73a;stop-opacity:1"
         offset="0.71093798" />
      <stop
         id="stop12040"
         style="stop-color:#89a63a;stop-opacity:1"
         offset="0.71875" />
      <stop
         id="stop12042"
         style="stop-color:#88a53a;stop-opacity:1"
         offset="0.72656202" />
      <stop
         id="stop12044"
         style="stop-color:#88a53a;stop-opacity:1"
         offset="0.734375" />
      <stop
         id="stop12046"
         style="stop-color:#87a439;stop-opacity:1"
         offset="0.74218798" />
      <stop
         id="stop12048"
         style="stop-color:#86a439;stop-opacity:1"
         offset="0.75" />
      <stop
         id="stop12050"
         style="stop-color:#85a339;stop-opacity:1"
         offset="0.75781298" />
      <stop
         id="stop12052"
         style="stop-color:#84a239;stop-opacity:1"
         offset="0.765625" />
      <stop
         id="stop12054"
         style="stop-color:#83a239;stop-opacity:1"
         offset="0.77343798" />
      <stop
         id="stop12056"
         style="stop-color:#83a138;stop-opacity:1"
         offset="0.78125" />
      <stop
         id="stop12058"
         style="stop-color:#82a038;stop-opacity:1"
         offset="0.78906202" />
      <stop
         id="stop12060"
         style="stop-color:#81a038;stop-opacity:1"
         offset="0.796875" />
      <stop
         id="stop12062"
         style="stop-color:#809f38;stop-opacity:1"
         offset="0.80468702" />
      <stop
         id="stop12064"
         style="stop-color:#7f9e38;stop-opacity:1"
         offset="0.8125" />
      <stop
         id="stop12066"
         style="stop-color:#7f9e38;stop-opacity:1"
         offset="0.82031202" />
      <stop
         id="stop12068"
         style="stop-color:#7e9d37;stop-opacity:1"
         offset="0.828125" />
      <stop
         id="stop12070"
         style="stop-color:#7d9d37;stop-opacity:1"
         offset="0.83593702" />
      <stop
         id="stop12072"
         style="stop-color:#7c9c37;stop-opacity:1"
         offset="0.84375" />
      <stop
         id="stop12074"
         style="stop-color:#7c9b37;stop-opacity:1"
         offset="0.85156202" />
      <stop
         id="stop12076"
         style="stop-color:#7b9b37;stop-opacity:1"
         offset="0.859375" />
      <stop
         id="stop12078"
         style="stop-color:#7a9a37;stop-opacity:1"
         offset="0.86718798" />
      <stop
         id="stop12080"
         style="stop-color:#799a36;stop-opacity:1"
         offset="0.875" />
      <stop
         id="stop12082"
         style="stop-color:#789936;stop-opacity:1"
         offset="0.88281202" />
      <stop
         id="stop12084"
         style="stop-color:#789836;stop-opacity:1"
         offset="0.890625" />
      <stop
         id="stop12086"
         style="stop-color:#779836;stop-opacity:1"
         offset="0.89843702" />
      <stop
         id="stop12088"
         style="stop-color:#769736;stop-opacity:1"
         offset="0.90625" />
      <stop
         id="stop12090"
         style="stop-color:#759636;stop-opacity:1"
         offset="0.91406298" />
      <stop
         id="stop12092"
         style="stop-color:#759635;stop-opacity:1"
         offset="0.921875" />
      <stop
         id="stop12094"
         style="stop-color:#749535;stop-opacity:1"
         offset="0.92968798" />
      <stop
         id="stop12096"
         style="stop-color:#739535;stop-opacity:1"
         offset="0.9375" />
      <stop
         id="stop12098"
         style="stop-color:#729435;stop-opacity:1"
         offset="0.94531202" />
      <stop
         id="stop12100"
         style="stop-color:#719435;stop-opacity:1"
         offset="0.953125" />
      <stop
         id="stop12102"
         style="stop-color:#719335;stop-opacity:1"
         offset="0.96093702" />
      <stop
         id="stop12104"
         style="stop-color:#709234;stop-opacity:1"
         offset="0.96875" />
      <stop
         id="stop12106"
         style="stop-color:#6f9234;stop-opacity:1"
         offset="0.97656298" />
      <stop
         id="stop12108"
         style="stop-color:#6e9134;stop-opacity:1"
         offset="0.984375" />
      <stop
         id="stop12110"
         style="stop-color:#6e9134;stop-opacity:1"
         offset="0.99218798" />
      <stop
         id="stop12112"
         style="stop-color:#6d9034;stop-opacity:1"
         offset="1" />
    </linearGradient>
    <clipPath
       id="clip1">
      <path
         d="m 99.375,135.45312 161.62109,0 0,-74.085932 -161.62109,0 0,74.085932 z m 0,0"
         id="path11849" />
    </clipPath>
    <linearGradient
       x1="-0.00390625"
       y1="0"
       x2="0.67578101"
       y2="0"
       id="linearGradient19866"
       xlink:href="#linear0"
       gradientUnits="userSpaceOnUse"
       gradientTransform="matrix(-15.675164,16.395721,16.39574,15.675164,154.37065,61.524124)" />
  </defs>
  <metadata
     id="metadata19504">
    <rdf:RDF>
      <cc:Work
         rdf:about="">
        <dc:format>image/svg+xml</dc:format>
        <dc:type
           rdf:resource="http://purl.org/dc/dcmitype/StillImage" />
        <dc:title></dc:title>
      </cc:Work>
    </rdf:RDF>
  </metadata>
  <g
     transform="translate(-24.298209,-397.07634)"
     id="layer1">
    <g
       transform="matrix(3.5077681,0,0,3.5077681,-941.28005,-596.65655)"
       id="g19838">
      <g
         transform="matrix(1.25,0,0,1.25,152.05987,207.31251)"
         clip-path="url(#clip1)"
         id="g13820">
        <path
           d="m 180.49219,111.80078 c 2.61718,0 3.45703,1.97266 3.96093,4.11719 -2.36718,0.76953 -5.27343,1.50391 -7.80859,1.97266 0.0273,-0.92969 0.32422,-6.08985 3.84766,-6.08985 m -5.07813,0.61328 0,0 c -1.82812,1.82813 -2.80078,4.38282 -2.80078,7.375 0,5.13672 3.63281,8.72656 8.83203,8.72656 3.95313,0 6.46875,-1.97265 6.57813,-2.06249 l 0.043,-0.0312 -0.0195,-0.0547 c -0.10156,-0.25391 -0.66015,-1.51953 -1.57812,-1.22656 -1.03125,0.5039 -2.07422,0.74218 -3.19141,0.74218 -4.40234,0 -6.05078,-3.60156 -6.34765,-5.78125 2.85156,-0.67187 7.08593,-1.80078 11.26562,-3.85547 0,0.004 0.0859,-0.0391 0.0859,-0.0391 0.004,0 0.23828,-0.11719 0.23828,-0.11719 l -0.082,-0.35546 c -0.28906,-1.17969 -0.70313,-2.53907 -1.65625,-3.6875 -1.19531,-1.45313 -2.95313,-2.1875 -5.22266,-2.1875 -2.28515,0 -4.52343,0.92968 -6.14453,2.55468"
           id="path13822"
           style="fill:#3f702b;fill-opacity:1;fill-rule:nonzero;stroke:none" />
        <path
           d="m 180.49219,111.80078 c 2.61718,0 3.45703,1.97266 3.96093,4.11719 -2.36718,0.76953 -5.27343,1.50391 -7.80859,1.97266 0.0273,-0.92969 0.32422,-6.08985 3.84766,-6.08985 m -5.07813,0.61328 0,0 c -1.82812,1.82813 -2.80078,4.38282 -2.80078,7.375 0,5.13672 3.63281,8.72656 8.83203,8.72656 3.95313,0 6.46875,-1.97265 6.57813,-2.06249 l 0.043,-0.0312 -0.0195,-0.0547 c -0.10156,-0.25391 -0.66015,-1.51953 -1.57812,-1.22656 -1.03125,0.5039 -2.07422,0.74218 -3.19141,0.74218 -4.40234,0 -6.05078,-3.60156 -6.34765,-5.78125 2.85156,-0.67187 7.08593,-1.80078 11.26562,-3.85547 0,0.004 0.0859,-0.0391 0.0859,-0.0391 0.004,0 0.23828,-0.11719 0.23828,-0.11719 l -0.082,-0.35546 c -0.28906,-1.17969 -0.70313,-2.53907 -1.65625,-3.6875 -1.19531,-1.45313 -2.95313,-2.1875 -5.22266,-2.1875 -2.28515,0 -4.52343,0.92968 -6.14453,2.55468"
           id="path13824"
           style="fill:#3f702b;fill-opacity:1;fill-rule:nonzero;stroke:none" />
        <path
           d="m 216.73437,111.80078 c 2.60938,0 3.45313,1.97266 3.95313,4.11719 -2.37109,0.76953 -5.27344,1.50391 -7.80469,1.97266 0.0234,-0.92969 0.32031,-6.08985 3.85156,-6.08985 m -5.08593,0.61328 0,0 c -1.82813,1.82813 -2.79688,4.38282 -2.79688,7.375 0,5.13672 3.62891,8.72656 8.82813,8.72656 3.96093,0 6.46875,-1.97265 6.57812,-2.06249 l 0.043,-0.0312 -0.0195,-0.0547 c -0.10156,-0.25391 -0.65625,-1.51563 -1.57031,-1.22656 -1.03516,0.5039 -2.07813,0.74218 -3.19922,0.74218 -4.39844,0 -6.05078,-3.60156 -6.34375,-5.78125 2.84765,-0.67187 7.08594,-1.80078 11.26562,-3.85547 -0.004,0.004 0.0898,-0.0391 0.0898,-0.0391 l 0.23828,-0.11719 -0.0898,-0.35546 c -0.28125,-1.17969 -0.70312,-2.53907 -1.64843,-3.6875 -1.20313,-1.45313 -2.96094,-2.1875 -5.23047,-2.1875 -2.28125,0 -4.51953,0.92968 -6.14453,2.55468"
           id="path13826"
           style="fill:#3f702b;fill-opacity:1;fill-rule:nonzero;stroke:none" />
        <path
           d="m 216.73437,111.80078 c 2.60938,0 3.45313,1.97266 3.95313,4.11719 -2.37109,0.76953 -5.27344,1.50391 -7.80469,1.97266 0.0234,-0.92969 0.32031,-6.08985 3.85156,-6.08985 m -5.08593,0.61328 0,0 c -1.82813,1.82813 -2.79688,4.38282 -2.79688,7.375 0,5.13672 3.62891,8.72656 8.82813,8.72656 3.96093,0 6.46875,-1.97265 6.57812,-2.06249 l 0.043,-0.0312 -0.0195,-0.0547 c -0.10156,-0.25391 -0.65625,-1.51563 -1.57031,-1.22656 -1.03516,0.5039 -2.07813,0.74218 -3.19922,0.74218 -4.39844,0 -6.05078,-3.60156 -6.34375,-5.78125 2.84765,-0.67187 7.08594,-1.80078 11.26562,-3.85547 -0.004,0.004 0.0898,-0.0391 0.0898,-0.0391 l 0.23828,-0.11719 -0.0898,-0.35546 c -0.28125,-1.17969 -0.70312,-2.53907 -1.64843,-3.6875 -1.20313,-1.45313 -2.96094,-2.1875 -5.23047,-2.1875 -2.28125,0 -4.51953,0.92968 -6.14453,2.55468"
           id="path13828"
           style="fill:#3f702b;fill-opacity:1;fill-rule:nonzero;stroke:none" />
        <path
           d="m 233.375,111.80078 c 2.61719,0 3.45703,1.97266 3.96094,4.11719 -2.375,0.76953 -5.27344,1.50391 -7.8086,1.97266 0.0234,-0.92969 0.31641,-6.08985 3.84766,-6.08985 m -5.08594,0.61328 0,0 c -1.82812,1.82813 -2.79687,4.38282 -2.79687,7.375 0,5.13672 3.63281,8.72656 8.83593,8.72656 3.95704,0 6.46875,-1.97265 6.57032,-2.06249 l 0.043,-0.0312 -0.0195,-0.0547 c -0.10156,-0.25391 -0.65234,-1.51563 -1.57031,-1.22656 -1.03515,0.5039 -2.07812,0.74218 -3.19922,0.74218 -4.39453,0 -6.05078,-3.60156 -6.34375,-5.78125 2.85157,-0.67187 7.08594,-1.80078 11.26563,-3.85547 -0.004,0.004 0.0898,-0.0391 0.0898,-0.0391 l 0.23828,-0.11719 -0.082,-0.35546 c -0.28906,-1.17969 -0.71094,-2.53907 -1.65625,-3.6875 -1.19531,-1.45313 -2.96094,-2.1875 -5.23047,-2.1875 -2.28125,0 -4.51953,0.92968 -6.14453,2.55468"
           id="path13830"
           style="fill:#3f702b;fill-opacity:1;fill-rule:nonzero;stroke:none" />
        <path
           d="m 233.375,111.80078 c 2.61719,0 3.45703,1.97266 3.96094,4.11719 -2.375,0.76953 -5.27344,1.50391 -7.8086,1.97266 0.0234,-0.92969 0.31641,-6.08985 3.84766,-6.08985 m -5.08594,0.61328 0,0 c -1.82812,1.82813 -2.79687,4.38282 -2.79687,7.375 0,5.13672 3.63281,8.72656 8.83593,8.72656 3.95704,0 6.46875,-1.97265 6.57032,-2.06249 l 0.043,-0.0312 -0.0195,-0.0547 c -0.10156,-0.25391 -0.65234,-1.51563 -1.57031,-1.22656 -1.03515,0.5039 -2.07812,0.74218 -3.19922,0.74218 -4.39453,0 -6.05078,-3.60156 -6.34375,-5.78125 2.85157,-0.67187 7.08594,-1.80078 11.26563,-3.85547 -0.004,0.004 0.0898,-0.0391 0.0898,-0.0391 l 0.23828,-0.11719 -0.082,-0.35546 c -0.28906,-1.17969 -0.71094,-2.53907 -1.65625,-3.6875 -1.19531,-1.45313 -2.96094,-2.1875 -5.23047,-2.1875 -2.28125,0 -4.51953,0.92968 -6.14453,2.55468"
           id="path13832"
           style="fill:#3f702b;fill-opacity:1;fill-rule:nonzero;stroke:none" />
        <path
           d="m 197.58594,111.85156 c 4.59765,0 5.09375,4.83594 5.09375,6.92188 0,2.75 -0.66407,7.35547 -5.09375,7.35547 -1.19922,0 -2.51172,-0.48047 -3.4375,-1.25391 l 0,-11.76953 c 0.92578,-0.76953 2.23828,-1.25391 3.4375,-1.25391 m -9.53516,-9.84375 0,1.00782 c 0,1.03906 0.69922,1.13281 1.11328,1.19531 0.47656,0.0664 0.79297,0.11719 0.79297,1.21094 l 0,23.06249 1.23047,0 c 0,0 1.95312,-1.68749 2.01562,-1.74609 1.58594,1.07813 3.64844,1.74609 5.39063,1.74609 5.19141,0 8.8125,-3.94921 8.8125,-9.60937 0,-5.52344 -3.51953,-9.38281 -8.5625,-9.38281 -1.65234,0 -3.27344,0.41406 -4.69531,1.1914 l 0,-8.84375 -6.09766,0.16797 z m 0,0"
           id="path13834"
           style="fill:#3f702b;fill-opacity:1;fill-rule:nonzero;stroke:none" />
        <path
           d="m 131.95703,111.17969 0,-1.30469 -5.76953,0.16406 0,1.08594 c 0,0.90234 0.64453,1.03125 1.03125,1.11719 l 0.14844,0.0273 c 0.25781,0.0664 0.57812,0.14844 0.57812,1.1836 l 0,18.57812 c 0,1.08984 -0.32031,1.12891 -0.80468,1.19141 -0.42579,0.0586 -1.13282,0.15234 -1.13282,1.21484 l 0,1.01562 8.25,0 0,-1.01562 c 0,-1.11328 -0.77344,-1.17578 -1.23047,-1.21094 -0.53515,-0.0391 -0.89453,-0.0664 -0.89453,-1.19531 l 0,-4.82812 0.0117,-2.29688 c 0,0 -0.0117,-11.74219 -0.0117,-11.80078 0.92969,-0.77734 2.24219,-1.25391 3.4375,-1.25391 4.59375,0 5.09375,4.84375 5.09375,6.92188 0,2.75 -0.66015,7.35547 -5.09375,7.35547 -0.47265,0 -0.96875,-0.0781 -1.47656,-0.22657 -0.0234,-0.004 -0.21875,-0.0664 -0.21875,-0.0664 -0.31641,-0.0859 -0.55469,-0.0508 -0.72656,0.10547 -0.35157,0.33203 -0.28125,1.1289 -0.16407,1.74609 l 0.008,0.0273 0.0312,0.0117 c 1.05859,0.44141 2.17968,0.6875 3.53515,0.75781 2.42188,0 4.53907,-0.83593 6.13282,-2.42968 1.74218,-1.74219 2.70312,-4.29297 2.70312,-7.17188 0,-5.53125 -3.51953,-9.39062 -8.5625,-9.39062 -2.29687,0 -3.80469,0.89062 -4.875,1.6875"
           id="path13836"
           style="fill:#3f702b;fill-opacity:1;fill-rule:nonzero;stroke:none" />
        <path
           d="m 131.95703,111.17969 0,-1.30469 -5.76953,0.16406 0,1.08594 c 0,0.90234 0.64453,1.03125 1.03125,1.11719 l 0.14844,0.0273 c 0.25781,0.0664 0.57812,0.14844 0.57812,1.1836 l 0,18.57812 c 0,1.08984 -0.32031,1.12891 -0.80468,1.19141 -0.42579,0.0586 -1.13282,0.15234 -1.13282,1.21484 l 0,1.01562 8.25,0 0,-1.01562 c 0,-1.11328 -0.77344,-1.17578 -1.23047,-1.21094 -0.53515,-0.0391 -0.89453,-0.0664 -0.89453,-1.19531 l 0,-4.82812 0.0117,-2.29688 c 0,0 -0.0117,-11.74219 -0.0117,-11.80078 0.92969,-0.77734 2.24219,-1.25391 3.4375,-1.25391 4.59375,0 5.09375,4.84375 5.09375,6.92188 0,2.75 -0.66015,7.35547 -5.09375,7.35547 -0.47265,0 -0.96875,-0.0781 -1.47656,-0.22657 -0.0234,-0.004 -0.21875,-0.0664 -0.21875,-0.0664 -0.31641,-0.0859 -0.55469,-0.0508 -0.72656,0.10547 -0.35157,0.33203 -0.28125,1.1289 -0.16407,1.74609 l 0.008,0.0273 0.0312,0.0117 c 1.05859,0.44141 2.17968,0.6875 3.53515,0.75781 2.42188,0 4.53907,-0.83593 6.13282,-2.42968 1.74218,-1.74219 2.70312,-4.29297 2.70312,-7.17188 0,-5.53125 -3.51953,-9.39062 -8.5625,-9.39062 -2.29687,0 -3.80469,0.89062 -4.875,1.6875"
           id="path13838"
           style="fill:#3f702b;fill-opacity:1;fill-rule:nonzero;stroke:none" />
        <path
           d="m 151.26953,111.17969 0,-1.30469 -5.76953,0.16406 0,1.08594 c 0,0.90234 0.64844,1.03125 1.03125,1.11719 l 0.15234,0.0273 c 0.25391,0.0664 0.57813,0.14844 0.57813,1.1836 l 0,18.57812 c 0,1.08984 -0.32422,1.12891 -0.8086,1.19141 -0.42187,0.0586 -1.13671,0.15234 -1.13671,1.21484 l 0,1.01562 8.2539,0 0,-1.01562 c 0,-1.11328 -0.77344,-1.17578 -1.23047,-1.21094 -0.53906,-0.0391 -0.89062,-0.0664 -0.89062,-1.19531 l 0,-4.82812 0.004,-2.29688 c 0,0 -0.004,-11.74219 -0.004,-11.80078 0.92578,-0.77734 2.24219,-1.25391 3.4375,-1.25391 4.59765,0 5.09375,4.84375 5.09375,6.92188 0,2.75 -0.66406,7.35547 -5.09375,7.35547 -0.47656,0 -0.97266,-0.0781 -1.48047,-0.22657 -0.0234,-0.008 -0.0391,-0.0117 -0.0391,-0.0117 -0.004,0 -0.17188,-0.0547 -0.17188,-0.0547 -0.32031,-0.0859 -0.5625,-0.0508 -0.73047,0.10547 -0.35547,0.33203 -0.28515,1.1289 -0.16406,1.73828 l 0.004,0.0352 0.0312,0.0117 c 1.0625,0.44141 2.1875,0.6875 3.53906,0.75781 2.42187,0 4.53906,-0.83593 6.125,-2.42968 1.75,-1.74219 2.70703,-4.29297 2.70703,-7.17188 0,-5.53125 -3.51953,-9.39062 -8.55859,-9.39062 -2.30078,0 -3.8086,0.89062 -4.87891,1.6875"
           id="path13840"
           style="fill:#3f702b;fill-opacity:1;fill-rule:nonzero;stroke:none" />
        <path
           d="m 151.26953,111.17969 0,-1.30469 -5.76953,0.16406 0,1.08594 c 0,0.90234 0.64844,1.03125 1.03125,1.11719 l 0.15234,0.0273 c 0.25391,0.0664 0.57813,0.14844 0.57813,1.1836 l 0,18.57812 c 0,1.08984 -0.32422,1.12891 -0.8086,1.19141 -0.42187,0.0586 -1.13671,0.15234 -1.13671,1.21484 l 0,1.01562 8.2539,0 0,-1.01562 c 0,-1.11328 -0.77344,-1.17578 -1.23047,-1.21094 -0.53906,-0.0391 -0.89062,-0.0664 -0.89062,-1.19531 l 0,-4.82812 0.004,-2.29688 c 0,0 -0.004,-11.74219 -0.004,-11.80078 0.92578,-0.77734 2.24219,-1.25391 3.4375,-1.25391 4.59765,0 5.09375,4.84375 5.09375,6.92188 0,2.75 -0.66406,7.35547 -5.09375,7.35547 -0.47656,0 -0.97266,-0.0781 -1.48047,-0.22657 -0.0234,-0.008 -0.0391,-0.0117 -0.0391,-0.0117 -0.004,0 -0.17188,-0.0547 -0.17188,-0.0547 -0.32031,-0.0859 -0.5625,-0.0508 -0.73047,0.10547 -0.35547,0.33203 -0.28515,1.1289 -0.16406,1.73828 l 0.004,0.0352 0.0312,0.0117 c 1.0625,0.44141 2.1875,0.6875 3.53906,0.75781 2.42187,0 4.53906,-0.83593 6.125,-2.42968 1.75,-1.74219 2.70703,-4.29297 2.70703,-7.17188 0,-5.53125 -3.51953,-9.39062 -8.55859,-9.39062 -2.30078,0 -3.8086,0.89062 -4.87891,1.6875"
           id="path13842"
           style="fill:#3f702b;fill-opacity:1;fill-rule:nonzero;stroke:none" />
        <path
           d="m 243.53516,115.33203 c 0,3.47656 3.05078,4.48047 5.7539,5.3711 2.3086,0.76171 4.49219,1.48046 4.49219,3.59765 0,2.16016 -2.47656,2.94531 -4.14063,2.94531 -1.70703,0 -2.53515,-0.41015 -2.53515,-1.2539 0,-0.13672 0.0469,-0.29688 0.0898,-0.46094 0.0508,-0.17578 0.10156,-0.35156 0.10156,-0.51562 0,-1.16797 -1.34375,-1.78907 -2.3164,-1.78907 -1.13281,0 -2.3086,0.78125 -2.3086,2.08985 0,2.80078 4.76954,3.70312 7.07813,3.70312 3.79687,0 7.82812,-2.11328 7.82812,-6.03125 0,-3.59765 -3.19921,-4.63672 -6.01562,-5.55859 -2.375,-0.77344 -4.41797,-1.4375 -4.41797,-3.3711 0,-1.65234 1.92578,-2.53125 3.32031,-2.53125 0.55469,0 1.84766,0.082 1.84766,0.87891 l -0.0703,0.78906 c 0,1.13672 1.13281,1.7461 2.19531,1.7461 1.11328,0 2.23828,-0.66407 2.23828,-1.9336 0,-2.57422 -3.67187,-3.25 -5.61328,-3.25 -3.12891,0 -7.52734,1.72657 -7.52734,5.57422"
           id="path13844"
           style="fill:#3f702b;fill-opacity:1;fill-rule:nonzero;stroke:none" />
        <path
           d="m 170.83594,124.32031 c 0,3.03907 2.21093,1 2.21093,2.91016 l 0,1.32422 -8.67968,0 0,-1.32422 c 0,-1.95313 2.30468,0.17187 2.30468,-2.91016 l 0,-18.15625 c 0,-3.07812 -2.30468,-0.95312 -2.30468,-2.90625 l 0,-1.32422 6.46875,-0.17578 0,22.5625 z m 0,0"
           id="path13846"
           style="fill:#3f702b;fill-opacity:1;fill-rule:nonzero;stroke:none" />
        <path
           d="m 240.67187,106.54297 c 0,0.82031 0.69141,1.50781 1.51172,1.50781 0,0 0.20703,-0.0234 0.31641,-0.0352 0,0.76953 -0.26953,1.70312 -0.96094,2.51171 l -0.11328,0.13672 0.55859,0.55469 0.13282,-0.13281 c 1.26172,-1.26172 1.89843,-2.54688 1.89843,-3.81641 0,-1.08984 -0.55468,-2.2539 -1.76953,-2.2539 -0.88281,0 -1.57422,0.67187 -1.57422,1.52734"
           id="path13848"
           style="fill:#3f702b;fill-opacity:1;fill-rule:nonzero;stroke:none" />
        <path
           d="m 112.13281,103.85156 c 0.0195,0.0547 0.0391,0.10938 0.0391,0.10938 0.82031,2.42969 2.4414,7.17578 4.07031,11.71875 l -8.27344,0 c 0.0625,-0.1875 4.05859,-11.52344 4.16406,-11.82813 m 0.15235,-7.796872 0,-0.0039 -0.20703,0.144531 c 0.008,0 -0.19532,0.132813 -0.19532,0.132813 -0.82422,0.539063 -1.6289,1.125 -1.6289,1.832031 0,0.410156 0.20703,0.972656 0.33984,1.339844 0,0 0.0391,0.105469 0.0508,0.144531 -0.0195,0.05078 -7.79297,22.058602 -7.79297,22.058602 -1.03515,2.91015 -1.92187,3.21875 -2.50781,3.41796 -0.429688,0.15235 -0.96875,0.33204 -0.96875,1.47657 l 0,1.30859 7.79297,0 0,-1.30859 c 0,-1.21094 -0.55859,-1.47266 -1.12891,-1.63282 -0.51562,-0.14062 -0.75781,-0.20703 -0.75781,-0.90625 0,-0.6289 0.41406,-1.8125 0.63281,-2.4414 0,0 0.0234,-0.0625 0.0234,-0.0625 0,0 0,-0.008 0.66797,-2.01563 0,0 0.20703,-0.61718 0.23437,-0.69531 l 10.54297,0 c 0.0312,0.0781 0.73828,2.01172 0.73828,2.01172 3.79297,8.61328 12.01563,7.41015 12.10547,7.40234 l 0.0508,-0.0117 -0.10547,-3.21093 c -5.44531,0 -6.46874,-3.63672 -9.46484,-11.83203 L 118.27734,106.5 114.60938,96.269531 c -0.0586,-0.167969 -0.38282,-0.992187 -0.83985,-1.027343 -0.19531,-0.01172 -0.37109,0.01562 -1.48437,0.8125"
           id="path13850"
           style="fill:#3f702b;fill-opacity:1;fill-rule:nonzero;stroke:none" />
        <path
           d="m 156.3125,79.511719 c -0.82031,-1.757813 -2.29297,-3.265625 -4.5,-3.660157 -1.32813,-0.242187 -2.25781,-0.144531 -4.60938,0.429688 -1.6875,0.402344 -3.10156,0.34375 -4.82031,-0.08984 -3.91406,-0.988281 -5.39062,-3.148437 -9.73437,-2.339844 -2.67188,0.503907 -4.57813,2.5625 -5.83203,5.898438 -1.07813,2.859375 -1.48438,8.730469 1.92968,15.074219 1.6211,3.023437 4.32422,4.546875 7.91016,4.574219 3.40625,-0.09766 4.23828,-0.742188 6.21875,-0.867188 1.78125,-0.113281 3.27344,0.984375 5.83594,0.648438 2.0625,-0.203126 4.55468,-2.210938 5.98437,-4.289063 3.76172,-5.441406 3.5,-11.335937 1.61719,-15.378906"
           id="path13852"
           style="fill:#ffffff;fill-opacity:1;fill-rule:nonzero;stroke:none" />
        <path
           d="m 150.44922,104.26563 c -2.58985,0.70312 -4.29688,-0.1211 -6.15235,0.0117 -2.05078,0.14454 -2.8164,0.92579 -6.35937,1.03907 -3.71484,-0.0352 -6.52344,-2.22266 -8.20313,-5.699222 -3.53906,-7.316407 -2.74999,-13.644532 -1.95703,-17.023438 1.16797,-4.957031 3.73047,-7.46875 8.35547,-6.636719 2.69531,0.484375 4.96875,2.207031 8.09375,2.597657 1.55078,0.195312 3.21875,-0.15625 5.17969,-0.628907 1.5,-0.367187 2.85937,-0.410156 4.20312,-0.09766 2.13672,0.5 3.5586,1.390625 4.65625,3.757813 2.125,4.578124 2.0625,10.699218 -2.10937,17.480468 -1.47266,2.402348 -3.52344,4.605478 -5.70703,5.199228"
           id="path13854"
           style="fill:#b01738;fill-opacity:1;fill-rule:nonzero;stroke:none" />
        <path
           d="m 143.57422,71.351562 c 0,0 -0.0977,-1.992187 1.11328,-4.21875 1.21484,-2.230468 3.91016,-3.703124 5.67969,-4.015624 1.77343,-0.308594 2.85937,-0.5 3.45312,-1.199219 0.46094,-0.554688 0.84766,-0.335938 0.83203,0.222656 -0.008,0.378906 -0.15234,1.378906 -0.29297,2.320313 -0.14453,0.945312 -0.60156,3.214843 -1.59375,4.757812 -1.49609,2.320312 -3.49218,2.871094 -5.22265,3.042969 -1.69141,0.164062 -3.14453,-0.464844 -3.96875,-0.910157"
           id="path13856"
           style="fill:#dceb4f;fill-opacity:1;fill-rule:nonzero;stroke:none" />
      </g>
      <g
         transform="matrix(1.25,0,0,1.25,152.05987,207.31251)"
         clip-path="url(#clip2)"
         id="g13858">
        <g
           clip-path="url(#clip3)"
           id="g13860">
          <path
             d="m 148.86719,56.09375 11.1875,10.695312 -10.6875,11.175782 -11.1836,-10.695313 10.6836,-11.175781 z m 0,0"
             id="path13862"
             style="fill:url(#linearGradient19866);fill-rule:nonzero;stroke:none" />
        </g>
      </g>
      <g
         transform="matrix(1.25,0,0,1.25,152.05987,207.31251)"
         clip-path="url(#clip4)"
         id="g13864">
        <path
           d="m 148.90625,99.53125 c -2.55859,0.332031 -4.05469,-0.761719 -5.83594,-0.648438 -1.98047,0.125 -2.80469,0.765626 -6.21875,0.863282 -3.58594,-0.02344 -6.28906,-1.550782 -7.91015,-4.570313 -3.41407,-6.347656 -3.00391,-12.214843 -1.92969,-15.074219 1.26172,-3.339843 3.16015,-5.394531 5.83203,-5.898437 4.34375,-0.8125 5.82031,1.347656 9.73437,2.339844 1.71875,0.429687 3.14063,0.488281 4.82032,0.08203 2.35156,-0.570312 3.28125,-0.664062 4.60937,-0.429688 2.20703,0.398438 3.67969,1.90625 4.5,3.664063 1.88672,4.046875 2.14453,9.941406 -1.61719,15.378906 -1.42968,2.074219 -3.92187,4.089844 -5.98437,4.292969 M 158.3125,79.1875 c -1.35156,-3.210938 -3.52734,-5.109375 -6.39453,-5.546875 -1.88672,-0.285156 -2.99219,0.417969 -4.87891,0.65625 -1.25781,0.15625 -2.40625,0.140625 -3.57812,-0.273437 -2.97657,-1.054688 -5.28907,-3.15625 -8.38282,-3.585938 -3.90234,-0.535156 -7.16796,2.566406 -8.49218,4.570312 -3.11328,4.742188 -3.07813,13.890626 0.35156,21.210938 0,0 0.77344,1.476562 1.21875,2.183594 1.35547,2.191406 3.69922,4.679686 8.37109,4.910156 3.41797,-0.10156 5.23438,-1.13281 6.59766,-1.28125 1.32031,-0.13672 3.07812,0.81641 5.86328,0.37109 3.49609,-0.55859 7.5,-6.449215 7.5,-6.449215 2.94531,-4.449219 4.35156,-10.75 1.82422,-16.765625"
           id="path13866"
           style="fill:#ee2623;fill-opacity:1;fill-rule:nonzero;stroke:none" />
        <path
           d="m 136.52344,79.199219 c 0,0 -3.60157,1.316406 -4.84766,5.613281 -1.28906,4.445312 -2.92187,-4.554688 4.84766,-5.613281"
           id="path13868"
           style="fill:#ffffff;fill-opacity:1;fill-rule:nonzero;stroke:none" />
        <path
           d="m 258.14453,110.76172 c 0.0781,-0.17578 0.19141,-0.32813 0.32813,-0.45313 0.13671,-0.12109 0.29296,-0.22265 0.47265,-0.28906 0.17969,-0.0664 0.36719,-0.10156 0.5625,-0.10156 0.19531,0 0.38281,0.0352 0.56641,0.10156 0.17578,0.0664 0.33594,0.16797 0.47265,0.28906 0.13672,0.125 0.24219,0.27735 0.32813,0.45313 0.0781,0.17969 0.12109,0.37891 0.12109,0.60156 0,0.21875 -0.043,0.41797 -0.12109,0.59375 -0.0859,0.1836 -0.19141,0.33203 -0.32813,0.46094 -0.13671,0.125 -0.29687,0.22266 -0.47265,0.29297 -0.1836,0.0625 -0.3711,0.0977 -0.56641,0.0977 -0.19531,0 -0.38281,-0.0352 -0.5625,-0.0977 -0.17969,-0.0703 -0.33594,-0.16797 -0.47265,-0.29297 -0.13672,-0.12891 -0.25,-0.27734 -0.32813,-0.46094 -0.082,-0.17578 -0.12109,-0.375 -0.12109,-0.59375 0,-0.22265 0.0391,-0.42187 0.12109,-0.60156 m 0.35547,1.05469 c 0.0586,0.14062 0.13672,0.26172 0.23437,0.36328 0.0977,0.10156 0.21094,0.17969 0.34766,0.23828 0.13281,0.0586 0.27344,0.0859 0.42578,0.0859 0.14844,0 0.29297,-0.0273 0.42188,-0.0859 0.13281,-0.0586 0.25,-0.13672 0.34765,-0.23828 0.0977,-0.10156 0.17578,-0.22266 0.23438,-0.36328 0.0586,-0.13672 0.0898,-0.29297 0.0898,-0.45313 0,-0.16797 -0.0312,-0.3164 -0.0898,-0.46094 -0.0586,-0.13671 -0.13672,-0.2539 -0.23438,-0.35546 -0.0976,-0.10157 -0.21484,-0.17579 -0.34765,-0.23438 -0.12891,-0.0586 -0.27344,-0.0859 -0.42188,-0.0859 -0.15234,0 -0.29297,0.0273 -0.42578,0.0859 -0.13672,0.0586 -0.25,0.13281 -0.34766,0.23438 -0.0976,0.10156 -0.17578,0.21875 -0.23437,0.35546 -0.0586,0.14454 -0.082,0.29297 -0.082,0.46094 0,0.16016 0.0234,0.31641 0.082,0.45313 m 1.03906,-1.26953 c 0.20703,0 0.36328,0.0391 0.47656,0.10937 0.10547,0.0703 0.16407,0.19531 0.16407,0.36719 0,0.0781 -0.0156,0.14453 -0.0312,0.19531 -0.0274,0.0508 -0.0547,0.0937 -0.0937,0.12891 -0.0391,0.0352 -0.0859,0.0625 -0.13672,0.0781 -0.0508,0.0195 -0.10938,0.0273 -0.16797,0.0352 l 0.4375,0.70703 -0.33984,0 -0.39454,-0.69141 -0.19921,0 0,0.69141 -0.32422,0 0,-1.62109 0.60937,0 z m 0,0.67968 c 0.0899,0 0.16797,-0.0156 0.22656,-0.0391 0.0586,-0.0234 0.0937,-0.0898 0.0937,-0.1875 0,-0.043 -0.0156,-0.0781 -0.0351,-0.10156 -0.0195,-0.0312 -0.043,-0.0469 -0.0781,-0.0625 -0.0351,-0.0156 -0.0664,-0.0234 -0.10547,-0.0312 -0.0391,-0.004 -0.0781,-0.004 -0.11718,-0.004 l -0.26953,0 0,0.42578 0.28515,0 z m 0,0"
           id="path13870"
           style="fill:#3f702b;fill-opacity:1;fill-rule:nonzero;stroke:none" />
      </g>
    </g>
  </g>
</svg>
