<svg id="Layer_1" data-name="Layer 1" xmlns="http://www.w3.org/2000/svg" viewBox="0 0 159.08 79.83"><defs><style>.cls-1{fill:#ffd200;}.cls-2{fill:#fff;}.cls-3{fill:#9fa1a3;}</style></defs><title>logo-full</title><g id="Symbols"><g id="Desktop-Nav-_V2_-Food-Open---Entrees-Open" data-name="Desktop-Nav-(V2)-Food-Open---Entrees-Open"><g id="Nav-Bar"><g id="LOGO"><path id="Fill-1" class="cls-1" d="M40,75.92A35.88,35.88,0,1,1,75.92,40,35.92,35.92,0,0,1,40,75.92" transform="translate(-0.13 -0.13)"/><path id="Fill-3" d="M40,75.92A35.88,35.88,0,1,1,75.92,40,35.92,35.92,0,0,1,40,75.92M40,.13A39.91,39.91,0,1,0,80,40,39.91,39.91,0,0,0,40,.13" transform="translate(-0.13 -0.13)"/><path id="Fill-5" d="M65.37,45.61c1.72-2.62,1.92-7.71,1.53-9.4-.07,0-5.05-2.73-16.45-6.55A7.88,7.88,0,0,0,52.7,28a17.87,17.87,0,0,0-5.19-3.1c2.51-1.61,6.86-6.3,7.72-7.26a21.81,21.81,0,0,0-7.06-1.58c2-1.58,5.83-4.13,7.41-4.56a13.91,13.91,0,0,0-5.79-1.23c-5.35-.13-8.2,1.06-12.13,3.07,0,0,1.5-4,1.74-4.68a25.3,25.3,0,0,0-4.06,2.48c-2.47,1.91-4.77,3.5-6.64,5.93a4.72,4.72,0,0,0-.78,4.28,22,22,0,0,1,1,3c.38,1.89.16,2,0,2a6.37,6.37,0,0,0-3.62,2.49A14.21,14.21,0,0,0,23,33.83a13.38,13.38,0,0,0-4.9-.82c-5.14,0-7,3.51-7.37,4.44-1.45,4,.73,9.41.73,9.41a28.1,28.1,0,0,0,1.06,6.25c.29.89,1.82,1.05,2.81,1.12,2.55.11,2.34,3.6,1.66,5.46a4.59,4.59,0,0,0,3.74-4,7,7,0,0,1,2,1.86,4.51,4.51,0,0,0,.92-4c2.52,3,3,8.56,3.08,8.55a14.51,14.51,0,0,0,1.69-1.78s-.42,3-1.11,3.09l-1.48.25-2.3,2.9h6.71a28.21,28.21,0,0,1,1.47-6.2,15.26,15.26,0,0,0,1.8,1.64,17.67,17.67,0,0,1,1.75-6.15,16.65,16.65,0,0,0,1.45,2.08c4.93-1,16-7.92,16.07-8,.26.34,3.09,4.61,7,6-.91,2.82-5.72,7.38-6.21,7.49l-1.39.26L50,66.49H57C57.55,63.1,63.29,59,64.8,56a1.11,1.11,0,0,0-.06-1.16,4.49,4.49,0,0,1-1.06-3.62,11.89,11.89,0,0,1,1.7-5.64" transform="translate(-0.13 -0.13)"/><path id="Fill-7" class="cls-2" d="M15.73,44.68A2.42,2.42,0,0,0,13.59,46v.51L16,45.66l.41-.84a1.3,1.3,0,0,0-.7-.14" transform="translate(-0.13 -0.13)"/><path id="Fill-9" class="cls-3" d="M36.44,53.32a15.11,15.11,0,0,0,1.32,1.89c4.48-.92,12.52-6,12.63-6.05Z" transform="translate(-0.13 -0.13)"/><path id="Fill-11" class="cls-3" d="M42,25.37l-2.92,1.93a37.35,37.35,0,0,1,9.35,1.05,13.83,13.83,0,0,0-6.43-3" transform="translate(-0.13 -0.13)"/><path id="Fill-13" class="cls-2" d="M50.46,18.81c-7.21.34-10.24,2.29-10.24,2.29l2.17-2.62a27.52,27.52,0,0,1,7.13-6.32c-13.16,5.28-15.87,9.09-15.87,9.09L34.35,18c.08-.58.87-3.37,1-4.06-4.33,3.53-5.51,5.79-5,7.51.34,1.16,1.59,3.77,1.64,5.55,0,2.06-.67,3.88-1.27,6.23,0,0,7.6,2.47,11.69,1.48,0,0-1.79-1.42-1.83-2.22a19.72,19.72,0,0,0,7.88-4.21h0a37.35,37.35,0,0,0-9.35-1.05L42,25.37h0c2.85-2.17,6.14-3.65,8.42-6.56" transform="translate(-0.13 -0.13)"/><path id="Fill-15" class="cls-3" d="M34.35,18A43.17,43.17,0,0,1,46.16,12.8a20.23,20.23,0,0,1,3.34-.63c-13.16,5.28-15.87,9.09-15.87,9.09Z" transform="translate(-0.13 -0.13)"/><path id="Fill-17" class="cls-3" d="M42.39,18.48a29.51,29.51,0,0,1,8.07.33c-7.21.34-10.24,2.29-10.24,2.29l2.18-2.63" transform="translate(-0.13 -0.13)"/><path id="Fill-19" class="cls-2" d="M17.07,41.69c1.39-.58,2.61-2.73,3-4.78a14.64,14.64,0,0,0-.25-2.5c0,.23-.68,5.62-4.7,5.78-.94,0-1.3.21-1.44,1.31a1.6,1.6,0,0,0,0,.41h0a5.28,5.28,0,0,0,3.36-.22" transform="translate(-0.13 -0.13)"/><path id="Fill-21" class="cls-3" d="M14.72,43.19s3.37.46,4.48-1.69a10.36,10.36,0,0,0,.88-4.59h0c-.4,2-1.62,4.2-3,4.78a5.29,5.29,0,0,1-3.36.22h0a1.51,1.51,0,0,0,1,1.28" transform="translate(-0.13 -0.13)"/><path id="Fill-23" d="M88.21,25.34V15.51l-1.54-2.64h6.69a5.49,5.49,0,0,1,2.91.51A2.92,2.92,0,0,1,97.51,16a2.56,2.56,0,0,1-2,2.79v0c1.6.2,2.15,1.48,2.15,2.94a3.53,3.53,0,0,1-1,2.81,4.67,4.67,0,0,1-3.11.74Zm3.89-7.59h.26c.86,0,1.29-.19,1.29-1.12s-.48-1.12-1.29-1.12H92.1Zm0,4.94h.33c.95,0,1.28-.38,1.28-1.37S93.38,20,92.43,20H92.1Z" transform="translate(-0.13 -0.13)"/><path id="Fill-25" d="M144.49,19.29v2c0,.79,0,1.38-1,1.38h-.38V12.87h-4.66l.77,2.64v9.83h8.66V19.29Z" transform="translate(-0.13 -0.13)"/><path id="Fill-27" d="M158.24,21.73c0,3.08-1.89,3.86-4.64,3.86S149,24.82,149,21.73V16.48c0-3.08,1.89-3.86,4.64-3.86s4.64.77,4.64,3.86Zm-5.4,0c0,.09,0,1,.76,1s.76-.89.76-1V16.27a.68.68,0,0,0-.76-.76c-.8,0-.76.87-.76,1Z" transform="translate(-0.13 -0.13)"/><path id="Fill-29" d="M128,17.16V12.87h-9.35l.78,2.64v9.82h3.89V20.63h2.47V17.89h-2.47V15.52c.74-.06,1.06.07,1.21.35a3,3,0,0,1,.12,1.29Z" transform="translate(-0.13 -0.13)"/><path id="Fill-31" d="M117.93,17.16V12.87h-9.35l.77,2.64v9.82h3.89V20.63h2.47V17.89h-2.47V15.52c.74-.06,1.06.07,1.21.35a3,3,0,0,1,.12,1.29Z" transform="translate(-0.13 -0.13)"/><path id="Fill-33" d="M104,12.87V21.8a.78.78,0,1,1-1.54,0V12.87H97.82l.77,2.64v5.84a3.92,3.92,0,0,0,1.19,3.3,6.9,6.9,0,0,0,6.93,0,3.93,3.93,0,0,0,1.19-3.3V12.87Z" transform="translate(-0.13 -0.13)"/><path id="Fill-35" d="M136.1,12.87h-7.34l.78,2.64-1.7,9.83h3.56l.44-2.65h2.39l.48,2.65h3.56Zm-3.72,6.78.64-4.13h.06l.64,4.13Z" transform="translate(-0.13 -0.13)"/><path id="Fill-37" d="M134.41,38v3.5c0,1.36,0,2.39-1.69,2.39h-.66v-17H124l1.34,4.58v17h15V38Z" transform="translate(-0.13 -0.13)"/><polygon id="Fill-39" points="116.19 31.3 114.85 26.72 122.91 26.72 122.91 48.3 116.19 48.3 116.19 31.3"/><path id="Fill-41" d="M150.78,26.85c1.84,0,4,0,5.49,1.21,1.76,1.39,1.94,3.35,1.94,5.41v8.08c0,2.12-.1,3.75-1.74,5.29S153,48.43,151,48.43h-8.66v-17L141,26.85Zm-1.74,17h.53c1.46,0,1.91-.53,1.91-2.09V33.65c0-1.56-.45-2.21-1.91-2.21H149Z" transform="translate(-0.13 -0.13)"/><polygon id="Fill-43" points="106.95 26.72 105.5 37.83 105.44 37.83 103.98 26.72 99.26 26.72 97.79 37.83 97.74 37.83 96.29 26.72 86.53 26.72 90.04 31.29 93.16 48.3 99.5 48.3 101.59 40.81 101.64 40.81 103.73 48.3 110.08 48.3 114.03 26.72 106.95 26.72"/><polygon id="Fill-45" points="102.8 49.81 101.64 58.66 101.6 58.66 100.43 49.81 96.67 49.81 95.5 58.66 95.46 58.66 94.31 49.81 86.53 49.81 89.33 53.46 91.81 67.01 96.87 67.01 98.53 61.04 98.57 61.04 100.24 67.01 105.29 67.01 108.44 49.81 102.8 49.81"/><polygon id="Fill-47" points="110.08 53.45 109.01 49.81 115.43 49.81 115.43 67 110.08 67 110.08 53.45"/><polygon id="Fill-49" points="125.4 57.57 125.44 57.57 125.44 49.81 129.77 49.81 129.77 67 124.58 67 121.39 59.27 121.35 59.27 121.35 67 117.18 67 117.18 53.45 116.11 49.81 122.41 49.81 125.4 57.57"/><path id="Fill-51" d="M143.92,55.92h-5.15v-.38c0-.76.16-1.95-1-1.95-1,0-1.08.94-1.08,1.68v7.08a1.06,1.06,0,0,0,1.08,1.12c1.18,0,1-1.18,1-2v-1l-1.06-3.64h6.22V65.6c-1.68,1.52-4.23,1.87-6.42,1.87-1.54,0-3.31-.12-4.53-1.15-1.58-1.34-1.67-2.91-1.67-4.79V55c0-1.52.18-3,1.42-4.05a6.88,6.88,0,0,1,4.53-1.34,10.91,10.91,0,0,1,6.66,2Z" transform="translate(-0.13 -0.13)"/><path id="Fill-53" d="M152.72,55.42c0-.77,0-1.83-1.06-1.83-.68,0-1,.22-1,.86a1.26,1.26,0,0,0,.32,1,3.85,3.85,0,0,0,1.5.68,15,15,0,0,1,4.09,1.52,3.16,3.16,0,0,1,1.32,1.64,6.77,6.77,0,0,1,.4,2.37v.08c0,3.31-1.46,5.76-6.58,5.76a10,10,0,0,1-6.24-1.81V61.05h5.23a4.67,4.67,0,0,0,.16,1.86,1.09,1.09,0,0,0,1,.56.94.94,0,0,0,1-1c0-1.76-1.1-1.91-2.59-2.27-3.25-.8-5.07-1.58-5.07-5.29v-.38c.08-1.85.38-2.77,1.78-3.83a7.43,7.43,0,0,1,4.41-1.06,10.64,10.64,0,0,1,6.34,1.8v4.05h-5Z" transform="translate(-0.13 -0.13)"/><path id="Fill-55" d="M158.33,66.36h.14c.12,0,.16,0,.16-.12s0-.1-.17-.1h-.13Zm0,.48h-.16V66h.31c.21,0,.32.07.32.25a.2.2,0,0,1-.2.22l.2.36h-.18l-.19-.35h-.1Zm.13-1a.58.58,0,1,0,.56.58.56.56,0,0,0-.56-.58Zm-.76.58a.76.76,0,1,1,.76.74.73.73,0,0,1-.76-.74Z" transform="translate(-0.13 -0.13)"/></g></g></g></g></svg>