<?xml version="1.0" encoding="UTF-8" standalone="no"?>
<svg
   xmlns:dc="http://purl.org/dc/elements/1.1/"
   xmlns:cc="http://creativecommons.org/ns#"
   xmlns:rdf="http://www.w3.org/1999/02/22-rdf-syntax-ns#"
   xmlns:svg="http://www.w3.org/2000/svg"
   xmlns="http://www.w3.org/2000/svg"
   viewBox="0 0 913.33331 277.33334"
   height="277.33334"
   width="913.33331"
   xml:space="preserve"
   id="svg2"
   version="1.1"><metadata
     id="metadata8"><rdf:RDF><cc:Work
         rdf:about=""><dc:format>image/svg+xml</dc:format><dc:type
           rdf:resource="http://purl.org/dc/dcmitype/StillImage" /></cc:Work></rdf:RDF></metadata><defs
     id="defs6" /><g
     transform="matrix(1.3333333,0,0,-1.3333333,0,277.33333)"
     id="g10"><g
       transform="scale(0.1)"
       id="g12"><path
         id="path14"
         style="fill:#db232e;fill-opacity:1;fill-rule:evenodd;stroke:none"
         d="M 5081.06,693.527 C 4687.37,496.684 3629.74,623.48 3629.74,623.48 c 1145.72,-412.91 1905.07,17.61 1905.07,9.993 0,0 -233.55,-76.735 -453.75,60.054 z M 2373.64,1964.4 c -19.81,33.03 -92.09,37.45 -92.09,37.45 0,0 -180.96,0 -300.58,0 -119.62,0 -155.21,-89.17 -155.21,-89.17 l -138.7,-356.65 c -270.79,-3.31 -445.82,-118.89 -445.82,-118.89 l -26.42,49.54 -3.3,435.91 c 0,0 -13.21,115.58 -142,148.61 -128.797,33.02 -188.239,-66.05 -188.239,-66.05 l -241.07,-336.84 -393.563,109.54 c 0,0 -120.109,13.35 -203.5152,-70.06 -83.4101,-83.41 -20.0195,-203.52 -20.0195,-203.52 L 273.34,1143.94 63.1484,840.328 c 0,0 -110.1015,-126.781 -26.6914,-250.226 83.41,-123.446 256.902,-66.727 256.902,-66.727 l 363.664,136.789 c 0,0 183.504,-256.898 256.903,-350.316 73.398,-93.422 190.174,-43.375 190.174,-43.375 0,0 166.82,43.375 130.12,256.902 0,0 218.73,-53.977 418.92,16.09 0,0 199.24,-86.313 205.88,-458.2384 0,0 411.81,252.4104 1056.05,159.4294 727.75,-105.035 1386.66,-352.578 2131.94,-172.6833 0,0 677.96,90.7813 1328.84,781.5043 270.29,19.898 373.11,117.738 436.12,208.943 63.01,91.21 31.51,245.42 -61.36,305.12 -92.86,59.7 -268.63,-11.61 -268.63,-11.61 46.43,386.38 -325.03,366.48 -325.03,366.48 44.78,170.8 -72.96,202.31 -72.96,202.31 0,0 -61.35,8.29 -182.41,13.26 -121.05,4.98 -155.88,-165.82 -155.88,-165.82 0,0 -203.96,19.9 -275.27,14.92 -71.3,-4.97 -117.73,-39.79 -117.73,-39.79 -157.54,79.59 -473.79,24.23 -473.79,24.23 0,0 -3.31,19.87 13.24,122.5 16.56,102.64 -79.46,105.95 -79.46,105.95 0,0 -115.88,6.62 -261.56,0 -145.67,-6.62 -158.92,-82.77 -158.92,-82.77 l -79.46,-162.24 c 0,0 -208.58,-9.93 -314.53,-96.01 0,0 -410.55,306.26 -691.97,97.67 -100.98,56.29 -391.81,9.3 -391.81,9.3 0,0 36.36,105.76 -6.61,173.52 -42.97,67.76 -127.25,61.15 -127.25,61.15 l -306.97,-0.76 c 0,0 -63.61,2.49 -99.97,-31.43" /><path
         id="path16"
         style="fill:#fcd213;fill-opacity:1;fill-rule:evenodd;stroke:none"
         d="m 701.508,1491.45 288.41,419.01 c 0,0 65.302,46.26 65.302,-27.21 v -503.36 l 478.87,-149.65 c 0,0 54.43,-27.2 0,-59.86 L 1057.94,998.969 V 492.883 c 0,0 -5.44,-51.695 -62.577,-13.606 L 704.227,873.809 238.953,705.113 c 0,0 -59.859,-10.883 -38.09,59.86 l 282.973,410.847 -296.578,408.14 c 0,0 -24.488,51.7 40.812,51.7 l 473.438,-144.21" /><path
         id="path18"
         style="fill:#231f20;fill-opacity:1;fill-rule:nonzero;stroke:none"
         d="m 697.426,1503.11 284.289,413.02 2.5,2.54 c 0.23,0.15 81.005,57.39 81.005,-35.42 v -496.02 l 471.84,-147.45 1.6,-0.67 c 0.2,-0.1 70.55,-35.29 0.55,-77.28 L 1537.45,1161 1067.94,991.98 V 492.883 l -0.08,-1.137 c -0.02,-0.187 -7.2,-68.019 -78.044,-20.789 l -2.461,2.383 -286.726,388.555 -458.277,-166.161 -1.758,-0.468 c -0.211,-0.032 -75.844,-13.743 -49.266,72.636 l 1.332,2.731 278.957,405.027 -292.445,402.44 -0.977,1.68 c -0.086,0.18 -31.183,65.88 49.875,65.88 l 2.895,-0.47 z m 299.582,400.07 -287.297,-417.39 -4.125,-6 -6.973,2.12 -471.84,143.73 c -43.714,-0.6 -33.046,-31.23 -30.804,-36.68 l 295.953,-407.28 4.137,-5.69 -4.02,-5.83 -282.062,-409.527 c -14.516,-49.301 20.789,-46.547 26.562,-45.785 l 464.289,168.336 7,2.535 4.406,-5.973 290.026,-393.027 c 38.82,-25.164 44.95,2.136 45.68,6.683 v 505.567 6.981 l 6.64,2.39 475.15,171.05 c 34.49,21.21 5.58,38.81 0.53,41.59 l -478.01,149.38 -7.03,2.19 v 7.34 503.36 c 0,48.81 -40.22,25.11 -48.212,19.93" /><path
         id="path20"
         style="fill:#ee293d;fill-opacity:1;fill-rule:evenodd;stroke:none"
         d="m 965.43,1330.92 c 0,0 87.07,32.65 87.07,-24.49 0,0 -10.89,-32.65 -40.81,-5.45 0,0 -24.491,10.89 -43.538,10.89 0,0 -10.886,5.44 -2.722,19.05 z m 51.7,-125.17 c 0,0 19.05,-32.65 -21.767,-35.37 0,0 -21.769,-5.44 -35.375,21.77 0,0 -13.601,21.77 -43.535,21.77 0,0 -19.043,-5.44 -24.484,2.72 0,0 -27.211,29.93 5.441,43.53 0,0 21.766,-5.44 59.856,-2.72 0,0 13.609,5.44 35.375,-38.09 0,0 5.441,-8.16 24.489,-13.61 z m -269.368,190.46 c 0,0 -54.418,78.92 -84.348,29.93 0,0 -10.887,-32.64 29.93,-24.48 0,0 27.207,-8.16 40.812,-19.05 0,0 10.883,0 13.606,13.6 z m -111.559,-73.46 c 0,0 -32.648,-16.32 -2.719,-40.81 0,0 13.606,-16.33 40.813,-2.72 0,0 24.488,10.88 48.976,-5.44 0,0 13.602,-16.33 21.766,-10.89 0,0 38.094,8.17 19.047,38.09 0,0 -19.047,8.17 -48.977,32.66 0,0 -8.16,10.88 -51.695,-13.61 0,0 -10.887,-2.72 -27.211,2.72 z m 217.672,-160.53 c -5.441,-13.6 -32.652,-19.04 -62.578,-8.16 -29.934,8.16 -48.977,24.49 -46.258,38.09 5.445,13.6 32.652,19.05 62.582,8.16 29.93,-8.16 48.973,-24.49 46.254,-38.09 z M 560.02,1129.57 c 0,0 -21.766,29.93 27.207,29.93 0,0 19.05,0 35.375,29.93 0,0 24.488,10.88 24.488,-10.88 0,0 2.719,-27.21 -16.328,-40.82 0,0 87.07,-201.343 285.691,-89.79 0,0 -5.437,32.65 10.887,48.98 0,0 27.211,8.16 27.211,-16.33 0,0 -10.887,-24.48 19.043,-40.81 l 8.164,-8.16 c 0,0 13.605,-27.21 -13.606,-27.21 0,0 -21.765,-5.441 -35.371,19.05 0,0 -76.187,-73.468 -193.183,-40.815 0,0 -92.508,19.045 -136.043,141.485 0,0 -40.813,-5.44 -43.535,5.44" /><path
         id="path22"
         style="fill:#ffffff;fill-opacity:1;fill-rule:evenodd;stroke:none"
         d="m 2023.9,1288.54 h 277.4 L 2086.56,737.043 h 254.37 l 429.3,1139.317 H 2522.55 L 2341,1407.42 h -270.87 l 181.63,472.24 h -254.28 l -184.93,-475.54 c 0,0 -77.14,0.26 -169.45,-9.92 -234.28,-25.82 -596.75,-161.32 -600.6,-442.958 -3.11,-227.441 166.04,-302.836 354.09,-286.355 188.05,16.48 395.01,124.843 467.49,264.91 103.94,191.373 159.82,358.743 159.82,358.743 z m -248.08,-9.84 c -20.75,-64.74 -55.61,-172.47 -104.45,-269.44 -66.14,-131.295 -186.55,-271.432 -350.06,-199.897 -26.4,11.551 -92.39,87.438 -51.14,193.027 23.2,59.39 69.1,132.61 141.24,188.84 56.11,43.73 128.08,77.18 217.58,85.84 135.59,7.81 146.83,1.63 146.83,1.63 z M 5711.33,941.344 c 0,0 -92.38,-123.731 -273.86,-133.629 C 5256,797.816 5176.81,873.703 5173.51,1002.39 5117.42,941.344 5010.18,842.359 4810.56,809.363 4610.94,776.367 4568.04,924.848 4568.04,924.848 4274.39,692.23 4193.55,895.152 4193.55,895.152 3891.64,683.98 3833.9,934.746 3833.9,934.746 3528.7,669.133 3447.86,911.648 3447.86,911.648 c 0,0 -6.6,24.747 3.3,49.493 9.89,24.75 173.22,471.839 173.22,471.839 l -64.34,1.65 c 0,0 -49.49,-128.69 -100.64,-216.13 -51.14,-87.43 -161.67,-249.109 -247.46,-326.648 -85.79,-77.539 -209.52,-145.18 -306.86,1.652 -257.36,-191.375 -377.79,-16.5 -362.94,118.786 14.84,135.28 128.68,471.83 377.79,552.67 249.12,80.83 369.55,-13.2 369.55,-13.2 l -40.41,-111.31 c 0,0 -169.11,50.26 -246.65,-14.07 -77.54,-64.34 -128.68,-143.53 -128.68,-143.53 0,0 -90.74,-171.58 -98.99,-249.12 -8.25,-77.535 -11.55,-105.582 39.6,-82.488 51.14,23.098 107.23,72.588 138.58,164.978 31.34,92.39 102.28,287.06 102.28,287.06 l 221.07,3.3 L 3108,942.996 c 0,0 110.54,74.234 186.43,222.714 75.89,148.48 135.28,275.51 135.28,275.51 0,0 -36.3,18.15 -34.65,46.2 1.65,28.04 -8.25,131.98 105.59,207.87 113.83,75.89 122.08,-105.59 112.18,-122.09 -9.9,-16.49 161.68,-4.95 161.68,-4.95 0,0 123.73,0 82.49,-118.78 -41.25,-118.78 -191.37,-503.177 -191.37,-503.177 l 173.22,112.187 c 0,0 34.65,259.01 179.82,395.94 145.18,136.93 242.52,151.78 410.79,135.28 l 100.64,280.46 214.95,-0.41 -343.45,-927.961 158.51,108.981 c 0,0 -10.21,164.44 123.42,337.66 133.63,173.23 257.36,184.77 257.36,184.77 l 191.38,18.15 c 0,0 174.87,-61.04 74.23,-240.86 -100.63,-179.83 -280.46,-230.97 -417.39,-227.67 0,0 -9.9,-115.48 -11.54,-158.379 -1.66,-42.894 61.04,-49.492 61.04,-49.492 0,0 118.78,19.797 222.71,118.781 103.94,98.99 128.68,125.38 128.68,125.38 0,0 39.6,108.89 82.5,176.53 42.89,67.64 131.98,201.27 320.05,249.11 0,0 120.43,31.35 188.07,-6.6 67.64,-37.94 98.99,-163.32 29.7,-260.66 -69.29,-97.33 -138.58,-188.07 -391,-189.72 0,0 -16.5,-89.09 -21.44,-148.481 -4.95,-59.391 64.34,-59.391 64.34,-59.391 0,0 118.78,4.95 280.46,219.422 161.68,214.47 339.85,448.73 339.85,448.73 h 196.32 l 28.04,-422.34 c 0,0 235.92,-3.3 311.81,54.45 75.89,57.74 79.19,-34.65 51.14,-59.39 -28.04,-24.75 -87.43,-103.94 -214.46,-107.24 -127.04,-3.3 -181.48,-6.6 -181.48,-6.6 0,0 -29.7,-118.782 -131.98,-171.575 -102.29,-52.792 -341.5,-135.281 -430.59,65.989 z M 4050.02,982.59 c 11.55,151.78 125.38,344.8 186.42,425.64 61.04,80.84 140.23,54.44 140.23,54.44 l -131.98,-341.5 -61.04,-107.24 -92.39,-64.336 h -36.29 z m 1012.95,504.83 c 0,0 -61.04,23.1 -122.08,-75.89 -61.04,-98.99 -108.88,-189.73 -108.88,-189.73 0,0 65.99,6.61 128.68,54.45 62.69,47.84 108.88,123.73 102.28,211.17 z m 626.91,1.65 c 0,0 -61.04,23.09 -122.08,-75.89 -61.04,-98.99 -108.88,-189.73 -108.88,-189.73 0,0 65.99,6.6 128.68,54.45 62.69,47.84 108.88,123.73 102.28,211.17 z m 395.95,-95.69 -176.53,-240.86 171.58,8.25 c 0,0 9.9,143.52 4.95,232.61 z m -33,-338.2 c 0,0 -133.63,26.39 -184.77,-69.289 -51.14,-95.688 95.69,-65.993 95.69,-65.993 0,0 56.09,41.243 89.08,135.282 z m -140.23,778.69 123.74,-1.65 c 0,0 34.64,-37.95 -1.66,-118.79 -36.29,-80.83 -97.33,-90.73 -123.73,-80.83 -26.4,9.9 -36.29,23.09 -18.15,49.49 18.15,26.39 52.8,41.24 41.25,85.79 -11.55,44.54 -21.45,65.99 -21.45,65.99" /><path
         id="path24"
         style="fill:#231f20;fill-opacity:1;fill-rule:nonzero;stroke:none"
         d="m 2023.9,1298.54 h 291.99 l -5.3,-13.6 -209.44,-537.897 h 232.88 L 2755.8,1866.36 h -226.42 l -179.08,-462.54 -2.46,-6.36 h -6.84 -270.87 -14.49 l 5.2,13.52 176.41,458.68 h -232.96 l -182.44,-469.14 -2.49,-6.4 h -6.81 c -0.22,0 -76.79,0.26 -168.35,-9.84 l -1.04,-0.12 c -32.6,-3.62 -67.59,-9.37 -103.62,-17.32 -36.12,-7.98 -73.44,-18.2 -110.63,-30.75 -189.11,-63.83 -373.76,-187.95 -376.45,-384.961 -0.19,-13.949 0.31,-27.527 1.47,-40.731 7.36,-83.953 41.89,-142.781 92.86,-180.765 51.45,-38.34 119.84,-55.895 194.22,-56.914 17.7,-0.239 36.01,0.492 54.72,2.129 l 0.2,0.019 c 25.93,2.278 52.21,6.332 78.42,11.988 26.32,5.68 52.55,12.961 78.26,21.68 132.05,44.77 251.67,127.395 302.6,225.832 l 0.12,0.196 c 103.46,190.497 158.96,356.697 159.12,357.177 l 2.3,6.8 z m 262.81,-20 h -255.68 c -11.55,-33.14 -65.93,-183.58 -158.09,-353.31 l 0.01,-0.003 C 1819.56,822.055 1695.53,735.91 1559.02,689.629 c -26.53,-8.996 -53.5,-16.488 -80.45,-22.305 -27.09,-5.847 -54.21,-10.031 -80.92,-12.379 l -0.2,-0.019 c -18.89,-1.653 -37.83,-2.383 -56.68,-2.129 -78.41,1.074 -150.86,19.832 -205.86,60.82 -55.46,41.336 -93,104.86 -100.9,195.067 -1.17,13.371 -1.67,27.597 -1.47,42.675 2.84,207.771 194.14,337.511 390.05,403.641 37.78,12.75 75.79,23.16 112.66,31.29 36.96,8.16 72.65,14.03 105.72,17.72 l 1.04,0.12 c 76.81,8.46 142.88,9.75 163.72,9.95 l 182.45,469.17 2.5,6.41 h 6.8 254.28 14.52 l -5.22,-13.55 -176.43,-458.73 h 249.55 l 179.08,462.57 2.48,6.41 h 6.81 247.68 14.43 l -5.09,-13.52 -429.31,-1139.313 -2.44,-6.488 h -6.89 -254.37 -14.59 l 5.29,13.598 z m -501.4,-2.89 c -10.45,-32.62 -24.46,-76.06 -41.8,-123.02 -17.51,-47.4 -38.58,-98.92 -63.23,-147.86 l -0.02,0.01 v 0 -0.04 c -9.31,-18.49 -19.79,-37.295 -31.41,-55.842 -11.63,-18.546 -24.25,-36.582 -37.81,-53.441 -71.41,-88.805 -170.61,-149.043 -293.63,-95.269 l -0.01,-0.004 -0.04,0.015 -0.07,0.039 c -4.56,2 -9.88,5.395 -15.45,10.051 -5.23,4.375 -10.89,10.035 -16.54,16.879 -28.31,34.312 -55.79,98.566 -24.43,178.852 l 0.02,0.04 v 0 c 3.31,8.48 7.09,17.28 11.36,26.3 4.21,8.89 8.92,18.05 14.14,27.38 26.62,47.6 65.81,97.97 118.89,139.34 l 0.04,0.04 0.11,0.09 v -0.01 c 8.07,6.28 16.43,12.34 25.05,18.11 8.56,5.73 17.59,11.3 27.06,16.65 48,27.14 104.64,46.67 170.51,53.03 l 0.4,0.05 c 138.09,7.94 151.51,0.74 151.55,0.72 l 8.01,-3.7 z m -60.56,-116.15 c 15.56,42.13 28.21,80.68 38.06,111.29 -13.66,0.88 -47.99,1.23 -133.27,-3.68 -62.73,-6.12 -116.61,-24.7 -162.23,-50.48 -8.76,-4.95 -17.34,-10.27 -25.74,-15.88 -8.32,-5.57 -16.29,-11.35 -23.91,-17.29 l -0.04,-0.03 -0.11,-0.09 h -0.01 c -50.73,-39.55 -88.21,-87.73 -113.69,-133.29 -4.92,-8.78 -9.42,-17.56 -13.51,-26.21 -4.03,-8.5 -7.64,-16.89 -10.82,-25.043 l -0.02,-0.043 v 0 c -27.98,-71.656 -3.78,-128.613 21.23,-158.926 4.73,-5.73 9.51,-10.504 13.96,-14.226 4.1,-3.422 7.71,-5.793 10.54,-7.043 l 0.02,-0.012 0.09,-0.039 c 112.36,-49.16 203.9,7.004 270.2,89.449 13.22,16.441 25.39,33.801 36.47,51.488 11.1,17.696 21.27,36 30.48,54.275 l 0.01,-0.01 v 0 0.05 c 24.19,48.02 44.98,98.86 62.29,145.74 z M 5708.94,923.133 c -29.18,-32.113 -120.08,-117.149 -270.96,-125.379 -5.6,-0.305 -11.35,-0.535 -17.24,-0.684 -85.17,-2.183 -147.36,15.391 -189.37,49.078 -39.32,31.528 -60.67,76.719 -66.38,132.715 -27.42,-28.093 -64.36,-61.242 -113.86,-91.984 C 4991.41,849.793 4913.48,816.266 4812.16,799.52 4641,771.23 4579.96,871.746 4563.56,908.746 4309.67,713.23 4212.25,840.473 4189.73,880.473 3929.49,703.688 3847.56,865 3828.85,917.289 3521.96,658.184 3438.69,907.648 3438.44,908.367 l -0.19,0.586 c -0.02,0.078 -7.49,28.063 3.65,55.899 8.87,22.175 141.48,384.988 168.35,458.518 l -43.48,1.11 C 3556,1397.18 3512.74,1289.97 3468,1213.46 l -0.04,-0.07 -0.02,-0.03 v 0 c -7.28,-12.44 -15.65,-26.22 -24.86,-40.86 -9.27,-14.73 -19.51,-30.55 -30.5,-47.01 -56.35,-84.44 -131.49,-184.564 -193.96,-241.021 -44.1,-39.86 -98.18,-77.215 -154.29,-85.813 -55.29,-8.472 -111.78,10.434 -161.65,80.723 -63.69,-45.945 -119.26,-69.746 -166.6,-77.473 -48.01,-7.836 -87.72,0.742 -119.06,19.574 -31.38,18.848 -54.14,47.825 -68.34,80.809 -15.02,34.871 -20.49,74.356 -16.47,111.051 l 0.02,0.16 v 0.04 c 2.14,19.42 6.24,42.75 12.38,68.65 6.13,25.86 14.34,54.47 24.7,84.51 53.44,154.91 164.54,348.37 347.53,407.75 254.1,82.45 378.25,-14.45 378.62,-14.72 l 5.91,-4.45 -2.51,-6.92 -40.41,-111.31 -3.18,-8.78 -8.97,2.61 c -0.47,0.13 -164.07,48.74 -237.51,-12.2 -73.75,-61.2 -123.09,-135.81 -126.49,-141.01 -5.47,-10.4 -89.83,-171.72 -97.63,-244.99 l -0.15,-1.49 c -4.13,-38.792 -6.86,-64.463 -2.18,-74.838 2.27,-5.02 10.41,-3.903 27.91,3.996 l 0.03,0.015 c 6.83,3.082 13.76,6.668 20.71,10.793 7.09,4.203 14.08,8.871 20.85,14.02 35.7,27.124 69.79,69.864 91.63,134.244 31.26,92.15 102.16,286.7 102.37,287.26 l 2.34,6.46 6.91,0.1 221.07,3.3 14.43,0.21 -4.93,-13.57 -156.52,-431.188 c 36.9,31.058 104.68,97.028 156.42,198.258 64.58,126.35 117.09,236.91 131.31,267.07 -12.16,8.14 -33.23,25.92 -31.77,50.68 h 0.01 c 0.15,2.76 0.21,5.79 0.26,9.32 0.63,38.98 2.2,134.6 109.73,206.29 25.64,17.09 46.97,22.21 64.58,19.38 16.53,-2.65 29.3,-12.07 39.03,-25.17 9.1,-12.24 15.46,-27.66 19.71,-43.51 9.84,-36.7 7.98,-77.87 2.97,-86.22 -0.24,-0.39 152.02,10.1 152.45,10.12 h 0.75 c 0.39,0 137.65,0 91.82,-131.98 -34.61,-99.67 -144.73,-383.44 -180.29,-474.785 l 143.51,92.935 c 5.41,35.3 45.66,268.52 182.21,397.31 73.79,69.6 135.68,108.25 200.76,127.48 63.02,18.62 128.39,18.82 210.1,11.19 l 98.02,273.16 2.38,6.61 h 7 l 214.95,-0.42 14.32,-0.03 -4.95,-13.37 -332.53,-898.474 128.08,88.054 c -0.41,30.57 4.19,181.16 125.67,338.64 136.25,176.63 263.79,188.56 264.16,188.6 h 0.15 l 191.37,18.14 4.34,-0.54 c 0.53,-0.19 185.99,-64.94 79.55,-255.13 l -0.51,-0.92 c -14.38,-25.56 -30.41,-48.64 -47.72,-69.44 -17.34,-20.82 -35.85,-39.21 -55.19,-55.36 -96.43,-80.56 -214.94,-107.75 -313.51,-107.17 -2.37,-28.3 -9.41,-113.753 -10.75,-148.62 -1.17,-30.371 42.36,-37.883 50.77,-39.051 13.33,2.516 120.79,25.109 216.15,115.921 90.37,86.07 120.57,116.95 126.89,123.52 5.54,14.96 42.59,113.22 82.71,176.51 21.69,34.21 55.09,85.12 107.23,133.9 52.22,48.84 122.93,95.16 218.81,119.55 h 0.04 c 0.35,0.09 124.21,32.35 195.37,-7.58 3.34,-1.87 6.66,-3.98 9.94,-6.32 30.66,-21.82 52.92,-60.72 60.75,-105.91 7.74,-44.69 1.43,-95.76 -24.83,-142.58 -3.82,-6.82 -8.13,-13.62 -12.91,-20.34 -35.26,-49.53 -70.55,-97.4 -129.76,-133.48 -57.67,-35.14 -137.48,-58.55 -261.02,-60.34 -4.11,-23.06 -15.8,-91 -19.83,-139.421 -3.84,-46.074 48.46,-48.477 54.01,-48.606 4.87,0.289 117.26,9.055 272.86,215.467 161.1,213.71 339.37,448.1 339.89,448.78 l 3,3.94 h 4.93 196.32 9.34 l 0.62,-9.37 27.43,-413.05 c 43.82,0.08 231.87,3.35 296.41,52.46 24.79,18.86 43.71,23.3 57.33,19.39 7.94,-2.27 13.97,-7.19 18.26,-13.78 3.86,-5.9 6.19,-13.14 7.19,-20.88 2.68,-20.96 -4.88,-47.07 -18.98,-59.52 l -0.15,-0.12 c -3.52,-3.12 -7.95,-7.54 -13.05,-12.63 -33.25,-33.16 -94.29,-94.04 -207.64,-96.98 -100.56,-2.61 -155.68,-5.25 -174.11,-6.22 -8.37,-26.96 -43.93,-123.85 -135.01,-170.862 -9.95,-5.136 -21.06,-10.504 -33.02,-15.793 -56.26,-24.902 -134.29,-49.808 -209.41,-47.539 -76.67,2.317 -150.02,32.602 -194.51,118.809 z M 5436.96,817.676 c 176.82,9.644 266.18,129.34 266.44,129.683 l 10.23,13.465 6.84,-15.457 c 2.24,-5.047 4.51,-9.804 6.81,-14.262 40.45,-78.375 107.35,-105.914 177.33,-108.027 71.52,-2.16 146.54,21.875 200.82,45.902 11.81,5.227 22.52,10.391 31.92,15.243 98.29,50.726 126.82,164.837 126.9,165.167 l 1.82,7.11 7.32,0.39 c 0.16,0.01 54.13,3.29 181.75,6.6 105.34,2.74 162.77,60.01 194.04,91.2 5.2,5.18 9.71,9.68 13.92,13.41 l 0.14,0.13 c 9.44,8.32 14.37,26.83 12.42,42.09 -0.62,4.85 -1.98,9.21 -4.14,12.52 -1.71,2.63 -4.04,4.57 -7.01,5.43 -7.99,2.28 -20.77,-1.6 -39.75,-16.05 -78.63,-59.82 -317.3,-56.48 -317.98,-56.47 l -9.24,0.12 -0.61,9.22 -27.42,412.96 H 6087.46 C 6063.63,1546.71 5900.81,1332.5 5750.64,1133.3 5586.17,915.125 5463.12,909.957 5462.77,909.938 h -0.67 c -0.22,0.003 -80.03,-0.028 -74.19,70.171 4.98,59.711 21.56,149.241 21.61,149.501 l 1.5,8.06 8.26,0.06 c 124.11,0.81 202.9,23.34 259.02,57.54 55.85,34.02 89.86,80.2 123.89,128 4.28,6.02 8.2,12.22 11.75,18.55 23.85,42.52 29.58,88.89 22.56,129.45 -6.94,40.06 -26.23,74.23 -52.62,93.02 -2.58,1.84 -5.31,3.56 -8.14,5.15 -63.71,35.74 -178.96,6.09 -180.74,5.63 h 0.01 c -92.2,-23.46 -160.07,-67.88 -210.13,-114.71 -50.15,-46.91 -82.75,-96.64 -103.95,-130.07 -42.31,-66.74 -81.43,-174.31 -81.55,-174.61 l -2.07,-3.36 c -0.07,-0.08 -24.94,-26.61 -129.11,-125.82 C 4962.04,925.402 4840.64,905.164 4840.29,905.105 l -2.78,-0.078 c -0.2,0.02 -71.91,7.551 -69.9,59.766 1.68,43.757 11.52,158.517 11.54,158.847 l 0.8,9.36 9.4,-0.22 c 96.37,-2.32 214.38,22.85 309.62,102.41 18.6,15.53 36.28,33.07 52.69,52.78 16.44,19.74 31.75,41.83 45.61,66.48 l 0.52,0.92 c 88.72,158.53 -48.47,218.61 -66.91,225.84 l -188.9,-17.91 v -0.01 c -0.34,-0.04 -119.56,-11.14 -250.56,-180.95 -131.34,-170.26 -121.37,-330.61 -121.35,-331.07 l 0.3,-5.55 -4.59,-3.16 -158.51,-108.974 -15.05,11.641 338.5,914.593 -193.61,0.37 -98.27,-273.85 -2.63,-7.31 -7.68,0.75 c -82.94,8.13 -148.26,8.58 -210.31,-9.75 -61.94,-18.3 -121.33,-55.55 -192.71,-122.87 -142.58,-134.49 -176.67,-389.31 -176.78,-390.05 l -0.63,-4.52 -3.82,-2.47 -173.23,-112.186 -14.72,11.957 c 0.42,1.101 150.19,384.569 191.25,502.819 35.12,101.15 -63.9,105.39 -72.55,105.57 -5.39,-0.35 -190.05,-12.13 -170.75,20.04 3.44,5.73 3.41,38.86 -5.16,70.83 -3.67,13.7 -9,26.81 -16.42,36.79 -6.78,9.12 -15.38,15.64 -26.14,17.36 -12.83,2.06 -29.32,-2.3 -50.36,-16.33 -98.89,-65.92 -100.32,-154.04 -100.91,-189.96 -0.06,-4.14 -0.13,-7.68 -0.27,-10.14 v -0.04 c -1.26,-21.46 29.14,-36.7 29.22,-36.74 l 8.56,-4.4 -4.07,-8.69 c -0.17,-0.36 -59.44,-127.14 -135.44,-275.82 -77.07,-150.8 -189.34,-226.207 -189.66,-226.426 l -15,11.641 163.35,450.005 -199.73,-2.98 c -12.5,-34.36 -71.8,-197.68 -99.87,-280.4 -23.27,-68.61 -59.96,-114.426 -98.51,-143.707 -7.66,-5.825 -15.26,-10.922 -22.72,-15.344 -7.58,-4.504 -15.18,-8.43 -22.67,-11.809 l -0.03,-0.019 c -30.38,-13.715 -46.26,-11.813 -54.31,6.007 -6.9,15.278 -3.94,43.106 0.53,85.152 l 0.16,1.49 c 8.45,79.44 99.82,252.21 100.08,252.71 l 0.47,0.81 c 0.15,0.24 51.94,80.43 130.67,145.76 70.63,58.6 210.11,27.85 246.78,18.39 l 34.64,95.44 c -26.64,16.83 -142.04,76.49 -354.45,7.56 -175.55,-56.96 -282.88,-244.73 -334.81,-395.25 -10.12,-29.36 -18.14,-57.33 -24.14,-82.63 -6,-25.26 -9.96,-47.75 -12,-66.23 v 0 l -0.02,-0.12 c -3.66,-33.386 1.33,-69.316 14.99,-101.05 12.66,-29.387 32.73,-55.082 60.21,-71.59 27.51,-16.527 62.69,-24 105.63,-16.996 46.45,7.582 101.83,32.004 166.26,79.918 l 8.45,6.273 5.81,-8.773 c 46.05,-69.461 97.8,-88.274 147.96,-80.59 51.52,7.894 102.21,43.141 143.9,80.816 61.04,55.176 135.08,153.912 190.76,237.352 10.79,16.18 20.94,31.84 30.18,46.54 9.29,14.76 17.56,28.37 24.59,40.39 l 0.04,0.07 0.02,0.03 v 0 c 50.69,86.69 99.75,214.23 99.89,214.6 l 2.55,6.55 6.98,-0.18 64.35,-1.65 13.87,-0.36 -4.73,-13 c -0.47,-1.29 -163.41,-447.307 -173.35,-472.146 -8.3,-20.766 -3.41,-41.278 -2.98,-42.977 3.85,-10.898 83,-221.859 369.91,27.828 l 12.32,10.727 3.93,-15.883 c 0.16,-0.664 54.4,-236.551 344.25,-33.813 l 10.14,7.09 4.79,-11.426 c 0.22,-0.539 75.86,-190.687 359.11,33.68 l 11.42,9.055 4.28,-13.938 c 0.12,-0.398 40.44,-140.125 231.38,-108.57 98.29,16.246 173.8,48.723 231.63,84.629 57.78,35.887 97.97,75.266 125.57,105.304 l 17.31,-6.52 c 0.07,-2.671 0.19,-5.593 0.36,-8.714 3.09,-56.715 22.24,-101.898 60.04,-132.215 38.34,-30.746 96.23,-46.753 176.4,-44.699 5.21,0.129 10.78,0.36 16.69,0.684 z m -1396.9,165.656 0.01,0.223 c 1.67,21.745 5.39,44.315 10.71,67.245 5.28,22.75 12.18,45.94 20.26,69.12 41.2,118.3 113.12,235.63 157.43,294.32 65.35,86.54 151,58 151.25,57.92 l 10.06,-3.23 -3.81,-9.85 -131.98,-341.51 -0.63,-1.32 -61.04,-107.23 -2.97,-3.29 -92.39,-64.339 -5.7,-1.797 h -36.29 -8.6 l -1.28,8.554 -4.95,32.997 z m 30.18,63.008 c -5.02,-21.64 -8.55,-42.91 -10.17,-63.379 l 3.5,-23.367 h 24.57 l 87.99,61.276 59.53,104.6 127.56,330.04 c -22.04,3.56 -75.04,4.67 -118.81,-53.3 -43.52,-57.63 -114.12,-172.81 -154.55,-288.85 -7.8,-22.41 -14.48,-44.89 -19.62,-67.02 z m 983.19,433.07 c -15.68,2.24 -58.79,0.29 -104.06,-73.12 -44.44,-72.06 -81.87,-139.75 -98.81,-171.02 23.35,5.42 64.27,18.53 104.07,48.91 l 0.01,-0.01 0.12,0.1 0.04,0.03 c 8.48,6.49 16.64,13.5 24.38,20.97 7.73,7.48 15.06,15.44 21.87,23.84 33.46,41.21 54.72,93.05 52.38,150.3 z m -121.02,-62.64 c 65.32,105.92 133.69,80.13 133.88,80.06 l 6.16,-2.19 0.48,-6.48 c 4.96,-65.64 -18.53,-124.98 -56.4,-171.63 -7.34,-9.04 -15.22,-17.61 -23.53,-25.64 -8.3,-8.03 -17.04,-15.53 -26.09,-22.45 l -0.01,0.01 -0.12,-0.09 -0.04,-0.04 c -64.92,-49.55 -133.52,-56.42 -133.72,-56.44 l -18.54,-1.93 8.7,16.5 c 0.13,0.26 47.91,90.86 109.23,190.32 z m 747.93,64.3 c -15.68,2.23 -58.79,0.28 -104.06,-73.13 -44.44,-72.06 -81.87,-139.75 -98.81,-171.02 23.35,5.42 64.27,18.53 104.07,48.91 l 0.01,-0.01 0.11,0.09 0.05,0.04 c 8.48,6.49 16.65,13.5 24.38,20.97 7.73,7.48 15.06,15.44 21.87,23.84 33.45,41.21 54.72,93.05 52.38,150.31 z m -121.02,-62.66 c 65.32,105.93 133.69,80.14 133.88,80.07 l 6.16,-2.18 0.48,-6.49 c 4.96,-65.65 -18.53,-124.98 -56.4,-171.63 -7.34,-9.04 -15.22,-17.61 -23.53,-25.64 -8.3,-8.03 -17.04,-15.53 -26.09,-22.45 l -0.01,0.01 -0.11,-0.1 -0.05,-0.04 c -64.92,-49.54 -133.52,-56.41 -133.72,-56.42 l -18.54,-1.95 8.7,16.52 c 0.13,0.25 47.91,90.85 109.23,190.3 z m 517.61,-54.05 -147.22,-200.88 141.78,6.82 c 1.79,28.61 7.06,120.95 5.44,194.06 z m -175.68,-205.95 176.53,240.87 18.01,-5.35 c 4.98,-89.76 -4.93,-233.42 -4.95,-233.83 l -0.61,-8.87 -8.88,-0.43 -171.58,-8.25 -20.88,-1 z m 137.95,-111.34 c -32.45,3.67 -123.49,6.84 -162.35,-65.871 -37.87,-70.844 65.73,-54.953 82.67,-51.933 9.12,7.367 51.05,44.086 79.68,117.804 z m -179.93,-56.492 c 54.64,102.222 195.03,74.482 195.44,74.402 l 11.36,-2.17 -3.82,-10.91 c -34.02,-96.966 -92.32,-139.845 -92.49,-139.97 l -4.1,-1.836 C 5965.18,910 5798.12,876.16 5859.27,990.578 Z m 53.45,853.252 123.73,-1.65 4.38,-0.06 2.92,-3.26 c 0.11,-0.12 38.99,-42.73 0.04,-129.49 l -0.06,-0.14 v -0.03 c -5.29,-11.76 -11.16,-22.18 -17.41,-31.38 -6.29,-9.26 -12.91,-17.17 -19.68,-23.87 -36.03,-35.68 -77.57,-38.79 -99.16,-30.69 -15.67,5.87 -26.66,13.21 -31.41,23.83 -4.96,11.1 -2.78,24.1 8.34,40.39 v 0 l 0.02,0.04 0.2,0.27 c 5.37,7.8 11.75,14.37 18.08,20.9 14.45,14.89 28.72,29.59 21.69,56.69 -11.3,43.59 -20.87,64.33 -20.9,64.39 l -6.49,14.27 z m 118.57,-21.51 -103.92,1.39 c 4.08,-11.13 9.98,-28.82 16.33,-53.33 9.84,-37.95 -8.31,-56.65 -26.69,-75.6 -5.68,-5.85 -11.4,-11.74 -15.79,-18.04 h 0.01 l -0.03,-0.04 -0.19,-0.27 c -6.85,-9.97 -8.75,-16.7 -6.73,-21.21 2.25,-5.04 9.42,-9.26 20.15,-13.29 16.39,-6.14 48.7,-3 78.15,26.16 5.97,5.91 11.78,12.84 17.26,20.91 5.52,8.13 10.8,17.55 15.68,28.4 l 0.02,-0.01 0.04,0.11 c 27.65,61.57 12.16,94.86 5.71,104.82" /><path
         id="path26"
         style="fill:#f7c611;fill-opacity:1;fill-rule:nonzero;stroke:none"
         d="m 2137.19,449.625 2.01,2.063 21.96,-21.711 -2.14,-2.207 c -1,0.519 -1.79,0.894 -2.24,1.031 -0.5,0.164 -0.98,0.211 -1.39,0.121 -0.88,-0.195 -2.93,-1.918 -6.23,-5.094 -15.28,-14.484 -31.21,-23.601 -47.75,-27.308 -19.25,-4.321 -36.6,-2.071 -52.02,6.703 -15.43,8.816 -25.12,21.988 -29.1,39.547 -4.08,17.929 -0.93,34.058 9.46,48.46 10.35,14.403 25.96,23.922 46.72,28.579 10.64,2.386 21.76,3.031 33.4,1.902 11.63,-1.133 17.78,-1.641 18.45,-1.488 0.82,0.261 1.72,0.582 2.65,0.906 0.97,0.34 2.01,0.687 3.23,1.121 l 2.71,-1.008 -10.23,-30.304 -3.07,0.925 c 0.04,0.164 0.04,0.325 0.04,0.481 0.01,0.16 -0.01,0.39 -0.07,0.652 -0.74,3.297 -5.79,5.746 -15.1,7.359 -9.3,1.61 -18.69,1.352 -28.11,-0.757 -12.93,-2.903 -22.71,-9.071 -29.32,-18.5 -6.63,-9.473 -8.63,-19.914 -6.02,-31.407 2.77,-12.203 9.17,-21.152 19.17,-26.82 10.03,-5.66 21.75,-7 35.19,-3.988 9.87,2.215 19.06,6.555 27.65,13.047 8.59,6.527 12.53,11.109 11.92,13.804 -0.12,0.528 -0.33,1.106 -0.6,1.789 -0.31,0.645 -0.69,1.344 -1.17,2.102 z m 85.01,-15.887 c 0.35,-2.238 0.92,-3.707 1.75,-4.39 0.81,-0.735 2.44,-1.149 4.84,-1.332 l 0.46,-2.996 -36.91,-5.563 -0.47,2.992 c 2.22,0.957 3.63,1.91 4.18,2.844 0.57,0.977 0.68,2.473 0.36,4.559 l -15.64,100.296 c -0.35,2.239 -0.96,3.696 -1.81,4.461 -0.87,0.723 -2.47,1.18 -4.8,1.375 l -0.45,2.879 36.92,5.567 0.45,-2.879 c -2.08,-0.86 -3.46,-1.766 -4.08,-2.715 -0.65,-0.992 -0.79,-2.563 -0.44,-4.801 l 5.76,-36.894 67.93,10.238 -5.75,36.898 c -0.37,2.391 -0.95,3.891 -1.79,4.582 -0.78,0.653 -2.38,1.075 -4.7,1.27 l -0.45,2.883 36.73,5.531 0.45,-2.875 c -2.06,-0.777 -3.37,-1.637 -3.99,-2.586 -0.57,-0.977 -0.71,-2.586 -0.34,-4.898 l 15.63,-100.301 c 0.36,-2.313 0.94,-3.781 1.77,-4.469 0.83,-0.652 2.35,-1.121 4.65,-1.398 l 0.45,-2.879 -36.73,-5.535 -0.47,2.992 c 2.09,0.785 3.45,1.648 4.06,2.594 0.58,0.976 0.72,2.55 0.37,4.789 l -6.42,41.179 -67.94,-10.238 z m 121.44,8.68 -0.32,3.016 c 3.99,1.504 6.98,5.265 8.98,11.238 0.13,0.551 0.31,1.07 0.49,1.512 l 34.27,97.632 c 0.42,1.082 0.64,1.836 0.71,2.27 0.07,0.426 0.11,0.816 0.07,1.195 -0.14,1.336 -0.82,2.426 -1.97,3.278 -1.16,0.89 -2.82,1.504 -4.91,1.921 l -0.3,2.895 40.07,3.875 0.3,-2.898 c -2.14,-0.977 -3.53,-1.844 -4.24,-2.684 -0.68,-0.801 -0.95,-1.789 -0.84,-2.895 0.06,-0.535 0.19,-1.101 0.45,-1.773 0.25,-0.629 0.6,-1.406 1.07,-2.242 l 55.04,-89.113 c 2.41,-3.821 4.47,-6.469 6.21,-7.918 1.75,-1.454 3.73,-2.301 6.01,-2.622 l 0.31,-3.015 -42.63,-4.121 -0.31,3.015 c 2,0.887 3.35,1.754 4.13,2.598 0.75,0.883 1.1,1.918 0.97,3.215 -0.06,0.496 -0.19,1.058 -0.41,1.66 -0.2,0.555 -0.59,1.367 -1.15,2.352 l -10.48,17.609 -54.31,-5.254 -6.24,-19.223 c -0.31,-1.066 -0.53,-1.937 -0.62,-2.523 -0.08,-0.629 -0.1,-1.211 -0.05,-1.703 0.13,-1.297 0.65,-2.25 1.6,-2.969 0.9,-0.68 2.44,-1.266 4.59,-1.754 l 0.3,-3.015 z m 59.1,96.141 -15.76,-44.305 39.31,3.801 z m 104.86,-80.664 -0.16,3.019 c 2.24,0.566 3.72,1.281 4.42,2.231 0.68,0.91 0.97,2.46 0.86,4.644 l -5.23,101.305 c -0.11,2.105 -0.52,3.586 -1.28,4.437 -0.73,0.887 -2.32,1.547 -4.69,2.059 l -0.15,2.914 74.73,3.226 c 15.47,0.668 27.63,-1.875 36.52,-7.632 8.88,-5.758 13.59,-14.153 14.15,-25.149 0.48,-9.035 -1.79,-16.617 -6.77,-22.707 -4.94,-6.125 -12.86,-10.883 -23.69,-14.344 l 26.97,-34.492 c 1.59,-2.121 3.35,-3.926 5.32,-5.457 1.96,-1.527 5.08,-3.308 9.31,-5.394 l 0.16,-3.02 -43.71,-1.89 -0.15,3.023 c 1.61,0.301 2.83,0.816 3.63,1.504 0.83,0.726 1.21,1.551 1.15,2.543 -0.01,0.191 -0.35,0.945 -0.98,2.183 -0.67,1.239 -1.37,2.36 -2.06,3.29 l -26.81,35.843 -32.39,-1.398 2.05,-39.715 c 0.12,-2.262 0.54,-3.777 1.3,-4.555 0.72,-0.808 2.3,-1.394 4.67,-1.832 l 0.16,-3.023 z m 62.35,102.878 -35.81,-1.546 1.71,-33.09 36.72,1.586 c 10.83,0.468 18.5,2.144 22.97,4.984 4.47,2.844 6.54,7.309 6.23,13.359 -0.3,5.825 -2.78,9.86 -7.4,12.122 -4.61,2.214 -12.75,3.089 -24.42,2.585 z m 96.9,-98.632 v 3.027 c 2.34,0.59 3.89,1.305 4.57,2.141 0.72,0.871 1.06,2.328 1.06,4.433 v 101.395 c 0,2.258 -0.38,3.797 -1.1,4.683 -0.75,0.856 -2.26,1.559 -4.53,2.118 v 2.914 l 80.46,-0.801 c 13.45,-0.133 23.89,-2.957 31.41,-8.434 7.48,-5.519 11.22,-13.109 11.22,-22.769 0,-5.52 -1.36,-10.371 -4.05,-14.489 -2.68,-4.113 -6.76,-7.597 -12.24,-10.379 6.8,-3.519 11.83,-7.671 15.08,-12.496 3.25,-4.82 4.88,-10.589 4.88,-17.222 0,-11.153 -4.27,-19.813 -12.78,-25.938 -8.54,-6.125 -20.6,-9.109 -36.17,-8.957 z m 70.71,52.617 -38.96,0.39 v -32.89 l 38.09,-0.379 c 11.94,-0.117 20.19,1.027 24.64,3.473 4.46,2.406 6.69,6.605 6.69,12.625 0,5.746 -2.38,9.949 -7.18,12.64 -4.8,2.656 -12.55,4.039 -23.28,4.141 z m 2.99,47.812 -41.95,0.418 v -26.375 l 45.16,-0.445 c 7.18,-0.074 12.47,0.945 15.91,3.02 3.44,2.113 5.14,5.355 5.14,9.804 0,4.906 -1.77,8.41 -5.37,10.403 -3.59,2.027 -9.86,3.085 -18.89,3.175 z m 88.34,-105.769 0.21,3.023 c 2.29,0.278 3.85,0.801 4.67,1.656 0.77,0.825 1.25,2.321 1.41,4.497 l 6.97,101.078 c 0.14,2.097 -0.09,3.621 -0.74,4.558 -0.62,0.969 -2.12,1.821 -4.41,2.621 l 0.2,2.907 74.64,-6.036 c 15.46,-1.25 27.24,-5.277 35.38,-12.082 8.13,-6.808 11.8,-15.71 11.05,-26.679 -0.63,-9.02 -3.78,-16.262 -9.46,-21.68 -5.65,-5.457 -14.1,-9.191 -25.27,-11.289 l 22.66,-37.531 c 1.32,-2.293 2.85,-4.305 4.62,-6.063 1.78,-1.758 4.66,-3.91 8.61,-6.496 l -0.2,-3.019 -43.66,3.531 0.2,3.016 c 1.64,0.097 2.92,0.46 3.79,1.042 0.92,0.618 1.39,1.387 1.46,2.379 0.01,0.192 -0.24,0.981 -0.72,2.286 -0.51,1.308 -1.07,2.507 -1.65,3.515 l -22.34,38.848 -32.35,2.617 -2.73,-39.625 c -0.16,-2.258 0.08,-3.812 0.73,-4.672 0.63,-0.894 2.13,-1.668 4.43,-2.394 l -0.21,-3.02 z m 74.33,94.289 -35.77,2.89 -2.28,-33.019 36.68,-2.965 c 10.82,-0.871 18.64,-0.156 23.42,2.106 4.78,2.261 7.38,6.437 7.8,12.472 0.4,5.809 -1.58,10.117 -5.89,12.926 -4.32,2.77 -12.31,4.645 -23.96,5.59 z m 160.85,3.68 c 19.95,-3.043 35.5,-11.379 46.68,-24.965 11.14,-13.625 15.5,-29.309 13.04,-47.09 -2.47,-17.774 -10.95,-31.539 -25.42,-41.336 -14.51,-9.75 -31.64,-13.137 -51.43,-10.117 -19.51,2.972 -34.85,11.351 -46.09,25.105 -11.19,13.785 -15.59,29.473 -13.14,47.098 2.45,17.703 10.85,31.406 25.24,41.176 14.35,9.769 31.4,13.132 51.12,10.129 z m -51.27,-54.434 c -1.69,-12.164 0.85,-22.504 7.66,-31.051 6.79,-8.582 16.72,-13.851 29.78,-15.844 12.99,-1.98 23.95,0.141 32.8,6.34 8.88,6.196 14.16,15.34 15.84,27.43 1.68,12.133 -0.89,22.512 -7.76,31.109 -6.87,8.594 -16.84,13.907 -29.9,15.899 -12.84,1.961 -23.72,-0.176 -32.57,-6.414 -8.9,-6.27 -14.18,-15.414 -15.85,-27.469 z m 166.25,-82.945 c -0.44,-2.293 -0.39,-3.864 0.16,-4.801 0.56,-0.895 1.84,-1.863 3.92,-2.918 l -0.55,-2.856 -36.54,7.567 0.56,2.969 c 2.37,0.058 3.95,0.433 4.78,1.125 0.79,0.734 1.4,2.128 1.82,4.265 l 19.07,99.344 c 0.44,2.289 0.4,3.894 -0.13,4.906 -0.55,0.973 -1.84,1.903 -3.94,2.809 l 0.55,2.851 36.54,-7.566 -0.56,-2.852 c -2.19,-0.015 -3.73,-0.359 -4.62,-1.035 -0.88,-0.715 -1.54,-2.179 -1.98,-4.469 z m 150.24,-27.036 c 2.3,-0.648 3.89,-0.738 4.74,-0.304 0.91,0.461 1.86,1.695 2.95,3.73 l 2.92,-0.699 -8.4,-31.684 -2.87,0.809 c 0.12,2.266 -0.11,3.918 -0.79,4.906 -0.63,1.012 -1.99,1.793 -4.08,2.375 l -102.76,28.953 0.77,2.914 c 2.42,-0.042 4.11,0.239 4.98,0.864 0.92,0.652 1.62,1.965 2.15,3.992 l 25.88,97.684 c 0.57,2.175 0.6,3.753 0.13,4.8 -0.51,1.02 -1.8,2.094 -3.85,3.231 l 0.74,2.804 36.11,-10.171 -0.75,-2.805 c -2.25,0.078 -3.89,-0.172 -4.83,-0.781 -0.99,-0.637 -1.75,-2.008 -2.33,-4.184 l -22.8,-86.121 z m 144.53,-41 c 2.31,-0.648 3.89,-0.738 4.84,-0.253 0.92,0.496 1.91,1.726 3,3.761 l 2.78,-0.781 -8.4,-31.687 -2.77,0.781 c 0.05,2.289 -0.22,3.949 -0.82,4.914 -0.64,1.012 -2,1.793 -4.15,2.402 l -104.48,29.434 0.77,2.914 c 2.43,-0.047 4.11,0.234 4.98,0.859 0.92,0.656 1.62,1.969 2.15,3.996 l 25.88,97.684 c 0.57,2.176 0.6,3.754 0.13,4.801 -0.51,1.023 -1.8,2.093 -3.85,3.23 l 0.75,2.805 103.19,-29.074 c 2.23,-0.625 3.79,-0.668 4.74,-0.18 0.93,0.531 1.94,1.836 3.04,3.902 l 2.88,-0.808 -8.37,-31.614 -2.89,0.817 c 0.12,2.222 -0.09,3.793 -0.7,4.758 -0.58,0.918 -1.72,1.636 -3.33,2.089 l -0.88,0.247 -72.53,20.433 -6.76,-25.519 46.21,-13.02 c 2.31,-0.648 3.89,-0.738 4.75,-0.305 0.91,0.457 1.91,1.727 3.09,3.813 l 2.77,-0.781 -7.8,-29.473 -2.77,0.785 c 0.11,2.231 -0.14,3.809 -0.74,4.77 -0.65,0.937 -2.05,1.73 -4.28,2.359 l -46.21,13.02 -8.02,-30.282 z m 92.85,53.34 -19.26,-78.14 30.84,-8.106 c 13.17,-3.461 24,-2.789 32.45,2.063 8.43,4.859 14.24,13.718 17.41,26.597 3.16,12.836 2.18,23.407 -2.99,31.758 -5.16,8.348 -14.37,14.246 -27.61,17.723 z m 30.94,12.258 c 13.82,-3.637 24.32,-7.461 31.44,-11.508 7.13,-4.043 12.93,-9.168 17.43,-15.328 4.72,-6.488 7.73,-14.078 9,-22.746 1.25,-8.668 0.7,-17.726 -1.64,-27.223 -2.38,-9.652 -6.1,-17.957 -11.22,-24.945 -5.12,-6.992 -11.28,-12.207 -18.46,-15.652 -6.8,-3.196 -14.27,-4.821 -22.4,-4.86 -8.13,-0.039 -19.12,1.786 -32.94,5.418 l -57.03,14.989 0.72,2.929 c 2.42,-0.004 4.1,0.309 4.96,0.95 0.91,0.671 1.58,1.992 2.09,4.035 l 24.18,98.14 c 0.54,2.188 0.54,3.766 0.05,4.805 -0.52,1.008 -1.83,2.063 -3.9,3.164 l 0.7,2.813 z m 159.52,-62.867 c -2.27,0.469 -3.81,0.437 -4.73,-0.117 -0.88,-0.559 -1.78,-1.852 -2.73,-3.961 l -2.93,0.605 6.13,31.922 2.82,-0.582 c 0.1,-2.289 0.48,-3.926 1.23,-4.863 0.7,-0.961 2.11,-1.649 4.22,-2.086 l 97.91,-20.274 c 2.26,-0.468 3.82,-0.402 4.73,0.153 0.89,0.597 1.81,1.969 2.76,4.113 l 2.93,-0.609 -6.17,-32.145 -2.93,0.606 c -0.02,2.304 -0.36,3.937 -1.11,4.879 -0.7,0.961 -2.12,1.644 -4.23,2.086 l -36.28,7.511 -16.87,-87.883 c -0.45,-2.293 -0.4,-3.863 0.15,-4.8 0.56,-0.895 1.85,-1.825 3.94,-2.805 l -0.57,-2.965 -36.21,7.492 0.57,2.969 c 2.27,0.16 3.85,0.574 4.68,1.258 0.87,0.719 1.56,2.101 2.12,4.211 l 16.85,87.773 z m 151.58,-124.078 c -0.34,-2.231 -0.25,-3.797 0.34,-4.711 0.54,-0.945 1.97,-1.848 4.2,-2.777 l -0.46,-2.989 -36.92,6.301 0.47,2.984 c 2.41,0.211 4.05,0.668 4.85,1.387 0.85,0.746 1.4,2.125 1.73,4.207 l 15.63,99.988 c 0.36,2.227 0.22,3.805 -0.35,4.797 -0.62,0.957 -2.01,1.895 -4.16,2.805 l 0.44,2.871 36.92,-6.297 -0.45,-2.871 c -2.25,-0.16 -3.84,-0.586 -4.72,-1.293 -0.92,-0.734 -1.53,-2.183 -1.88,-4.41 l -5.75,-36.785 67.94,-11.586 5.75,36.781 c 0.37,2.383 0.27,3.988 -0.31,4.903 -0.55,0.871 -1.94,1.769 -4.1,2.679 l 0.45,2.871 36.73,-6.265 -0.45,-2.868 c -2.2,-0.097 -3.72,-0.496 -4.59,-1.199 -0.85,-0.746 -1.47,-2.234 -1.83,-4.539 l -15.64,-99.988 c -0.35,-2.309 -0.25,-3.875 0.33,-4.793 0.59,-0.875 1.91,-1.801 4.01,-2.777 l -0.45,-2.875 -36.73,6.265 0.47,2.985 c 2.23,0.089 3.79,0.48 4.67,1.183 0.84,0.75 1.45,2.199 1.8,4.43 l 6.42,41.051 -67.93,11.59 z m 170.49,-27.422 c -0.29,-2.316 -0.13,-3.887 0.48,-4.777 0.62,-0.856 1.96,-1.735 4.1,-2.637 l -0.35,-2.891 -36.95,4.973 0.37,3 c 2.35,0.226 3.9,0.711 4.68,1.457 0.74,0.789 1.26,2.227 1.52,4.391 l 12.18,100.515 c 0.28,2.317 0.13,3.922 -0.47,4.891 -0.62,0.933 -1.96,1.769 -4.12,2.527 l 0.35,2.883 36.95,-4.969 -0.35,-2.883 c -2.2,-0.171 -3.7,-0.625 -4.55,-1.363 -0.82,-0.773 -1.38,-2.285 -1.66,-4.598 z m 155.11,14.055 2.55,1.324 14.34,-27.465 -2.71,-1.426 c -0.8,0.813 -1.44,1.41 -1.83,1.68 -0.43,0.312 -0.87,0.512 -1.28,0.551 -0.9,0.09 -3.38,-0.899 -7.5,-2.875 -19,-8.938 -36.97,-12.594 -53.88,-10.922 -19.68,1.941 -35.55,9.512 -47.59,22.664 -12.03,13.195 -17.26,28.719 -15.72,46.609 1.58,18.282 9.5,32.582 23.8,42.985 14.26,10.406 32.05,14.539 53.28,12.441 10.88,-1.074 21.68,-3.949 32.44,-8.66 10.75,-4.723 16.47,-7.129 17.15,-7.199 0.87,-0.008 1.82,0.015 2.81,0.031 1.03,0.016 2.13,0.019 3.42,0.047 l 2.28,-1.801 -18.99,-25.527 -2.65,1.84 c 0.08,0.144 0.14,0.296 0.19,0.445 0.05,0.148 0.1,0.371 0.13,0.637 0.29,3.359 -3.78,7.265 -12.17,11.707 -8.38,4.445 -17.42,7.148 -27.06,8.101 -13.21,1.301 -24.42,-1.48 -33.6,-8.348 -9.21,-6.902 -14.31,-16.171 -15.31,-27.89 -1.08,-12.434 2.3,-22.93 10.12,-31.434 7.84,-8.511 18.62,-13.457 32.36,-14.812 10.09,-0.996 20.18,0.242 30.36,3.699 10.17,3.5 15.33,6.605 15.57,9.352 0.05,0.535 0.03,1.152 -0.03,1.886 -0.09,0.707 -0.25,1.489 -0.48,2.36 z m 74.24,-40.211 c -0.11,-2.258 0.15,-3.809 0.82,-4.66 0.64,-0.883 2.15,-1.629 4.47,-2.313 l -0.16,-3.027 -37.33,2.355 0.16,3.024 c 2.37,0.464 3.96,1.093 4.68,1.894 0.76,0.832 1.18,2.266 1.28,4.371 l 5.24,101.203 c 0.11,2.254 -0.18,3.809 -0.85,4.731 -0.72,0.894 -2.19,1.676 -4.43,2.355 l 0.15,2.907 37.33,-2.356 -0.15,-2.906 c -2.22,-0.399 -3.76,-0.992 -4.56,-1.785 -0.84,-0.828 -1.29,-2.336 -1.41,-4.59 l -2.14,-41.25 49.75,35.785 0.35,0.207 c 2.48,1.766 3.74,3.375 3.81,4.789 0.05,0.84 -0.37,1.637 -1.27,2.422 -0.88,0.746 -2.13,1.363 -3.73,1.852 l 0.14,2.902 50.01,-3.152 -0.15,-2.907 c -7.42,-3.789 -14.07,-7.867 -19.93,-12.136 -0.31,-0.176 -0.51,-0.321 -0.59,-0.387 l -40.91,-29.473 43.96,-60.121 c 1.87,-1.926 3.96,-3.937 6.28,-5.961 2.28,-2.066 4.9,-4.265 7.8,-6.637 l -0.15,-3.023 -46.88,2.957 0.16,3.023 c 1.82,0.918 3.12,1.801 3.95,2.555 0.8,0.793 1.26,1.649 1.31,2.641 0.04,0.804 -0.61,2.074 -1.92,3.804 -0.57,0.727 -0.92,1.25 -1.13,1.532 l -33.43,44.875 -18.85,-13.133 z m 122.06,-17.305 v 3.027 c 2.35,0.59 3.9,1.305 4.58,2.141 0.72,0.875 1.06,2.328 1.06,4.437 v 101.391 c 0,2.262 -0.38,3.797 -1.1,4.688 -0.76,0.851 -2.27,1.554 -4.54,2.113 v 2.914 l 80.47,-0.797 c 13.45,-0.137 23.88,-2.961 31.4,-8.437 7.48,-5.524 11.23,-13.11 11.23,-22.77 0,-5.519 -1.37,-10.375 -4.05,-14.488 -2.68,-4.11 -6.76,-7.602 -12.24,-10.383 6.8,-3.512 11.83,-7.664 15.08,-12.492 3.25,-4.824 4.87,-10.59 4.87,-17.223 0,-11.152 -4.27,-19.812 -12.77,-25.937 -8.54,-6.129 -20.6,-9.114 -36.17,-8.957 z m 70.71,52.621 -38.96,0.387 v -32.891 l 38.1,-0.379 c 11.94,-0.117 20.18,1.028 24.64,3.477 4.45,2.406 6.69,6.601 6.69,12.621 0,5.746 -2.38,9.949 -7.18,12.641 -4.8,2.656 -12.55,4.035 -23.29,4.144 z m 2.99,47.809 -41.95,0.418 v -26.375 l 45.16,-0.45 c 7.18,-0.07 12.48,0.95 15.91,3.024 3.45,2.113 5.14,5.355 5.14,9.801 0,4.91 -1.77,8.414 -5.36,10.406 -3.59,2.027 -9.87,3.09 -18.9,3.176 z m 117.62,-52.032 c 0.56,-10.875 3.56,-18.382 9,-22.636 5.4,-4.223 14.2,-6.067 26.27,-5.543 11.96,0.515 20.48,3.261 25.56,8.203 5.12,4.945 7.4,12.797 6.84,23.558 l -0.05,0.915 -3.19,61.82 c -0.12,2.336 -0.54,3.89 -1.3,4.742 -0.76,0.813 -2.23,1.398 -4.48,1.766 l -0.15,2.906 37.36,1.617 0.16,-2.906 c -2.16,-0.633 -3.64,-1.387 -4.35,-2.266 -0.75,-0.914 -1.05,-2.461 -0.93,-4.722 l 3.35,-64.957 c 0.9,-17.348 -3.1,-29.918 -11.97,-37.637 -8.87,-7.715 -24.23,-12.063 -46.05,-13.008 -21.21,-0.918 -36.68,2.18 -46.39,9.242 -9.71,7.067 -15.02,19.121 -15.91,36.199 l -3.35,64.961 c -0.12,2.336 -0.55,3.891 -1.3,4.739 -0.76,0.812 -2.23,1.402 -4.48,1.765 l -0.15,2.914 37.17,1.602 0.15,-2.906 c -2.13,-0.555 -3.53,-1.266 -4.24,-2.141 -0.67,-0.914 -0.96,-2.496 -0.84,-4.832 z m 142.28,-38.07 -0.3,3.012 c 2.2,0.68 3.64,1.473 4.3,2.461 0.62,0.949 0.84,2.508 0.61,4.687 l -10.45,100.938 c -0.21,2.097 -0.71,3.554 -1.51,4.367 -0.77,0.844 -2.39,1.422 -4.78,1.809 l -0.3,2.898 74.42,7.195 c 15.41,1.489 27.68,-0.406 36.84,-5.687 9.17,-5.281 14.3,-13.418 15.43,-24.371 0.94,-9.008 -0.92,-16.707 -5.58,-23.051 -4.62,-6.383 -12.28,-11.555 -22.91,-15.594 l 28.7,-33.027 c 1.69,-2.035 3.54,-3.746 5.58,-5.168 2.05,-1.422 5.25,-3.039 9.58,-4.891 l 0.31,-3.015 -43.52,-4.207 -0.31,3.011 c 1.59,0.387 2.78,0.965 3.54,1.696 0.8,0.769 1.12,1.609 1.02,2.601 -0.02,0.192 -0.4,0.926 -1.09,2.129 -0.73,1.203 -1.49,2.285 -2.23,3.176 l -28.61,34.391 -32.25,-3.118 4.1,-39.57 c 0.23,-2.254 0.72,-3.75 1.52,-4.484 0.77,-0.77 2.37,-1.27 4.76,-1.578 l 0.31,-3.016 z m 56.94,106.102 -35.67,-3.45 3.41,-32.972 36.57,3.535 c 10.79,1.047 18.36,3.129 22.67,6.203 4.32,3.078 6.16,7.652 5.53,13.68 -0.6,5.804 -3.28,9.703 -8.01,11.715 -4.72,1.972 -12.88,2.414 -24.5,1.289 z m 216.67,-38.364 c 0.43,-2.222 1.09,-3.699 2.04,-4.421 0.91,-0.766 2.52,-1.129 4.76,-1.18 l 0.55,-2.863 c -9.24,-8.137 -19.38,-14.993 -30.35,-20.563 -10.96,-5.566 -21.66,-9.324 -32,-11.262 -19.48,-3.648 -36.78,-0.797 -51.86,8.524 -15.05,9.367 -24.28,22.871 -27.66,40.554 -3.42,17.911 0.32,33.875 11.19,47.977 10.9,14.106 26.71,23.082 47.45,26.965 10.5,1.965 21.15,2.32 31.92,1.055 10.77,-1.262 16.34,-1.86 16.6,-1.813 0.82,0.156 2.34,0.637 4.56,1.52 0.5,0.175 0.93,0.328 1.28,0.476 l 2.79,-1.082 -9.18,-31.004 -2.7,1.094 c 0.04,0.164 0.09,0.328 0.1,0.488 0.01,0.153 -0.04,0.383 -0.09,0.649 -0.63,3.316 -5.63,5.933 -14.95,7.859 -9.32,1.93 -18.79,1.988 -28.32,0.203 -13.21,-2.472 -23.23,-8.367 -30.12,-17.703 -6.87,-9.332 -9.15,-20.07 -6.83,-32.246 2.16,-11.273 8.59,-19.949 19.33,-26.102 10.74,-6.148 22.97,-7.961 36.65,-5.394 5.31,0.992 10.75,2.676 16.34,5.008 5.59,2.336 11.45,5.422 17.62,9.351 l -3.1,16.211 -29.02,-5.429 c -2.18,-0.411 -3.6,-1.028 -4.24,-1.891 -0.69,-0.871 -1.08,-2.43 -1.25,-4.766 l -2.81,-0.527 -5.25,27.414 2.93,0.543 c 0.88,-2.176 1.8,-3.566 2.84,-4.156 0.98,-0.555 2.54,-0.653 4.66,-0.258 l 55.42,10.379 0.53,-2.754 c -1.99,-0.84 -3.31,-1.789 -3.95,-2.887 -0.6,-1.051 -0.71,-2.711 -0.29,-4.894 z m 139.78,28.934 c 2.3,0.602 3.7,1.328 4.29,2.23 0.54,0.899 0.79,2.473 0.72,4.797 l 2.78,0.727 8.4,-31.852 -2.78,-0.726 c -1.08,2.015 -2.13,3.328 -3.13,3.867 -1.05,0.555 -2.6,0.547 -4.75,-0.02 l -104.49,-27.359 -0.76,2.934 c 2.1,1.187 3.41,2.285 3.85,3.273 0.47,1.035 0.43,2.531 -0.11,4.574 l -25.87,98.196 c -0.58,2.187 -1.33,3.578 -2.25,4.25 -0.95,0.629 -2.59,0.914 -4.91,0.859 l -0.75,2.816 103.2,27.028 c 2.23,0.582 3.59,1.336 4.17,2.242 0.54,0.934 0.77,2.578 0.69,4.945 l 2.89,0.754 8.37,-31.781 -2.88,-0.754 c -0.99,2 -1.96,3.258 -2.96,3.793 -0.95,0.504 -2.28,0.551 -3.89,0.129 l -0.88,-0.231 -72.53,-18.988 6.75,-25.656 46.22,12.098 c 2.3,0.601 3.71,1.332 4.24,2.144 0.55,0.856 0.79,2.469 0.78,4.887 l 2.77,0.73 7.81,-29.633 -2.78,-0.726 c -0.99,2.004 -1.98,3.254 -2.98,3.785 -1.03,0.484 -2.62,0.465 -4.85,-0.117 l -46.22,-12.102 8.03,-30.441 z m 50.9,-7.398 -0.93,2.89 c 2.02,1.133 3.26,2.211 3.7,3.321 0.41,1.058 0.3,2.636 -0.36,4.718 l -30.89,96.739 c -0.64,2.007 -1.42,3.335 -2.38,3.957 -0.92,0.671 -2.61,0.894 -5.03,0.765 l -0.89,2.778 71.17,22.75 c 14.74,4.71 27.1,5.441 37.13,2.195 10.02,-3.242 16.7,-10.137 20.06,-20.633 2.75,-8.633 2.51,-16.566 -0.73,-23.773 -3.2,-7.231 -9.62,-13.914 -19.17,-20.114 l 34.78,-26.324 c 2.08,-1.637 4.23,-2.922 6.52,-3.883 2.28,-0.961 5.74,-1.871 10.35,-2.777 l 0.92,-2.891 -41.62,-13.3 -0.92,2.882 c 1.47,0.715 2.52,1.536 3.11,2.411 0.62,0.921 0.77,1.816 0.47,2.769 -0.06,0.184 -0.58,0.824 -1.51,1.856 -0.96,1.023 -1.92,1.925 -2.82,2.644 l -34.98,27.672 -30.85,-9.856 12.12,-37.925 c 0.69,-2.157 1.48,-3.52 2.4,-4.067 0.91,-0.597 2.58,-0.746 4.97,-0.551 l 0.92,-2.886 z m 33.82,116.011 -34.11,-10.906 10.09,-31.598 34.97,11.18 c 10.32,3.297 17.28,6.934 20.86,10.859 3.58,3.926 4.43,8.797 2.59,14.571 -1.77,5.566 -5.19,8.824 -10.22,9.797 -5.01,0.937 -13.08,-0.356 -24.18,-3.903 z m 107.29,-56.504 1.19,31.481 3.98,-0.102 c -0.02,-0.168 -0.01,-0.414 0.04,-0.726 0.1,-0.66 0.21,-1.242 0.31,-1.696 1.1,-2.785 6.82,-4.007 17.15,-3.726 10.29,0.269 20.22,2.34 29.72,6.137 8.55,3.421 14.98,7.683 19.33,12.773 4.32,5.078 5.62,9.773 3.91,14.094 -2.82,7.097 -13.64,7.359 -32.45,0.836 -6.93,-2.489 -12.41,-4.309 -16.38,-5.481 -13.75,-4.133 -24.89,-4.906 -33.39,-2.308 -8.52,2.543 -14.59,8.425 -18.24,17.632 -4.4,11.098 -3.26,21.93 3.39,32.489 6.69,10.57 17.7,18.941 33.12,25.105 12.65,5.059 27.94,7.246 45.78,6.571 4.46,-0.168 7.04,-0.125 7.81,0.187 0.46,0.184 0.92,0.531 1.37,1.043 0.41,0.492 1.02,1.402 1.79,2.656 l 3.05,-0.222 -2.89,-31.918 -4.25,0.492 c -0.09,0.211 -0.15,0.355 -0.15,0.476 -0.01,0.118 -0.05,0.348 -0.2,0.707 -1.33,3.356 -6.94,5.207 -16.78,5.571 -9.86,0.394 -19.4,-1.266 -28.54,-4.922 -8.1,-3.242 -14.07,-7.117 -17.99,-11.66 -3.91,-4.582 -5.05,-8.879 -3.41,-12.981 2.37,-6 11.68,-6.328 27.86,-0.972 8.43,2.707 15.21,4.757 20.3,6.046 13.95,3.633 25.57,4.024 34.85,1.082 9.28,-2.91 15.73,-8.925 19.35,-18.062 4.26,-10.746 2.67,-21.672 -4.81,-32.805 -7.47,-11.14 -19.28,-19.953 -35.43,-26.414 -15.43,-6.164 -31.48,-8.699 -48.15,-7.59 -3.16,0.184 -5.01,0.145 -5.57,-0.078 -0.74,-0.297 -1.24,-0.66 -1.5,-1.136 -0.26,-0.477 -0.37,-1.223 -0.37,-2.254 l -3.8,-0.325" /><path
         id="path28"
         style="fill:#db232e;fill-opacity:1;fill-rule:nonzero;stroke:none"
         d="m 6543.59,1655.09 v -10.59 h -12.45 v -49.7 h -12.9 v 49.7 h -12.45 v 10.59 h 37.8" /><path
         id="path30"
         style="fill:#db232e;fill-opacity:1;fill-rule:nonzero;stroke:none"
         d="m 6562.48,1594.8 h -12.8 v 60.29 h 17.12 l 16.81,-43.85 16.76,43.85 h 17.12 v -60.29 h -12.76 l 0.45,43.77 -16.72,-43.77 h -9.76 l -16.76,43.77 0.54,-43.77" /></g></g></svg>