<svg width="390" height="276" viewBox="0 0 390 276" fill="none" xmlns="http://www.w3.org/2000/svg">
<g clip-path="url(#clip0)">
<path fill-rule="evenodd" clip-rule="evenodd" d="M23.4 53.8C23.4 53.8 23.2 36.1 23.1 34.8C23.1 33.4 23.4 29 16.3 28.9L7.50001 28.8C7.50001 28.8 1.60001 28.7 1.10001 34.6C0.600006 40.4 0.400006 90.1 0.500006 92C0.800006 97.1 6.50001 96.4 11.2 96.5C15.9 96.6 20.7 97.4 21.5 91.4C22.7 82.4 22.7 72.9 22.7 72.9L33.4 72C33.4 72 33.7 87.3 33.6 89.7C33.6 91.9 33.4 95.6 38 96.5C43.9 97.7 48.5 96.8 50.7 96.2C52.9 95.5 55.1 94.7 55.2 90.9C55.2 87 54.9 35.7 54.9 35.7C54.9 35.7 55.4 31.8 51.5 30.8C47.6 29.8 43 29.4 37.3 30.1C34.9 30.4 32.4 33.5 32.4 35.9C32.4 38.3 32.7 53.5 32.7 53.5L23.4 53.8Z" fill="#FF5000" stroke="#672D00" stroke-miterlimit="10"/>
<path fill-rule="evenodd" clip-rule="evenodd" d="M371.7 43.6C367 30.4 351.2 31.9 349.8 32C348.4 32.1 329.3 31.5 326.6 50.9C325 62.6 340 72.5 340 72.5C340 72.5 346.7 77.1 348.2 78C352.1 80.2 351.5 85.2 347.9 82.3C345.8 80.6 341.3 77.9 339.9 77C336.4 74.7 327.1 76 326.6 84.7C326.6 84.7 325.9 100.1 347.9 100.1C356.2 100.1 370.4 98.2 370.8 83C371.2 67.9 358.3 61.9 358.3 61.9C358.3 61.9 352.6 59.2 349.6 57.3C346.5 55.4 347.8 50 352.6 52.7C363.6 60.6 375.9 56.5 371.7 43.6Z" fill="#FF5000" stroke="#672D00" stroke-miterlimit="10"/>
<path d="M148.7 216C124.9 242.4 102.6 235.6 102.6 235.6L120.8 221.8C214.6 190.7 163.7 90.3 163.7 90.3L163.8 86.8L163.9 87.1L165.5 85.9C164.3 83.4 163.2 81.1 162 79.1C162 75.8 152 69.2 152 69.2C152 69.2 97.7 50 95.3 63C87.4 72.3 81.4 112.8 81.4 112.8L89.7 192.6C89.7 192.6 89 229.7 92.7 234.2C120.5 243.2 138.9 228.9 149.5 215.2C149.3 215.5 149 215.8 148.7 216Z" fill="#DAD6CC"/>
<path d="M166.9 89L164.8 90.5L163.3 90.7C163.3 90.7 164.6 93.8 164.6 93.9L165 95.3C169.9 112 170.8 133.5 167.6 150.6L165.6 149.5C165 160.3 161.9 167.2 159 171.4C157.9 172.8 156.7 174.2 155.6 175.4C154.4 176.5 153.6 177 153.6 177C153.7 176.1 153 171.9 153 171.9C143.4 191.9 104.2 205.6 104.2 205.6L105.5 212.1C102.9 213.2 100.2 214.2 97.4 215.2L100.4 240.4C106.2 241 112.6 239.3 118.3 238.1C120.8 237.3 122.6 237.4 124.8 236.1C127.4 234.6 130.2 233.3 132.6 231.5C136.5 228.6 139.6 224.8 143.2 221.6C144.5 220.4 148.8 216.1 150 219.5C150.4 220.6 150.5 221.6 150.5 222.7C150.7 223.1 150.9 223.6 151.1 224C152.8 222.1 154.3 220 155.8 217.9C205.1 164.5 166.9 89 166.9 89Z" fill="#CDC3B9"/>
<path d="M180.8 23.3C182.7 18.8 180.4 18.9 180.4 18.9C180.4 18.9 183.5 8.8 178.9 2.3C175.4 -2.6 173.6 3.2 173.6 3.2C173.6 3.2 167.1 20.4 145.7 25.6C145.7 25.6 127.3 29.9 120 44.9C112.6 30.8 95.4 26.3 95.4 26.3C74.1 20.5 68 3.2 68 3.2C68 3.2 66.4 -2.6 62.7 2.2C58 8.6 60.8 18.8 60.8 18.8C60.8 18.8 58.5 18.7 60.3 23.2C57.3 31.8 62.2 45.5 62.2 45.5C53.5 70 62.7 83.4 70.1 89.8C57.4 104.2 38.1 127.4 39.1 170.2C39.8 198.5 53.6 226 57.1 232.5C57.4 233 57.4 232.9 57.7 233.5C58 234 58.5 234.6 58.9 235L59.2 235.3C59.6 233.9 60.6 230.9 60.6 230.9C60.6 230.9 61.1 239.8 67.1 245.3L67.3 244.9C67.4 244.1 67.9 240.4 68.1 238.4C69.2 249.8 73.3 255.6 74.4 257C74.6 257.2 76 259.2 76.1 258.9C76.4 257 77.1 254.9 77.1 254.9C77.1 254.9 84.4 275.4 85 275.4C85.5 275.4 93.1 260.6 93.9 259.5C94.6 260.2 95.8 259.4 96.4 259C99.6 257 101.5 253.3 103 249.9C103.6 248.5 104.2 247.2 104.8 245.8C105.6 243.9 106.3 242.1 107 240.2C107.6 242.8 107.6 242.5 107.7 244.1C107.7 244.3 107.8 244.6 107.8 244.8C107.8 245.2 107.9 245.3 108.3 245.1C111 243.5 115.7 236.6 116.5 235.5C116.5 235.5 157.1 176.8 121.1 116C108.3 94.8 93.3 83 97.2 72.8L105.9 75.8L133.6 72.7L138.6 82.8C142.6 81.9 155.6 79.1 160.8 78.8C162.8 78.7 165.3 84.3 167.7 91.9C176.5 84.3 183.8 71.8 179 52.7C179 52.6 183.6 32 180.8 23.3ZM120.6 46.5V46.4V46.5Z" fill="#672D00"/>
<path d="M85 275.7C84.8 275.7 84.3 275.7 77.2 255.7C77 256.5 76.6 257.8 76.4 259V259.2H76.2C76.1 259.2 75.9 259.2 74.4 257.2C71.4 253 69.2 247.2 68.3 240.6C68.1 242.4 67.8 244.5 67.7 245C67.7 245 67.6 245.6 67.3 245.6L67.1 245.5C62.4 241.2 61.1 234.7 60.7 232C60.4 233 59.9 234.5 59.7 235.3L59.6 235.5H59.4C59.2 235.5 58.9 235.1 58.9 235.1C58.6 234.8 58.1 234.1 57.7 233.5C57.6 233.3 57.5 233.2 57.5 233.1C57.4 232.9 57.3 232.8 57.1 232.5C55.3 229.3 39.8 200 39.1 170.1C38.1 126.2 58.7 102.5 70 89.7C65.2 85.5 61.9 80.4 60.1 74.4C57.6 66 58.3 56.3 62.2 45.4C61.8 44.2 57.4 31.4 60.3 23.1C59.6 21.1 59.4 19.8 60 19C60.2 18.7 60.5 18.5 60.8 18.5C60.4 16.8 58.5 7.8 62.8 2C63.8 0.7 64.8 0 65.7 0C67.6 0 68.5 3 68.5 3.1C68.6 3.3 74.8 20.3 95.7 26C95.9 26 112.7 30.6 120.2 44.3C127.6 29.7 145.7 25.3 145.8 25.3C166.8 20.2 173.5 3.2 173.5 3C173.5 2.9 174.5 0 176.4 0C177.3 0 178.3 0.7 179.3 2C183.5 8 181.4 16.9 180.9 18.6C181.1 18.7 181.4 18.8 181.7 19.1C182.2 19.9 182.1 21.3 181.3 23.2C184 31.7 179.8 51.1 179.5 52.5C184.5 72.6 176.1 85 168.1 91.9L167.8 92.1L167.7 91.7C164 81.3 161.9 79 160.8 79C155.5 79.3 142.5 82.1 138.6 83H138.4L133.4 72.9L105.8 76L97.3 73C95 79.5 100.4 86.7 107.9 96.7C112 102.2 116.7 108.4 121.1 115.9C139.7 147.3 137.5 178.2 132.3 198.6C126.7 220.7 116.6 235.5 116.5 235.6L116.3 235.9C114.9 237.8 110.8 243.8 108.2 245.2C107.4 245.6 107.4 245 107.4 244.7V244.4C107.4 244.3 107.4 244.1 107.4 244C107.3 242.7 107.3 242.7 107 241.2L106.9 240.9C106.3 242.5 105.7 244.1 105 245.7L104.9 245.9C104.4 247.2 103.8 248.5 103.2 249.9C101.6 253.5 99.8 257.1 96.5 259.1H96.4C95.9 259.4 95.2 259.9 94.5 259.9C94.3 259.9 94.1 259.8 93.9 259.7C93.4 260.5 92.2 262.8 90.9 265.2C85.9 274.9 85.3 275.7 85 275.7ZM77.1 254.2L77.3 254.9C80 262.4 84.1 273.6 85 275.1C85.8 274.1 88.6 268.8 90.5 265.2C92.1 262.2 93.3 259.9 93.7 259.4L93.9 259.2L94.1 259.4C94.2 259.5 94.4 259.6 94.6 259.6C95.1 259.6 95.8 259.2 96.3 258.9H96.4C99.5 257 101.3 253.4 102.9 249.9C103.5 248.6 104 247.3 104.6 246L104.7 245.9C105.5 243.9 106.2 242.1 106.9 240.3L107.2 239.5L107.6 241.4C107.9 242.9 107.9 242.9 108.1 244.3C108.1 244.4 108.1 244.5 108.1 244.7V245V245.1C108.1 245.1 108.2 245.1 108.2 245C109.8 244.1 112.5 241 116.1 235.8L116.3 235.5C116.4 235.4 126.5 220.6 132.1 198.6C137.2 178.3 139.5 147.6 120.9 116.3C116.5 108.9 111.8 102.7 107.7 97.2C99.9 86.8 94.4 79.5 97 72.7L97.1 72.5L106 75.6L133.8 72.5L138.7 82.5C142.8 81.6 155.6 78.8 160.7 78.6H160.8C162.7 78.6 165 82.8 167.8 91.5C175.6 84.7 183.7 72.5 178.7 52.8V52.7V52.6C178.7 52.4 183.3 31.9 180.5 23.4V23.3V23.2C181.4 20.9 181.3 19.9 181 19.5C180.8 19.1 180.4 19.1 180.3 19.1H180L180.1 18.8C180.1 18.7 183.1 8.7 178.6 2.4C177.7 1.2 176.9 0.6 176.1 0.6C174.5 0.6 173.7 3.3 173.7 3.3C173.6 3.5 166.9 20.7 145.6 25.9C145.4 25.9 127.3 30.4 120.1 45.1L119.9 45.5L119.7 45.1C112.4 31.3 95.4 26.7 95.3 26.6C74.2 20.9 67.8 3.6 67.7 3.4C67.7 3.4 66.9 0.7 65.3 0.6C64.5 0.6 63.7 1.2 62.8 2.4C58.2 8.6 60.9 18.7 61 18.8L61.1 19.1H60.8C60.7 19.1 60.4 19.1 60.1 19.5C59.8 19.9 59.6 20.9 60.5 23.2V23.3V23.4C57.5 31.8 62.4 45.4 62.4 45.5V45.6V45.7C54 69.4 62.1 82.7 70.3 89.8L70.5 90H70.4C59.2 102.7 38.5 126.3 39.5 170.2C40.2 200 55.7 229.2 57.5 232.4C57.7 232.7 57.7 232.8 57.8 233C57.9 233.1 57.9 233.2 58 233.4C58.4 234 58.9 234.7 59.1 234.9C59.6 233.4 60.4 230.8 60.4 230.8L60.9 230.9C60.9 231 61.5 239.6 67 245C67.1 244.2 67.6 240.5 67.8 238.6H68.3C69 246 71.2 252.6 74.5 257.1C75 257.8 75.5 258.4 75.8 258.7C76.1 256.9 76.7 255 76.7 255L77.1 254.2ZM121.3 47.1L120.2 46.5L120.7 45.9L121.3 47.1Z" fill="#672D00"/>
<path d="M166.3 86.8C158.7 77.3 154.3 71 150.1 68.6C150 68.6 149.9 68.6 149.9 68.6C149.8 68.7 149.8 68.8 149.9 68.9C162.7 82 170.3 99.5 172.4 120.9C173.9 135.6 172.6 152.2 169 168.4C147.4 246.1 105.4 237.7 92.4 233.2C90.4 230.1 90.8 233.3 92.1 234.8L92.3 235.1L91.8 238.1C119 243.6 134.5 234.4 146.9 220.5C147.4 226.5 147.3 229.5 147.2 230.3C147.2 230.3 147.2 230.3 147.2 230.4C147.2 230.6 147.4 230.5 147.5 230.5C154.1 227.1 157.7 220 159.2 218.1C160.4 219.8 159.5 224.8 159.5 225.6C159.5 225.7 159.5 225.8 159.6 225.8C161.9 225.5 164.3 222.5 165.6 220.9C167 219.2 168.3 217.4 169.3 215.5C170.2 213.8 170.9 211.9 171.5 210.1C171.7 209.6 171.8 209 172 208.5C172.4 206.8 172.8 205 173.1 203.3C173.2 202.7 173.3 202.2 173.3 201.6C173.3 201.5 173.4 201.1 173.4 200.7C173.4 200.7 173.4 200.8 173.5 200.8C173.6 200.9 173.6 201 173.6 201.2C173.9 202 174.1 202.9 174.2 203.8C174.2 204 174.3 204.3 174.3 204.6C174.4 205.2 174.4 205.7 174.4 206.3C174.4 206.5 174.4 207.8 174.4 208C174.4 208.1 174.5 208.1 174.6 208C178.2 204.9 183.1 198.3 185.6 191.7C188.3 184.5 189.5 176.9 190.1 169.3C190.3 167.1 190.4 164.8 190.4 162.6C190.5 157.6 190.4 152.5 189.9 147.5C189.3 140.6 188 133.8 186.3 127.2C185.8 125.3 185.2 123.4 184.6 121.5C183.9 119.2 183.1 117 182.2 114.8C179.9 108.8 176.6 103 173.4 97.4C172.5 95.8 171.5 94.2 170.4 92.6C169.1 90.4 167.7 88.6 166.3 86.8Z" fill="#672D00"/>
<path d="M148.9 212.9C148.9 212.9 148.8 213 148.8 213.1C148.9 213.4 148.9 213.5 148.9 213.5C149.3 215.4 149.8 217.4 150 219.4C150.1 220.4 150.2 221.7 150.2 222.7C150.2 222.9 150.2 222.9 150.2 223C150.2 223.6 152 221.3 152.2 221C153.7 219.3 158.6 211 160.2 207.7C160.2 207.7 161.2 209.2 161.7 211.2C162.5 214.1 163.1 216.4 163.1 216.4C163.1 216.3 166.6 212.7 169.1 202.7C169.4 201.5 169.8 200.3 170.1 199.1C170.5 197.4 170.9 195.7 171.2 193.9C171.3 193.2 171.6 191.7 171.6 191.5C172 191.7 172.6 192.2 172.7 192.3C174.4 193.7 175.6 195.6 176.5 197.6C176.7 198 176.8 198.3 177 198.7C178 197.1 179.9 193.3 181.1 190.4C183.1 185.7 184.2 180.6 185 175.5C185.8 170.2 186.3 164.9 186.3 159.6C186.4 150.8 185.3 141.9 183.4 133.3C182.9 130.8 182.3 128.4 181.6 126C179.8 119.3 176.9 112.9 173.9 106.6C173.1 104.8 172.2 103.1 171.2 101.4C169.9 99.3 168 96.7 166 94.3C168.8 101.4 171.8 117.8 172 119.5C173.5 134.5 172.5 151.6 168.7 168.2L166.1 176.7C165 180.5 161.7 188.1 160.4 191.9C159.2 195.4 153.5 205.5 151.7 208.3C150.6 210.6 150.4 210.6 148.9 212.9Z" fill="#93775F"/>
<path d="M119.9 40.2C123.8 34.3 128.2 29 141.6 24C136.4 22 117.3 18.3 101.8 26C102.2 26.1 112.3 29.5 119.9 40.2Z" fill="#93775F"/>
<path d="M85.7 85.5C91.2 87.7 96.9 86.7 97.1 87C99.5 90.6 110.4 107.6 112.5 111C130.6 139.9 128 171.5 128 171.5C128 171.5 125.3 201.8 113 214.8C112.4 215.4 107 234.1 107.2 233.3C109.1 223.3 109.8 215.3 110 212.3C110 212.3 123.8 189.9 121.1 162.5C116.7 115.6 85.7 85.5 85.7 85.5Z" fill="#93775F"/>
<path d="M72.4 96.4C22.8 140.6 55.2 215.3 55.2 215.3C55.2 215.3 34.3 148.9 72.4 96.4Z" fill="#93775F"/>
<path d="M112 155.2C104.5 202.7 88.6 217.4 88.6 217.4C69.9 187.2 68.4 155.4 70.9 132.3C70.3 165.9 87.5 198.9 87.5 198.9C87.5 198.9 106.1 163.7 98.3 133C98.5 161.4 89.1 185.1 89.1 185.1C76.3 158.4 76.4 123.9 76.8 110.7C76.9 108.7 77.1 106.7 77.3 104.7C77.5 103.3 77.7 101.8 78.1 100.4C78.2 99.9 78.6 98.6 78.6 98.4C38.6 167.5 86.8 233.5 86.8 233.5C86.8 233.5 116.2 200.3 112 155.2Z" fill="#93775F"/>
<path d="M101.3 33.1C101.3 33.1 79.7 21.3 65.2 39.4C80.3 17.4 101.3 33.1 101.3 33.1Z" fill="#93775F"/>
<path d="M88.4 25.3C65.6 14.9 69 1.40001 64.9 3.10001C59.2 6.10001 63.1 19.7 63.1 19.7C63.1 19.7 61.6 19.5 61.5 20.8C61.3 22.2 62.2 23.7 62.2 23.7C60 29.7 63 42.9 63 42.9C63 42.9 61.3 23.5 64.3 24C62.7 22.4 63.1 21.6 63.3 21.2C63.7 20.5 65.8 21 65.8 21C65.8 21 60.9 9.00001 65.1 4.60001C71.4 21.2 88.4 25.3 88.4 25.3Z" fill="#93775F"/>
<path d="M142.3 28.5C172.7 22.2 173 1.5 177 3.3C182.7 6.4 178.4 19.9 178.4 19.9C178.4 19.9 179.9 19.7 180 21.1C180.1 22.5 179.3 24 179.3 24C182.1 31.3 178.3 48 178.3 48C178.3 48 179.5 24.1 176.5 24.5C178.1 22.9 178 22.1 177.8 21.7C177.4 21 174.9 21.4 174.9 21.4C174.9 21.4 180.7 11 176.6 6.5C166 29.1 142.3 28.5 142.3 28.5Z" fill="#93775F"/>
<path d="M381.1 38.5H379.5V37.8L383.4 37.9V38.5H381.8V42.9H381.1V38.5Z" fill="#672D00"/>
<path d="M384.6 37.9H385.6L387.2 41.7L388.8 37.9H389.9L389.8 43H389.1L389.2 38.8L387.4 43L386.9 42.9L385.3 38.8L385.2 42.9H384.5L384.6 37.9Z" fill="#672D00"/>
<path d="M110.7 85.2L122.1 100.7C122.1 100.7 130.1 83.6 129.8 82.9C128.4 81.2 125.3 75.9 125.3 75.9C125.3 75.9 114.9 70.6 109.7 78.7C104.7 86.5 110.7 85.2 110.7 85.2Z" fill="#93775F"/>
<path d="M104.8 81.5L117.8 98.4C117.8 98.4 129.3 83.4 129.2 82.7C128.2 80.7 126.5 74.1 126.5 74.1C126.5 74.1 117.3 67.4 110.4 74.3C103.8 80.9 104.8 81.5 104.8 81.5Z" fill="white"/>
<path d="M117.7 99.6L104.2 82C104.1 81.9 104 81.7 104 81.5C104 81.1 103.8 79.8 109.8 73.9C112 71.7 114.7 70.6 117.8 70.6C122.6 70.7 126.6 73.5 126.8 73.6L127 73.7L127.1 73.9C127.1 74 128.7 80.4 129.7 82.3L129.8 82.4V82.5C129.8 82.8 129.9 83.5 118.3 98.7L117.7 99.6ZM105.4 81.2L117.7 97.2C121.7 92 127.5 84.2 128.3 82.6C127.4 80.6 126.1 75.6 125.8 74.4C125 73.8 121.6 71.8 117.8 71.8C115.1 71.8 112.7 72.7 110.8 74.7C106.3 79.3 105.6 80.8 105.4 81.2Z" fill="#672D00"/>
<path d="M119.1 92.9C119.1 92.9 120.1 91.3 121.2 89.9C122.3 88.5 123.7 86.9 123.7 86.9C123.7 86.9 122 85 121.4 83.4C120.9 81.7 120 78.3 120 78.3L119.1 92.9Z" fill="#DAD6CC"/>
<path d="M148.2 35.9C140.3 36.4 121.6 43 120.4 66C119.1 91.8 140.5 94.8 146.5 95C150.5 95.1 175.8 94.8 177.2 67.5C178.4 46.2 161 35.1 148.2 35.9Z" fill="#FF5000"/>
<path d="M147.1 95.6C146.9 95.6 146.7 95.6 146.6 95.6C143.6 95.5 133.3 94.6 126.3 87.1C121.6 82 119.4 74.9 119.9 66C121.1 42.3 140.7 35.8 148.2 35.4C148.7 35.4 149.3 35.4 149.8 35.4C157 35.5 164.5 38.9 169.9 44.6C173.9 48.8 178.5 56.3 177.8 67.7C176.4 94.6 151.9 95.7 147.1 95.6ZM149.8 36.4C149.3 36.4 148.8 36.4 148.2 36.4C141 36.9 122.1 43.1 120.9 66C120.5 74.6 122.5 81.4 127 86.3C133.7 93.5 143.6 94.4 146.5 94.5C146.6 94.5 146.8 94.5 147 94.5C151.7 94.6 175.3 93.5 176.7 67.5C177.3 56.5 172.9 49.3 169.1 45.2C164 39.8 156.7 36.5 149.8 36.4Z" fill="#672D00"/>
<path d="M147.3 72.9C152.5 73.1 156.9 69 157.1 63.7C157.3 58.5 153.2 54.1 147.9 53.9C142.7 53.7 138.3 57.8 138.1 63.1C138 68.4 142.1 72.7 147.3 72.9Z" fill="white"/>
<path d="M147.5 73.4H147.3C141.8 73.2 137.5 68.6 137.7 63.1C137.9 57.7 142.4 53.4 147.8 53.5H148C153.5 53.7 157.8 58.3 157.6 63.8C157.4 69.1 152.9 73.5 147.5 73.4ZM147.7 54.5C142.9 54.4 138.8 58.3 138.6 63.2C138.4 68.1 142.3 72.3 147.3 72.5H147.5C152.3 72.6 156.4 68.7 156.6 63.8C156.8 58.9 152.9 54.7 147.9 54.5H147.7Z" fill="#672D00"/>
<path d="M147.8 60.2C145.9 60.2 144.3 61.7 144.2 63.5C144.2 64.4 144.5 65.3 145.1 66C145.7 66.7 146.6 67.1 147.5 67.1H147.6C149.5 67.1 151 65.6 151.1 63.8C151.2 61.9 149.7 60.3 147.8 60.2Z" fill="#672D00"/>
<path d="M89 32.4C83 32.2 76.7 33.3 71.8 37.2C65.4 42.3 62.2 51.7 61.7 62.8C61.1 77.2 69.5 91.8 87 93.2C87.3 93.2 87.7 93.2 88 93.3C97.1 93.7 115.7 87.2 116.6 65.3C117.2 52.9 110.9 33.1 89 32.4Z" fill="#FF5000"/>
<path d="M88.6 93.8C88.4 93.8 88.2 93.8 88 93.8C87.6 93.8 87.3 93.8 86.9 93.7C78.6 93.1 71.8 89.4 67.1 83.2C62.9 77.6 60.8 70.4 61.1 62.8C61.6 50.8 65.2 41.8 71.4 36.8C75.6 33.5 81.2 31.8 88.1 31.9C88.4 31.9 88.7 31.9 89 31.9C97.1 32.2 103.7 35 108.7 40.3C115.4 47.6 117.5 58 117.2 65.3C116.3 86.3 99.2 93.9 88.6 93.8ZM88.2 32.9C81.5 32.8 76.1 34.4 72.2 37.6C66.3 42.3 62.8 51.3 62.3 62.8C61.4 81.9 74.5 91.7 87 92.6C87.3 92.6 87.7 92.6 88 92.7C88.2 92.7 88.4 92.7 88.6 92.7C95.4 92.8 115.1 87.9 116.1 65.2C116.4 58.1 114.4 48 107.9 41C103.2 35.9 96.8 33.2 89 32.9C88.7 32.9 88.4 32.9 88.2 32.9Z" fill="#672D00"/>
<path d="M90.8 70.7C96 70.9 100.4 66.8 100.6 61.5C100.8 56.3 96.7 51.9 91.4 51.7C86.2 51.5 81.8 55.6 81.6 60.9C81.5 66.1 85.6 70.5 90.8 70.7Z" fill="white"/>
<path d="M91 71.1H90.8C88.1 71 85.7 69.9 83.9 68C82.1 66.1 81.1 63.5 81.2 60.9C81.4 55.5 85.9 51.2 91.3 51.3H91.5C97 51.5 101.3 56.1 101.1 61.6C100.9 66.9 96.4 71.2 91 71.1ZM91.2 52.2C86.4 52.1 82.3 56 82.1 60.9C82 63.3 82.9 65.6 84.5 67.3C86.1 69 88.4 70.1 90.8 70.1H91C95.9 70.2 99.9 66.3 100.1 61.4C100.3 56.5 96.4 52.3 91.4 52.1L91.2 52.2Z" fill="#672D00"/>
<path d="M93.9 59.7C93.3 59 92.4 58.6 91.5 58.6H91.4C89.5 58.6 88 60.1 87.9 61.9C87.9 62.8 88.2 63.7 88.8 64.4C89.4 65.1 90.3 65.5 91.2 65.5H91.3C93.2 65.5 94.7 64 94.8 62.2C94.8 61.2 94.5 60.3 93.9 59.7Z" fill="#672D00"/>
<path d="M105.8 214.1C105.7 218 105.3 220.3 104.7 224.2C104.1 227.9 103.4 231.6 102.2 235.2C99.7 243 95.5 249 95 249.3L94 246.1C93.4 247 92.9 248 92.4 249C91.4 250.8 90.3 252.6 89.2 254.3C88.9 254.8 88.6 255.3 88.2 255.8C87.6 256.7 87 257.5 86.4 258.4C86.2 258.7 85.9 259 85.6 259.3C84.7 258 82 252 81.7 251.2C81.2 250 77.6 241.9 76.8 239.4C76.7 239.1 75.6 244.5 75.4 245.9C75.4 246.2 75 245.4 74.9 245.1C71.8 237.5 69.4 229.3 69 227.8C68.8 227.1 68.6 226.4 68.4 225.6C67.6 227.3 67.2 228.3 66.6 230.1C66.4 230.6 66.3 231.1 66.1 231.6C66 231.9 65.7 232.9 65.6 233.2C65.1 232.6 64.8 231.9 64.5 231.2C63.3 228.6 62.3 226 61.4 223.3C61.1 222.5 60.9 221.7 60.7 220.9C59.9 218.1 59.1 215.3 58.4 212.5C57.7 209.8 57.1 206.8 56.4 204C56.3 203.7 56.2 202.8 56.2 202.8C60.6 216.1 64.8 222.7 65.2 223.5L68 214.6C68 214.6 72.3 227.7 75.1 233.9C75.5 232.8 76.4 228.9 76.4 228.9C76.4 228.9 79.6 239.1 85.9 250.6C90.1 246.2 94.9 236 94.9 236L95.9 240C101.6 231 105.4 217.7 105.5 214.3L105.8 214.1Z" fill="#93775F"/>
<path d="M139.9 34.8C139.9 34.8 163 26.3 174.7 46.4C163.1 22.5 139.9 34.8 139.9 34.8Z" fill="#93775F"/>
<path d="M227.5 38.7C227.5 36.4 227 31.2 221.3 31.3C217.9 31.3 194.5 31.5 188.1 30.8C187.3 30.7 185.2 31.3 184.6 34.7C184.1 38.1 185.5 50.6 185.5 50.6C185.5 50.6 185.8 52.4 187.8 52.3L194.6 52.4C194.6 52.4 195.2 91.8 195.1 93.4C195.1 95.1 195 97 199 97.8C203.9 98.8 208.5 98.2 210.6 97.8C213.6 97.2 214.7 96.5 215.2 93.6C215.9 89.2 215.7 53.5 215.7 51.6C219.9 51.4 226.4 52.2 227 45.9C227.3 42.1 227.4 41 227.5 38.7Z" fill="#FF5000" stroke="#672D00" stroke-miterlimit="10"/>
<path d="M302 33.1C315.7 34.7 321.5 46.2 321.3 54.5C321 65.1 311.3 72.3 311.3 72.3C316.6 77.7 320.3 81.5 322.8 89.5C325.8 99 318.8 99 313.4 99.6C308.1 100.3 304.4 98.3 302.7 95.1C301.5 92.8 300.8 89.7 299.9 86.8C299 83.9 296.1 79.9 296.1 79.9C296.1 79.9 295.7 91.6 295.5 93.6C295.3 95.7 294.6 97.7 293 98.5C291.5 99.2 284.2 99.4 280.3 98.4C276.4 97.4 276 95.3 276 93C276 90.7 276.1 44.2 276.1 38.8C276.2 33.4 282 33 282 33C282 33 288.3 31.5 302 33.1ZM294.9 53L294.8 62.8L297.9 62.7C297.9 62.7 301.2 62.9 301.2 58C301.2 54.7 299.8 54.1 299.3 53.6C298.8 53.1 294.9 53 294.9 53Z" fill="#FF5000" stroke="#672D00" stroke-miterlimit="10"/>
<path d="M270.3 35.7C269.9 34.4 268.9 31.8 265.5 31.7C262.1 31.7 239.9 31.5 238.2 31.4C236.4 31.3 233.6 31.7 232.8 37.7C229.4 62.5 232.7 92.9 232.7 92.9C232.7 92.9 234.1 97.8 240 98.8C245.8 99.8 263.6 98.8 263.6 98.8C263.6 98.8 269.2 98.9 269.4 93.3C269.5 89.1 269.5 86.4 269.5 85C269.5 83.6 268.1 81.6 266.1 81.5C264.1 81.5 251.9 82 251.9 82L252.2 73.4C252.2 73.4 259.3 73.6 261.3 73.2C263.7 72.7 265.2 72.3 265.7 69.8C266.2 67.4 266.3 60 266.3 60C266.3 60 265.8 57.1 263.4 57C261 57 252.7 56.4 252.7 56.4C252.7 56.4 251.8 53.3 252.7 52.2C253.7 51.1 260 51.6 263.4 51.7C269.3 51.8 270.3 49.8 270.8 46.9C271.3 43.4 270.7 37 270.3 35.7Z" fill="#FF5000" stroke="#672D00" stroke-miterlimit="10"/>
</g>
<defs>
<clipPath id="clip0">
<rect width="389.9" height="275.7" fill="white"/>
</clipPath>
</defs>
</svg>
