<?xml version="1.0" encoding="utf-8"?>
<!-- Generator: Adobe Illustrator 14.0.0, SVG Export Plug-In . SVG Version: 6.00 Build 43363)  -->
<!DOCTYPE svg PUBLIC "-//W3C//DTD SVG 1.1//EN" "http://www.w3.org/Graphics/SVG/1.1/DTD/svg11.dtd">
<svg version="1.1" id="Layer_1" xmlns="http://www.w3.org/2000/svg" xmlns:xlink="http://www.w3.org/1999/xlink" x="0px" y="0px"
	 width="250px" height="98px" viewBox="0 0 250 98" enable-background="new 0 0 250 98" xml:space="preserve">
<g>
	<path fill="#FF0000" d="M55.303,90.747c1.461,0.81,3.232,1.341,4.996,0.853c0.681-0.32,1.426-1.097,1.697-1.869
		c0.274-1.06-0.305-1.904-1.122-2.362c-1.73-0.772-4.143-0.951-4.893-3.138c0.033-0.845,0.136-1.656,0.543-2.362
		c1.6-1.195,3.806-1.263,5.643-0.589c0.509,0.381,0.27,1.123,0.168,1.615c-1.325-0.427-2.99-1.166-4.313-0.248
		c-0.575,0.383-0.883,1.096-0.51,1.689c2.07,1.624,6.66,1.553,5.88,5.675c-0.274,1.654-1.906,2.675-3.335,3.033
		c-1.696,0.388-3.427-0.071-4.825-0.923C55.131,91.698,55.033,91.104,55.303,90.747"/>
	<path fill="#FF0000" d="M68.353,80.955c2.512-0.316,4.655,0.251,7.03,0.173c0.174,0.25,0.345,0.778,0.174,1.165
		c-1.157,0.387-2.722-0.492-3.263,0.775l-0.171,9.902c-0.377,0.139-1.054,0.139-1.157-0.354V82.543l-0.239-0.25h-2.923
		C67.533,81.867,67.467,80.639,68.353,80.955"/>
	<path fill="#FF0000" d="M80.754,81.206c2.375-0.251,4.382,0.136,6.762,0c0.271,0.276,0.168,0.735,0.271,1.087l-0.271,0.175
		l-5.3,0.075c-0.479,0.948-0.479,2.538,0.168,3.381c1.631-0.178,3.467-0.214,5.132-0.072c0.304,0.248,0.135,0.742,0.168,1.094
		l-0.239,0.175c-1.905,0.356-3.602-0.351-5.369,0.248c-0.405,1.304,0.071,2.573-0.103,4.053c0.646,0.629,1.771,0.209,2.448,0.417
		l0.407-0.139l2.687,0.072c0.439,0.277,0.233,0.883,0.168,1.272c-2.277,0.101-4.618,0.138-6.998,0
		C80.957,88.885,80.481,85.465,80.754,81.206"/>
	<path fill="#FF0000" d="M103.348,92.443c-1.497-3.842-2.853-7.752-4.553-11.488c-0.443-0.072-1.161-0.283-1.494,0.173
		c-1.429,3.915-2.853,7.856-4.213,11.845c0.206,0.459,0.613,0.103,1.054,0.244c1.054-1.66,1.119-3.771,2.445-5.252l3.499,0.069
		c1.019,1.551,1.261,3.42,2.104,5.01l0.748,0.065C103.317,93.145,103.382,92.794,103.348,92.443 M99.031,86.523
		c-0.68-0.071-1.356,0.104-2.038-0.252c0.308-1.021,0.612-2.217,1.293-2.953c0.373,0.98,0.951,1.863,1.054,2.953L99.031,86.523"/>
	<path fill="#FF0000" d="M109.531,81.277c0.339,0.101,1.122-0.566,1.157,0.275c0.133,1.477-0.305,3.033,0.068,4.299h0.407
		c1.663-1.621,3.059-2.992,4.654-4.574l1.564,0.101v0.317c-1.7,1.724-3.602,3.136-4.996,5.004c1.326,2.285,3.567,4.227,4.757,6.518
		c-0.442,0.244-1.154,0.244-1.561,0c-1.359-2.047-3.06-3.947-4.554-5.922c-0.442-0.141-0.404,0.361-0.513,0.605l-0.168,5.209
		c-0.339,0.106-0.951,0.213-1.119-0.139C109.125,88.984,109.395,85.251,109.531,81.277"/>
	<path fill="#FF0000" d="M123.325,81.206c0.208-0.323,0.615-0.108,0.883-0.179c0.823,1.338-0.199,3.309,0.581,4.755
		c1.799,0.25,3.534-0.14,5.402,0l0.412-0.531c0.1-1.444,0.029-2.461,0.061-3.873c0.309-0.172,0.712-0.386,1.057-0.172
		c0.373,4.187,0,7.604,0,11.767c-0.306,0.032-0.611,0.209-0.988,0.139l-0.231-0.316c0.104-2.008,0.203-3.453-0.075-5.499
		c-1.768-0.278-3.699-0.176-5.635-0.106l-0.304,0.424l-0.171,5.359c-0.239,0.278-0.646,0.104-0.989,0.139l-0.168-0.315
		C123.091,88.457,123.26,84.864,123.325,81.206"/>
	<path fill="#FF0000" d="M146.163,82.046c-1.907-1.549-4.248-1.653-6.458-0.668c-1.63,0.847-2.547,2.608-2.926,4.299
		c-0.434,2.644,0.445,5.249,2.691,6.767c1.795,0.738,4.275,1.195,5.943-0.071c1.49-1.129,2.445-2.714,2.719-4.582
		C148.334,85.605,147.656,83.523,146.163,82.046 M146.566,88.457c-0.578,1.518-1.902,3.035-3.599,3.241
		c-1.46,0-2.925-0.206-3.809-1.44c-0.984-1.307-1.357-3.175-0.815-4.832c0.309-1.056,0.954-2.072,1.938-2.705
		c1.491-0.92,3.297-0.461,4.726,0.239C146.398,84.441,147.145,86.383,146.566,88.457"/>
	<path fill="#FF0000" d="M153.842,81.027c0.236-0.389,0.542,0.07,0.883-0.072l0.238,0.322l0.104,8.205
		c0.164,0.774,0.813,1.552,1.525,1.865c0.512,0.488,1.117-0.07,1.623,0.422c1.196-0.315,2.458-1.022,2.799-2.356l0.065-8.386
		c0.239-0.286,0.712-0.178,0.981-0.072l0.238,0.423l-0.064,8.353c-0.104,1.305-1.223,2.568-2.379,3.063
		c-1.803,0.772-3.879,0.142-5.303-1.096c-0.545-0.7-0.753-1.513-0.887-2.392L153.842,81.027"/>
	<path fill="#FF0000" d="M168.107,90.675c1.602,0.779,3.568,1.413,5.308,0.429c0.909-0.562,1.319-1.621,1.117-2.646
		c-1.498-2.569-7.138-1.401-5.607-5.989c0.65-1.189,1.935-1.65,3.158-1.757c0.987,0.172,2.177,0.104,2.858,0.843l-0.069,1.168
		c-1.192-0.32-2.89-0.888-4.179-0.179c-0.784,0.351-0.508,1.304-0.242,1.863c1.871,1.415,5.609,1.34,5.406,4.76
		c0.033,1.438-0.851,2.853-2.141,3.45c-1.662,0.92-4.045,0.527-5.609-0.352C168.107,91.734,167.734,91.17,168.107,90.675"/>
	<path fill="#FF0000" d="M182.107,80.955c2.52-0.244,4.076,0.104,6.625,0c0.138,0.354,0.24,0.807,0.07,1.163l-5.472,0.35
		c-0.239,0.886-0.239,2.183,0,2.958c1.694,0.32,3.5,0.111,5.401,0.182c0.271,0.316,0.17,0.882,0.07,1.269l-5.539,0.181
		c-0.406,1.299,0.066,2.848-0.07,4.049l0.541,0.42l5.067,0.175c0.066,0.351,0.274,0.987-0.173,1.272h-6.42l-0.234-0.178V81.206
		L182.107,80.955"/>
	<path fill="#FF0000" d="M194.023,84.434c0-2.199,1.735-3.994,3.873-3.994c2.136,0,3.856,1.795,3.856,3.994
		c0,2.219-1.722,4.016-3.856,4.016C195.76,88.448,194.023,86.652,194.023,84.434 M201.146,84.434c0-1.942-1.373-3.463-3.25-3.463
		c-1.881,0-3.256,1.521-3.256,3.463c0,1.967,1.375,3.489,3.256,3.489C199.773,87.923,201.146,86.398,201.146,84.434z M199.83,86.672
		h-0.637l-1.232-2.063h-0.967v2.063h-0.528v-4.471h1.886c1.14,0,1.531,0.443,1.531,1.185c0,0.876-0.598,1.206-1.359,1.224
		L199.83,86.672z M197.8,84.182c0.612,0,1.511,0.103,1.511-0.808c0-0.694-0.554-0.778-1.082-0.778h-1.233v1.586H197.8"/>
	<path fill="#FF0000" d="M38.671,49.841l0.014-0.438c0.003-0.081,0.003-0.16,0.003-0.236c0-2.355-1.022-4.433-2.83-5.718
		l-0.362-0.253l-0.158-0.41c-0.379-0.967-1.244-1.648-2.247-2.439c0,0-0.233-0.188-0.445-0.356c-0.97-0.228-1.717-0.774-2.326-1.25
		c-0.714-0.562-1.076-0.801-1.486-0.766l-0.549,0.054l-0.448-0.325c-1.545-1.121-4.005-1.101-6.172-1.095l-0.951,0.005l-0.231-0.077
		c-0.285-0.097-0.53-0.008-1.17,0.27c-0.566,0.251-1.307,0.573-2.206,0.578c-0.945,0.613-1.953,0.972-2.867,1.225
		c-0.834,0.228-1.535,0.449-2.059,0.842c-0.592,1.315-1.66,2.005-2.5,2.502c-0.842,0.492-1.195,0.75-1.323,1.211l-0.166,0.623
		L7.619,44.09c-0.182,0.092-0.299,0.373-0.506,0.951c-0.197,0.556-0.535,1.242-1.08,1.866c-0.11,0.381-0.896,3.097-0.987,3.424
		c0,0.368-0.021,1.828-0.021,1.828C5.011,52.745,5,53.334,5,53.926c0,2.441,0.231,4.795,1.648,6.439l0.193,0.22l0.092,0.274
		c0.532,1.588,2.114,5.375,5.292,6.242l0.435,0.121l0.296,0.338c0.942,1.098,2.542,1.45,4.088,1.787c0,0,0.752,0.17,0.857,0.202
		l0.726,0.039c0.524-0.014,1.199,0.039,1.902,0.351c2.579,0.313,6.207,0.49,8.476-1.361l0.41-0.331h0.524
		c0.318,0,0.655-0.188,1.185-0.479l1.315-0.636l-0.236,0.104c1.223-0.682,2.073-1.805,2.972-2.992
		c0.814-1.075,1.657-2.188,2.89-3.145c0.305-0.211,0.367-0.688,0.427-1.646c0.065-0.974,0.193-2.22,1.024-3.241
		c0.02-0.498,0.046-1.141,0.046-1.141c0.033-0.602,0.06-1.17,0.06-1.707c0-1.167-0.146-2.193-0.726-3.156L38.671,49.841
		 M103.545,39.958c0-0.938-0.124-1.833-0.254-2.625c-0.951,0.333-1.853,0.263-2.584,0.179c-0.963-0.107-1.162-0.082-1.398,0.19
		l-1.111,1.262c0,0-0.87-1-1.016-1.167c-0.106,0.002-0.338,0.008-0.338,0.008c-0.461,0.035-1.205,0.014-1.934-0.356
		c-0.325,0.005-0.655,0.014-0.655,0.014c-0.467-0.028-0.684-0.033-0.809,0.062l-0.332,0.239l-0.41,0.034
		c-1.572,0.133-3.376-0.142-5.017-0.47c-1.261,0.646-2.872,0.57-4.156,0.1c-0.794-0.133-1.454-0.071-1.939,0.136
		c-0.028,1.016-0.099,3.195-0.099,3.217c0.042,0.291,0.093,0.581,0.093,0.877c0,0.552-0.063,1.088-0.12,1.597
		c-0.063,0.559-0.099,0.97-0.099,1.279c0,0.397,0.082,0.595,0.202,0.748c0.22-0.036,0.429-0.042,0.624-0.014
		c0.884-0.25,1.671-0.188,2.421-0.1l1.111,0.108l0.279,0.166c1.358,0.794,1.549,2.103,1.549,3.132c0,0.231-0.008,0.449-0.014,0.644
		c-0.012,0.174-0.018,0.378-0.018,0.563c0,0.263,0.018,0.494,0.083,0.592l0.378,0.598l-0.223,0.67
		c-0.207,0.609-0.281,1.24-0.281,1.885c0,0.802,0.114,1.625,0.228,2.48c0.12,0.896,0.248,1.846,0.248,2.83
		c0,0.936-0.16,1.896-0.508,2.864c0.157,0.706,0.236,1.39,0.236,2.06c0,0.876-0.093,1.721-0.193,2.551
		c-0.089,0.78-0.174,1.515-0.174,2.224c0,0.548,0.082,1.09,0.222,1.63c0.359,0.061,0.707,0.083,1.098,0.072
		c0.06-0.018,0.239-0.088,0.239-0.088c0.434-0.168,1.355-0.502,2.276-0.1c0.481,0.036,1.212,0.1,1.212,0.1
		c0.806,0.131,1.122,0.153,1.404-0.035c1.472-1.063,2.826-0.438,3.55-0.1c0,0,0.104,0.038,0.196,0.071
		c0.02-0.11,0.082-0.211,0.082-0.334c0-0.414-0.108-0.851-0.25-1.206l-0.117-0.281l0.068-1.804c0.041-0.968,0.083-1.955,0.083-2.931
		c0-1.24-0.065-2.459-0.285-3.604l-0.1-0.539l0.271-0.47c0.147-0.268,0.205-0.584,0.205-0.948c0-0.417-0.074-0.896-0.153-1.409
		c-0.089-0.58-0.184-1.182-0.184-1.802c0-0.181,0.01-0.37,0.023-0.554l0.022-0.152l0.04-0.143c0.134-0.411,0.174-0.814,0.174-1.234
		c0-0.449-0.048-0.923-0.108-1.429c-0.063-0.545-0.128-1.117-0.128-1.712c0-0.823,0.125-1.685,0.549-2.578
		c1.165-2.661,3.445-2.185,4.539-1.954c0.655,0.136,0.924,0.127,1.125,0.079c-0.018-0.302-0.097-0.635-0.203-1.014l-0.259-0.934
		l0.185-0.456C103.428,41.838,103.545,40.893,103.545,39.958z M73.625,65.548l-0.185-0.265l-0.01-2.193
		c0.005-0.295,0.011-0.595,0.011-0.896c0-1.297-0.08-2.588-0.584-3.631l-0.378-0.789l0.511-0.705
		c0.445-0.618,0.587-1.35,0.587-2.166c0-0.713-0.104-1.493-0.221-2.321l-0.246-2.113c0,0,0.363-1.021,0.461-1.304
		c0.014-0.217,0.026-0.439,0.026-0.665c0-1.009-0.119-2.011-0.242-2.991c-0.12-1-0.246-2.021-0.246-3.061
		c0-0.832,0.1-1.674,0.325-2.53c-0.038-0.501-0.097-1.504-0.097-1.509c0-0.717-0.057-1.179-0.193-1.525
		c-0.324,0.003-0.652,0.039-0.785,0.191l-0.766,0.899l-1.042-0.56c-0.581-0.314-1.283-0.339-2.084-0.379
		c0,0-0.416-0.031-0.831-0.071c-0.174,0.147-0.487,0.399-0.487,0.399l-0.154,0.071c-1.212,0.604-2.226,0.051-2.752-0.248
		c-0.416,0.093-0.798,0.085-1.082,0.071c-0.075,0.441-0.171,0.88-0.171,1.321c0,0.427,0.02,0.863,0.049,1.322
		c0.025,0.468,0.054,0.967,0.054,1.481c0,0.635-0.083,1.314-0.214,2.01c0.16,1.154,0.222,2.276,0.222,3.352
		c0,0.848-0.032,1.676-0.06,2.494c-0.032,0.8-0.057,1.589-0.057,2.374c0,1.328,0.079,2.646,0.373,4.021l0.02,0.425l-0.168,1.633
		c-0.068,1.295-0.172,2.895-1.443,4.043c0.029-0.033,0.063-0.039,0.092-0.072l-0.182,0.187c0.036-0.042,0.054-0.077,0.09-0.114
		c-0.839,0.924-1.981,1.004-3.41,0.207L58.13,61.82l0.139,0.056c-1.942-0.692-2.266-2.681-2.442-3.748l-0.092-0.562l0.075-0.301
		c0-0.031,0.005-0.062,0.005-0.101c0-0.194-0.1-0.483-0.208-0.784c-0.142-0.411-0.335-0.967-0.335-1.599
		c0-0.372,0.12-0.767,0.307-1.171c0.12-0.754,0.19-1.519,0.19-2.287c0-0.823-0.065-1.649-0.202-2.469l-0.078-0.49l0.228-0.435
		c0.125-0.236,0.154-0.663,0.154-1.116c0-0.253-0.008-0.521-0.021-0.766c0,0,0-0.569,0-0.965c-0.421-0.848-0.623-1.711-0.623-2.542
		c0-0.801,0.128-1.568,0.236-2.26c0.12-0.712,0.214-1.307,0.214-1.831c0-0.394-0.086-0.744-0.211-1.076
		c-0.527,0-1.024,0.096-1.523,0.315l-0.62,0.263l-0.6-0.291c-0.948-0.453-2.785-1.084-4.387-0.177l-0.223,0.123l-0.253,0.051
		c-0.763,0.128-1.501-0.005-2.141-0.214c-0.081,0.266-0.114,0.595-0.114,0.959c0,0.405,0.034,0.837,0.06,1.214
		c0,0,0.025,0.41,0.036,0.677c0.293,0.646,0.439,1.295,0.439,1.904c0,0.72-0.135,1.401-0.263,2.01
		c-0.122,0.604-0.212,1.079-0.212,1.507c0,0.299,0.044,0.569,0.155,0.837l0.117,0.261l-0.077,2.73
		c-0.035,1.005-0.071,2.02-0.071,3.021c0,1.552,0.087,3.063,0.402,4.418l0.096,0.408l-0.142,0.4
		c-0.108,0.313-0.152,0.641-0.152,0.979c0,0.713,0.195,1.479,0.405,2.324c0,0,0.206,1.016,0.336,1.674
		c0.992,0.906,1.426,2.076,1.75,3.053c0.437,1.318,0.658,1.803,1.418,2.047c1.037,0.158,1.885,0.679,2.567,1.117
		c0.88,0.566,1.288,0.789,1.784,0.673l0.549-0.134l0.498,0.275c0.66,0.358,1.611,0.283,2.616,0.197c0,0,0.607-0.042,0.885-0.057
		c0.394-0.103,0.826-0.334,1.293-0.592c1.048-0.578,2.346-1.293,4.04-0.888l0.632,0.153l0.318,0.57
		c0.28,0.524,0.917,0.607,2.201,0.664c0,0,0.502,0.041,0.795,0.063c0.123-0.021,0.27-0.051,0.27-0.051
		c0.502-0.11,1.133-0.25,1.719-0.151l0.679,0.069c1.645,0.175,3.445,0.306,4.686-0.352c-0.046-0.962-0.584-1.877-1.216-2.904
		L73.625,65.548z M103.431,37.303l0.19-0.071c-0.081,0.042-0.157,0.044-0.236,0.076L103.431,37.303z M178.339,68.739
		c-0.971-1.607-1.481-3.28-1.927-4.898c-0.396-1.469-0.781-2.848-1.51-4.114l-0.174-0.289l-0.026-0.34
		c-0.093-1.263-0.595-2.464-1.526-3.67l0.161,0.17c-1.147-1.063-1.099-2.438-1.067-3.354c0.021-0.596,0.021-0.965-0.127-1.137
		c-1.75-1.472-1.934-3.47-2.072-5.095c-0.086-1.042-0.172-2.028-0.59-2.683c-0.723-1.011-0.905-2.123-1.066-3.105
		c-0.111-0.652-0.211-1.27-0.462-1.703l-0.05-0.087l-0.039-0.103c-0.25-0.617-0.289-0.714-1.901-0.432
		c-0.884,0.155-1.963,0.258-3.053-0.008c-0.179,0.014-0.354,0.014-0.567-0.035c-0.037,0.008-0.27,0.077-0.27,0.077
		c-0.581,0.177-1.668,0.461-2.684-0.028c-0.473,0.022-2.058,0.087-2.058,0.087c-1.69,0.124-3.584,0.228-5.335-0.164
		c-0.069,0.036-0.158,0.077-0.158,0.077c-1.07,0.56-1.975,0.498-2.708-0.081c-0.231-0.061-0.399-0.102-0.459-0.12
		c-0.149,0.342-0.256,0.722-0.256,1.14c0,0.215,0.021,0.438,0.069,0.657c0.277,0.644,0.414,1.283,0.414,1.904
		c0,0.755-0.146,1.475-0.274,2.116c-0.128,0.646-0.209,1.115-0.209,1.489c0,0.361,0.103,0.623,0.28,0.875
		c0.134,0.024,0.301,0.032,0.494,0.038c0.695,0.011,1.863,0.035,2.771,1.125l0.351,0.541l-0.033,1.717c0,0.16,0,0.322,0,0.489
		c0,1.355-0.17,2.98-1.313,4.248c-0.078,1.264-0.601,2.297-1.046,3.143c-0.423,0.791-0.688,1.328-0.688,1.864
		c0,0.048,0.006,0.084,0.006,0.132l0.056,0.687l-0.495,0.483c-0.936,0.912-1.268,2.381-1.611,3.935l-0.256,1.146
		c0,0-0.299,0.028-0.584,0.057c-0.111,1.354-0.724,2.422-1.291,3.361c-0.399,0.658-0.697,1.248-0.82,1.859
		c0.203-0.006,0.51-0.057,0.746-0.102c0.566-0.097,1.248-0.172,1.965-0.094c0.846-0.328,1.729-0.238,2.416-0.14
		c0,0,0.287,0.026,0.51,0.053c1.186-0.524,2.297-0.264,3.061-0.053c0.672,0.188,0.838,0.175,0.971,0.101
		c0.099-0.199,0.185-0.367,0.189-0.479l0.146-0.65l0.426-0.396l0.182-0.429c0.184-0.498,0.43-1.179,1.081-1.734l0.054-0.044
		l0.058-0.045c2.264-1.579,5.077-1.292,7.346-1.054c0,0,0.289,0.021,0.411,0.035c2.714-0.107,3.936,2.396,4.666,3.909
		c0,0,0.105,0.209,0.211,0.423c0.637,0.239,1.602,0.066,2.294-0.33l0.792-0.462l0.76,0.507c0.717,0.473,1.621,0.342,3.021,0.071
		l2.02-0.37c0,0,0.178,0.406,0.315,0.719c0.006,0,0.162,0.023,0.239,0.037c0.181-0.094,0.322-0.188,0.4-0.273
		c-0.012-0.313-0.072-0.648-0.15-1.032C178.359,68.878,178.35,68.813,178.339,68.739z M244.705,65.396
		c0-0.405-0.072-0.867-0.176-1.429c-0.104-0.596-0.223-1.251-0.223-1.958c0-0.339,0.051-0.699,0.123-1.064
		c-0.105-0.074-1.439-1.086-1.439-1.086c-1.547-1.18-3.012-2.289-4.627-2.717l-0.867-0.265l-0.367-1.558
		c-0.178-0.691-0.369-1.498-0.369-2.353c0-0.522,0.086-1.067,0.286-1.612c-0.012,0.045-0.039,0.076-0.048,0.123l0.064-0.224
		c-0.015,0.036-0.006,0.063-0.018,0.101c0.336-1.279,1.376-1.991,2.157-2.504c0,0,0.081-0.062,0.167-0.117
		c0.801-1.633,2.148-2.559,3.381-3.355c0.912-0.587,1.668-1.133,2.096-1.858c-0.119-0.382-0.527-0.809-0.994-1.188l-0.435-0.356
		l-0.095-0.545c-0.25-1.56-2.02-2.641-3.572-3.592c0,0-0.164-0.103-0.314-0.19c-0.142,0.017-0.312,0.044-0.312,0.044
		c-1.302,0.166-1.438,0.279-1.513,0.578l-0.188,0.744l-0.712,0.278c-1.209,0.473-2.496,1.694-3.441,3.268l-0.322,0.548l-0.622,0.139
		c-0.167,0.035-0.429,0.396-0.668,0.715c-0.489,0.663-1.159,1.568-2.401,1.847l-0.751,0.16l-0.562-0.521
		c-0.573-0.524-0.859-1.233-0.887-2.081c-0.397-0.666-0.613-1.334-0.613-1.97c0-0.744,0.182-1.438,0.338-2.029
		c0.139-0.527,0.262-1.008,0.262-1.436c0-0.065-0.018-0.125-0.021-0.185c-0.269-0.343-0.74-0.375-2.444,0.057
		c-0.775,0.194-1.573,0.396-2.36,0.396h-0.956c0,0-0.134-0.299-0.25-0.552c-0.017-0.008-0.062-0.018-0.095-0.021
		c-1.204,0.47-2.341,0.296-3.281,0.12c-0.326-0.063-0.621-0.093-0.92-0.125c-0.023,0.166-0.053,0.325-0.053,0.325
		s-0.021,0.185-0.042,0.335c0.131,0.562,0.245,1.122,0.245,1.66c0,0.787-0.102,1.552-0.192,2.27
		c-0.089,0.674-0.175,1.307-0.175,1.892c0,0.562,0.081,1.083,0.292,1.567l0.224,0.506l-0.164,0.532
		c-0.293,0.932-0.439,1.915-0.439,2.813c0,0.645,0.072,1.24,0.229,1.75l0.069,0.211l-0.09,3.688l-0.083,7.128l0.078,0.896
		c0.05,0.4,0.107,0.841,0.107,1.311c0,0.456-0.063,0.932-0.229,1.412c-0.129,0.665-0.182,1.338-0.182,2.008
		c0,0.917,0.102,1.799,0.239,2.649c0.122-0.039,0.25-0.078,0.25-0.078c0.537-0.19,1.201-0.429,2.002-0.349l0.378,0.052l0.313,0.222
		c0.15,0.104,0.593,0.182,0.768,0.123l0.979-0.304c0,0,0.178,0.196,0.354,0.396c0.069,0,0.119,0,0.222-0.006
		c1.463-1.165,2.979-0.57,3.746-0.217c0.793,0.357,0.851,0.322,1.013,0.208c0,0,0.237-0.136,0.27-0.151
		c-0.03-0.164-0.104-0.4-0.155-0.584c-0.164-0.496-0.364-1.136-0.364-1.85c0-0.498,0.095-1.031,0.381-1.576l0.101-0.176l0.143-0.15
		c0.103-0.104,0.125-0.419,0.125-0.759c0-0.161,0-0.325-0.006-0.483c-0.008-0.193-0.015-0.39-0.015-0.595
		c0-0.601,0.056-1.239,0.328-1.874l0.562-1.307l1.324,0.517c1.189,0.466,1.896,1.448,2.469,2.247l0.402,0.545l-0.184-0.195
		l1.666,1.746c0.645,0.746,1.307,1.461,1.951,1.916c1.641,0.062,2.625,1.144,3.285,1.898c0.519,0.593,0.834,0.93,1.246,0.986
		l0.435,0.147l0.243,0.14c0.117,0.056,0.597,0,0.847-0.03c0.628-0.081,1.401-0.173,2.181,0.147l0.094,0.035
		c0,0,0.098,0.053,0.105,0.063c0.044-0.679,0.189-1.284,0.334-1.808c0.145-0.522,0.238-0.896,0.238-1.233
		c0-0.203-0.038-0.384-0.122-0.581l-0.272-0.626l0.301-0.611C244.639,66.093,244.705,65.77,244.705,65.396z M137.622,55.607
		c-0.239-0.846-0.354-1.137-0.787-1.34l-1.22-0.58l0.475-1.264c0.314-0.843,0.852-1.554,1.318-2.174
		c0.684-0.911,1.025-1.421,1.025-1.964c0-0.114-0.015-0.233-0.054-0.359l-0.188-0.726l0.471-0.581
		c0.331-0.404,0.495-0.98,0.495-1.739c0-0.507-0.099-1.125-0.245-1.8c-0.26-0.421-0.781-1.247-0.781-1.247
		c-1.027-1.76-1.587-2.537-2.672-2.57l-0.62-0.023l-0.417-0.458c-1.07-1.167-3.197-1.065-4.904-0.985l-0.133,0.002
		c-1.863,0.277-3.904,0.271-5.921,0.008c-1.69,0.421-3.193,0.299-4.646,0.152c-1.027-0.1-2.01-0.185-3.083-0.092
		c-1.341,0.885-2.713,0.416-3.499,0.103c-0.25-0.103-0.625-0.253-0.711-0.258c0,0-0.103,0.102-0.139,0.142
		c-0.038,0.035-0.063,0.071-0.063,0.16c0,0.111,0.044,0.313,0.176,0.734c0.12,0.402,0.291,0.965,0.291,1.592
		c0,0.5-0.189,1.045-0.529,1.581c-0.086,0.275-0.129,0.557-0.129,0.864c0,0.832,0.276,1.757,0.55,2.665l0.168,0.562l-0.174,0.466
		c-0.404,1.08-0.545,2.255-0.545,3.363c0,1.04,0.124,2.021,0.274,2.829l0.063,0.33l-0.087,0.331
		c-0.257,0.906-0.351,1.916-0.351,2.943c0,1.701,0.259,3.438,0.506,4.793l0.108,0.627l-0.378,0.509
		c-0.271,0.369-0.391,0.979-0.391,1.647c0,0.734,0.143,1.541,0.379,2.178l0.27,0.742l-0.464,0.64
		c-0.351,0.473-0.506,1.302-0.506,2.097c0,0.545,0.096,1.018,0.236,1.412c1.853,0.059,3.53,0.045,5.201-0.59l0.513-0.2l0.513,0.188
		c1.517,0.552,3.396,0.552,4.914,0l0.702-0.25l0.621,0.412c0.156,0.104,0.663,0.149,1.002,0.178c0,0,0.452,0.063,0.774,0.105
		c1.595-0.316,3.136-0.25,4.615-0.143c0.965,0.07,1.881,0.128,2.738,0.064c0.346-0.111,3.945-1.279,3.945-1.279
		c0.773-0.307,1.102-1.073,1.568-2.309c0.262-0.705,0.535-1.438,0.973-2.115l0.287-0.437c0,0,0.191-0.06,0.336-0.11
		c0.029-0.09,0.119-0.326,0.15-0.424c-0.022-0.264-0.051-0.521-0.051-0.777c0-0.629,0.059-1.237,0.111-1.797
		c0.05-0.562,0.089-1.039,0.089-1.467c0-0.635-0.11-1.142-0.394-1.586C138.236,57.591,137.855,56.432,137.622,55.607z
		 M207.825,63.518c0-0.517,0.067-1.006,0.123-1.432c0.065-0.461,0.1-0.781,0.1-1.003c0-0.179-0.022-0.295-0.056-0.388
		c-0.184-0.021-0.4-0.047-0.4-0.047c-0.24-0.039-0.607-0.101-0.72-0.069l0.017-0.009l-0.447,0.185l-2.686,0.181
		c-1.738,0.164-3.533,0.334-5.472-0.063l-0.218-0.044l-3.524-1.874l-0.209-0.345c-0.717-1.19-1.323-2.842-1.323-4.51
		c0-0.939,0.203-1.875,0.676-2.735c-0.012,0.021-0.033,0.04-0.039,0.069l0.066-0.147c-0.018,0.022-0.021,0.05-0.027,0.078
		c0.674-1.505,2.047-2.262,3.158-2.867c0,0,0.906-0.528,0.963-0.561c1.492-1.537,3.357-1.397,4.742-1.258
		c0.801,0.079,1.563,0.15,2.074-0.032c1.051-0.463,2.04-0.282,2.766-0.15c0.314,0.057,0.479,0.077,0.62,0.082
		c0.007-0.114,0.054-0.214,0.054-0.336c0-0.386-0.059-0.813-0.117-1.272c-0.063-0.5-0.125-1.045-0.125-1.6
		c0-0.44,0.066-0.894,0.185-1.355c-0.11-0.486-0.179-0.979-0.179-1.478c0-0.338,0.018-0.677,0.033-1.013
		c0.018-0.335,0.021-0.635,0.021-0.908c0-0.606-0.094-1.014-0.292-1.321c-0.036-0.005-0.136-0.015-0.136-0.015
		c-0.611-0.074-0.915-0.096-1.051,0.023l-0.481,0.427l-0.642-0.063c-0.766-0.079-1.559,0.005-2.393,0.095
		c-1.134,0.125-2.419,0.199-3.759-0.086c-0.351,0.043-2.713,0.325-2.713,0.325c-3.022,0.284-5.878,0.558-7.642,2.744l-0.27,0.333
		l-0.408,0.14c-1.646,0.56-2.791,2.285-3.904,3.957l-0.289,0.442l-0.193,0.15c-2.177,1.652-2.285,4.172-2.413,7.092
		c0,0-0.178,2.261-0.229,2.886c0.613,1.401,1.011,2.944,1.133,4.457c0.525,1.981,1.742,3.866,3.262,5.041l0.405,0.306l0.122,0.489
		c0.195,0.769,0.984,1.251,2.264,1.94c0.703,0.39,1.43,0.78,2.068,1.316l0.16,0.135l0.117,0.178
		c0.239,0.354,0.789,0.412,1.907,0.449c0.685,0.025,1.423,0.114,2.16,0.317c1.209-0.483,2.388-0.228,3.283,0
		c0.551,0.146,1.063,0.278,1.418,0.2l0.233-0.051l0.229,0.024c0.383,0.042,0.887-0.08,1.423-0.22c1.004-0.247,2.33-0.51,3.647,0.184
		c0.435-0.033,0.957-0.082,0.957-0.082c0.781-0.039,1.468-0.117,1.918-0.355c0.121-0.418,0.17-0.901,0.17-1.446
		c0-0.194,0-0.396-0.004-0.595c-0.006-0.215-0.008-0.439-0.008-0.662c0-0.7,0.08-1.445,0.258-2.193
		C207.956,64.622,207.825,64.059,207.825,63.518z M17.461,49.582c1.105-1.369,2.17-2.871,3.92-3.309
		c2.042,0.262,3.323,1.806,4.596,3.309c0.512,2.954,0.427,6.046-0.723,8.652c-0.809,1.063-1.958,2.298-3.365,2.252
		c-2.045,0.529-3.149-1.146-4.086-2.563c-0.255-2.115-0.857-4.145-0.342-6.225V49.582z M123.088,55.895
		c1.214,0.557,2.426-0.482,3.438,0.483c1.279,1.474,0.939,3.709,0.334,5.386c-0.334,0.771-1.073,1.74-1.951,1.815
		c-0.809-0.278-2.091-0.278-2.29-1.465C121.811,60.021,122.681,57.852,123.088,55.895z M123.544,43.617
		c1.569-0.223,3.354-0.15,4.065,1.629c0.072,2.138-1.072,4.29-3.063,5.172c-0.712-0.22-1.572-0.367-1.86-1.255
		C122.409,47.319,121.409,44.802,123.544,43.617z M159.768,51.299c0.842,0.081,2.529-0.318,2.907,0.956
		c0.464,1.349,0.692,2.944,0.617,4.535c-1.301,0.792-2.452,2.469-3.914,0.953c-1.61-0.638-0.765-2.308-0.69-3.581
		C160.072,53.688,159.536,52.255,159.768,51.299"/>
	<path fill="#FF0000" d="M6.084,26.285c0-0.125,0.453-0.43,1.008-0.677c0.556-0.249,1.412-0.655,1.911-0.904
		c0.492-0.25,1.289-0.609,1.756-0.805c0.47-0.19,1.219-0.51,1.657-0.704c0.445-0.193,1.438-0.598,2.212-0.905
		c0.771-0.305,1.974-0.758,2.665-1.005c0.689-0.245,1.732-0.609,2.309-0.801c0.581-0.196,1.483-0.467,2.01-0.606
		c0.524-0.139,1.7-0.475,2.613-0.754c0.912-0.272,2.178-0.615,2.816-0.753c0.634-0.135,1.696-0.314,2.359-0.399
		c0.665-0.086,1.727-0.197,2.358-0.253c0.635-0.054,1.41-0.146,1.711-0.197c0.302-0.057,0.755-0.128,1.005-0.153
		c0.248-0.026,1.364-0.206,5.509-0.402c4.146-0.19,7.897-0.396,8.342-0.448c0.44-0.06,1.207-0.153,1.707-0.204
		c0.496-0.054,1.809-0.149,2.915-0.203c1.103-0.058,2.458-0.102,3.01-0.102c0.556,0,1.437,0.022,1.961,0.054
		c0.524,0.022,1.341,0.093,1.811,0.15c0.47,0.049,1.19,0.171,1.605,0.25c0.416,0.081,0.799,0.334,0.854,0.551
		c0.057,0.225,0.171,0.538,0.254,0.706c0.082,0.161,0.216,0.416,0.302,0.546c0.079,0.145,0.239,0.367,0.351,0.506
		c0.107,0.141,0.427,0.413,0.702,0.605c0.277,0.193,0.798,0.531,1.154,0.753c0.364,0.219,0.791,0.333,0.954,0.25
		c0.171-0.085,0.464-0.172,0.655-0.199c0.193-0.033,0.535-0.074,0.758-0.096c0.221-0.035,0.581-0.129,0.805-0.208
		c0.217-0.079,0.917-0.378,1.556-0.654c0.637-0.271,1.448-0.635,1.807-0.799c0.359-0.168,0.994-0.369,1.407-0.454
		c0.416-0.086,1.047,0.324,1.405,0.902c0.363,0.584,0.79,1.125,0.958,1.213c0.164,0.077,0.458,0.193,0.655,0.245
		c0.19,0.06,0.731,0.215,1.201,0.353c0.47,0.133,1.238,0.343,1.711,0.452c0.47,0.108,1.033,0.268,1.255,0.348
		c0.22,0.084,0.535,0.222,0.704,0.307c0.165,0.081,0.461,0.035,0.652-0.106c0.193-0.136,0.532-0.34,0.753-0.449
		c0.22-0.108,0.607-0.245,0.855-0.299c0.247-0.057,0.611-0.057,0.802,0c0.195,0.054,0.353-0.038,0.353-0.203
		c0-0.167,0.046-0.46,0.1-0.648c0.057-0.2,0.145-0.516,0.202-0.708c0.054-0.192,0.192-0.485,0.299-0.656
		c0.111-0.164,0.269-0.389,0.353-0.5c0.086-0.108,0.266-0.267,0.402-0.353c0.141-0.085,0.502-0.261,0.804-0.399
		c0.304-0.139,0.848-0.344,1.207-0.455c0.361-0.111,0.994-0.288,1.407-0.399c0.413-0.114,1.413-0.362,2.209-0.552
		c0.806-0.197,1.73-0.467,2.064-0.603c0.329-0.141,0.828-0.366,1.104-0.505c0.277-0.139,0.958-0.973,1.507-1.858
		c0.552-0.885,1.275-1.54,1.608-1.453c0.331,0.077,0.851,0.211,1.155,0.296c0.306,0.083,0.983,0.328,1.507,0.556
		c0.524,0.218,1.337,0.606,1.81,0.854c0.47,0.245,1.238,0.606,1.706,0.799c0.473,0.197,1.154,0.418,1.512,0.505
		c0.359,0.084,0.899,0.196,1.201,0.253c0.302,0.057,0.802,0.146,1.108,0.197c0.305,0.056,0.777,0.188,1.055,0.297
		c0.274,0.117,0.73,0.07,1.002-0.096c0.279-0.168,0.706-0.413,0.954-0.552c0.247-0.135,0.635-0.385,0.855-0.551
		c0.221-0.167,0.535-0.413,0.706-0.549c0.164-0.145,0.438-0.416,0.601-0.606c0.168-0.196,0.416-0.535,0.555-0.755
		c0.136-0.225,0.339-0.606,0.45-0.856c0.111-0.248,0.267-0.698,0.353-1.005c0.082-0.301,0.397-0.618,0.706-0.7
		c0.302-0.082,0.819-0.196,1.15-0.25c0.333-0.057,1.193-0.168,1.907-0.254c0.726-0.079,1.942-0.196,2.716-0.253
		c0.774-0.054,2.083-0.1,2.915-0.1c0.829,0,2.208,0.026,3.063,0.051c0.858,0.032,2.213,0.12,3.014,0.206
		c0.808,0.079,2.068,0.193,2.815,0.247c0.742,0.054,1.923,0.19,2.611,0.302c0.694,0.114,2.118,0.473,3.164,0.801
		c1.051,0.335,2.342,1.198,2.866,1.91c0.524,0.72,2.263,0.153,3.867-1.255c1.603-1.41,4.454-2.563,6.333-2.563
		c1.874,0,5.109-0.99,7.186-2.209c2.07-1.217,5.164-1.983,6.883-1.708C166.9,4.933,170,5.32,172.068,5.511
		c2.076,0.196,4.695,0.74,5.826,1.207c1.139,0.47,3.373,1.85,4.978,3.066c1.604,1.215,4.159,1.054,5.678-0.356
		c1.521-1.41,4.231-2.178,6.03-1.708c1.799,0.473,4.418,2.007,5.83,3.417c1.408,1.408,3.056,2.655,3.67,2.764
		c0.605,0.114,1.259,0.203,1.457,0.203c0.191,0,0.55,0.045,0.8,0.102c0.251,0.054,0.59,0.143,0.751,0.2
		c0.167,0.054,0.322,0.099,0.352,0.099s0.345,0.065,0.705,0.152c0.355,0.084,0.951,0.171,1.308,0.201
		c0.354,0.029,0.899,0.163,1.207,0.302c0.306,0.135,0.753,0.399,1.006,0.579c0.245,0.182,0.655,0.518,0.903,0.754
		c0.248,0.231,0.664,0.546,0.927,0.704c0.267,0.15,1.235,0.577,2.165,0.951c0.926,0.373,2.291,0.981,3.033,1.355
		c0.75,0.373,1.563,0.74,1.813,0.805c0.25,0.071,0.678,0.146,0.953,0.18c0.277,0.026,0.721-0.006,0.979-0.077
		c0.266-0.065,0.604-0.136,0.754-0.154c0.149-0.008,0.379,0.011,0.5,0.051c0.129,0.041,0.719,0.313,1.308,0.601
		c0.601,0.291,1.582,0.712,2.187,0.934c0.607,0.217,1.695,0.492,2.412,0.601c0.719,0.111,1.33,0.206,1.359,0.206
		c0.025,0,0.363,0.087,0.754,0.199c0.385,0.105,0.792,0.293,0.906,0.402c0.111,0.108,0.72,0.221,1.351,0.25
		c0.636,0.029,1.681,0.163,2.313,0.305c0.634,0.133,0.4,0.427,0.994,0.652c0.599,0.22,1.386,0.307,1.764,0.199
		c0.367-0.107,0.968-0.224,1.326-0.25c0.363-0.025,0.98-0.005,1.385,0.052c0.402,0.054,1.009,0.211,1.359,0.347
		c0.34,0.142,0.851,0.456,1.129,0.704c0.275,0.248,0.551,0.586,0.617,0.755c0.062,0.161,0.131,0.343,0.142,0.403
		c0.021,0.057-0.015,0.2-0.075,0.306c0,0,0,0-0.08,0.099c-0.089,0.097-0.089,0.097-0.089,0.097c-0.114,0.103-0.554,0.19-0.974,0.193
		c0,0,0,0-0.387,0c-0.384,0.005-0.772,0.005-1.154,0c-0.381,0-0.77-0.185-1.137-0.193c-0.367-0.008-0.367-0.008-0.367-0.008
		c-0.393,0.085-0.848,0.142-1.006,0.128c0,0,0,0-0.166-0.008c-0.164-0.005-0.34-0.008-0.51-0.005c-0.17,0-0.33-0.146-0.468-0.129
		c-0.128,0.015-0.128,0.015-0.128,0.015c-1.037,0.114-1.471,0.213-2.466,0.215c0,0,0,0-1.806-0.002
		c-1.804,0-3.627-0.011-5.453-0.014c-1.828-0.008-3.668-0.017-5.508-0.028c-1.838-0.005-3.677,0.162-5.509,0.147
		c-1.59-0.014-3.239-0.199-4.907-0.196c-1.668,0-3.363,0.008-5.043,0.014c-1.688,0.006-3.363,0.006-4.998-0.005
		c-1.642-0.003-1.642-0.003-1.642-0.003c-1.707-0.032-3.703-0.079-4.429-0.111c-0.731-0.032-1.922-0.022-2.645,0.022
		c-0.729,0.046-1.919,0.083-2.642,0.092c-0.729,0.011-1.913,0.02-2.644,0.028c-0.729,0.007-1.943,0-2.705-0.017c0,0,0,0-0.686-0.006
		c-0.673-0.005-1.346-0.008-2.023-0.005c-0.679,0-1.356,0.011-2.047,0.014c-0.688,0.006-1.39-0.128-2.106-0.128
		c-1.755,0.032-3.478,0.182-5.19,0.182c-1.71,0-3.41-0.014-5.104-0.028c-1.693-0.012-3.385-0.035-5.086-0.048
		c-1.695-0.011-3.41-0.407-5.127-0.405c-1.467,0.022-2.938,0.418-4.42,0.424c-1.477,0.008-2.953,0.008-4.435,0.002
		c-1.478-0.002-2.946-0.008-4.415-0.008c-1.466-0.005-2.928,0.006-4.382,0.014c-0.905-0.02-0.905-0.02-0.905-0.02
		c-0.576-0.421-1.771-0.441-2.658-0.046c0,0,0,0-2.41-0.025c-0.995-0.011-1.982-0.021-2.959-0.026c-0.973,0-0.973,0-0.973,0
		c-1.046,0-1.961,0.008-2.039,0.015c-0.068,0.003-0.252,0.011-0.399,0.02c-0.152,0.011-0.333,0.02-0.408,0.025
		c-0.072,0.003-0.849,0.003-1.722,0.008c-0.87,0-2.297,0.029-3.174,0.069c-0.87,0.036-2.298,0.036-3.171,0
		c-0.872-0.035-2.298-0.06-3.175-0.06c-0.868,0-1.538-0.108-1.486-0.246c0.054-0.133,0.077-0.313,0.049-0.395
		c-0.022-0.081-0.199,0.022-0.385,0.23c-0.185,0.21-0.375,0.395-0.427,0.418c-0.054,0.025-0.617,0.011-1.247-0.018
		c0,0,0,0-0.603,0.013c-0.606,0.014-1.225,0.017-1.836,0.028c-0.612,0.008-1.221-0.077-1.81-0.074
		c-0.586,0.011-0.586,0.011-0.586,0.011c-0.607,0.051-2.338-0.065-3.852-0.277c0,0,0,0-1.401-0.022
		c-1.404-0.022-2.835,0.271-4.256,0.259c-1.421-0.008-2.844-0.014-4.271-0.014c-1.423,0-1.423,0-1.423,0
		c-1.56,0.006-2.85,0.014-2.869,0.009c-0.017,0-0.052-0.003-0.071-0.009c-0.017,0-0.052-0.002-0.068-0.002
		c-0.021,0-0.049-0.006-0.072-0.006c-0.017-0.002-0.139-0.13-0.267-0.285c0,0,0,0-0.245,0.008c-0.236,0.005-0.726,0.312-0.969,0.309
		c-0.248,0-0.495-0.01-0.75-0.015c-0.248-0.003-0.505-0.003-0.766,0.005c-1.54,0.041-3.121-0.082-4.712-0.077
		c-1.59,0.006-3.188,0.131-4.771,0.123c-1.575-0.011-1.785,0.621-3.288,0.621c-1.51,0-2.961,0.014-4.33,0.045
		c-1.023,0.012-2.045,0.021-3.064,0.029c-1.021,0.006-2.041,0.006-3.069,0c-1.024-0.008-3.399-0.657-4.423-0.668
		c-1.029-0.015-1.029-0.015-1.029-0.015c-1.133-0.028-2.072-0.044-2.086-0.047c-0.014-0.007-0.035-0.01-0.051-0.015
		c-0.011-0.003-0.034-0.009-0.046-0.009c-0.014-0.002-0.039-0.008-0.053-0.008c-0.013-0.002-0.291,0.085-0.619,0.19
		c0,0,0,0-0.291,0.006c-1.236,0.018-1.538-0.171-0.894-0.174c-0.299,0-0.614,0-0.939,0c-0.327,0-0.677,0-1.044,0
		c-1.934,0.046-3.85-0.107-5.759-0.085c-1.92,0.022-2.904,0.698-4.832,0.709c-1.921,0.003-2.295-0.481-4.247-0.481
		c-1.956,0.003-1.956,0.003-1.956,0.003c-2.192-0.092-4.023-0.177-4.069-0.185c-0.043-0.012-0.117-0.023-0.163-0.029
		c-0.039-0.008-0.114-0.019-0.158-0.03c-0.046-0.008-0.114-0.018-0.16-0.026c-0.043-0.008-0.098-0.014-0.12-0.008
		c-0.021,0.005-0.077,0.008-0.123,0.014c-0.043,0.003-0.097,0.013-0.12,0.013c-0.021,0.008-0.182,0.025-0.364,0.05
		c0,0,0,0-0.191,0.013c-0.188,0.014-0.387,0.022-0.592,0.028c-0.207,0.002-0.413-0.125-0.612-0.131c-0.202,0-0.202,0-0.202,0
		c-0.2,0.065-1.504,0.205-2.901,0.307c0,0,0,0-1.247,0s-2.483-0.008-3.708-0.014c-1.223-0.003-2.442,0.131-3.66,0.133
		c-1.219,0-2.438-0.122-3.659-0.105c-0.649-0.011-1.341,0.002-2.045,0.011c-0.702,0.015-1.418-0.159-2.106-0.156
		c-0.692,0-1.361,0.176-1.973,0.139c-0.613-0.025-0.613-0.025-0.613-0.025c-0.566-0.081-1.033-0.2-1.042-0.271
		c-0.012-0.077-0.021-0.228-0.021-0.348C6.084,26.604,6.084,26.408,6.084,26.285"/>
</g>
</svg>
