<svg width="603" height="271" viewBox="0 0 603 271" fill="none" xmlns="http://www.w3.org/2000/svg">
<path fill-rule="evenodd" clip-rule="evenodd" d="M426.7 136C391.3 107.9 340.4 90.8 291.3 90.8C242.2 90.8 189.7 107.9 154.2 136H426.7Z" fill="#BFD0DF"/>
<path d="M426.7 136C391.3 107.9 340.4 90.8 291.3 90.8C242.2 90.8 189.7 107.9 154.2 136H426.7Z" stroke="black" stroke-width="2.9613" stroke-miterlimit="2.613"/>
<path fill-rule="evenodd" clip-rule="evenodd" d="M132.9 156C173.5 116.4 229 91.6 290.1 91.6C351.6 91.6 407.1 116.3 447.7 156H495.1C447.7 95.5 373.4 56.2 290.1 56.2C207.2 56.2 132.9 95.4 85.5 156H132.9Z" fill="#005D7E"/>
<path d="M132.9 156C173.5 116.4 229 91.6 290.1 91.6C351.6 91.6 407.1 116.3 447.7 156H495.1C447.7 95.5 373.4 56.2 290.1 56.2C207.2 56.2 132.9 95.4 85.5 156H132.9Z" stroke="black" stroke-width="2.9613" stroke-miterlimit="2.613"/>
<path fill-rule="evenodd" clip-rule="evenodd" d="M432.7 156C393.8 124 346 102.7 292.2 102.7C238 102.7 186.7 124 147.9 156H432.7Z" fill="black"/>
<path fill-rule="evenodd" clip-rule="evenodd" d="M26.2 269.4C19.8 269.4 13.8 266.8 9.09999 262.6C4.79999 257.9 2.29999 251.9 2.29999 245.6V150C2.29999 144 4.89999 138.1 9.09999 133.4C13.8 129.1 19.8 126.6 26.2 126.6H548.9C554.9 126.6 560.9 129.2 565.6 133.4C569.9 138.1 572.4 144.1 572.4 150V245.5C572.4 258.7 561.7 269.4 548.9 269.4H26.2Z" fill="#BFD0DF"/>
<path d="M26.2 269.4C19.8 269.4 13.8 266.8 9.09999 262.6C4.79999 257.9 2.29999 251.9 2.29999 245.6V150C2.29999 144 4.89999 138.1 9.09999 133.4C13.8 129.1 19.8 126.6 26.2 126.6H548.9C554.9 126.6 560.9 129.2 565.6 133.4C569.9 138.1 572.4 144.1 572.4 150V245.5C572.4 258.7 561.7 269.4 548.9 269.4H26.2Z" stroke="black" stroke-width="2.9613" stroke-miterlimit="2.613"/>
<path fill-rule="evenodd" clip-rule="evenodd" d="M548.9 259.2C556.2 259.2 562.1 253.2 562.1 245.6V150C562.1 142.7 556.1 136.8 548.9 136.8H26.1C18.8 136.8 12.4 142.8 12.4 150V245.5C12.4 253.2 18.8 259.1 26.1 259.1H548.9V259.2Z" fill="#005D7E"/>
<path d="M548.9 259.2C556.2 259.2 562.1 253.2 562.1 245.6V150C562.1 142.7 556.1 136.8 548.9 136.8H26.1C18.8 136.8 12.4 142.8 12.4 150V245.5C12.4 253.2 18.8 259.1 26.1 259.1H548.9V259.2Z" stroke="black" stroke-width="2.9613" stroke-miterlimit="2.613"/>
<path fill-rule="evenodd" clip-rule="evenodd" d="M75.3 168.8C77.4 171.8 78.7 176.1 78.7 182C78.7 185.8 77.8 189.2 76.6 191.8C75.3 194.4 74 196.1 71.9 197.3C69.8 198.2 68.5 198.6 64.2 198.6H61.6V164.5H66.7C71.4 164.5 72.7 165.8 75.3 168.8ZM83.8 238.3H103.4V236.2C101.7 236.2 100.4 235.3 99.1 234.1C98.2 233.2 97 231.5 94.8 228.1L80 201.6C83.8 200.3 86.8 198.6 89 196.1C92 192.3 93.7 187.6 93.7 182C93.7 177.3 92.8 173 90.3 169.6C88.2 165.8 85.2 163.6 81.8 162.3C78.4 161 75 160.2 67.7 160.2H38.1V162.3C41.1 162.3 43.2 162.7 44.1 163.2C45.4 164.1 45.8 164.9 46.2 166.2C46.6 167.1 47.1 169.6 47.1 173.9V224.6C47.1 228.9 46.7 231.4 46.2 232.7C45.8 233.5 45.4 234.4 44.1 235.3C43.2 235.7 41.1 236.2 38.1 236.2V238.3H70.6V236.2C67.6 236.2 65.5 235.8 64.6 235.3C63.3 234.5 62.9 233.6 62.5 232.7C62.1 231.4 61.7 228.9 61.7 224.6V202.9H66L83.8 238.3Z" fill="black"/>
<path fill-rule="evenodd" clip-rule="evenodd" d="M115.4 203.7C115.4 197.7 116.3 193 118.4 189.6C119.3 187.5 120.5 186.6 122.2 186.6C123.1 186.6 123.9 187 124.8 187.4C126.1 188.7 126.9 190.4 127.4 192.9C127.8 195 128.3 199.3 128.3 205.3H115.5V203.7H115.4ZM134.2 189.7C131.2 185 127.4 182.9 123.1 182.9C117.5 182.9 113.3 185.5 109 191C105.2 196.1 103.5 203.4 103.5 212.3C103.5 219.5 104.8 225.9 107.3 230.6C110.7 237 115.4 240 121.8 240C125.6 240 129.1 238.7 131.6 236.2C134.6 233.6 137.2 229.4 139.3 223.8L138 222.5C136.3 225.5 134.6 228 132.9 229.3C131.6 230.6 129.9 231 128.2 231C125.2 231 122.7 229.7 120.5 226.3C117.5 222 116.2 216.5 115.8 209.2H139.3C139.3 200.8 137.6 193.9 134.2 189.7Z" fill="black"/>
<path fill-rule="evenodd" clip-rule="evenodd" d="M168.8 233.1C167.5 233.1 166.2 232.7 165.8 231.8C164.5 230.5 163.2 228 162.4 225C161.5 221.6 161.1 216.5 161.1 209.7C161.1 203.7 161.5 199 162.4 196.1C163.2 193.1 164.1 191 165 189.7C165.8 188.9 166.7 188.9 168 188.9C171.4 188.9 174 191.5 176.5 197V225C173.9 230.2 171.3 233.1 168.8 233.1ZM170.1 162.8C172.2 162.8 173.5 162.8 174.4 163.7C175.2 164.1 175.7 165 176.1 166.3C176.1 166.7 176.5 169.3 176.5 173.5V189.7C174.4 187.1 172.7 185.4 171.4 184.6C169.7 183.3 168 182.9 165.8 182.9C162.4 182.9 159.4 184.2 156.8 186.3C153.8 188.9 151.7 192.3 150 197C148.3 201.3 147.9 206.8 147.9 212.3C147.9 219.5 149.2 225.9 151.7 230.6C154.7 237 159 240 164.5 240C166.6 240 168.8 239.2 170.5 238.3C172.2 237 174.3 234.9 176.5 231.5V240L194.4 235.3V233.6C192.7 233.6 191.8 233.2 191 232.3C190.1 231.9 189.7 231 189.7 229.7C189.3 228.8 189.3 226.3 189.3 222V160.2H170.1V162.8V162.8Z" fill="black"/>
<path fill-rule="evenodd" clip-rule="evenodd" d="M275.1 211H277.2L274.6 238.3H221.2V236.2H223.3C225 236.2 226.7 235.8 227.6 234.9C228.4 234.5 229.3 233.6 229.7 232.3C229.7 231.5 230.1 228.9 230.1 225.1V173.5C230.1 169.7 229.7 167.1 229.7 166.2C229.3 165.4 228.4 164.5 227.6 163.6C226.3 162.8 225 162.3 223.3 162.3H221.2V160.2H254.5V162.3H251.9C250.2 162.3 248.5 162.7 247.6 163.6C246.7 164 245.9 164.9 245.5 166.2C245.5 167.5 245.1 169.6 245.1 173.5V223.4C245.1 227.2 245.5 229.8 245.5 231.1C245.9 231.9 246.8 232.8 248.1 233.7C248.5 233.7 250.7 234.1 253.6 234.1H258.7C262.1 234.1 262.5 233.2 264.7 232C266.8 230.3 269 228.2 270.3 225.2C272.1 221.6 273.8 217 275.1 211Z" fill="black"/>
<path fill-rule="evenodd" clip-rule="evenodd" d="M306.3 188.4C307.6 189.7 308.4 191.4 309.3 193.5C309.7 196.1 310.1 200.3 310.1 206.7C310.1 217.8 309.7 225 309.3 228.4C308.9 231 308 232.7 306.7 233.9C305.4 234.7 304.6 235.2 302.9 235.2C301.6 235.2 300.3 234.8 299.1 233.1C297.8 231.8 297.4 229.7 297 227.1C296.6 223.7 296.1 219.9 296.1 215.6C296.1 208.4 296.5 202.4 296.5 198.1C296.9 193.4 297.8 190.8 299.1 189.1C300.4 187.8 301.7 187 303.4 187C304.6 187.1 305.4 187.5 306.3 188.4ZM287.5 191.8C283.7 197.3 281.9 203.7 281.9 211.4C281.9 219.1 283.6 225.5 287.5 231C290.9 236.5 296.5 239.5 303.3 239.5C310.1 239.5 315.3 236.1 319.5 230.1C322.5 225 324.2 218.6 324.2 211.3C324.2 205.8 323.3 201.1 321.6 196.8C319.9 192.5 317.3 189.1 313.9 186.6C310.5 184.5 306.6 183.2 302.8 183.2C296.5 183.3 291.4 185.8 287.5 191.8Z" fill="black"/>
<path fill-rule="evenodd" clip-rule="evenodd" d="M356.3 189.7C358.4 189.7 360.1 190.6 361 192.7C362.7 196.1 363.6 201.6 363.6 209.8C363.6 218.3 363.2 224.3 362.8 227.7C361.9 231.1 361.1 233.2 359.8 234.1C358.5 235.4 357.2 235.8 356 235.8C353.9 235.8 352.6 235.4 351.3 233.7C350 232.4 349.6 230.7 349.2 228.6C348.8 226.9 348.8 223.9 348.8 219.2V195.3C351.1 191.4 353.7 189.7 356.3 189.7ZM330.6 162.4C332.3 162.4 333.2 162.8 334 163.3C334.9 163.7 335.3 164.6 335.3 165.9C335.7 166.7 335.7 168.5 335.7 171.4V240H337.4L344.7 234C346.4 236.1 348.1 237.4 349.8 238.7C351.5 239.6 353.6 240 356.2 240C360 240 363.9 238.7 366.9 236.2C369.9 233.6 372.5 230.2 374.6 225.1C376.3 220.4 377.2 215.3 377.2 209.3C377.2 204.2 376.8 199.5 375.1 195.2C373.8 191.4 371.7 188.4 369.1 186.3C366.5 184.2 363.5 182.9 360.6 182.9C356.3 182.9 352.5 185.5 348.6 190.1V160.3H330.7V162.4H330.6Z" fill="black"/>
<path fill-rule="evenodd" clip-rule="evenodd" d="M413.5 183.3H415.2L416.1 201.2H414.4C412.3 196.1 410.6 192.3 408.4 190.5C406.3 188.4 404.1 187.5 402 187.5C400.7 187.5 399.4 187.9 398.6 188.8C397.7 190.1 397.3 191.4 397.3 192.6C397.3 193.4 397.3 194.7 398.2 195.6C399.1 196.9 402 199.9 406.7 203.3C411.4 207.1 414.8 210.5 416.1 213.1C417.8 215.7 418.2 218.6 418.2 222C418.2 224.6 417.8 227.5 416.5 230.5C415.2 233.5 413.5 235.6 410.9 236.9C408.8 238.6 406.2 239.5 403.6 239.5C401.5 239.5 398.5 238.7 395.1 236.9C393.8 236.5 393.4 236.1 393 236.1C391.7 236.1 390.9 237.4 390.4 239.1H388.7L387.8 219.9H389.5C390.8 225 392.9 228.8 395.5 231.4C398.1 234 400.2 235.2 402.8 235.2C404.1 235.2 405.4 234.3 406.6 233.5C407.5 232.2 407.9 230.9 407.9 229.2C407.9 227.5 407.5 225.8 406.6 224.5C405.3 223.2 403.2 221.1 400.2 218.5C395.1 214.7 392.1 211.3 390.4 209.1C388.3 206.1 387.4 202.7 387.4 198.9C387.4 195.1 388.3 191.2 390.8 187.8C393.4 184.8 396.8 183.1 401.1 183.1C403.7 183.1 406.2 183.5 408.4 185.2C409.2 185.6 410.1 186.1 410.5 186.1C410.9 186.1 411.4 185.7 411.8 185.7C412.2 185.4 412.6 184.5 413.5 183.3Z" fill="black"/>
<path fill-rule="evenodd" clip-rule="evenodd" d="M443 165.4H444.7V184.6H455.4V190.6H444.7V223C444.7 226.4 444.7 228.1 445.1 229C445.1 229.9 445.5 230.7 446.4 231.1C446.8 232 447.3 232 448.1 232C449.8 232 451.9 230.3 453.7 226.5L455.4 227.8C452.8 235.1 448.6 238.9 442.6 238.9C439.6 238.9 437.5 237.6 435.3 235.9C433.2 234.2 432.3 232.1 431.5 229.5C431.1 228.2 431.1 224.8 431.1 219.3V190.7H425.1V188.6C429.4 185.2 432.8 181.8 435.8 177.9C438.3 173.9 440.8 170.1 443 165.4Z" fill="black"/>
<path fill-rule="evenodd" clip-rule="evenodd" d="M474.1 203.7C474.1 197.7 475 193 476.7 189.6C477.6 187.5 478.8 186.6 480.5 186.6C481.8 186.6 482.6 187 483.1 187.4C484.4 188.7 485.2 190.4 485.7 192.9C486.1 195 486.6 199.3 486.6 205.3H474.2V203.7H474.1ZM492.5 189.7C489.5 185 485.7 182.9 481.4 182.9C475.8 182.9 471.6 185.5 467.7 191C463.4 196.1 461.7 203.4 461.7 212.3C461.7 219.5 463 225.9 465.5 230.6C468.9 237 473.6 240 480 240C483.8 240 487.3 238.7 489.8 236.2C492.8 233.6 495.4 229.4 497.9 223.8L496.2 222.5C494.5 225.5 492.8 228 491.5 229.3C489.8 230.6 488.1 231 486.4 231C483.4 231 480.9 229.7 478.7 226.3C475.7 222 474.4 216.5 474 209.2H498C497.6 200.8 495.9 193.9 492.5 189.7Z" fill="black"/>
<path fill-rule="evenodd" clip-rule="evenodd" d="M504.9 184.6H523.3V197C526.3 191.5 529.3 187.6 531.4 185.9C533.5 184.2 535.7 183.3 537.8 183.3C539.5 183.3 541.2 183.7 542.1 185C543.4 186.3 543.8 188.4 543.8 190.5C543.8 193.1 543.4 195.2 542.1 196.5C541.2 197.8 540 198.6 538.3 198.6C537 198.6 535.3 198.2 534 196.9C532.7 195.2 531.9 194.8 531.9 194.3H530.6C529.8 194.3 528.9 194.7 528 195.6C526.7 196.9 525.9 198.6 525 200.7C524.2 204.5 523.3 208.8 523.3 213.1V225.5L523.7 228.5V232.8C524.1 233.6 525 234.5 525.4 234.9C526.3 235.3 527.5 235.7 529.2 235.7V237.8H504.9V235.7C507 235.7 508.3 234.9 509.2 234C509.6 232.7 510 229.7 510 225.5V196.1C510 193.1 510 191 509.6 190.1C509.2 189.2 508.8 188.4 508.3 188C507.4 187.6 506.6 187.2 504.9 186.7V184.6Z" fill="black"/>
<path fill-rule="evenodd" clip-rule="evenodd" d="M72.7 163.7C75.3 166.3 76.1 170.9 76.1 176.9C76.1 180.7 75.7 184.2 74.4 186.7C73.1 189.3 71.4 191 69.3 192.2C67.2 193 66.3 193.5 62 193.5H59.4V159.4H64.5C69.3 159.4 70.6 160.7 72.7 163.7ZM81.7 233.1H101.3V231C99.6 231 98.3 230.1 97 228.9C96.1 228.1 94.4 225.9 92.7 222.5L77.3 196.1C81.1 195.3 84.1 193.1 86.3 191C89.7 187.2 91.4 182.5 91.4 176.5C91.4 171.8 90.1 168 88 164.6C85.9 160.8 82.9 158.6 79.5 157.3C76.1 156 72.7 155.2 65 155.2H36V157.3C39 157.3 40.7 157.7 42 158.2C42.9 159.1 43.7 159.9 44.1 160.8C44.5 162.1 44.9 164.6 44.9 168.9V219.6C44.9 223.9 44.5 226.4 44.1 227.3C43.7 228.6 42.8 229.4 42 230.3C41.1 230.7 39 231.2 36 231.2V233.3H68V231C65.4 231 63.3 230.6 62.4 230.1C61.1 229.2 60.3 228.4 59.8 227.1C59.4 226.3 59.4 223.7 59.4 219.4V197.7H63.7L81.7 233.1Z" fill="white"/>
<path fill-rule="evenodd" clip-rule="evenodd" d="M113.3 198.6C113.3 192.6 114.2 187.9 116.3 184.5C117.2 182.4 118.4 181.5 120.1 181.5C120.9 181.5 121.8 181.9 122.7 182.4C123.6 183.7 124.4 185.4 125.3 187.5C125.7 190.1 126.2 194.3 126.2 200.3H113.4V198.6H113.3ZM132.1 184.6C129.1 179.9 125.3 177.8 120.6 177.8C115.5 177.8 110.8 180.4 106.9 185.9C103.1 191 101.4 198.3 101.4 207.2C101.4 214.4 102.7 220.8 105.2 225.5C108.6 231.5 113.3 234.9 119.7 234.9C123.5 234.9 126.5 233.6 129.5 231.1C132.5 228.5 135.1 224.3 137.2 218.3L135.9 217C134.2 220.4 132.5 223 130.8 224.3C129.5 225.6 127.8 226 125.7 226C122.7 226 120.1 224.3 118 221.3C115.4 217 113.7 211.5 113.7 204.2H137.2C137.2 195.6 135.5 188.8 132.1 184.6Z" fill="white"/>
<path fill-rule="evenodd" clip-rule="evenodd" d="M166.2 227.6C165.3 227.6 164.1 227.6 163.6 226.7C161.9 225.4 161 222.9 160.2 219.5C159.3 216.5 158.9 211.4 158.9 204.6C158.9 198.6 159.3 193.9 160.2 191C160.6 188 161.9 185.9 162.8 184.6C163.6 183.8 164.5 183.3 165.8 183.3C169.2 183.3 171.8 186.3 173.9 191.8V219.9C171.8 225.1 169.2 228 166.2 227.6ZM167.9 157.7C170 157.7 171.3 157.7 172.2 158.6C172.6 159 173.5 159.9 173.5 160.7C173.9 161.5 173.9 164.1 173.9 168.4V184.6C172.2 182 170.5 180.3 168.8 179.5C167.5 178.2 165.4 177.8 163.7 177.8C160.3 177.8 157.3 179.1 154.3 181.2C151.7 183.8 149.6 187.2 147.9 191.9C146.2 196.2 145.3 201.7 145.3 207.2C145.3 214.4 146.6 220.4 149.1 225.5C152.5 231.5 156.8 234.9 162.3 234.9C164.4 234.9 166.6 234.1 168.3 233.2C170 231.9 171.7 229.4 173.9 226.4V234.9L192.3 230.2V228.5C190.6 228.1 189.3 228.1 188.9 227.2C188 226.8 187.6 225.9 187.2 224.6V216.9V155.1H168V157.7H167.9Z" fill="white"/>
<path fill-rule="evenodd" clip-rule="evenodd" d="M273 205.9H275.1L272.5 233.2H219.1V231H221.2C222.9 231 224.2 230.6 225.5 229.7C226.4 229.3 226.8 228.4 227.2 227.1C227.6 225.8 228.1 223.7 228.1 219.9V168.3C228.1 164.5 227.7 161.9 227.2 161.1C227.2 159.8 226.4 159 225.5 158.5C224.2 157.7 222.9 157.2 221.2 157.2H219.1V155.1H252.4V157.2H249.8C248.1 157.2 246.4 157.6 245.5 158.5C244.7 158.9 243.8 159.8 243.4 161.1C243 161.9 243 164.5 243 168.3V218.2C243 222 243 224.6 243.4 225.9C243.8 226.7 244.7 227.6 245.5 228C246.4 228.4 248.1 228.9 251.1 228.9H256.7C259.7 228.9 260.5 228 262.7 226.8C264.8 225.1 266.5 223 268.3 219.6C270 216.5 271.7 211.8 273 205.9Z" fill="white"/>
<path fill-rule="evenodd" clip-rule="evenodd" d="M304.2 183.3C305.5 184.2 306.3 185.9 307.2 188.4C307.6 191 308.1 195.2 308.1 201.6C308.1 212.7 307.7 219.9 306.8 223.3C306.4 225.9 305.5 227.6 304.7 228.8C303.4 229.6 302.1 230.1 300.9 230.1C299.6 230.1 298.3 229.7 297.1 228C295.8 226.7 295 224.6 294.5 222C294.1 218.6 294.1 214.8 294.1 210.5C294.1 202.8 294.1 196.9 294.5 192.6C294.9 188.3 295.8 185.8 297.1 184.1C298 182.8 299.7 182 301.4 182C302.5 182 303.3 182.4 304.2 183.3ZM285.4 186.3C281.6 192.3 279.8 198.7 279.8 206.3C279.8 213.5 281.5 220.4 285.4 225.9C288.8 231.4 294.4 234 300.8 234C308.1 234 313.2 231 317 225.1C320.4 220 322.1 213.6 322.1 206.3C322.1 200.8 321.2 196.1 319.5 191.8C317.8 187.1 315.2 184.1 311.8 181.6C308.4 179 304.5 178.2 300.7 178.2C294.3 178.2 289.2 180.7 285.4 186.3Z" fill="white"/>
<path fill-rule="evenodd" clip-rule="evenodd" d="M354.1 184.1C356.2 184.1 357.5 185.4 358.8 187.5C360.5 190.5 361.4 196.5 361.4 204.6C361.4 213.1 361 219.1 360.1 222.5C359.7 225.9 358.4 228 357.5 228.9C356.2 230.2 354.9 230.6 353.2 230.6C351.5 230.6 350.2 230.2 348.9 228.5C347.6 227.2 346.8 225.5 346.8 223C346.4 221.7 346.4 218.7 346.4 214V189.7C349 186.3 351.6 184.1 354.1 184.1ZM328.5 157.3C330.2 157.3 331.1 157.7 331.9 158.2C332.3 158.6 332.8 159.5 333.2 160.8C333.6 161.2 333.6 163.4 333.6 166.3V234.9H335.3L342.1 228.9C344.2 231 345.9 232.3 347.7 233.2C349.4 234.5 351.5 234.9 354.1 234.9C357.9 234.9 361.4 233.6 364.8 231.1C367.8 228.5 370.4 224.7 372.5 220C374.2 215.3 375.1 209.8 375.1 204.2C375.1 198.6 374.2 194.4 373 190.1C371.3 186.3 369.6 183.3 367 181.2C364 179.1 361.4 177.8 358.5 177.8C354.2 177.8 350 180.4 346.5 184.6V155.2H328.6V157.3H328.5Z" fill="white"/>
<path fill-rule="evenodd" clip-rule="evenodd" d="M411.3 178.2H413L413.9 196.1H412.2C410.1 191 407.9 187.2 405.8 185C404.1 183.3 402 182.4 399.8 182.4C398.5 182.4 397.2 182.8 396.4 183.7C395.5 185 395.1 185.8 395.1 187.5C395.1 188.3 395.1 189.2 396 190.5C396.9 191.8 399.8 194.3 404.5 198.2C409.2 202 412.2 205.4 413.9 208C415.2 210.6 416 213.5 416 216.5C416 219.5 415.6 222.5 414.3 225.5C413 228.1 411.3 230.6 408.7 231.9C406.6 233.6 404 234 401.4 234C398.8 234 396.3 233.6 392.4 231.9C391.5 231.5 391.1 231.1 390.7 231.1C389.4 231.1 388.6 232.4 387.7 234.1H386.4L385.6 214.9H387.3C388.6 220 390.7 223.8 393.3 226.4C395.9 228.5 398 229.8 400.6 229.8C401.9 229.8 403.2 229.4 404 228.1C405.3 227.2 405.7 226 405.7 224.3C405.7 222.6 405.3 220.9 404 219.6C403.1 218.3 401 216.2 397.6 213.6C392.9 209.3 389.5 206.4 388.2 204.2C386.1 201.2 384.8 197.8 384.8 194C384.8 190.2 386.1 186.3 388.6 182.9C391.2 179.5 394.6 178.2 398.9 178.2C401.5 178.2 403.6 178.6 406.2 180.3C407.1 180.7 407.9 180.7 408.3 180.7H409.6C410.1 180.3 410.5 179.4 411.3 178.2Z" fill="white"/>
<path fill-rule="evenodd" clip-rule="evenodd" d="M440.8 160.3H442.5V179.5H453.2V185H442.5V217.8V223.8C442.9 224.7 443.4 225.5 443.8 225.9C444.6 226.3 445.1 226.7 445.5 226.7C447.6 226.7 449.8 225 451.5 221.2L453.2 222.5C450.2 229.7 446.4 233.2 440.4 233.2C437.4 233.2 435.3 232.4 433.1 230.6C431 228.5 429.7 226.8 429.3 224.2C428.9 222.9 428.9 219.5 428.9 214V185H422.9V183.3C427.2 179.9 430.6 176.5 433.1 172.6C436.1 168.8 438.7 164.9 440.8 160.3Z" fill="white"/>
<path fill-rule="evenodd" clip-rule="evenodd" d="M471.6 198.6C471.6 192.6 472.5 187.9 474.6 184.5C475.5 182.4 476.7 181.5 478.4 181.5C479.3 181.5 480.1 181.9 481 182.4C482.3 183.7 483.1 185.4 483.6 187.5C484 190.1 484.5 194.3 484.5 200.3H471.7V198.6H471.6ZM490.4 184.6C487.4 179.9 483.6 177.8 479.3 177.8C473.7 177.8 469.5 180.4 465.2 185.9C461.4 191 459.7 198.3 459.7 207.2C459.7 214.4 461 220.8 463.5 225.5C466.9 231.5 471.6 234.9 478 234.9C481.8 234.9 485.3 233.6 487.8 231.1C490.8 228.5 493.4 224.3 495.5 218.3L494.2 217C492.5 220.4 490.8 223 489.1 224.3C487.8 225.6 486.1 226 484.4 226C481.4 226 478.9 224.3 476.7 221.3C473.7 217 472 211.5 472 204.2H495.5C495.5 195.6 493.8 188.8 490.4 184.6Z" fill="white"/>
<path fill-rule="evenodd" clip-rule="evenodd" d="M502.7 179.4H521.1V191.3C524.1 186.2 526.7 182.3 529.2 180.6C531.3 178.9 533.5 178 535.6 178C537.3 178 539 178.4 539.9 179.7C541.2 181 541.6 183.1 541.6 185.2C541.6 187.8 541.2 189.9 539.9 191.2C539 192.5 537.8 193.3 536.1 193.3C534.4 193.3 533.1 192.4 531.8 191.2C530.5 189.9 529.7 189.5 529.7 189.1H528.4C527.6 189.1 526.7 189.1 525.8 189.9C524.5 191.2 523.2 193.3 522.8 195.4C521.5 199.2 521.1 203.1 521.1 207.8V219.7V223.1C521.1 225.2 521.5 226.5 521.5 227.4C521.9 228.2 522.4 229.1 523.2 229.5C524.1 229.9 525.3 230.3 527 230.3V232.4H502.7V230.3C504.8 229.9 506.1 229.5 506.5 228.2C507.4 227.4 507.8 224.4 507.8 219.7V190.7C507.8 187.7 507.8 185.6 507.4 184.7C507 183.8 506.5 183 506.1 182.6C505.2 181.7 504.4 181.7 502.7 181.3V179.4Z" fill="white"/>
<path fill-rule="evenodd" clip-rule="evenodd" d="M596.7 250.6C598.8 252.7 600.1 255.3 600.1 257.9C600.1 260.9 598.8 263.4 596.7 265.6C595 267.7 592.4 268.6 589.4 268.6C586.4 268.6 583.8 267.7 581.7 265.6C580 263.5 578.7 260.9 578.7 257.9C578.7 255.3 580 252.8 581.7 250.6C583.8 248.5 586.4 247.6 589.4 247.6C592.4 247.6 595 248.5 596.7 250.6ZM598.4 248.9C595.8 246.3 592.8 245.1 589.4 245.1C586 245.1 583 246.4 580.4 248.9C577.8 251 576.6 254.4 576.6 257.9C576.6 261.7 577.9 264.7 580.4 267.3C582.5 269.9 586 270.7 589.4 270.7C592.8 270.7 595.8 269.8 598.4 267.3C601 264.7 602.2 261.8 602.2 257.9C602.2 254.5 601 251.5 598.4 248.9ZM591.1 257C590.7 257.4 589.8 257.4 589 257.4H587.7V253.6H588.6H590.7C591.1 254 591.6 254.5 591.6 255.3C591.6 256.2 591.6 256.6 591.1 257ZM587.7 260H588.1H588.9C589.8 260.4 590.2 260.4 590.2 260.4C590.6 260.4 591.1 260.8 591.5 261.2V263.3C591.5 264.1 591.5 264.6 591.9 265H595.3V264.6V264.2C594.9 264.2 594.9 264.2 594.9 263.8V262.5C594.9 261.2 594.5 259.9 594 259.5C593.1 259.1 592.7 258.7 591.9 258.7C592.7 258.7 593.6 258.3 594.5 257.9C594.9 257 595.4 256.2 595.4 255.3C595.4 253.6 594.5 252.3 593.3 251.9C592.9 251.5 592 251 590.7 251H587.7H583.9V265.1H587.7V260V260Z" fill="black"/>
<path fill-rule="evenodd" clip-rule="evenodd" d="M211.9 66.5H216.6L224.3 64.3L226.9 63.5L231.6 63.1L230.7 60.1L227.7 47.3L226.4 50.3L225.2 54.9V59.2L221.3 60.9L213.6 62.6L209.4 60.9L209.8 66.9L211.9 66.5Z" fill="#E03A3E"/>
<path fill-rule="evenodd" clip-rule="evenodd" d="M187.6 68.6L190.6 69.9L190.1 75L191.4 81.8L188 83.1L187.1 86.9L186.7 96.3L182.9 102.7L181.2 107.4L178.2 105.3L175.2 96.7L173.5 91.6L170.9 89.9L173.1 85.6L177.3 77.6L180.3 75.8L185.9 69.4L187.6 68.6Z" fill="#E03A3E"/>
<path fill-rule="evenodd" clip-rule="evenodd" d="M446.4 118.9C437.9 117.6 446 109.9 442.6 105.3C440.5 105.7 438.8 107.4 437 108.7C428.5 101.9 418.6 98.9 408 97.2C396.9 90.8 385.8 84 375.1 76.7C361.9 66.9 346.9 61.4 332.4 55.4C332.8 49.4 339.7 52.4 343.1 49.9C341.8 47.3 338.4 46.5 336.7 44.4C339.7 44 343.1 45.3 346.9 44.4C352 47.8 355 52.9 359.3 56.8C362.7 61.9 370 58.9 372.5 65.3C380.6 77.7 393.9 81.5 404.5 89.2C412.6 91.8 423.7 95.6 431.8 90.5L428.4 88.4C422 88 418.6 79.9 413.5 77.3C405.4 78.6 406.7 67.5 399 67.1C397.3 65.4 397.7 62.8 396.4 61.1C390.8 58.5 390.8 51.3 384.4 50.4C382.3 49.1 378.4 49.6 378 46.6C378.8 45.3 380.1 45.8 381 45.3L381.9 46.6C386.6 49.2 391.3 51.7 396 55.1C397.7 55.5 400.3 55.1 400.7 58.1C403.7 57.7 407.1 59.4 408.8 62.8C413.5 63.7 413.1 70 418.6 70C421.2 75.1 426.3 77.7 429.7 81.5C432.7 87 436.1 92.6 436.5 99C438.2 98.6 439.5 96.9 440.8 95.6C451.1 80.7 445.5 58.9 436.5 45.3L439.1 44C437 41 433.5 41 430.6 39.3C412.2 13.7 382.8 9 353.3 10.7C352.9 9 352.9 6.9 351.6 6C349.5 4.7 347.3 6 345.6 6C346 4.7 345.2 4.29999 345.2 3.39999C343.9 1.69999 341.8 1.7 339.6 1.7C336.6 4.7 335.3 0.4 332.8 0C328.1 0.4 324.3 3 320.4 6C319.1 5.6 320 3.89999 319.1 3.39999C310.1 2.99999 302 6.8 293.5 9C287.1 19.7 275.1 10.7 266.2 10.7C256.4 11.1 245.7 5.60001 236.7 11.1C236.3 10.3 235.4 9.79999 234.6 9.39999C229.5 8.59999 221.4 6.79999 217.9 12.4C217.1 11.5 215.3 11.5 214.1 11.1C208.5 12 200.4 10.3 197.9 16.6C192.8 15.3 187.7 16.2 183.8 19.2C178.2 19.2 180.4 26.9 175.3 26.4C169.8 32.4 160.8 37.9 162.9 47.7L161.2 48.6C159.9 54.6 155.6 61 159.1 67.4C158.7 74.2 160 80.2 164.6 84.9C164.6 88.3 164.6 92.2 168.4 94.3C169.7 105.8 168.8 119 170.1 131L173.1 128C176.9 125 179.1 120.3 181.2 116.1C181.2 113.1 182.9 109.7 181.2 107.6C179.9 106.7 180.3 104.2 179.9 104.2C179.5 104.6 179.5 105.1 179.1 104.6C177.4 99.9 175.3 95.2 174.4 90.1C173.5 90.1 172.7 90.1 172.3 89.2C172.3 88.4 172.3 87.5 173.1 87.1C173.5 87.5 173.5 88 173.5 88.4H174.4C175.7 85 177.8 82 178.7 78.6C184.3 79 185.1 73.1 188.1 70.1C190.2 71.8 188.5 75.6 189.4 78.2C189.4 79.5 191.1 81.2 189.8 82C188.5 79.9 188.1 76.5 187.2 74.3C185.9 77.3 188.1 80.3 187.6 83.2C186.7 81.1 185.9 78.1 183.8 78.1C184.2 81.1 186.8 83.2 185.9 86.2C184.2 84.1 184.2 81.1 182.1 79.8C182.5 84.9 185.9 89.2 185.9 94.3C183.8 90 181.6 84.9 180.4 80.2C179.1 79.8 179.1 81 179.1 81.9C182.1 87 183.4 93 184.2 98.1C182.1 93.4 180.8 88.3 178.2 84C177.3 90.4 182.9 95.5 182.5 101.9C180.4 97.2 179.1 92.5 176.9 87.8H176.5C177.8 93.8 180.8 99.3 182 105.3C188.4 102.3 189.3 93.4 188.4 87.4C185.8 83.1 192.7 84.8 193.9 82.3C195.2 75 199 83.1 202.9 80.2C208 78.1 210.2 73 211.4 67.8L217.4 65.2C215.7 65.6 212.7 66.5 211.4 65.2C215.7 64.8 219.9 62.2 224.2 64.4C220.4 69.1 214.8 72.9 215.7 79.7C220.8 91.2 220.4 104.4 228.1 114.7C229.4 115.5 231.5 115.1 232.4 113.8C232.8 109.1 229.8 104.4 227.3 100.2C228.2 90.4 222.6 82.7 225.2 72.9C226.1 69.9 232 66.9 229 64.4C224.7 64 228.1 58.9 226 56.7C227.7 55 225.6 52.9 227.3 52C229 58 229 65.2 235 68.6C237.1 71.6 241 68.2 242.3 71.2L241.4 72.1C240.1 70.8 238 71.2 236.3 72.1C236.3 74.2 235.9 77.2 236.7 79.3C246.5 89.1 243.1 104 249.1 115.5C250.8 117.6 250.8 122.3 254.7 122.3C257.3 120.2 256 117.2 256 114.6C256.4 106.1 252.6 98.4 251.7 91.2C252.1 84 241.9 82.3 244 74.6C243.1 72 240.6 69.1 241.9 66.5C244 67.3 243.2 69.9 244 71.2C247 75 253 72.9 257.2 74.6C258.5 77.2 260.6 75.4 261.9 73.7C263.2 72.9 264.9 73.7 265.7 75L281.5 75.4C281.1 75.8 280.6 75.8 280.2 76.3C279.3 84 283.2 90.4 289.6 95.1L290 109.2C293.8 117.7 302.8 124.1 308.8 131.8C324.6 141.2 340.8 150.1 359.6 151.8C389.1 152.2 419.8 147.5 439.9 122C442.5 121.2 445 123.7 446.7 121.2C446.4 120.2 447.2 119.3 446.4 118.9ZM323.8 88.6C319.1 80.5 304.6 82.2 305.4 70.3C307.1 70.3 309.7 72 311.4 72.9L323.4 73.3C326 75.4 328.1 79.7 331.5 79.7C335.8 78.8 340.5 78.8 343.9 76.3C342.2 72.5 337.5 72.5 334.5 69.9C333.6 68.2 331.5 68.2 331.5 66.1L391.3 95.9C383.6 93.3 373.4 95.9 366.1 92.1C352.8 88.2 338.3 86.5 323.8 88.6ZM376.8 115.5C378.9 115.5 381.1 114.7 382.8 116.4C384.5 115.5 388.3 117.3 389.6 114.7C391.7 115.5 393.9 117.3 396.4 118.1C389.1 118.5 382.3 118 376.8 115.5ZM401.5 118.5C398.5 117.6 396.4 114.7 393.4 114.2C399.4 114.2 405.4 114.2 411.8 112.9C415.6 113.3 419.5 112.5 423.3 113.7C418.2 118.9 407.9 115.1 401.5 118.5Z" fill="black"/>
<path fill-rule="evenodd" clip-rule="evenodd" d="M335.8 5.5C337.9 5.5 340.5 2.10001 342.6 5.10001C342.2 10.2 346.9 6.40001 349.9 8.10001C351.6 11.9 346.5 14.9 346.1 18.3C344.8 15.7 347.4 12.3 347 9.80001C344 13.2 343.6 17.9 342.7 22.6C341.4 18.3 343.1 13.2 343.1 9.4C342.3 9.8 341.4 11.5 341 12.4C341.4 16.7 339.3 20.1 340.1 23.5H339.3C339.3 18.4 339.3 14.6 339.7 9.4C339.3 9 339.3 8.5 338.4 8.5C336.7 12.3 336.7 18.3 337.5 23.4L336.7 23.8C334.6 18.2 336.3 11.9 335 6.7C333.7 9.7 333.7 12.7 333.3 15.7L334.1 24.2C332.8 23.8 332.8 22.1 332.4 21.2C332 17.4 332.4 14 331.5 10.1C328.5 10.1 331.1 13.1 329.8 14.8C329.8 18.2 331.1 22 331.5 25.9H330.6C328.5 19.9 328 13.1 327.6 7.10001C324.6 10.5 327.2 15.6 326.3 20.3C327.6 22.4 327.6 25 327.6 26.7C323.8 22.9 324.6 16 324.2 10.1C323.3 9.70001 323.3 10.5 322.9 10.9C322 16.9 322 23.3 324.6 28.8C320.8 24.5 320.8 17.7 320.3 11.3C319 11.7 319 13.9 318.6 15.1C318.2 19.8 319.5 23.2 320.7 27C316.9 23.6 316.9 17.6 317.7 12.1C318.5 11.2 318.5 9.1 320.3 8.7L320.7 9.10001C323.7 6.10001 327.5 4.40001 330.5 2.30001C334.1 1.20001 333.2 5.1 335.8 5.5Z" fill="#E03A3E"/>
<path fill-rule="evenodd" clip-rule="evenodd" d="M317 5.5C314 10.2 312.7 17.4 314.9 23.4C312.8 24.3 312.8 20.4 312.3 19.1C311.4 16.1 313.2 13.1 312.3 11.4C309.7 14.4 309.7 19.5 310.6 22.9C307.6 19.5 309.3 13.1 309.3 9.3C306.3 12.3 307.2 16.1 306.7 20.8C305.9 20.8 305.9 19.5 305.4 19.1C304.5 15.7 306.7 12.3 304.5 10.2C303.2 13.2 302.4 15.7 302.8 19.1C301.5 19.1 301.5 17.8 301.1 17.4C300.7 14.8 302.4 13.1 301.1 11C298.5 12.3 299.4 15.7 298.5 18.2C296.4 17.4 298.1 13.9 297.2 13.1C295.5 13.5 295.9 16.1 294.6 16.9L293.3 14.3C292.9 15.1 292 15.6 291.2 15.6C289.9 13.5 293.3 12.6 294.6 11.3C301.4 8.7 309.1 7.49999 315.5 4.89999L317 5.5Z" fill="#E03A3E"/>
<path fill-rule="evenodd" clip-rule="evenodd" d="M233.3 11.9C234.2 16.2 229.9 19.1 229 23.4C224.3 32.8 226.9 44.3 225.2 54.9C222.6 46 224.3 37.4 225.2 28.5C222.6 29.8 223.1 33.6 222.2 36.2C221.4 43 221.8 52 223.5 58.8L223.1 60.5C220.5 55.8 221.8 49.4 220.5 44.3C220.5 39.6 220.9 34.9 221.4 30.2C221.8 30.2 222.2 29.8 222.2 29.8C222.2 29.4 222.6 28.5 221.8 28.1C215.8 37.5 220.1 47.7 219.7 58.4C219.7 59.3 220.6 60.1 220.6 61L220.2 61.4C217.2 53.7 216.8 43.1 217.6 34.1C217.2 32 220.6 29.8 217.6 28.5C215.9 31.5 215.5 34.9 215 38.3C215 45.6 215 54.1 216.7 60.9C210.3 45.6 214.1 25.9 221.4 12.3C224.7 9.3 229.4 11.9 233.3 11.9Z" fill="#E03A3E"/>
<path fill-rule="evenodd" clip-rule="evenodd" d="M314.4 27.7C318.7 32.4 323.8 37.5 328.9 40.9C328.9 41.8 327.6 42.2 328.1 43L328.9 43.9L330.6 41.8C331.5 42.7 329.3 43.9 331.5 44.4L332.8 43.1C333.7 44 331.5 44.4 332.8 45.2C333.7 45.2 334.1 44.3 334.5 44.3C334.5 46 337.9 46.9 339.2 48.6C326.4 46 315.7 40.5 302 43.9L300.3 45.2C298.6 39.2 302.9 33.7 305.4 28.6V28.2C294.3 37.1 298.6 53.8 301.1 65.3C296.4 58.5 296.8 47.4 296.4 39.3C293.4 42.3 295.1 47.8 294.7 51.2C296 56.7 295.5 62.3 298.1 66.5C293.4 59.3 292.5 51.6 292.1 42.2L290.8 43.9C289.5 52 292.1 60.1 294.6 67.3H293.7C290.3 60 289.4 52.8 288.1 45.1C287.7 44.7 287.2 45.5 286.8 46C286.8 52 288.1 56.2 288.9 62.2L291.5 68.2C290.2 68.2 289.8 66.5 288.9 65.2C285.1 60.1 287.2 52 283.8 46.9C282.1 55 285.9 62.2 288.1 69.5C286.4 68.2 285.1 65.7 284.3 63.5C281.7 57.9 282.2 52.8 280.9 47.3C277.9 50.7 281.3 56.7 280.9 60.9C282.2 64.3 284.3 67.7 284.3 71.1C283.4 70.7 283 69.4 282.6 68.5C280 62.5 278.3 56.1 277.9 49.3C277 48.9 277.5 48 276.6 48C275.3 56.5 278.3 64.6 280.9 71.9C276.2 64.7 274.9 56.1 273.6 47.6L272.3 48.9C273.6 56.6 274.4 65.1 278.3 71.9C276.2 72.8 275.7 68.5 274.5 66.8C272.8 60.8 271.1 54.9 270.2 48.5H269.3C268.4 56.6 271.9 65.1 274.4 72.4C269.7 65.2 268.4 55.3 266.3 47.2C265.9 47.2 265.9 47.6 265.4 48.1C264.5 57.5 269.2 64.3 271.4 72C267.1 66.5 266.3 58.8 264.1 52C264.5 50.7 262.8 48.2 262.4 46.9C260.7 49 262.4 52 262.4 54.1C263.7 60.5 266.2 66 268 72C266.7 71.6 265.4 69.4 265 67.7C263.3 60.5 259.9 52.8 259.9 45.1C258.2 44.7 258.6 46.4 258.2 46.8C258.2 52.3 260.8 57.9 260.8 63.9C262.5 66.5 263.4 69.9 265.5 72.4C261.7 71.5 261.7 66.9 260 63.9C257.9 57.5 256.6 50.3 256.6 43.9C255.7 43.5 255.3 42.6 254.5 43.9C253.6 53.7 257.1 63.1 260.9 72C257.9 71.2 258.8 68.2 257.1 66.5C255.4 58 252 49.9 252.4 41.3C251.6 41.3 251.1 42.2 250.7 42.6C250.7 53.3 253.3 62.6 257.5 72H256.6C251.5 62.2 248.9 51.5 247.2 40.5H246.8C245.5 52.4 250.2 61.4 254.1 71.2L253.2 72C246.8 63.1 245.9 51.1 243.8 40C241.7 49.8 245.5 59.2 248.1 68.1C248.5 69 249.4 69.4 249 70.2C243.4 61.7 241.7 50.6 240.9 39.9C239.2 41.6 239.6 45 240.1 47.1C241.8 54.8 242.2 63.3 246.1 70.1C239.7 62.9 240.1 52.6 237.6 44.1C237.6 42.8 238.9 41.1 238 39.4C235 43.2 237.1 48.8 237.1 53.5C238.8 57.8 238.8 62.4 240.1 66.7C238.8 65.4 238.8 63.3 238 61.6C235.9 54.3 235 46.7 234.2 39C232.5 39.4 233.8 42 232.5 43.3C232.9 51 235.1 58.6 237.2 66.3C232.5 56.9 231.2 45 232.5 33.9C232.1 33.5 231.6 33 231.2 33C230.3 35.1 230.3 37.3 230.3 39.4C229.9 47.5 230.3 56 233.3 63.3C226 48.8 227.7 27.1 238.4 13C240.1 10.4 243.1 11.7 245.7 10.9C269.6 13.6 293.1 17.4 314.4 27.7Z" fill="#E03A3E"/>
<path fill-rule="evenodd" clip-rule="evenodd" d="M402 20C411 24.7 419.5 29.8 426.3 38.3C423.3 38.7 419.5 37.4 415.6 37.9C415.6 37 414.7 37 414.7 36.6C413.4 38.7 410.9 37.5 408.7 37.9C409.1 37 411.7 36.2 410.4 34.9C407.8 35.7 406.6 38.3 403.6 37.5C403.2 35.4 409.6 34.1 404.9 33.2C402.8 35.3 400.2 38.3 396.8 37L401.9 31.5C401 31.1 401 30.2 400.2 30.7C396.8 32.8 395.1 38.4 390.4 37.1C393.4 34.5 395.1 31.1 396.8 28.6C396.8 28.2 396.4 28.2 395.9 28.2C391.6 31.6 389.1 36.7 384.4 37.6V37C388.2 34 389.1 29.8 392.5 26.3L391.6 25.9C386.5 28.5 384.8 35.3 378.8 37.4L378.4 37C382.7 33.2 384.4 28.5 388.2 24.6H386.5C382.7 28.4 379.2 33.5 374.5 37C376.2 31.9 381.3 28.5 383.5 23.4C383.5 23 382.6 23 382.6 23L370.2 36.6C370.2 32.3 376.2 28.9 377.5 24.7C377.5 23.8 380.5 23 378.8 21.3C372.8 25.1 369.8 32.4 364.7 36.6C365.6 33.6 367.7 31.5 369.4 28.9C370.3 25.5 373.7 23.4 375.4 20C371.6 20.9 368.1 26 365.6 29.4C365.2 32 361.8 33.7 360.9 36.2C363.9 29.8 366.4 23.8 371.1 18.3C371.1 17.4 370.3 17.9 370.3 17.9C364.7 23.4 360.5 29.4 356.6 35.8L356.2 35.4C357.9 31.1 359.6 26.9 362.6 23C363.5 20.9 364.7 19.6 366 17.9L365.1 17.1C360 22.2 355.7 28.6 352.3 34.6C352.7 30.3 356.6 26.5 358.3 21.8C358.7 20.5 360.4 19.2 360.9 17.5C357.5 17.5 354.9 22.6 353.2 26C350.6 27.7 350.2 30.7 348.9 33.2C348.1 27.2 353.6 22.1 356.2 17L355.8 16.6C351.5 19.6 349 24.7 346.8 29C346.4 23.9 350.6 19.2 352.8 14.5C370.4 11.5 387.4 12.3 402 20Z" fill="#E03A3E"/>
<path fill-rule="evenodd" clip-rule="evenodd" d="M215.3 15.3C211 27.7 206.8 45.1 212.7 58.8V59.6H212.3C208.5 51.1 207.6 40.4 208 31C206.3 33.6 205.4 37.4 205.9 41.2C206.3 48 207.6 54.4 209.3 60.8C205.9 56.5 207.2 51 204.6 46.3L204.2 31.8C202.5 33.5 204.2 35.2 202.9 37.8C202.1 45.9 204.6 54.9 207.2 63H206.3C201.6 53.6 201.2 43.4 201.2 33.2C200.3 33.2 200.3 33.6 199.9 34.1C198.2 45.6 200.3 55 204.2 64.4C201.6 62.7 201.2 59.3 200.4 56.7C197 45.2 197.8 32 199.5 20.9C200.4 18.8 200.4 15.8 203.3 14.5C207.1 14.5 210.1 13.7 214 13.7L215.3 15.3Z" fill="#E03A3E"/>
<path fill-rule="evenodd" clip-rule="evenodd" d="M195.7 20C193.6 34.5 193.1 49.8 199.1 63.5H198.2C194.8 55.8 193.5 47.3 191.4 39.2L190.1 40.1C191 49 194.4 58 196.5 66.1C194.8 61.8 193.5 57.6 191.8 53.3C189.7 46.5 187.5 38.8 188.4 31.6C186.7 30.8 187.5 34.2 186.7 35.4C186.3 40.9 188.8 44.4 188 49.5C189.3 55.9 194 61.4 194 68.3C192.7 67 192.7 64.9 192.3 63.2C188.5 53 183.3 42.3 184.2 31.2C182.5 31.2 184.2 32.9 182.9 33.8C181.2 46.6 188.9 57.2 191.4 69.2H191C185 54.7 177.8 40.2 182 23.6C185.4 20.6 189.7 18.5 194.4 18.5L195.7 20Z" fill="#E03A3E"/>
<path fill-rule="evenodd" clip-rule="evenodd" d="M344.3 32.8C341.7 34.1 338.7 32.8 336.2 32.4L335.8 30.3L329.4 30.7C329.8 30.7 334.5 27.3 337.5 27.3C340.1 28.2 341.8 25.6 343.1 28.6C341.7 30.2 343.4 31.5 344.3 32.8Z" fill="white"/>
<path fill-rule="evenodd" clip-rule="evenodd" d="M179.9 48.6C181.6 55 184.2 59.7 186.7 66.1L186.3 66.5C182 57.6 176.1 49 176.1 38.4L175.2 38C173.1 49.9 181.2 59.3 185 70C181.2 63.2 176.5 55.9 173.9 48.3L172.6 49.6C174.7 57.7 179.9 64.5 182.8 72.2C178.5 65.4 173.8 57.3 170 50C169.6 50.4 169.6 51.3 169.6 52.1C170.9 55.1 172.2 58.5 173.9 61.5C176.5 65.8 179.9 69.6 181.2 74.3V74.7C175.2 65.7 167.5 57.2 166.3 46.1C163.7 38 172.7 33.7 177 28.6C177.8 34.9 176.5 43 179.9 48.6Z" fill="#E03A3E"/>
<path fill-rule="evenodd" clip-rule="evenodd" d="M307.6 30.7C304.6 34.1 302.9 38.8 302 42.6H300.7C301.6 37.9 303.7 33.6 307.6 30.7Z" fill="black"/>
<path fill-rule="evenodd" clip-rule="evenodd" d="M310.6 31.9C306.8 34.9 306.8 40.4 304.2 42.1C304.6 38.3 306.8 34.9 310.2 31.9H310.6Z" fill="black"/>
<path fill-rule="evenodd" clip-rule="evenodd" d="M313.6 32.4C312.7 35.8 309.3 38.4 308.5 41.8C306.8 40.5 310.2 38.4 310.2 36.7C311.4 35.3 312.3 33.2 313.6 32.4Z" fill="black"/>
<path fill-rule="evenodd" clip-rule="evenodd" d="M331.5 34.1C330.6 35.8 331.9 37.5 332.4 39.2C331.1 37.5 327.3 36.6 325.1 34.5C326.8 34.1 329.8 33.2 331.5 34.1Z" fill="#E03A3E"/>
<path fill-rule="evenodd" clip-rule="evenodd" d="M317.4 34.5C315.7 36.6 313.1 38.8 312.3 41.3H311.4C311.8 38.3 314.4 35.3 317.4 34.5Z" fill="black"/>
<path fill-rule="evenodd" clip-rule="evenodd" d="M415.6 40C422.4 41.3 428.8 40.4 435.7 42.6C419.9 41.7 399 40.5 382.8 42.2C381.9 43 382.4 43.9 382.4 44.3L380.7 43C366.2 42.2 350.4 43.4 336.7 40C335.4 39.1 333.7 37.9 334.6 35.7C361.4 40.5 388.7 40.5 415.6 40Z" fill="#E03A3E"/>
<path fill-rule="evenodd" clip-rule="evenodd" d="M318.7 37C317.8 38.7 316.1 39.6 315.7 41.7C315.3 40 316.6 37.9 318.3 36.6L318.7 37Z" fill="black"/>
<path fill-rule="evenodd" clip-rule="evenodd" d="M318.7 42.2C318.3 41.3 319.6 39.6 320.8 38.4C321.7 39.6 320 41.3 318.7 42.2Z" fill="black"/>
<path fill-rule="evenodd" clip-rule="evenodd" d="M322.1 43C321.7 42.6 322.5 40.9 323.8 40C324.2 41.3 322.5 42.2 322.1 43Z" fill="black"/>
<path fill-rule="evenodd" clip-rule="evenodd" d="M325.9 42.2C326.3 43.1 325.5 43.1 325 43.5V42.2H325.9Z" fill="black"/>
<path fill-rule="evenodd" clip-rule="evenodd" d="M387.4 44.3C386.1 45.2 386.1 47.3 384.4 46.9C384.9 45.6 385.7 43.9 387.4 44.3Z" fill="#E03A3E"/>
<path fill-rule="evenodd" clip-rule="evenodd" d="M392.6 44.3C391.3 45.6 390.9 47.3 388.8 48.1C388.7 46.4 390.9 45.1 392.6 44.3Z" fill="#E03A3E"/>
<path fill-rule="evenodd" clip-rule="evenodd" d="M398.5 44.3C396.8 46 394.2 48.6 392.1 50.3C392.6 47.3 395.6 43.9 398.5 44.3Z" fill="#E03A3E"/>
<path fill-rule="evenodd" clip-rule="evenodd" d="M404.1 44.3C401.1 47.3 398.5 49.4 396.4 52.8L395.6 52C398.1 49 399.8 44.3 404.1 44.3Z" fill="#E03A3E"/>
<path fill-rule="evenodd" clip-rule="evenodd" d="M408.8 44.3C405.8 46.9 404.5 51.1 400.7 53.2H399.8C401.5 49.8 404.1 46.4 407.5 44.3H408.8Z" fill="#E03A3E"/>
<path fill-rule="evenodd" clip-rule="evenodd" d="M414.8 44.3C410.5 47.7 407.5 52 403.7 55.4C405.4 51.5 409.6 45.1 414.8 44.3Z" fill="#E03A3E"/>
<path fill-rule="evenodd" clip-rule="evenodd" d="M420.3 44.3C416 48.6 411.8 51.5 408.3 56.7H407C410 52 413.4 48.2 417.7 44.3H420.3Z" fill="#E03A3E"/>
<path fill-rule="evenodd" clip-rule="evenodd" d="M409.6 57.9C416 53.6 418.1 46 425.4 44.3L409.6 59.6V57.9Z" fill="#E03A3E"/>
<path fill-rule="evenodd" clip-rule="evenodd" d="M322.5 46C321.2 46.8 318.2 46.8 316.5 47.3C315.2 49.9 313.9 52.8 310.5 53.3C307.9 53.3 304.1 54.2 302.8 51.2C301.9 49.1 302.4 46.1 304.5 45.2C310.1 44.3 316.5 45.6 322.5 46Z" fill="#E03A3E"/>
<path fill-rule="evenodd" clip-rule="evenodd" d="M352.8 45.1C352.8 45.1 352.8 46 352.4 46C352 46.4 352 46 351.6 46C351.6 45.1 352.4 45.1 352.8 45.1Z" fill="#E03A3E"/>
<path fill-rule="evenodd" clip-rule="evenodd" d="M357.5 45.1L355.8 47.7C354.9 47.3 355.8 45.6 356.6 45.1C356.7 44.7 357.1 45.1 357.5 45.1Z" fill="#E03A3E"/>
<path fill-rule="evenodd" clip-rule="evenodd" d="M439.5 55.8C440.4 58.4 440.8 61.3 442.5 64.3C436.5 67.3 431 70.7 425.8 74.5C427.1 71.5 430.9 69.4 433.5 66.8C435.6 65.1 438.6 63.8 440.3 61.7C433.9 62.1 428.8 67.7 423.2 71.9L424.1 69.3C428.8 65.5 433.5 60.8 438.6 58.2L437.3 56.9C431.3 59.9 425.8 64.1 420.6 68.8L420.2 68.4C424.9 62.4 430.9 58.6 436.4 53.5C436 52.7 435.1 53.5 434.7 53.1C428.3 55.7 423.2 62.1 417.2 66.3C421 59.5 428.3 55.2 433.9 50.5C431.3 49.2 428.8 52.6 426.2 53.5L415.5 64.2V63C420.6 57.5 424.9 51.9 430.4 47.2C430 46.8 429.5 46.8 428.7 46.8C423.1 51.1 418 55.8 412.9 61.7C416.3 55.7 421 49.8 427.4 45.1C434 43.9 437 51.5 439.5 55.8Z" fill="#E03A3E"/>
<path fill-rule="evenodd" clip-rule="evenodd" d="M361.4 46C360.1 47.3 359.7 49.4 358.4 51.1C358 49 358.8 46 361.4 46Z" fill="#E03A3E"/>
<path fill-rule="evenodd" clip-rule="evenodd" d="M312.3 48.6C311.9 49.9 311 52 309.3 52C307.6 52 306.3 51.1 305.5 49.9C305.5 48.2 306.4 47.3 307.2 46.5C309.3 45.6 311.4 46.9 312.3 48.6Z" fill="black"/>
<path fill-rule="evenodd" clip-rule="evenodd" d="M366.1 46C365.2 49 361.8 50.7 361.4 53.7C360.5 51.1 362.7 46.8 366.1 46Z" fill="#E03A3E"/>
<path fill-rule="evenodd" clip-rule="evenodd" d="M364.4 55.8C364.4 52.4 367.4 48.6 370.4 46C369.9 49.4 366.1 52.4 364.4 55.8Z" fill="#E03A3E"/>
<path fill-rule="evenodd" clip-rule="evenodd" d="M367.4 57.9C369.1 53.6 371.7 49.4 375.9 46C375.1 50.3 370.4 54.5 367.4 57.9Z" fill="#E03A3E"/>
<path fill-rule="evenodd" clip-rule="evenodd" d="M322.5 52C322.9 51.6 324.2 49.4 325.1 49.4C325.1 49.8 325.5 51.1 324.7 51.1C326.4 53.7 327.7 49.4 329.4 49.4C329 50.3 329 53.2 327.3 54.1C324.3 53.2 320 52.8 317.5 52.8C317.9 52.4 318.4 51.1 317.9 51.1H318.3C318.3 51.5 319.2 52 319.2 52C320.9 52 320.5 50.3 321.8 49.4C321.7 50.3 321.2 51.5 322.5 52Z" fill="#E03A3E"/>
<path fill-rule="evenodd" clip-rule="evenodd" d="M176 72C176.4 73.3 177.7 74.6 178.6 75.8C176.5 74.9 175.2 72 173 70.3C170 67.3 167.4 63.5 165.3 60.5C164.4 65.2 170 68.2 171.3 72.4C173.4 74.5 176.9 76.2 176 79.6C172.6 74.1 167.5 69.8 163.6 64.3V66.4C166.6 72.4 172.6 77.1 174.3 83C171.7 77.5 165.8 71.9 161.1 66.8C159 60.4 162 55.3 163.7 50.2C165.8 57.9 170.1 65.6 176 72Z" fill="#E03A3E"/>
<path fill-rule="evenodd" clip-rule="evenodd" d="M380.6 50.7C380.2 52.8 378 53.3 376.8 54.5L372.1 60.9C371.7 56.2 375.9 52.4 379.4 50.2C379.7 50.3 380.6 49.8 380.6 50.7Z" fill="#E03A3E"/>
<path fill-rule="evenodd" clip-rule="evenodd" d="M385.3 52.4C382.3 56.7 377.2 60.1 375 64.3C375 59.6 379.3 54.1 384.4 51.9L385.3 52.4Z" fill="#E03A3E"/>
<path fill-rule="evenodd" clip-rule="evenodd" d="M301.2 57.1L300.8 53.7C302.5 54.5 300.7 55.8 301.2 57.1Z" fill="#E03A3E"/>
<path fill-rule="evenodd" clip-rule="evenodd" d="M388.7 54.9C385.7 58.7 380.2 62.6 378 67.3H377.6C378.9 62.2 383.6 57.5 387.8 54.5L388.7 54.9Z" fill="#E03A3E"/>
<path fill-rule="evenodd" clip-rule="evenodd" d="M317.8 62.6C318.7 60.5 317.4 57.9 318.7 55.8C319.1 57.1 318.3 60.5 319.5 61.8C322.5 61.8 320.8 57.5 322.5 56.3C324.2 56.7 320.8 60.6 323.8 61.8C325.9 61 324.7 58 325.9 56.7C329.7 64.4 320.4 61 316.9 63.5C314.8 63.5 314.8 60.9 313.9 59.7L314.8 55.4C315.7 57.9 314.4 61.3 317.8 62.6Z" fill="#E03A3E"/>
<path fill-rule="evenodd" clip-rule="evenodd" d="M304.6 55.8C304.2 58.4 306.3 60.5 306.3 63.5C304.6 60.9 303.7 58.4 303.7 55.8H304.6Z" fill="#E03A3E"/>
<path fill-rule="evenodd" clip-rule="evenodd" d="M312.3 55.8C311.4 58.4 311.4 61.3 313.2 63.9C312.3 64.7 309.8 65.2 308.5 65.2H308.9C309.3 62.2 306.3 58.8 308.5 56.3C308.5 58.9 308.5 62.7 310.6 64C312.3 61.3 309.3 57.5 312.3 55.8Z" fill="#E03A3E"/>
<path fill-rule="evenodd" clip-rule="evenodd" d="M302 59.6L301.6 57.9L302 58.4V59.6Z" fill="#E03A3E"/>
<path fill-rule="evenodd" clip-rule="evenodd" d="M391.3 58.4C387.9 61.8 382.8 65.6 381 70.3C381.4 65.2 385.7 59.6 390.8 58.4H391.3Z" fill="#E03A3E"/>
<path fill-rule="evenodd" clip-rule="evenodd" d="M349.9 66C382.4 80.9 410.5 105.7 443.4 119.3C429.7 115 416.1 106.9 402.8 99.3C392.1 93.3 381.4 86.1 370.3 79.3C357.5 72.5 344.2 65.2 329.7 61.4C328.8 60.6 329.7 59.7 330.1 58.4C336.6 61.8 343.4 61.8 349.9 66Z" fill="#E03A3E"/>
<path fill-rule="evenodd" clip-rule="evenodd" d="M393.8 60.9C390.4 65.2 386.1 68.6 383.5 72.8C384.9 68.6 388.3 62.2 393.8 60.9Z" fill="#E03A3E"/>
<path fill-rule="evenodd" clip-rule="evenodd" d="M326.8 64.3C325.1 65.2 323.4 66 321.7 66.9C322.1 64.8 325.1 64.3 326.8 64.3Z" fill="#E03A3E"/>
<path fill-rule="evenodd" clip-rule="evenodd" d="M396 64.3C392.6 68.1 390 72 387 75.4C387.4 70.7 391.3 65.2 396 64.3Z" fill="#E03A3E"/>
<path fill-rule="evenodd" clip-rule="evenodd" d="M227.3 65.2H225.6C225.6 63.9 227.3 64.3 227.3 65.2Z" fill="#E03A3E"/>
<path fill-rule="evenodd" clip-rule="evenodd" d="M203.8 77.1H203.4L202.5 71.1C199.5 71.5 202.1 75.8 200.4 77.9C199.5 75.3 199.5 71.9 199.5 68.5C195.7 70.2 197.8 73.6 197.8 77C195.7 76.1 198.2 69.3 194.4 71.9V77C192.7 76.6 194.8 72.7 191.8 73.2C190.5 75.3 191.8 77.5 192.2 79.6C190.5 78.3 191.3 75.3 190.5 73.2C193.9 71.9 197.3 69.4 199.9 66.4C201.2 66.8 201.6 69.4 203.3 68.1L207.1 66C207.6 69.4 207.6 75 203.8 77.1Z" fill="#E03A3E"/>
<path fill-rule="evenodd" clip-rule="evenodd" d="M318.7 70.3C318.3 69.4 318.7 67.3 319.1 66C319.5 67.3 320.8 70.3 318.7 70.3Z" fill="#E03A3E"/>
<path fill-rule="evenodd" clip-rule="evenodd" d="M315.7 71.1C315.3 69.8 315.7 67.7 317 66.4C316.1 67.7 317 69.9 315.7 71.1Z" fill="#E03A3E"/>
<path fill-rule="evenodd" clip-rule="evenodd" d="M324.2 69.4C323.3 68.5 325.5 66.8 326.3 66.4H326.7L324.2 69.4Z" fill="#E03A3E"/>
<path fill-rule="evenodd" clip-rule="evenodd" d="M226 67.7H223.4C223.4 66 225.2 67.3 226 67.7Z" fill="#E03A3E"/>
<path fill-rule="evenodd" clip-rule="evenodd" d="M312.7 70.3C311.8 69.4 312.7 67.3 313.6 66.9C314.4 68.2 312.7 69 312.7 70.3Z" fill="#E03A3E"/>
<path fill-rule="evenodd" clip-rule="evenodd" d="M443 67.3V68.1C439.2 71.1 434.5 72.4 430.6 75.8L428.5 76.2C432.8 72.4 437.5 69 442.6 66.8L443 67.3Z" fill="#E03A3E"/>
<path fill-rule="evenodd" clip-rule="evenodd" d="M310.1 68.6C309.2 68.6 308.8 68.6 308.8 67.8H310.1V68.6Z" fill="#E03A3E"/>
<path fill-rule="evenodd" clip-rule="evenodd" d="M398.1 67.7C395.1 71.1 392.5 74.1 390.4 77.9C390.8 73.7 394.3 69.4 398.1 67.7Z" fill="#E03A3E"/>
<path fill-rule="evenodd" clip-rule="evenodd" d="M304.6 68.6C302.9 67.8 302.5 69.9 300.8 69.5C301.6 69 303.3 68.2 304.6 68.6Z" fill="#E03A3E"/>
<path fill-rule="evenodd" clip-rule="evenodd" d="M336.6 75C336.2 75 335.7 74.1 335.3 73.7C335.3 75 334 75.4 333.2 76.3L332.8 75.9L334.5 73.8C334.1 73.4 333.7 72.9 332.8 72.9C332.4 74.2 331.5 75 330.2 75.5C330.6 75.1 331.9 73.4 332.3 72.1L331.5 71.2C330.2 72.1 328.9 72.9 327.7 73.3C328.1 72.9 329.8 72 329.8 70.3C328.5 69.4 327.2 70.7 326 71.1L328.1 68.5L336.6 74V75Z" fill="#E03A3E"/>
<path fill-rule="evenodd" clip-rule="evenodd" d="M223.9 70.3H221.3V69.9C222.2 69.9 223.4 69.4 223.9 70.3Z" fill="#E03A3E"/>
<path fill-rule="evenodd" clip-rule="evenodd" d="M299.5 69.9C299.1 70.3 298.6 69.9 298.2 70.3C298.2 69.4 299 69.9 299.5 69.9Z" fill="#E03A3E"/>
<path fill-rule="evenodd" clip-rule="evenodd" d="M402 69.9C399.9 73.3 396.4 76.3 393.9 79.3C395.5 75.8 397.3 70.7 402 69.9Z" fill="#E03A3E"/>
<path fill-rule="evenodd" clip-rule="evenodd" d="M295.2 71.1L295.6 70.3L296.9 71.1H295.2Z" fill="#E03A3E"/>
<path fill-rule="evenodd" clip-rule="evenodd" d="M302 72C297.3 72.4 291.3 74.6 286.6 78C285.3 80.1 283.2 80.1 281.5 81.8C282.4 78.4 286.2 77.5 288.3 75.4C290.4 74.6 292.1 73.3 294.3 72L292.6 71.1C296 73.7 298.6 69.9 302 72Z" fill="#E03A3E"/>
<path fill-rule="evenodd" clip-rule="evenodd" d="M443.8 72C440.4 75.8 435.7 76.7 431.8 78.8C434.8 75 439.1 73.3 442.9 71.1L443.8 72Z" fill="#E03A3E"/>
<path fill-rule="evenodd" clip-rule="evenodd" d="M171.8 84.8C169.7 82.7 167.5 79.7 164.5 77.1C163.6 77.5 164.5 78.4 164.1 78.8C166.2 81.4 170.5 83.9 170.1 87.7C168.8 87.7 169.7 86 168.8 85.6C165.4 81.8 161.1 77.9 161.1 72C164.9 75.8 170.1 80.1 171.8 84.8Z" fill="#E03A3E"/>
<path fill-rule="evenodd" clip-rule="evenodd" d="M221.7 72.9C221.3 72.9 220.4 72.9 220.4 73.3L220 72.9C220.5 72.9 221.3 71.6 221.7 72.9Z" fill="#E03A3E"/>
<path fill-rule="evenodd" clip-rule="evenodd" d="M291.8 72C291.4 72.9 290.5 72.4 290.1 72.4C290.1 72 290.9 72.4 291.8 72Z" fill="#E03A3E"/>
<path fill-rule="evenodd" clip-rule="evenodd" d="M241 73.3C241 74.1 238.9 73.3 238.4 74.1C238.8 73.3 240.1 72.4 241 73.3Z" fill="#E03A3E"/>
<path fill-rule="evenodd" clip-rule="evenodd" d="M288.8 72.9C287.1 72.9 286.2 75 284.5 74.2C285.8 73.7 287.1 72.9 288.8 72.9Z" fill="#E03A3E"/>
<path fill-rule="evenodd" clip-rule="evenodd" d="M403.7 72.9C401.6 75.9 399.4 79.3 396.9 81.8C398.1 78.4 400.2 74.6 403.7 72.9Z" fill="#E03A3E"/>
<path fill-rule="evenodd" clip-rule="evenodd" d="M302.9 74.1V74.5C296.1 76.6 289.7 79.6 284.5 84.7C286.2 80.9 291.8 77.4 296 75.3C298.2 74.1 300.7 74.1 302.9 74.1Z" fill="#E03A3E"/>
<path d="M224.7 73.3H224.3V74.1H224.7V73.3Z" fill="#E03A3E"/>
<path fill-rule="evenodd" clip-rule="evenodd" d="M283.7 74.6C283.3 75.5 282.4 75 282 75C282.4 74.1 283.2 74.6 283.7 74.6Z" fill="#E03A3E"/>
<path fill-rule="evenodd" clip-rule="evenodd" d="M241.8 75.8V76.7C240.5 75.8 239.2 76.7 238 77.1C238.8 75.8 240.5 74.6 241.8 75.8Z" fill="#E03A3E"/>
<path fill-rule="evenodd" clip-rule="evenodd" d="M400.7 83.5C399.8 80.5 402.8 77.5 405.4 75.4C405.4 78 402.4 80.5 400.7 83.5Z" fill="#E03A3E"/>
<path fill-rule="evenodd" clip-rule="evenodd" d="M443.8 75.8C443.8 79.2 440 78.4 438.2 80.5C436.5 80.9 434.4 83.1 432.6 82.6C435.7 79.7 440 78 443.8 75.8Z" fill="#E03A3E"/>
<path fill-rule="evenodd" clip-rule="evenodd" d="M259.3 77.1C260.6 75.4 263.6 76.2 265.3 76.7C264 87.4 276.8 92.1 275.6 102.7C280.3 107.8 284.1 113.4 284.6 120.6C283.7 121.9 281.6 121.4 280.8 121C275.7 115.5 274 108.2 268.4 102.7C266.7 100.6 268.4 97.6 267.1 95.5C262 89.5 258.1 83.6 256.4 76.3C257.6 76.7 258.5 78 259.3 77.1Z" fill="black"/>
<path fill-rule="evenodd" clip-rule="evenodd" d="M303.7 77.1C297.7 79.7 291.7 82.6 286.6 88.2C287 86.5 288.7 83.9 290.9 83.1C294.8 79.7 298.6 77.5 303.7 77.1Z" fill="#E03A3E"/>
<path fill-rule="evenodd" clip-rule="evenodd" d="M224.3 90.3C224.3 92.9 224.3 95.8 225.6 98C222.6 98.4 223.5 95 222.6 92.5C220 88.2 219.6 83.1 218.8 78C220.1 77.6 220.9 77.2 221.4 78.9C221.7 83.1 222.2 86.9 224.3 90.3Z" fill="#E03A3E"/>
<path fill-rule="evenodd" clip-rule="evenodd" d="M403.7 85.2C403.7 82.6 406.7 79.7 408.8 77.1C407.9 80.1 405.4 82.7 403.7 85.2Z" fill="#E03A3E"/>
<path fill-rule="evenodd" clip-rule="evenodd" d="M242.7 78.4C242.3 80.5 240.6 78 240.1 80.1L239.2 79.3C240.1 78.8 241.4 76.7 242.7 78.4Z" fill="#E03A3E"/>
<path fill-rule="evenodd" clip-rule="evenodd" d="M263.6 78.4L260.2 79.3C260.2 77.1 262.3 78 263.6 78.4Z" fill="#E03A3E"/>
<path fill-rule="evenodd" clip-rule="evenodd" d="M407.5 86.5C407.1 84.4 409.6 80.5 412.2 79.3L407.5 86.5Z" fill="#E03A3E"/>
<path fill-rule="evenodd" clip-rule="evenodd" d="M309.3 82.2C302.9 84.3 296.1 88.2 291.4 93.7C294.4 88.6 300.4 85.2 305.5 82.2C305.5 81.3 305.1 80.9 304.7 80.9C301.7 81.3 299.6 83 297.4 84.3L290.6 91.1L290.2 90.3C294.8 85.2 301.6 76.7 309.3 82.2Z" fill="#E03A3E"/>
<path fill-rule="evenodd" clip-rule="evenodd" d="M264.9 81.8C264.9 83.1 264.9 84.4 266.2 84.8C264.9 85.2 263.6 86.1 261.9 86.1C261.9 84 267 84.8 264 82.3L260.6 82.7C261 81.4 261.9 81.4 262.7 81C263.6 81 264 81 264.9 81.8Z" fill="#E03A3E"/>
<path fill-rule="evenodd" clip-rule="evenodd" d="M443.8 81C441.7 84 437.8 84.8 434.4 86.1V85.2C437.4 83.9 440.4 81.8 443.8 81Z" fill="#E03A3E"/>
<path fill-rule="evenodd" clip-rule="evenodd" d="M410.5 88.2C411.4 85.6 412.6 83.1 414.8 81.4C413.9 83.1 412.6 86.5 410.5 88.2Z" fill="#E03A3E"/>
<path fill-rule="evenodd" clip-rule="evenodd" d="M414.3 88.6C413.4 86.9 416.4 84.3 417.3 83.1C416.9 84.8 415.6 87.4 414.3 88.6Z" fill="#E03A3E"/>
<path fill-rule="evenodd" clip-rule="evenodd" d="M248.2 87.4C250.8 92.5 249.9 98.1 252.5 102.7C250.8 102.7 249.9 102.3 248.2 103.1L249.9 101L246.9 100.6C248.2 100.2 249.5 100.2 249.5 98.5C248.6 97.7 247.8 99.4 246.5 98.1C246.5 96.8 249.1 97.2 248.6 95.5L245.6 95.1C246.5 94.2 247.7 93.8 247.7 92.1L245.6 91.7C246 90.8 247.7 91.3 246.9 90C246.5 89.1 245.6 89.6 244.8 89.6L246.5 87.5C245.6 86.6 244.4 87.1 243.5 87.1L245.2 85C244.3 83.3 243.5 85.4 242.2 84.6C244.8 81.4 246.9 85.2 248.2 87.4Z" fill="#E03A3E"/>
<path fill-rule="evenodd" clip-rule="evenodd" d="M313.6 84.4C313.6 85.3 314 85.3 314.5 85.7C315.3 84.9 316.2 84.9 317.5 85.7C307.7 89.5 297.4 96.4 291.5 105.3C294.5 97.6 301.3 91.7 309 88.7C309.8 86.6 312.4 87.8 312.4 85.3C304.3 86.6 297.9 93 291.5 98.5C296 90.8 304.6 83.9 313.6 84.4Z" fill="#E03A3E"/>
<path fill-rule="evenodd" clip-rule="evenodd" d="M443.4 85.2C441.7 87.8 438.7 89.5 435.7 89.5C438.3 87.8 440.8 86.5 443.4 85.2Z" fill="#E03A3E"/>
<path fill-rule="evenodd" clip-rule="evenodd" d="M419.9 85.6C419.5 87.3 417.8 89 416.5 90.3C416.9 88.6 417.3 86.1 419.9 85.6Z" fill="#E03A3E"/>
<path fill-rule="evenodd" clip-rule="evenodd" d="M267 87.8C267 88.7 265.3 88.7 264.4 89.1L264 88.7L266.1 86.6L267 87.8Z" fill="#E03A3E"/>
<path fill-rule="evenodd" clip-rule="evenodd" d="M168.4 91.2C168 89.9 166.3 89.1 167.1 87.4C167.9 88.2 168.4 89.9 168.4 91.2Z" fill="#E03A3E"/>
<path fill-rule="evenodd" clip-rule="evenodd" d="M422.5 87.4C422.9 88.7 421.2 90 420.4 91.2H420C420.3 89.5 421.2 88.2 422.5 87.4Z" fill="#E03A3E"/>
<path fill-rule="evenodd" clip-rule="evenodd" d="M320 88.2C318.7 90.3 314.9 90.8 312.3 92.5C305.5 96.3 298.6 102.3 293.9 108.7H294.3V109.1H293.9C293.5 104.8 298.6 101.9 300.7 98.4C305.8 94.1 311.4 90.7 317.4 87.7L320 88.2Z" fill="#E03A3E"/>
<path fill-rule="evenodd" clip-rule="evenodd" d="M424.2 91.2H423.3L425 88.6C425.4 89.1 424.6 90.3 424.2 91.2Z" fill="#E03A3E"/>
<path fill-rule="evenodd" clip-rule="evenodd" d="M268.3 90.3C267.4 90.3 267 92 266.2 91.2C266.2 90.3 267.4 89.5 268.3 90.3Z" fill="#E03A3E"/>
<path fill-rule="evenodd" clip-rule="evenodd" d="M428 89.9C428 90.3 427.6 90.3 427.6 90.3V89.9H428Z" fill="#E03A3E"/>
<path fill-rule="evenodd" clip-rule="evenodd" d="M327.2 97.2C330.2 95.5 332.7 92.1 336.2 90.4H336.6C335.7 92.5 330.6 94.2 332.3 97.2C334.4 95.1 337.4 92.1 340.4 90.4C339.1 93 335.3 95.1 336.1 98.1L344.2 90.4L344.6 91.2C343.3 93.3 339.5 95.5 340.3 98.4C343.3 97.1 345 92.9 348.4 91.2C347.5 94.2 343.3 96.3 344.1 99.3C346.7 97.6 348.4 95 350.5 92.9C350.9 92.1 351.8 92.1 352.6 92.1C351.3 95.1 348.8 97.2 347.1 100.2L348 101.1C350.6 98.5 352.7 95.1 356.1 92.6C355.3 96.4 350.5 98.6 351.4 102.4C353.5 101.1 354.8 98.1 356.5 96C357.4 95.1 358.6 93.4 359.9 93.4C358.2 96.4 355.6 100.2 355.2 103.2C357.3 103.2 358.2 100.2 358.6 98.5C360.3 97.2 361.2 94.7 363.3 94.2C361.6 98 358.2 101.9 358.2 105.7H359C361.1 102.3 362.4 98.5 365.4 95.5C367.1 98.9 363.3 101.9 362.4 105.3C361.6 109.1 359 113.4 363.3 116.4C369.7 118.5 375.7 117.7 381.7 120.2C389.8 121.1 400.5 121.9 407.8 119.3C412.9 119.7 418.5 118.9 423.2 117.2C425.8 121.5 425.8 128.3 424.1 132.5C423.2 128.7 422.8 124 421.5 119.7H420.7C419.8 124 421.1 130.8 420.3 135.5H419.4C420.3 129.5 418.6 124.8 416.4 120.6C416 125.7 416.8 132.5 415.6 137.2L414.7 136.4C415.1 131.7 413.8 126.2 412.6 121.9H412.2C411.8 127.9 413.5 133.8 410.9 139.4C410.1 134.3 409.6 127.9 408.8 123.2H408.4C406.7 128.7 409.7 136.4 406.3 141.1C405 135.6 405.4 132.2 405.4 126.2C406.3 125.3 405.8 124.5 405.8 123.2C405.8 123.2 405.4 122.8 404.9 123.2C403.6 124.9 403.2 127.9 403.6 130C401.9 134.7 404.5 139.4 401.5 142.4C399.8 136.4 402.8 129.2 400.7 124.1C398.6 125 400.3 127.9 398.6 129.2C397.3 133.5 399.9 140.7 396.5 144.1C396.5 138.5 397.4 130.5 397.4 124.5C397 124.5 396.5 124.9 396.1 125.3C394.8 131.7 395.3 138.5 392.7 144.5H391.9C392.3 139 393.2 131.3 394 125.3C393.6 124.9 393.6 124.5 392.7 124.5C390.6 128.3 390.1 133 389.7 137.3C388.4 139.9 389.7 144.5 387.1 146.3C387.5 141.6 388 134.8 388.8 130.1L388 129.2C384.6 134.3 384.6 141.1 382.9 147.1L382.5 146.3C382.1 138.6 384.6 131.4 384.6 125C384.2 125 383.7 125.4 383.7 125.8C382.4 132.6 379.4 138.2 379 145C378.6 146.3 378.6 147.6 377.7 148.4C377.3 139.9 380.3 133.5 380.3 125.4C376 130.1 376.9 136.9 374.7 142.5C373 144.2 374.3 148.1 371.7 148.5C373 140 376.4 132.7 376.8 124.6C373 128.4 372.5 134.4 370.4 139.1C369.1 142.1 369.1 146.8 366.1 148.5C368.2 140.4 370.4 132.7 372.5 124.6C369.5 124.2 370.4 128.9 368.7 130.6C369.1 132.7 367 133.2 367 134.9C364.9 139.2 364.9 145.1 361 148.1C362.3 139.6 367.4 131.9 367.8 123.4C367.4 124.7 365.7 125.1 365.2 126.8C362.2 134 360.5 141.3 356.2 148.1C355.8 143 358.8 138.3 359.6 133.2C361.3 129.8 362.6 126 362.6 122.5C359.2 128.5 355.8 135.7 353.6 142.5C351.9 143.8 353.6 146.8 350.6 146.8C352.7 139.1 355.7 131.9 358.3 124.6C358.7 123.7 361.3 122.9 359.6 121.6C354 128.8 351.1 137.4 346.8 145.5C347.7 137.4 351.5 129.3 355.3 122.1L354.9 121.7C349.3 128.5 345.9 136.6 342.9 144.7C343.3 136.6 347.6 128.9 350.6 121.3V120.4H349.7C345.4 127.6 341.6 134.9 338.2 142.6C338.2 133.7 344.2 126.4 347.2 118.7C347.2 118.7 346.8 118.3 346.4 118.3C341.3 125.5 337.4 132.8 334 140.5C333.6 140.5 333.1 140.1 332.7 139.6C336.1 131.9 338.7 123.8 343.4 117.4H342.6C337.5 123.8 332.8 131.5 328.5 138.3C329.8 131.5 334.5 125.5 337.5 118.7C338.3 117.9 339.6 116.6 339.2 115.3L338.8 114.9C333.7 121.3 327.7 127.7 325.1 135.8L324.7 136.2C326.4 128.1 330.7 120.4 335.4 113.2C332.8 113.2 331.6 117.5 329.9 119.2C326.1 123.9 323.1 129 320.5 134.1H319.6C322.2 125.6 327.3 118.8 331.6 111.1L330.7 110.7C324.7 116.7 320.4 125.2 316.2 132.4C317.5 124.3 323.9 116.6 328.2 109.4L327.8 109C321 115 316.7 122.6 312.8 130.3H312.4C315.4 121.8 320.1 114.5 324.8 106.9L324.4 106C318.4 112.4 314.1 119.6 309.9 126.5C311.6 119.3 317.6 111.6 322.7 104.3C322.3 103.9 321.4 104.3 321 104.3C315.4 110.3 310.3 117.5 306.5 124.8C308.6 116.3 314.6 109 320.2 101.8C319.4 100.5 318.9 102.2 318.5 102.2C312.9 108.2 308.7 115 304.4 121.8C303.5 118 308.7 115.4 308.7 111.1C314.7 104.3 320.2 97 326.6 91.5C325.7 93.2 323.6 95.3 324 97.5C327 95.8 328.3 91.5 331.7 90.7C331.1 91.6 326.8 94.6 327.2 97.2Z" fill="#E03A3E"/>
<path fill-rule="evenodd" clip-rule="evenodd" d="M438.3 94.2L437.4 93.3C437.8 92 440 92 440.8 91.2C441.7 91.6 439.5 93.3 438.3 94.2Z" fill="#E03A3E"/>
<path fill-rule="evenodd" clip-rule="evenodd" d="M300.7 118.5C302 116.4 302.4 114.2 303.3 111.7C306.3 107 310.6 103.2 314 98.5H312.3C307.2 104 300.8 107.9 298.6 114.7H297.7C300.3 107 307.1 98.5 314.8 97.2L322.1 91.7C314.4 100.6 306.7 109.1 300.7 118.5Z" fill="#E03A3E"/>
<path fill-rule="evenodd" clip-rule="evenodd" d="M275.1 105.7L274.7 106.1L273.4 104.8L273.8 104.4C273.4 103.1 272.5 104 271.7 103.1C271.7 102.7 272.6 101.8 272.6 101.4C270 101 273.5 98.4 270.5 98.4L271.3 97.1L269.6 96.2C270 95.3 270.9 95.3 270.5 94.5C270.1 93.6 269.2 94.1 268.8 94.1C269.2 93.2 271.8 92 272.2 94.1C271.7 98.9 274.3 101.8 275.1 105.7Z" fill="#E03A3E"/>
<path fill-rule="evenodd" clip-rule="evenodd" d="M175.2 101C176.9 105.7 179.5 110.8 177.8 115.9C176.1 108.6 174.8 100.5 172.7 93.3C173.9 95.5 174.3 98.4 175.2 101Z" fill="#E03A3E"/>
<path fill-rule="evenodd" clip-rule="evenodd" d="M396.8 99.3C399.8 101.9 396.4 105.7 396.8 108.7C396.4 109.6 396.4 110.4 395.5 110.8C394.2 108.2 395.5 104.4 395.9 101.4C395.1 101 395.1 100.1 394.2 100.5C392.1 103.9 393.3 109 390.4 111.2C390.4 108.2 390.8 103.5 391.3 100.5C389.2 101.4 388.7 104.3 388.7 106.5C387 108.2 388.7 112.5 385.3 112.5C386.2 109.1 387 104 387.9 100.1C385.8 100.9 384.9 103.5 384.5 105.2C384.1 108.2 383.2 111.2 381.1 112.4C381.5 108.6 383.7 103.9 383.7 100C380.7 101.3 380.7 105.5 379.4 108.1C379 109.8 378.1 111.5 376.8 113.2C375.9 108.9 379.8 103.8 378.9 99.1C375.5 102.9 375.1 108.5 372.5 113.2H371.6C372 108.5 374.2 103.8 376.3 99.1C373.3 98.7 373.3 102.5 371.6 104.2C371.6 107.6 369 110.2 368.2 113.2C367.8 107.6 372 103.4 371.6 98.3C368.2 101.7 367.3 107.3 364.8 111.5C363.5 110.6 365.2 106.8 366.1 104.7C367 102.1 369.1 99.2 370.4 97C378.5 96.3 387.9 98.4 396.8 99.3Z" fill="#E03A3E"/>
<path fill-rule="evenodd" clip-rule="evenodd" d="M175.2 121.5C174.3 113.4 172.6 105.7 170.9 98.1C172.6 105.7 176.5 112.5 175.2 121.5Z" fill="#E03A3E"/>
<path fill-rule="evenodd" clip-rule="evenodd" d="M421.6 105.7C418.6 105.3 420.3 103.6 419 102.3L416.9 104C417.3 99.3 413.1 102.7 411.8 99.7C414.8 101.8 422.5 100.1 421.6 105.7Z" fill="#E03A3E"/>
<path fill-rule="evenodd" clip-rule="evenodd" d="M228.1 108.2L230.2 111.2C227.6 109.9 225.1 104.8 225.1 101.4C227.3 102.7 227.3 105.7 228.1 108.2Z" fill="#E03A3E"/>
<path fill-rule="evenodd" clip-rule="evenodd" d="M400.7 110.8C400.3 111.2 399.8 112.1 399.4 111.7C399 108.7 400.3 105.3 400.7 101.9C404.1 103.6 400.7 107.8 400.7 110.8Z" fill="#E03A3E"/>
<path fill-rule="evenodd" clip-rule="evenodd" d="M426.3 107.4C425.4 108.3 424.6 107.4 423.7 106.5L423.3 103.1C425.4 103.5 425.9 105.7 426.3 107.4Z" fill="#E03A3E"/>
<path fill-rule="evenodd" clip-rule="evenodd" d="M406.2 105.3C405.3 107.4 406.2 110.4 404.1 111.3C403.2 109.2 405 105.8 405 104.1L406.2 105.3Z" fill="#E03A3E"/>
<path fill-rule="evenodd" clip-rule="evenodd" d="M171.3 109.5L170.1 105.3L171.3 109.1V109.5Z" fill="#E03A3E"/>
<path fill-rule="evenodd" clip-rule="evenodd" d="M429.7 107.8V109.1C428 110 428.4 107 428 105.7C428.9 106.1 429.7 106.5 429.7 107.8Z" fill="#E03A3E"/>
<path fill-rule="evenodd" clip-rule="evenodd" d="M253.3 112.5C252.4 114.2 252.9 116.3 253.3 118C250.7 116.3 250.7 109.9 249.9 106.5C252.9 106.5 252.1 110.4 253.3 112.5Z" fill="#E03A3E"/>
<path fill-rule="evenodd" clip-rule="evenodd" d="M409.6 110.4C409.2 110.4 408.7 111.3 408.3 110.8L408.7 106.5C410.9 106.5 409.6 109.1 409.6 110.4Z" fill="#E03A3E"/>
<path fill-rule="evenodd" clip-rule="evenodd" d="M434 109.1C433.1 109.5 432.7 110 431.9 110L431.5 107.4L434 109.1Z" fill="#E03A3E"/>
<path fill-rule="evenodd" clip-rule="evenodd" d="M413.5 109.5C413.5 109.9 413.1 110.4 412.6 110.4L412.2 108.7C412.6 108.2 413.1 109.1 413.5 109.5Z" fill="#E03A3E"/>
<path fill-rule="evenodd" clip-rule="evenodd" d="M281.5 117.6C279.8 114.6 276.8 111.6 276.4 109.1C279.4 111.6 280.7 114.2 281.5 117.6Z" fill="#E03A3E"/>
<path fill-rule="evenodd" clip-rule="evenodd" d="M439.5 109.9C440.4 110.8 439.9 112.5 439.9 113.7H438.2C439.1 112.1 436.5 109.9 439.5 109.9Z" fill="#E03A3E"/>
<path fill-rule="evenodd" clip-rule="evenodd" d="M416.5 110.8L415.6 110.4H416.5V110.8Z" fill="#E03A3E"/>
<path fill-rule="evenodd" clip-rule="evenodd" d="M436.5 111.2C436.5 112.1 435.6 112.1 435.6 112.5C434.7 112.5 434.7 112.5 434.7 112.1C435.3 111.7 435.7 110.8 436.5 111.2Z" fill="#E03A3E"/>
<path fill-rule="evenodd" clip-rule="evenodd" d="M172.2 124L171.3 123.2V113.4C172.2 116.3 173.1 120.6 172.2 124Z" fill="#E03A3E"/>
<path fill-rule="evenodd" clip-rule="evenodd" d="M428.9 117.2C428.9 121.5 429.8 126.6 428 130C427.2 126.2 428 120.6 425.4 117.2C426.3 115.5 428 116.3 428.9 117.2Z" fill="#E03A3E"/>
<path fill-rule="evenodd" clip-rule="evenodd" d="M431.9 126.6L431.5 127L430.2 117.2C434 118.9 431.9 124 431.9 126.6Z" fill="#E03A3E"/>
<path fill-rule="evenodd" clip-rule="evenodd" d="M437 121L434.9 124L434.5 119.7C435.3 120.2 436.5 119.8 437 121Z" fill="#E03A3E"/>
<path fill-rule="evenodd" clip-rule="evenodd" d="M389.6 126.6C387.9 127 389.2 128.7 388.3 129.2L388.7 124.9C389.6 124.9 389.1 126.1 389.6 126.6Z" fill="black"/>
</svg>
