<?xml version="1.0" encoding="UTF-8" standalone="no"?>
<!-- Created with Inkscape (http://www.inkscape.org/) -->
<svg
   xmlns:dc="http://purl.org/dc/elements/1.1/"
   xmlns:cc="http://creativecommons.org/ns#"
   xmlns:rdf="http://www.w3.org/1999/02/22-rdf-syntax-ns#"
   xmlns:svg="http://www.w3.org/2000/svg"
   xmlns="http://www.w3.org/2000/svg"
   xmlns:sodipodi="http://sodipodi.sourceforge.net/DTD/sodipodi-0.dtd"
   xmlns:inkscape="http://www.inkscape.org/namespaces/inkscape"
   width="210.18358"
   height="104.39582"
   id="svg2"
   sodipodi:version="0.32"
   inkscape:version="0.46"
   version="1.0"
   sodipodi:docname="Sonic Drive-In logo.svg"
   inkscape:output_extension="org.inkscape.output.svg.inkscape">
  <defs
     id="defs4">
    <inkscape:perspective
       sodipodi:type="inkscape:persp3d"
       inkscape:vp_x="0 : 526.18109 : 1"
       inkscape:vp_y="0 : 1000 : 0"
       inkscape:vp_z="744.09448 : 526.18109 : 1"
       inkscape:persp3d-origin="372.04724 : 350.78739 : 1"
       id="perspective10" />
    <inkscape:perspective
       id="perspective2390"
       inkscape:persp3d-origin="372.04724 : 350.78739 : 1"
       inkscape:vp_z="744.09448 : 526.18109 : 1"
       inkscape:vp_y="0 : 1000 : 0"
       inkscape:vp_x="0 : 526.18109 : 1"
       sodipodi:type="inkscape:persp3d" />
  </defs>
  <sodipodi:namedview
     id="base"
     pagecolor="#ffffff"
     bordercolor="#666666"
     borderopacity="1.0"
     gridtolerance="10000"
     guidetolerance="10"
     objecttolerance="10"
     inkscape:pageopacity="0.0"
     inkscape:pageshadow="2"
     inkscape:zoom="3.0164107"
     inkscape:cx="105.09179"
     inkscape:cy="52.19791"
     inkscape:document-units="px"
     inkscape:current-layer="layer1"
     showgrid="false"
     showguides="true"
     inkscape:guide-bbox="true"
     inkscape:window-width="1024"
     inkscape:window-height="721"
     inkscape:window-x="-4"
     inkscape:window-y="-4" />
  <metadata
     id="metadata7">
    <rdf:RDF>
      <cc:Work
         rdf:about="">
        <dc:format>image/svg+xml</dc:format>
        <dc:type
           rdf:resource="http://purl.org/dc/dcmitype/StillImage" />
      </cc:Work>
    </rdf:RDF>
  </metadata>
  <g
     inkscape:label="Layer 1"
     inkscape:groupmode="layer"
     id="layer1"
     transform="translate(-272.35712,-467.74557)">
    <path
       style="fill:#97a8d3;fill-opacity:1;fill-rule:evenodd;stroke:none;stroke-width:2.0999999;stroke-linecap:butt;stroke-linejoin:miter;stroke-miterlimit:4;stroke-dasharray:none;stroke-opacity:1"
       d="M 428.77558,502.82791 L 293.91871,477.01854 C 280.83784,474.51508 273.46003,478.43615 283.57171,487.4712 L 303.67192,507.53764 C 304.88391,510.28375 310.76399,514.55099 307.20398,520.65223 L 290.66769,541.38099 C 286.66637,547.78623 289.47279,552.05009 298.45143,550.05282 L 418.42957,507.60867 C 429.45971,504.3417 439.56762,503.99449 428.77558,502.82791 z"
       id="path3177"
       sodipodi:nodetypes="csccccccc" />
    <path
       style="fill:none;fill-opacity:1;fill-rule:evenodd;stroke:#fcdd2a;stroke-width:1.80413973;stroke-linecap:butt;stroke-linejoin:miter;stroke-miterlimit:4;stroke-dasharray:none;stroke-opacity:1"
       d="M 427.83777,505.27697 L 293.16847,479.46762 C 282.61067,477.59722 274.78288,478.13405 284.94712,489.44634 L 303.67192,509.22722 C 304.88391,511.97333 314.92121,514.70898 311.3612,520.81021 L 292.66826,538.96826 C 288.50084,542.8755 288.39007,549.86446 297.88875,547.4821 L 413.55322,507.00718 C 423.64556,504.68215 437.87957,506.82033 427.83777,505.27697 z"
       id="path3179"
       sodipodi:nodetypes="ccccccccc" />
    <path
       style="fill:#fcdd2a;fill-opacity:1;fill-rule:evenodd;stroke:none;stroke-width:2.0999999;stroke-linecap:butt;stroke-linejoin:miter;stroke-miterlimit:4;stroke-dasharray:none;stroke-opacity:1"
       d="M 298.66344,507.10997 L 455.98139,477.13421 C 469.53859,474.55099 478.06086,478.01829 466.26504,488.51187 L 444.60374,512.57999 C 443.18989,515.7694 440.6696,518.18429 444.82254,525.27045 L 459.26341,550.87018 C 463.93117,558.30942 461.42305,564.78632 450.94897,562.46663 L 296.69423,530.95928 C 283.82697,527.16493 286.07393,508.46487 298.66344,507.10997 z"
       id="path3175"
       sodipodi:nodetypes="csccccccc" />
    <path
       style="fill:none;fill-opacity:1;fill-rule:evenodd;stroke:#0a68b0;stroke-width:2.0999999;stroke-linecap:butt;stroke-linejoin:miter;stroke-miterlimit:4;stroke-dasharray:none;stroke-opacity:1"
       d="M 299.75744,509.95438 L 456.85659,479.97863 C 468.5751,477.88581 475.32285,478.5224 465.17103,490.04348 L 444.60374,513.01759 C 443.18989,516.207 440.6696,518.62189 444.82254,525.70805 L 457.9506,549.33857 C 461.31777,555.6838 462.14424,562.37581 451.60537,560.49742 L 299.31984,528.99007 C 287.54658,526.28972 288.04314,511.74688 299.75744,509.95438 z"
       id="path2403"
       sodipodi:nodetypes="ccccccccc" />
    <path
       style="font-size:187.57652283px;font-style:normal;font-weight:normal;text-align:start;line-height:125%;text-anchor:start;fill:#0a68b0;fill-opacity:1;stroke:none;stroke-width:1px;stroke-linecap:butt;stroke-linejoin:miter;stroke-opacity:1;font-family:Bitstream Vera Sans"
       d="M 293.72203,533.8467 L 298.35086,526.38619 C 301.6913,529.98983 311.62555,531.1844 311.59679,527.23909 C 311.57902,524.80255 311.19303,525.14702 309.1158,524.07323 C 307.03858,522.99945 300.12283,521.56659 299.30819,514.62271 C 298.40572,509.8519 301.16045,504.96031 305.60028,503.07951 C 311.40597,500.62012 319.04346,501.172 323.6367,504.67921 L 319.3899,511.07024 C 315.94514,509.35103 309.66147,506.52009 308.66429,511.97932 C 308.05733,515.30219 315.62732,515.2342 319.17723,519.74983 C 321.8357,523.13152 322.24045,528.41893 319.15663,532.61284 C 313.22214,540.68358 300.11743,537.94732 293.72203,533.8467 z M 345.52661,501.88375 C 356.62985,500.81512 364.19812,506.95485 364.28016,519.29305 C 364.35937,531.20633 355.52288,537.71925 344.28984,538.21956 C 332.94789,538.7247 325.16869,531.92202 325.10721,520.83597 C 325.04076,508.85123 337.75097,501.90211 345.52661,501.88375 L 345.52661,501.88375 z M 334.97766,520.73311 C 334.37666,527.96205 339.27167,529.82192 343.07412,529.82192 C 348.53893,529.82192 353.59516,524.47825 353.59516,519.84669 C 353.59516,514.39082 351.16873,510.33963 345.25853,510.33963 C 341.69414,510.33963 335.57865,513.50416 334.97766,520.73311 z M 366.33537,537.06084 L 371.61626,503.04246 L 380.8699,503.04246 L 393.04573,523.66832 L 395.52062,503.04246 L 405.33118,503.04246 L 400.08509,536.92545 L 390.60086,536.92545 L 379.00286,516.54994 L 375.51478,537.06084 L 366.33537,537.06084 z M 411.80495,502.90708 L 421.51096,502.90708 L 416.12567,536.92545 L 406.53017,536.92545 L 411.80495,502.90708 z M 448.28031,536.34609 C 446.92783,537.17496 444.93412,538.01525 440.11276,538.21956 C 430.70411,538.61825 422.94911,533.31618 423.71254,520.83597 C 424.43984,508.9464 432.40065,501.8785 444.46858,501.88375 C 447.1943,501.88495 450.17286,502.20094 453.40364,502.83522 L 452.10264,513.95105 C 445.21281,510.23777 435.62083,509.52132 434.2921,521.32609 C 433.53799,532.04263 445.31762,528.77298 449.64673,526.70579 L 448.28031,536.34609 z"
       id="path2401"
       sodipodi:nodetypes="ccszcsccsssccssscscssszcccccccccccccccccsssccccc" />
    <path
       transform="scale(0.9893578,1.0107566)"
       style="font-size:187.57652283px;font-style:normal;font-weight:normal;text-align:start;line-height:125%;text-anchor:start;fill:#ef3b44;fill-opacity:1;stroke:none;stroke-width:1px;stroke-linecap:butt;stroke-linejoin:miter;stroke-opacity:1;font-family:Bitstream Vera Sans"
       d="M 299.3142,527.08307 L 303.97996,519.70196 C 307.34706,523.26725 316.91949,524.01616 316.89049,520.11284 C 316.87258,517.70223 316.48351,518.04303 314.38971,516.98067 C 312.29591,515.91832 305.32499,514.5007 304.50384,507.63072 C 303.59417,502.91068 306.37088,498.07115 310.84613,496.21037 C 316.69815,493.77715 324.39658,494.32316 329.02647,497.79304 L 324.74579,504.11606 C 321.27354,502.41514 314.93973,499.61433 313.93459,505.01546 C 313.32279,508.30297 320.95319,508.2357 324.53142,512.70328 C 327.2111,516.04898 327.61909,521.28012 324.51065,525.4294 C 318.52881,533.41425 305.76063,531.14005 299.3142,527.08307 z M 351.09105,495.02733 C 362.28287,493.97007 369.91154,500.04446 369.99423,512.25136 C 370.07407,524.03786 361.16708,530.48147 349.8444,530.97645 C 338.41196,531.47622 330.57069,524.74593 330.50872,513.77786 C 330.44173,501.92066 343.25336,495.0455 351.09105,495.02733 L 351.09105,495.02733 z M 340.45792,513.67609 C 339.85213,520.8281 344.78619,522.66818 348.61899,522.66818 C 354.1274,522.66818 359.22397,517.38138 359.22397,512.79911 C 359.22397,507.4013 356.77818,503.39322 350.82082,503.39322 C 347.228,503.39322 341.06371,506.52408 340.45792,513.67609 z M 372.06584,529.83006 L 377.38887,496.17371 L 386.71634,496.17371 L 398.98932,516.58007 L 402.1456,496.17371 L 411.3728,496.17371 L 406.08485,529.69611 L 396.52495,529.69611 L 384.8344,509.53744 L 381.31849,529.83006 L 372.06584,529.83006 z M 417.89822,496.03977 L 427.68168,496.03977 L 422.25342,529.69611 L 412.58136,529.69611 L 417.89822,496.03977 z M 454.66463,529.12292 C 453.30136,529.94297 451.29173,530.77432 446.43191,530.97645 C 436.94819,531.3709 429.5724,526.12525 430.34192,513.77786 C 431.07502,502.01482 438.65827,495.02214 450.82248,495.02733 C 453.56995,495.02852 456.57228,495.34115 459.82884,495.96868 L 458.51746,506.3168 C 451.57265,502.64303 441.90414,502.58362 440.56481,514.26276 C 439.80468,524.86526 451.6783,521.6304 456.04195,519.58521 L 454.66463,529.12292 z"
       id="text2396"
       sodipodi:nodetypes="ccszcsccsssccssscscssszcccccccccccccccccsssccccc" />
  </g>
</svg>
