<?xml version="1.0" encoding="UTF-8" standalone="no"?>
<!-- Created with Inkscape (http://www.inkscape.org/) -->

<svg
   xmlns:dc="http://purl.org/dc/elements/1.1/"
   xmlns:cc="http://creativecommons.org/ns#"
   xmlns:rdf="http://www.w3.org/1999/02/22-rdf-syntax-ns#"
   xmlns:svg="http://www.w3.org/2000/svg"
   xmlns="http://www.w3.org/2000/svg"
   xmlns:sodipodi="http://sodipodi.sourceforge.net/DTD/sodipodi-0.dtd"
   xmlns:inkscape="http://www.inkscape.org/namespaces/inkscape"
   width="989.83801"
   height="831.85498"
   id="svg5809"
   version="1.1"
   inkscape:version="0.91 r13725"
   sodipodi:docname="Wendy's.svg">
  <defs
     id="defs5811">
    <clipPath
       id="clipPath3297"
       clipPathUnits="userSpaceOnUse">
      <path
         inkscape:connector-curvature="0"
         id="path3299"
         d="m 15.75,694 81.833,0 0,90 -81.833,0 0,-90 z" />
    </clipPath>
    <clipPath
       id="clipPath3097"
       clipPathUnits="userSpaceOnUse">
      <path
         inkscape:connector-curvature="0"
         id="path3099"
         d="m 15.75,694 81.833,0 0,90 -81.833,0 0,-90 z" />
    </clipPath>
  </defs>
  <sodipodi:namedview
     id="base"
     pagecolor="#ffffff"
     bordercolor="#666666"
     borderopacity="1.0"
     inkscape:pageopacity="0.0"
     inkscape:pageshadow="2"
     inkscape:zoom="0.49497475"
     inkscape:cx="387.78066"
     inkscape:cy="480.70506"
     inkscape:document-units="px"
     inkscape:current-layer="g5984"
     showgrid="false"
     fit-margin-left="0.5"
     fit-margin-bottom="0.5"
     fit-margin-top="0.5"
     fit-margin-right="0.5"
     inkscape:window-width="1680"
     inkscape:window-height="931"
     inkscape:window-x="0"
     inkscape:window-y="1"
     inkscape:window-maximized="1" />
  <metadata
     id="metadata5814">
    <rdf:RDF>
      <cc:Work
         rdf:about="">
        <dc:format>image/svg+xml</dc:format>
        <dc:type
           rdf:resource="http://purl.org/dc/dcmitype/StillImage" />
        <dc:title></dc:title>
      </cc:Work>
    </rdf:RDF>
  </metadata>
  <g
     inkscape:label="Layer 1"
     inkscape:groupmode="layer"
     id="layer1"
     transform="translate(66.667256,87.430695)">
    <g
       transform="matrix(6.4588709,0,0,-6.4588709,-29.911876,5194.408)"
       id="g5644">
      <g
         id="g5984"
         transform="matrix(2.3896732,0,0,2.3896732,-72.538582,-1012.5229)">
        <g
           id="g3293"
           transform="translate(-0.03239475,-0.0323941)">
          <g
             clip-path="url(#clipPath3297)"
             id="g3295">
            <g
               transform="translate(68.7272,726.257)"
               id="g3301">
              <path
                 id="path3303"
                 style="fill:#dd1438;fill-opacity:1;fill-rule:nonzero;stroke:none"
                 d="M 0,0 C -0.345,-0.719 -0.739,-1.36 -1.171,-1.904 -1.6,-2.447 -2.044,-2.88 -2.49,-3.193 c -0.388,-0.275 -0.712,-0.486 -0.978,-0.439 -0.172,0.043 -0.149,0.346 -0.128,0.541 0.06,0.558 0.239,1.122 0.531,1.678 0.296,0.568 0.663,1.098 1.088,1.575 0.432,0.475 0.902,0.872 1.398,1.179 0.39,0.242 0.776,0.41 1.153,0.501 C 0.468,1.198 0.275,0.579 0,0 M 4.65,12.63 C 3.536,12.806 2.731,11.958 2.378,11.122 2.253,10.829 2.217,10.678 2.097,10.3 1.977,9.928 1.93,9.647 1.838,9.263 1.772,8.987 1.671,8.558 1.63,8.368 1.554,8.021 1.545,7.967 1.447,7.44 1.35,6.919 1.286,6.57 1.217,6.108 1.163,5.757 1.11,5.466 1.056,5.114 0.256,4.926 -0.563,4.605 -1.377,4.164 -2.256,3.688 -3.075,3.062 -3.812,2.305 -4.551,1.55 -5.191,0.657 -5.711,-0.344 c -0.526,-1.014 -0.86,-2.148 -0.992,-3.369 -0.017,-0.15 -0.027,-0.31 -0.033,-0.478 -0.103,0.09 -0.205,0.188 -0.286,0.31 -0.156,0.233 -0.269,0.501 -0.345,0.827 -0.075,0.32 -0.12,0.722 -0.117,1.037 0.003,0.347 0.016,0.57 0.041,0.799 0.029,0.262 0.064,0.508 0.109,0.733 0.026,0.146 0.044,0.281 0.062,0.413 0.012,0.087 0.023,0.172 0.038,0.256 0.159,0.977 0.229,1.632 0.133,2.299 -0.064,0.442 -0.421,1.291 -1.315,1.319 -0.07,0.002 -0.143,0 -0.22,-0.008 -0.602,-0.057 -1.306,-0.387 -1.737,-0.686 -0.574,-0.399 -1.112,-0.897 -1.599,-1.479 -0.207,-0.247 -0.37,-0.47 -0.506,-0.679 0.086,0.263 0.199,0.526 0.31,0.781 0.069,0.157 0.137,0.314 0.198,0.472 0.007,0.018 0.015,0.038 0.023,0.056 0.146,0.371 0.298,0.753 0.332,1.061 0.029,0.277 -0.014,0.503 -0.129,0.67 -0.095,0.137 -0.215,0.241 -0.358,0.311 -0.139,0.062 -0.28,0.093 -0.418,0.093 -0.098,0.003 -0.184,10e-4 -0.243,-0.004 -0.345,-0.03 -0.654,-0.137 -0.916,-0.311 -0.23,-0.149 -0.425,-0.309 -0.605,-0.496 -0.178,-0.205 -0.334,-0.418 -0.456,-0.628 -0.19,-0.306 -0.368,-0.724 -0.542,-1.278 -0.162,-0.514 -0.317,-1.088 -0.462,-1.703 -0.142,-0.596 -0.272,-1.211 -0.388,-1.829 -0.114,-0.61 -0.197,-1.146 -0.246,-1.592 -0.058,-0.547 -0.101,-1.078 -0.126,-1.58 -0.028,-0.521 -0.018,-0.996 0.028,-1.408 0.05,-0.439 0.156,-0.797 0.317,-1.064 0.202,-0.332 0.532,-0.486 0.959,-0.443 0.008,0 0.015,0.002 0.021,0.002 0.08,0.011 0.358,0.051 0.617,0.141 0.24,0.083 0.604,0.343 0.912,0.827 0.178,0.276 0.359,1.006 0.577,1.931 0.051,0.212 0.097,0.407 0.136,0.562 0.853,3.33 2.092,4.029 2.704,4.157 -0.042,-0.376 -0.085,-0.752 -0.127,-1.127 -0.03,-0.491 -0.065,-0.926 -0.076,-1.442 0.014,-0.977 0.111,-1.535 0.229,-2.02 0.135,-0.553 0.386,-1.221 0.69,-1.571 0.358,-0.41 0.703,-0.679 1.326,-0.642 0.002,0 0.006,0 0.009,10e-4 0.002,0 0.004,0 0.006,0 0.271,0.038 0.408,0.061 0.699,0.183 0.296,0.141 0.434,0.244 0.691,0.493 0.184,0.177 0.295,0.349 0.372,0.519 0.113,-0.206 0.256,-0.39 0.431,-0.548 0.274,-0.245 0.667,-0.36 1.168,-0.344 0.011,0.001 0.023,0.001 0.035,0.002 0.055,0.003 0.175,0.016 0.562,0.068 0.354,0.047 0.783,0.187 1.28,0.411 0.485,0.22 1.038,0.564 1.646,1.02 0.426,0.321 0.866,0.739 1.309,1.245 -0.043,-0.709 -0.078,-1.385 0.232,-2.313 0.127,-0.382 0.293,-0.695 0.551,-1.048 0.288,-0.388 0.727,-0.586 1.309,-0.591 l 0.004,0 c 0.024,0.002 0.045,0.003 0.068,0.005 0.277,0.046 0.506,0.118 0.699,0.22 0.198,0.104 0.385,0.256 0.555,0.451 0.205,0.235 0.327,0.537 0.367,0.902 0.011,0.11 0.006,0.235 -0.019,0.386 -0.024,0.146 -0.098,0.259 -0.175,0.377 -0.032,0.046 -0.065,0.096 -0.098,0.152 -0.193,0.337 -0.315,0.616 -0.371,0.852 -0.146,0.617 -0.183,1.135 -0.155,2.132 0.013,0.476 0.05,0.998 0.088,1.495 0.038,0.487 0.093,0.985 0.15,1.513 C 3.26,0.801 3.297,1.146 3.335,1.488 3.347,1.611 3.359,1.717 3.372,1.81 3.394,1.809 3.418,1.809 3.442,1.809 3.698,1.806 3.966,1.894 4.233,2.077 4.547,2.296 4.738,2.694 4.8,3.26 4.852,3.743 4.733,4.136 4.445,4.428 4.268,4.603 4.07,4.753 3.858,4.876 3.889,5.059 3.92,5.231 3.943,5.389 3.974,5.592 4.007,5.769 4.041,5.915 4.063,6.017 4.083,6.119 4.104,6.222 4.121,6.31 4.136,6.397 4.155,6.481 4.16,6.5 4.51,8.133 5.21,10.566 c 0.113,0.395 0.166,0.698 0.193,0.953 0.04,0.373 -0.051,1 -0.753,1.111 M 14.691,4.058 C 14.747,3.831 14.758,3.552 14.725,3.207 14.694,2.885 14.632,2.525 14.542,2.134 14.538,2.119 14.038,0.159 13.84,-0.78 13.683,-1.527 13.586,-2.11 13.473,-2.786 13.471,-2.8 13.469,-2.815 13.465,-2.83 13.357,-3.49 13.189,-4.956 13.09,-5.991 c -0.192,-1.999 -0.237,-2.475 -0.786,-4.015 -0.561,-1.575 -1.844,-2.619 -2.443,-2.954 -1.085,-0.606 -2.306,-0.921 -3.633,-0.948 -0.004,0 -0.007,0 -0.011,0 -0.003,0 -0.007,10e-4 -0.01,0.002 -0.063,0.007 -0.134,0.012 -0.21,0.017 -0.143,0.01 -0.307,0.021 -0.464,0.049 -1.394,0.25 -2.199,1.135 -2.049,2.281 0.079,0.599 0.547,0.964 1.149,0.874 0.565,-0.094 1.087,-0.14 1.558,-0.135 1.447,0.016 2.44,0.495 3.034,1.491 0.619,1.037 0.694,1.719 0.799,2.663 0.013,0.122 0.027,0.248 0.042,0.38 0.058,0.487 0.102,0.938 0.149,1.412 C 9.981,-5.184 9.753,-5.445 9.532,-5.656 9.085,-6.081 8.675,-6.406 8.31,-6.623 7.873,-6.879 7.446,-7.029 7.041,-7.069 c -0.004,0 -0.009,-0.001 -0.013,-0.001 -0.005,0.001 -0.01,0.001 -0.014,0.001 -0.666,0.014 -1.179,0.271 -1.528,0.763 -0.307,0.426 -0.543,0.964 -0.699,1.598 -0.152,0.618 -0.232,1.28 -0.237,1.97 -0.007,0.671 0.017,1.3 0.072,1.87 0.17,1.769 0.535,3.18 1.084,4.186 0.608,1.121 1.382,1.688 2.298,1.667 0.049,0 0.119,-0.008 0.249,-0.022 C 8.418,4.94 8.562,4.885 8.689,4.799 8.829,4.709 8.942,4.576 9.035,4.392 9.13,4.201 9.162,3.964 9.135,3.671 9.106,3.373 8.994,3.046 8.792,2.672 8.61,2.326 8.439,1.934 8.283,1.509 8.151,1.145 8.017,0.707 7.884,0.21 7.751,-0.275 7.657,-0.797 7.605,-1.343 7.596,-1.43 7.581,-1.62 7.565,-1.926 7.548,-2.172 7.55,-2.428 7.572,-2.712 7.591,-2.955 7.638,-3.163 7.71,-3.33 7.75,-3.428 7.878,-3.495 7.918,-3.503 7.972,-3.515 8.03,-3.527 8.104,-3.527 c 0.128,0 0.26,0.042 0.391,0.124 0.1,0.064 0.344,0.273 0.631,0.659 0.201,0.272 0.587,0.841 0.905,1.596 0.149,0.352 0.34,0.928 0.541,1.539 0.227,0.687 0.625,2.036 0.854,2.601 0.148,0.361 0.31,0.678 0.497,0.97 0.169,0.262 0.446,0.534 0.662,0.675 0.322,0.213 0.679,0.324 1.079,0.304 0.091,-0.005 0.188,-0.027 0.315,-0.059 0.17,-0.044 0.319,-0.136 0.442,-0.271 0.119,-0.127 0.208,-0.308 0.27,-0.553 m 0.7,0.29 c -0.039,0.161 -0.068,0.361 0.01,0.63 0.035,0.12 0.147,0.399 0.213,0.662 0.078,0.347 0.109,0.693 0.025,1.016 -0.074,0.284 -0.092,0.696 -0.013,0.932 0.121,0.359 0.453,0.55 0.688,0.59 0.357,0.06 0.713,0.037 1.014,-0.111 0.329,-0.162 0.609,-0.554 0.68,-0.838 C 18.157,6.63 18.09,6.151 18.02,5.769 17.938,5.312 17.748,4.896 17.544,4.555 17.399,4.312 17.156,4.102 16.948,3.952 16.692,3.769 16.272,3.7 15.831,3.86 15.629,3.934 15.428,4.201 15.391,4.348 m 7.345,-8.465 c -0.106,-0.766 -0.418,-1.403 -0.925,-1.895 -0.473,-0.459 -1.024,-0.825 -1.635,-1.087 -0.603,-0.255 -1.223,-0.424 -1.843,-0.502 -0.561,-0.068 -1.051,-0.083 -1.454,-0.043 -0.038,0.003 -0.075,0.008 -0.109,0.012 -0.976,0.125 -1.641,0.435 -2.029,0.958 -0.386,0.522 -0.542,1.062 -0.466,1.608 0.09,0.648 0.429,0.963 0.698,1.111 0.326,0.183 0.609,0.261 0.864,0.239 0.009,-10e-4 0.019,-0.002 0.03,-0.005 0.255,-0.029 0.55,-0.16 0.899,-0.398 0.235,-0.163 0.549,-0.271 0.934,-0.322 0.52,-0.067 0.913,-0.039 1.167,0.087 0.183,0.087 0.289,0.184 0.301,0.273 0.006,0.04 0.017,0.122 -0.123,0.255 -0.171,0.163 -0.405,0.322 -0.695,0.469 -0.307,0.155 -0.644,0.316 -1.032,0.492 -0.399,0.177 -0.768,0.388 -1.099,0.623 -0.358,0.252 -0.648,0.55 -0.863,0.883 -0.245,0.385 -0.332,0.84 -0.26,1.353 0.081,0.587 0.341,1.192 0.767,1.797 0.406,0.575 0.91,1.097 1.501,1.548 0.587,0.447 1.242,0.802 1.946,1.053 0.728,0.256 1.451,0.337 2.147,0.233 0.67,-0.099 1.187,-0.404 1.534,-0.902 0.346,-0.504 0.46,-1.198 0.341,-2.061 C 23.273,1.245 23.123,0.865 22.882,0.528 22.68,0.247 22.292,-0.074 21.582,0.039 21.099,0.111 20.905,0.372 20.828,0.58 20.76,0.75 20.705,0.936 20.665,1.128 20.637,1.255 20.63,1.42 20.547,1.506 20.497,1.55 20.4,1.583 20.279,1.574 c 0,0 -0.11,0.006 -0.349,-0.063 C 19.719,1.446 19.508,1.354 19.306,1.237 19.096,1.116 18.905,0.964 18.74,0.787 18.609,0.646 18.53,0.498 18.504,0.348 18.492,0.275 18.485,0.15 18.64,0.001 c 0.192,-0.182 0.439,-0.365 0.738,-0.545 0.3,-0.183 0.645,-0.367 1.054,-0.562 0.431,-0.205 0.82,-0.439 1.154,-0.696 0.357,-0.271 0.651,-0.587 0.874,-0.934 0.255,-0.399 0.349,-0.864 0.276,-1.381 m -42.058,3.206 c -0.332,-0.514 -0.664,-0.915 -1.017,-1.223 -0.394,-0.345 -0.688,-0.531 -1.064,-0.738 -0.164,-0.09 -0.299,-0.141 -0.413,-0.172 0.056,0.308 0.16,0.721 0.304,1.064 0.212,0.509 0.485,1.011 0.81,1.492 0.384,0.567 0.695,0.939 1.012,1.205 0.22,0.186 0.413,0.297 0.558,0.321 0.323,0.056 0.339,-0.362 0.338,-0.445 -0.002,-0.503 -0.286,-1.124 -0.528,-1.504 m 2.139,4.224 c -0.26,0.178 -0.553,0.281 -0.869,0.306 -0.27,0.018 -0.601,0.004 -0.845,-0.036 -0.006,0 -0.012,-0.001 -0.018,-0.002 -0.525,-0.089 -1.075,-0.274 -1.464,-0.49 -0.399,-0.217 -0.788,-0.496 -1.157,-0.832 -0.311,-0.284 -0.669,-0.628 -0.975,-1.037 -0.2,-0.265 -0.579,-0.8 -0.888,-1.396 -0.416,-0.802 -0.778,-1.735 -1.106,-2.848 -0.205,0 -0.653,0.091 -0.858,0.131 -0.145,0.029 -0.195,0.038 -0.226,0.04 -0.033,0 -0.06,10e-4 -0.087,0.002 0.949,3.948 1.611,6.184 2.095,7.733 0.263,0.756 0.526,1.512 0.788,2.268 0.206,0.428 0.331,1.014 0.311,1.285 -0.054,0.792 -0.6,1.592 -1.572,1.377 -1.031,-0.228 -1.638,-1.541 -2.458,-4.434 -0.691,-2.435 -1.083,-3.987 -1.644,-6.618 -0.243,-1.199 -0.486,-2.398 -0.726,-3.597 -0.037,-0.18 -0.073,-0.361 -0.108,-0.54 -0.082,-0.374 -0.125,-0.481 -0.257,-0.511 -0.066,-0.015 -0.149,0.031 -0.187,0.184 -0.086,0.335 -0.158,1.029 -0.209,1.919 -0.065,2.05 -0.236,4.174 -0.162,6.862 0.043,1.536 0.041,1.783 -0.06,2.176 -0.194,0.761 -1.137,1.213 -2.164,0.953 -1.028,-0.261 -1.33,-1.415 -1.923,-2.989 -0.4,-1.066 -1.007,-2.961 -1.61,-4.8 -0.565,-1.904 -1.23,-4.236 -1.23,-4.236 -0.042,-0.162 -0.082,-0.323 -0.124,-0.484 -0.041,-0.161 -0.082,-0.322 -0.123,-0.484 -0.147,-0.394 -0.198,-0.472 -0.296,-0.5 -0.1,-0.027 -0.156,0.054 -0.186,0.174 -0.062,0.239 -0.052,1.767 -0.033,2.573 0.038,1.642 0.198,3.425 0.351,5.02 0.088,1.151 0.383,3.164 0.472,4.315 0.031,0.347 0.062,0.712 0.07,0.959 0.019,0.733 -0.031,1.087 -0.351,1.45 -0.501,0.441 -1.112,0.407 -1.817,0.247 -1.135,-0.258 -1.985,-0.961 -1.884,-1.347 0.016,-0.058 0.075,-0.114 0.133,-0.199 0.172,-0.249 0.262,-0.389 0.331,-0.641 0.082,-0.297 0.121,-0.708 0.119,-1.371 -0.025,-0.593 -0.05,-1.188 -0.075,-1.783 -0.143,-1.794 -0.359,-5.026 -0.417,-7.237 -0.051,-1.909 0.014,-3.234 0.164,-5.122 0.076,-0.949 0.277,-1.724 0.385,-2.141 0.192,-0.746 0.571,-1.575 1.227,-1.741 0.487,-0.123 0.863,-0.094 1.504,0.074 0.589,0.153 1.481,0.716 1.678,1.603 0.25,0.988 0.502,1.976 0.753,2.964 0.224,1.055 0.731,2.924 1.163,4.546 0.249,0.965 0.573,2.045 0.747,2.605 0.104,0.283 0.155,0.36 0.221,0.377 0.067,0.017 0.107,-0.005 0.122,-0.066 0.008,-0.031 0.017,-0.076 0.02,-0.18 0.003,-0.067 0.005,-0.133 0.007,-0.2 0.005,-0.202 0.01,-0.405 0.014,-0.608 0.049,-1.984 0.429,-5.398 0.786,-6.795 0.233,-0.913 0.299,-2.041 1.707,-2.248 0.65,-0.098 1.191,0.086 1.191,0.086 1.038,0.316 1.307,0.914 1.54,1.935 0.152,0.646 0.621,2.426 0.878,3.572 0.078,0.348 0.154,0.683 0.229,1.011 0.19,-0.061 1.055,-0.196 1.416,-0.227 0.004,-0.109 0.009,-0.166 0.021,-0.236 0.009,-0.067 0.018,-0.126 0.026,-0.183 0.013,-0.088 0.023,-0.168 0.042,-0.256 0.025,-0.116 0.05,-0.231 0.075,-0.345 0.15,-0.6 0.384,-1.111 0.693,-1.52 0.299,-0.399 0.609,-0.67 1.038,-0.905 0.407,-0.222 1.104,-0.319 1.765,-0.251 0.094,0.003 0.18,0.01 0.27,0.027 0.018,0.002 0.035,0.005 0.052,0.01 0.045,0.008 0.089,0.017 0.135,0.026 0,0.001 0.001,0.003 0.001,0.006 0.098,0.022 0.218,0.051 0.31,0.078 1.038,0.298 2.374,1.22 2.855,2.571 0.188,0.532 0.083,0.865 -0.038,1.051 -0.132,0.202 -0.35,0.325 -0.571,0.321 -0.075,-0.002 -0.148,-0.009 -0.219,-0.021 -0.452,-0.072 -0.794,-0.328 -1.095,-0.554 -0.272,-0.204 -0.529,-0.397 -0.849,-0.459 -0.365,-0.07 -0.614,-0.061 -0.825,0.043 -0.235,0.116 -0.315,0.202 -0.41,0.442 -0.057,0.143 -0.088,0.306 -0.115,0.519 0.589,0.151 1.271,0.451 1.819,0.807 0.627,0.407 1.199,0.905 1.699,1.479 0.497,0.574 0.913,1.209 1.237,1.891 0.309,0.652 0.534,1.516 0.587,2.257 0.042,0.568 -0.019,1.038 -0.178,1.398 -0.164,0.354 -0.379,0.623 -0.638,0.797"
                 inkscape:connector-curvature="0" />
            </g>
          </g>
        </g>
        <g
           id="g3093"
           transform="translate(-0.03239475,-0.0323941)">
          <g
             clip-path="url(#clipPath3097)"
             id="g3095">
            <g
               transform="translate(45.2045,744.5733)"
               id="g3101">
              <path
                 id="path3103"
                 style="fill:#ffffff;fill-opacity:1;fill-rule:nonzero;stroke:none"
                 d="m 0,0 c 0.267,-0.139 0.568,-0.182 0.486,-0.234 -0.148,-0.092 -0.668,0.001 -0.914,0.155 -0.107,0.067 -0.147,-0.088 -0.05,-0.213 0,0 0,0 -0.001,0.001 0.037,-0.058 0.082,-0.109 0.171,-0.192 0.947,-0.828 2.168,-1.076 3.27,-0.886 0.562,-0.876 1.232,-1.701 2.011,-2.457 2.597,-2.518 6.019,-3.904 9.635,-3.904 3.776,0 7.303,1.492 9.931,4.201 0.653,0.674 1.23,1.402 1.726,2.174 1.117,-0.209 2.365,0.033 3.329,0.876 0.089,0.083 0.133,0.134 0.17,0.192 l 0,-0.001 c 0.097,0.126 0.057,0.28 -0.051,0.213 -0.246,-0.154 -0.766,-0.247 -0.913,-0.155 -0.082,0.052 0.218,0.095 0.485,0.234 1.439,0.725 1.179,3.011 0.753,2.534 C 29.73,2.152 29.327,1.745 28.556,1.77 29.255,2.583 29.324,3.727 29.082,3.524 28.856,3.29 28.553,2.801 27.941,2.389 c 0.35,1.262 0.522,2.582 0.501,3.928 -0.056,3.697 -1.548,7.149 -4.201,9.722 -0.895,0.867 -1.887,1.6 -2.951,2.189 -0.581,1.058 -1.312,1.825 -2.624,2.123 -0.615,0.085 -0.925,0.076 -1.429,-0.144 -0.057,0.206 -0.144,0.345 -0.233,0.437 -0.553,0.547 -1.555,0.612 -2.046,0.696 -0.578,0.056 -1.588,0.072 -2.55,-0.172 C 10.309,20.636 8.877,19.617 7.84,18.186 6.689,17.538 5.623,16.72 4.674,15.742 1.144,12.103 0.02,7.006 1.27,2.436 0.707,2.836 0.42,3.295 0.204,3.52 -0.038,3.723 0.031,2.58 0.73,1.766 -0.041,1.741 -0.445,2.147 -0.753,2.534 -1.179,3.012 -1.438,0.725 0,0"
                 inkscape:connector-curvature="0" />
            </g>
          </g>
        </g>
        <g
           transform="translate(59.778805,763.39171)"
           id="g3133">
          <path
             id="path3135"
             style="fill:#2f1e18;fill-opacity:1;fill-rule:nonzero;stroke:none"
             d="m 0,0 c -3.477,0 -6.726,-1.375 -9.147,-3.871 -4.892,-5.043 -4.769,-13.126 0.275,-18.02 2.392,-2.319 5.543,-3.596 8.874,-3.596 3.477,0 6.725,1.374 9.145,3.869 2.37,2.443 3.646,5.664 3.594,9.068 -0.051,3.404 -1.425,6.583 -3.869,8.952 C 6.481,-1.278 3.33,0 0,0 m 0.002,-26.581 c -3.617,0 -7.039,1.387 -9.636,3.905 -5.477,5.314 -5.611,14.092 -0.298,19.567 2.629,2.71 6.156,4.203 9.932,4.203 3.616,0 7.037,-1.387 9.634,-3.906 2.653,-2.573 4.145,-6.025 4.201,-9.721 0.057,-3.697 -1.329,-7.194 -3.903,-9.847 -2.628,-2.709 -6.154,-4.201 -9.93,-4.201"
             inkscape:connector-curvature="0" />
        </g>
        <g
           transform="translate(74.884805,744.46571)"
           id="g3137">
          <path
             id="path3139"
             style="fill:#dd1438;fill-opacity:1;fill-rule:evenodd;stroke:none"
             d="m 0,0 c -0.245,-0.154 -0.765,-0.247 -0.913,-0.155 -0.082,0.052 0.218,0.095 0.486,0.234 C 1.011,0.805 0.752,3.09 0.326,2.613 0.018,2.227 -0.386,1.82 -1.157,1.845 -0.458,2.659 -0.389,3.802 -0.631,3.599 -1.133,3.078 -2.01,1.296 -5.845,1.913 c 0.106,0.135 0.22,0.266 0.345,0.389 -0.196,0.117 -0.393,0.303 -0.594,0.6 -0.586,0.925 -1.086,1.082 -1.386,1.165 0.49,0.471 0.819,0.968 1.116,1.53 0.993,2.122 0.878,4.43 0.77,5.038 -0.115,0.94 -0.355,2.407 -1.093,3.778 -0.836,1.559 -1.653,4.406 -4.465,5.362 -0.572,0.029 -0.873,-10e-4 -1.375,-0.221 -0.049,0.099 -0.524,0.49 -0.575,0.579 -0.298,0.27 -1.174,0.509 -1.566,0.639 -0.807,0.014 -1.518,0.215 -2.409,-0.026 -3.771,-1.019 -5.453,-2.903 -6.568,-6.367 -0.092,-0.287 -0.222,-1.223 -0.237,-1.508 0.034,0.097 -1.226,-3.726 -0.389,-5.822 0.154,-0.176 0.168,-0.512 0.325,-0.686 0.396,-0.927 1.031,-1.497 1.412,-2.347 -1.237,-0.051 -1.671,-1.94 -1.707,-2.099 -3.881,-0.642 -4.763,1.155 -5.268,1.678 -0.241,0.203 -0.173,-0.94 0.526,-1.754 -0.771,-0.025 -1.175,0.382 -1.482,0.768 -0.427,0.478 -0.686,-1.809 0.752,-2.534 0.268,-0.138 0.568,-0.182 0.486,-0.233 -0.148,-0.093 -0.668,0 -0.913,0.154 -0.115,0.072 -0.155,-0.11 -0.03,-0.239 3.703,-2.459 5.408,0.246 5.972,0.324 2.042,-0.587 5.662,0.855 4.056,2.099 -0.437,0.683 -1.096,1.855 -1.121,3.206 -0.09,0.759 -0.002,0.994 -0.836,0.924 0.296,0.922 0.6,1.73 0.293,3.131 -0.055,-0.019 -0.112,-0.07 -0.154,-0.11 1.645,1.606 4.89,1.797 6.665,3.552 0.23,0.4 1.139,0.533 1.357,0.949 -0.202,-1.443 -0.845,-2.713 -2.182,-3.988 0,0 0.94,-0.003 1.687,0.53 1.274,0.909 1.871,2.014 2.75,2.968 0.005,0.047 0.247,0.263 0.237,0.322 0.145,-0.073 0.425,-0.305 0.518,-0.45 1.039,-1.606 0.195,-1.213 1.344,-2.673 0.067,-0.077 0.191,-0.41 0.256,-0.491 C -9.078,9.58 -8.959,9.289 -8.64,8.855 -8.227,8.571 -8.309,8.09 -8.067,7.271 -8.139,6.254 -8.347,5.461 -9.025,5.009 -9.062,4.123 -9.81,2.067 -9.81,2.067 -9.743,1.864 -10.595,0.504 -8.583,0.094 -8.055,-0.013 -7.257,0.093 -6.579,0.213 -6.524,0.65 -6.377,1.065 -6.158,1.449 -6.174,1.325 -6.186,1.2 -6.186,1.072 c 0,-0.35 0.065,-0.687 0.183,-1.003 0.021,0.006 0.041,0.01 0.061,0.016 0.564,-0.078 2.27,-2.783 5.972,-0.324 C 0.155,-0.11 0.115,0.072 0,0"
             inkscape:connector-curvature="0" />
        </g>
        <g
           transform="translate(64.337405,741.55071)"
           id="g3141">
          <path
             id="path3143"
             style="fill:#24ace9;fill-opacity:1;fill-rule:nonzero;stroke:none"
             d="M 0,0 C -0.154,0.356 -0.257,0.596 -0.251,0.91 -0.271,0.961 -0.327,1.006 -0.4,1.041 L -0.394,0.675 -1.041,0.94 C -1.103,0.853 -1.137,0.727 -1.116,0.549 c 0.211,-1.245 0.795,-1.887 0.945,-2.044 0.156,-0.163 0.278,-0.178 0.414,-0.188 0.169,-0.014 0.285,0.038 0.389,0.152 C 0.865,-1.187 0.283,-0.651 0,0"
             inkscape:connector-curvature="0" />
        </g>
        <g
           transform="translate(57.652305,741.13951)"
           id="g3145">
          <path
             id="path3147"
             style="fill:#24ace9;fill-opacity:1;fill-rule:nonzero;stroke:none"
             d="m 0,0 -0.35,0.405 c -0.242,-1.496 -0.795,-1.892 -0.621,-2.272 0.055,-0.119 0.182,-0.219 0.182,-0.219 0.087,-0.054 0.168,-0.079 0.245,-0.082 0.122,0.001 0.249,0.029 0.345,0.141 0.411,0.504 0.697,1.346 0.787,1.89 0.019,0.116 0.02,0.233 0.007,0.346 L 0,0 Z"
             inkscape:connector-curvature="0" />
        </g>
        <g
           transform="translate(56.449705,741.85331)"
           id="g3149">
          <path
             id="path3151"
             style="fill:#24ace9;fill-opacity:1;fill-rule:nonzero;stroke:none"
             d="m 0,0 -0.573,0.136 -0.07,0.35 C -0.686,0.437 -0.726,0.381 -0.758,0.317 -0.817,0.089 -0.866,-0.121 -1.091,-0.618 c -0.249,-0.553 -0.98,-1.134 -0.235,-1.354 0.239,-0.059 0.384,0.036 0.481,0.123 0.448,0.404 0.857,1.324 1.038,1.879 0.032,0.102 0.054,0.206 0.069,0.314 L 0,0 Z"
             inkscape:connector-curvature="0" />
        </g>
        <g
           transform="translate(62.281705,741.11841)"
           id="g3153">
          <path
             id="path3155"
             style="fill:#24ace9;fill-opacity:1;fill-rule:nonzero;stroke:none"
             d="m 0,0 -0.678,0.359 c 0.204,-1.188 0.634,-2.027 0.874,-2.331 0.095,-0.11 0.223,-0.18 0.368,-0.205 0.096,-0.004 0.164,0.008 0.247,0.051 0,0 0.181,0.083 0.225,0.206 0.138,0.385 -0.505,1.023 -0.67,2.47 L 0,0 Z"
             inkscape:connector-curvature="0" />
        </g>
        <g
           transform="translate(59.575505,738.80061)"
           id="g3157">
          <path
             id="path3159"
             style="fill:#24ace9;fill-opacity:1;fill-rule:nonzero;stroke:none"
             d="M 0,0 C 0.712,-0.179 1.347,0.369 1.36,0.556 1.369,0.703 1,1.295 0.863,1.425 0.78,1.506 0.483,1.712 0.09,1.577 -0.127,1.504 -0.55,1.072 -0.542,0.67 -0.537,0.341 0,0 0,0"
             inkscape:connector-curvature="0" />
        </g>
        <g
           transform="translate(54.710505,756.64361)"
           id="g3161">
          <path
             id="path3163"
             style="fill:#9c0b2b;fill-opacity:1;fill-rule:evenodd;stroke:none"
             d="M 0,0 C 2.019,0.605 2.861,2.202 4.758,3.521 4.443,3.479 4.055,3.302 3.79,3.151 2.189,2.233 1.684,1.835 0.938,1.321 0.187,0.803 -0.781,0.186 -1.482,-0.058 c 0,0 0.501,-0.274 1.482,0.058 M 9.128,8.248 C 8.513,8.333 8.202,8.324 7.699,8.104 7.642,8.31 7.555,8.449 7.466,8.541 6.912,9.089 5.911,9.154 5.42,9.237 4.841,9.293 3.832,9.309 2.869,9.065 -0.791,8.137 -2.424,5.733 -3.467,2.233 -3.678,1.525 -3.883,0.507 -4.006,-0.453 c -0.453,-1.041 -1.313,-3.736 0.452,-6.348 0.317,-0.47 1.364,-1.775 1.636,-2.49 0.378,-1.725 -1.795,-0.694 -3.321,-2.242 0,0 -1.256,-1.63 -3.691,-1.298 -0.415,0.07 -0.789,0.193 -1.087,0.437 0.037,-0.058 0.082,-0.109 0.171,-0.192 1.545,-1.351 3.819,-1.158 5.113,-0.04 0.284,0.244 0.292,0.399 1.261,0.4 1.687,0.002 3.204,0.124 4.085,1.411 -0.685,0.894 -0.994,1.208 -1.26,1.76 0,0.279 -0.086,0.641 -0.305,1.108 -0.141,1.742 -0.323,1.97 -0.294,2.843 -0.069,1.116 -0.018,2.402 1.138,2.879 1.163,0.479 1.473,0.33 3.453,1.358 3.656,1.896 3.745,4.221 3.368,4.512 0,0 -0.851,-1.491 -1.934,-2.431 C 3.16,-0.191 1.101,-0.716 -1.075,-1.538 -3.261,-2.364 -3.524,-3.2 -3.524,-3.2 -4.075,-0.065 -2.213,1.751 -2.213,1.751 -2.4,1.815 -3.338,0.692 -3.755,0.047 c 0.466,2.041 0.981,3.28 1.499,4.299 0.136,0.25 0.445,0.722 0.722,1.075 0.582,0.655 0.835,0.927 1.707,1.51 C 0.72,7.297 1.324,7.64 2.07,7.837 3.698,8.268 6.137,8.233 7.106,7.416 7.369,7.192 7.489,6.836 7.489,6.836 c 0,0 0.468,0.272 0.8,0.372 C 8.761,7.35 9.316,7.21 9.666,7.068 11.587,6.216 12.035,4.052 13.487,2.235 12.054,5.166 11.759,7.651 9.128,8.248 m 2.681,-6.793 c 0.828,-1.086 2.853,-2.983 2.653,-5.972 0,0 0.258,0.757 0.226,1.745 -0.13,4.408 -2.61,4.578 -4.492,8.21 0,0 -0.283,-1.492 1.613,-3.983 m 8.417,-13.845 c -0.038,-0.058 -0.082,-0.109 -0.171,-0.192 -1.544,-1.352 -3.819,-1.158 -5.113,-0.039 -0.216,0.185 -0.273,0.319 -0.715,0.373 -0.154,0.356 -0.239,0.741 -0.239,1.142 0,0.129 0.011,0.255 0.029,0.381 -0.177,-0.31 -0.306,-0.64 -0.378,-0.984 -0.053,-0.003 -0.106,-0.085 -0.162,-0.101 -1.846,-0.715 -2.963,-0.235 -3.693,1.214 0.065,0.094 0.452,0.596 0.502,0.691 0.148,0.324 0.6,1.297 0.722,2.616 0.209,1.756 0.201,2.16 0.265,2.59 0.097,0.838 0.094,1.053 -0.085,1.651 -0.157,0.493 -0.287,0.663 -0.581,1.222 -0.731,1.059 -1.009,1.511 -1.355,2.185 -0.248,0.483 -0.323,0.717 -0.399,0.993 0,0 -0.669,-1.629 -2.048,-2.652 -1.179,-0.875 -2.085,-1.157 -2.751,-1.034 1.019,0.576 2.07,1.207 2.844,2.474 1.085,1.774 1.289,3.562 1.289,3.562 0,0 0.071,0.005 0.291,-0.117 C 8.643,3.492 8.947,3.18 9.099,2.624 9.156,2.413 9.387,1.646 9.667,1.012 c 0.506,-1.142 0.986,-1.688 2.011,-2.634 0.998,-0.922 1.971,-2.228 1.604,-4.149 -0.213,-1.118 -0.714,-1.813 -1.267,-2.755 -0.181,-0.361 -0.241,-0.631 -0.195,-1.022 0.153,-1.028 1.172,-0.47 2.454,-0.785 -0.09,-0.119 -0.171,-0.243 -0.244,-0.369 0.475,-0.145 0.973,-0.377 1.417,-0.827 0,0 1.257,-1.63 3.692,-1.299 0.415,0.071 0.789,0.195 1.087,0.438"
             inkscape:connector-curvature="0" />
        </g>
        <g
           transform="translate(66.451305,753.32651)"
           id="g3165">
          <path
             id="path3167"
             style="fill:#fcd3d7;fill-opacity:1;fill-rule:evenodd;stroke:none"
             d="m 0,0 c -0.226,0.052 -0.319,-0.064 -0.424,-0.282 -0.022,0.165 -0.063,0.333 -0.129,0.551 -0.156,0.493 -0.287,0.663 -0.58,1.222 -0.732,1.059 -1.009,1.511 -1.356,2.185 -0.248,0.483 -0.323,0.717 -0.399,0.993 0,0 -0.668,-1.629 -2.048,-2.652 C -6.115,1.142 -7.02,0.86 -7.687,0.983 -6.419,2.193 -5.776,3.398 -5.54,4.75 -6.062,4.018 -6.949,3.2 -8.396,2.45 c -1.98,-1.028 -2.29,-0.879 -3.452,-1.358 -0.824,-0.339 -1.086,-1.09 -1.144,-1.896 -0.011,0.127 -0.024,0.243 -0.037,0.338 -0.022,0.46 -0.148,0.452 -0.148,0.452 0,0 -0.732,-0.01 -0.78,-1.093 -0.014,-0.668 0.104,-0.857 0.202,-1.085 0.11,-0.256 0.236,-0.579 0.399,-0.659 0.279,-0.133 0.402,-0.042 0.447,0.014 0.005,-0.031 0.011,-0.062 0.016,-0.093 0.005,-0.031 0.011,-0.063 0.015,-0.098 0.007,-0.046 0.014,-0.095 0.023,-0.147 0.229,-1.463 0.445,-2.344 0.819,-2.902 0.029,-0.072 0.061,-0.147 0.095,-0.223 0.081,-0.139 0.16,-0.267 0.232,-0.381 0.244,-0.189 0.367,-0.383 0.393,-0.573 0.015,-0.019 0.031,-0.039 0.046,-0.059 0.046,-0.059 0.093,-0.119 0.143,-0.184 -0.005,-0.006 -0.009,-0.012 -0.013,-0.018 0.037,-0.034 0.074,-0.069 0.113,-0.1 0.149,-0.166 0.304,-0.304 0.446,-0.42 l -0.087,-2.837 0.094,-0.465 0.572,-0.136 0.275,0.36 0.928,-1.074 0.805,0.282 c 0,0 0.195,-0.079 0.359,-0.224 0.164,-0.144 1.178,-0.594 1.178,-0.594 l 0.469,0.183 0.595,0.446 0.241,0.407 0.982,-0.521 0.934,1.406 0.728,-0.299 -0.05,3.212 c 0.092,0.098 0.18,0.196 0.263,0.292 0.279,0.322 0.604,0.663 0.849,1.027 0.008,0.02 0.019,0.042 0.029,0.066 0.003,0.005 0.006,0.012 0.008,0.017 0.009,0.02 0.019,0.041 0.029,0.064 0.005,0.012 0.011,0.025 0.016,0.038 0.008,0.019 0.017,0.037 0.025,0.057 0.008,0.018 0.016,0.038 0.024,0.057 0.008,0.018 0.015,0.035 0.023,0.054 0.009,0.022 0.019,0.046 0.028,0.07 0.007,0.018 0.014,0.035 0.022,0.054 0.01,0.026 0.021,0.055 0.031,0.083 0.007,0.018 0.014,0.035 0.021,0.054 0.011,0.03 0.023,0.062 0.034,0.095 0.007,0.018 0.014,0.035 0.02,0.054 0.012,0.034 0.024,0.07 0.036,0.106 0.006,0.019 0.012,0.037 0.019,0.056 0.012,0.037 0.024,0.075 0.035,0.113 0.007,0.02 0.013,0.04 0.019,0.06 0.012,0.04 0.024,0.081 0.035,0.123 0.006,0.021 0.012,0.041 0.018,0.062 0.011,0.041 0.022,0.085 0.034,0.128 0.006,0.022 0.011,0.044 0.017,0.068 0.011,0.043 0.021,0.088 0.031,0.132 0.006,0.025 0.011,0.048 0.017,0.073 0.01,0.045 0.019,0.092 0.028,0.138 0.005,0.026 0.011,0.051 0.016,0.077 0.009,0.048 0.017,0.097 0.025,0.146 0.005,0.027 0.009,0.052 0.014,0.079 0.008,0.053 0.016,0.109 0.023,0.164 0.003,0.023 0.007,0.045 0.01,0.069 0.009,0.079 0.018,0.159 0.026,0.241 0.055,0.465 0.095,0.835 0.126,1.136 0.078,-0.052 0.261,-0.12 0.502,0.131 0.299,0.245 0.554,0.967 0.543,1.554 C 0.427,-0.636 0.302,-0.07 0,0"
             inkscape:connector-curvature="0" />
        </g>
        <g
           transform="translate(51.193305,746.91911)"
           id="g3169">
          <path
             id="path3171"
             style="fill:#24ace9;fill-opacity:1;fill-rule:nonzero;stroke:none"
             d="M 0,0 C -0.001,0.148 -0.017,0.363 -0.088,0.617 -0.163,0.993 -0.239,1.247 -0.392,1.906 -0.574,2.69 -1.077,2.717 -1.263,2.704 -1.408,2.693 -2.156,2.497 -2.658,2.079 -3.182,1.68 -3.19,1.389 -3.124,1.182 c 0.052,-0.164 0.305,-0.623 0.5,-0.871 0.557,-0.683 1.391,-0.855 1.044,-1.098 -0.101,-0.11 -0.074,-0.298 0.045,-0.723 0.096,-0.263 0.189,-0.495 0.283,-0.644 0.091,-0.125 0.173,-0.373 0.529,-0.406 0.089,-0.009 0.197,-0.002 0.173,-0.059 -0.046,-0.104 -0.073,-0.24 -0.068,-0.352 0.006,-0.146 0.206,-0.601 0.295,-0.826 0.102,-0.261 0.346,-1.423 0.889,-1.413 0.247,0.003 0.492,0.065 0.704,0.134 0.504,0.149 1.135,0.567 1.213,0.898 0.113,0.471 -0.189,0.666 -0.344,0.886 -0.297,0.31 -0.956,0.953 -1.145,1.154 -0.044,0.047 -0.099,0.093 -0.165,0.158 -0.184,0.183 -0.091,0.235 -0.008,0.355 0.1,0.206 -0.193,0.787 -0.267,0.902 C 0.432,-0.537 0.229,-0.321 0.047,-0.318 -0.334,-0.256 -0.002,-0.226 0,0"
             inkscape:connector-curvature="0" />
        </g>
        <g
           transform="translate(50.933605,744.66751)"
           id="g3173">
          <path
             id="path3175"
             style="fill:#2f1e18;fill-opacity:1;fill-rule:nonzero;stroke:none"
             d="M 0,0 C 0.505,0.207 0.491,0.214 0.677,0.363 0.735,0.41 0.883,0.332 0.747,0.103 0.689,0.01 0.599,0.054 0.618,-0.153 0.643,-0.419 1.207,-0.823 0.827,-0.9 0.482,-0.969 0.284,-0.33 0.257,-0.238 0.228,-0.148 0.076,-0.246 0,-0.239 -0.163,-0.223 -0.296,-0.122 0,0"
             inkscape:connector-curvature="0" />
        </g>
        <g
           transform="translate(49.843905,747.28881)"
           id="g3177">
          <path
             id="path3179"
             style="fill:#2f1e18;fill-opacity:1;fill-rule:nonzero;stroke:none"
             d="M 0,0 C 0.048,-0.361 0.332,-0.771 0.567,-0.544 0.716,-0.4 0.431,-0.361 0.231,0.475 0.102,1.018 -0.037,0.279 0,0"
             inkscape:connector-curvature="0" />
        </g>
        <g
           transform="translate(50.662205,746.46541)"
           id="g3181">
          <path
             id="path3183"
             style="fill:#ffffff;fill-opacity:1;fill-rule:evenodd;stroke:none"
             d="m 0,0 c -0.231,-0.024 -0.508,-0.043 -0.629,-0.197 -0.119,-0.154 -0.137,-0.194 -0.053,-0.343 0.084,-0.15 0.125,-0.026 0.259,0.095 0.134,0.121 0.297,0.189 0.407,0.205 0.122,0.018 0.271,0.082 0.314,0.215 C 0.33,0.078 0.217,0.022 0,0"
             inkscape:connector-curvature="0" />
        </g>
        <g
           transform="translate(69.135705,744.66171)"
           id="g3185">
          <path
             id="path3187"
             style="fill:#24ace9;fill-opacity:1;fill-rule:nonzero;stroke:none"
             d="M 0,0 C 0.194,0.001 0.464,0.284 0.586,0.467 0.662,0.582 0.999,1.165 0.803,1.352 0.697,1.458 0.67,1.49 0.832,1.645 0.9,1.709 0.956,1.755 1.002,1.802 1.198,2.001 2.04,2.916 2.239,3.132 2.346,3.277 2.692,3.549 2.542,3.936 2.427,4.199 1.602,4.637 1.166,4.803 0.922,4.905 0.649,4.993 0.459,5.007 0.03,5.058 -0.315,3.803 -0.413,3.546 -0.498,3.325 -0.616,2.812 -0.614,2.667 -0.614,2.559 -0.578,2.426 -0.525,2.325 -0.493,2.269 -0.611,2.274 -0.708,2.265 -1.094,2.229 -1.285,1.974 -1.358,1.883 -1.451,1.797 -1.575,1.553 -1.664,1.294 -1.77,0.877 -1.737,0.706 -1.623,0.6 -1.23,0.365 -2.066,0.264 -2.659,-0.523 c -0.214,-0.242 -0.511,-0.68 -0.56,-0.843 -0.063,-0.202 -0.114,-0.433 0.523,-0.865 0.478,-0.376 1.392,-0.588 1.552,-0.598 0.202,-0.012 0.628,-0.123 0.786,0.647 0.131,0.646 0.178,0.84 0.237,1.129 0.06,0.348 0.095,0.623 0.064,0.726 C -0.074,-0.14 -0.393,-0.021 0,0"
             inkscape:connector-curvature="0" />
        </g>
        <g
           transform="translate(68.603305,744.75151)"
           id="g3189">
          <path
             id="path3191"
             style="fill:#2f1e18;fill-opacity:1;fill-rule:nonzero;stroke:none"
             d="m 0,0 c -0.573,0.037 -0.555,0.091 -0.746,0.219 -0.062,0.04 -0.311,-0.084 -0.133,-0.243 0.061,-0.053 0.195,-0.211 0.144,-0.403 -0.068,-0.249 -0.433,-0.723 -0.076,-0.676 0.406,0.051 0.5,0.625 0.545,0.71 0.046,0.086 0.115,0.12 0.204,0.132 C 0.109,-0.24 0.291,-0.018 0,0"
             inkscape:connector-curvature="0" />
        </g>
        <g
           transform="translate(69.769405,747.14801)"
           id="g3193">
          <path
             id="path3195"
             style="fill:#2f1e18;fill-opacity:1;fill-rule:nonzero;stroke:none"
             d="m 0,0 c -0.114,-0.248 -0.199,-0.583 -0.53,-0.407 -0.416,0.221 0.104,0.554 0.422,0.891 C 0.191,0.798 0.089,0.195 0,0"
             inkscape:connector-curvature="0" />
        </g>
        <g
           transform="translate(69.313805,746.39471)"
           id="g3197">
          <path
             id="path3199"
             style="fill:#ffffff;fill-opacity:1;fill-rule:evenodd;stroke:none"
             d="M 0,0 C -0.196,0.167 -0.394,0.346 -0.595,0.34 -0.797,0.333 -0.874,0.302 -0.915,0.136 -0.956,-0.029 -0.836,0.019 -0.648,-0.007 -0.46,-0.033 -0.256,-0.167 -0.159,-0.243 -0.053,-0.329 0.15,-0.392 0.204,-0.301 0.257,-0.211 0.184,-0.158 0,0"
             inkscape:connector-curvature="0" />
        </g>
        <g
           transform="translate(58.058405,746.58941)"
           id="g3201">
          <path
             id="path3203"
             style="fill:#ffffff;fill-opacity:1;fill-rule:evenodd;stroke:none"
             d="M 0,0 C 0,0 -0.282,0.695 -0.572,0.676 -0.062,0.68 0.607,0.574 1.112,0.612 1.192,0.616 1.353,0.681 1.432,0.688 2.219,0.769 3.147,0.544 3.871,0.76 3.623,0.525 3.472,-0.041 3.115,-0.219 2.732,-0.411 1.846,-0.466 1.293,-0.434 0.735,-0.402 0.391,-0.206 0,0"
             inkscape:connector-curvature="0" />
        </g>
        <g
           transform="translate(54.794105,750.31561)"
           id="g3205">
          <path
             id="path3207"
             style="fill:#dd1438;fill-opacity:1;fill-rule:nonzero;stroke:none"
             d="M 0,0 C 0,0.085 0.056,0.148 0.158,0.148 0.241,0.146 0.353,0.084 0.351,-0.002 0.355,-0.112 0.239,-0.183 0.153,-0.18 0.052,-0.18 -0.002,-0.109 0,0"
             inkscape:connector-curvature="0" />
        </g>
        <g
           transform="translate(55.575305,749.79081)"
           id="g3209">
          <path
             id="path3211"
             style="fill:#dd1438;fill-opacity:1;fill-rule:nonzero;stroke:none"
             d="M 0,0 C 0,0.089 0.086,0.183 0.179,0.18 0.274,0.186 0.374,0.091 0.374,-0.001 0.373,-0.079 0.271,-0.148 0.175,-0.148 0.087,-0.155 -0.001,-0.077 0,0"
             inkscape:connector-curvature="0" />
        </g>
        <g
           transform="translate(56.235705,750.76341)"
           id="g3213">
          <path
             id="path3215"
             style="fill:#dd1438;fill-opacity:1;fill-rule:nonzero;stroke:none"
             d="M 0,0 C 0,0.071 0.108,0.159 0.21,0.158 0.276,0.156 0.381,0.072 0.379,-0.005 0.343,-0.132 0.279,-0.185 0.21,-0.185 0.076,-0.183 -0.002,-0.13 0,0"
             inkscape:connector-curvature="0" />
        </g>
        <g
           transform="translate(57.035405,750.08341)"
           id="g3217">
          <path
             id="path3219"
             style="fill:#dd1438;fill-opacity:1;fill-rule:nonzero;stroke:none"
             d="M 0,0 C 0.002,0.092 0.046,0.173 0.157,0.172 0.248,0.171 0.318,0.092 0.317,0.004 0.317,-0.092 0.245,-0.184 0.153,-0.173 0.043,-0.173 0,-0.087 0,0"
             inkscape:connector-curvature="0" />
        </g>
        <g
           transform="translate(57.814505,750.91631)"
           id="g3221">
          <path
             id="path3223"
             style="fill:#dd1438;fill-opacity:1;fill-rule:nonzero;stroke:none"
             d="M 0,0 C 0.001,0.091 0.06,0.163 0.165,0.163 0.271,0.16 0.334,0.091 0.332,0.003 0.332,-0.087 0.269,-0.162 0.16,-0.161 0.056,-0.162 -0.001,-0.084 0,0"
             inkscape:connector-curvature="0" />
        </g>
        <g
           transform="translate(61.501305,750.87121)"
           id="g3225">
          <path
             id="path3227"
             style="fill:#dd1438;fill-opacity:1;fill-rule:nonzero;stroke:none"
             d="M 0,0 C 0.016,0.097 0.066,0.151 0.171,0.132 0.261,0.112 0.317,0.038 0.312,-0.063 0.294,-0.15 0.21,-0.183 0.111,-0.163 0.016,-0.146 -0.013,-0.066 0,0"
             inkscape:connector-curvature="0" />
        </g>
        <g
           transform="translate(62.554205,750.67741)"
           id="g3229">
          <path
             id="path3231"
             style="fill:#dd1438;fill-opacity:1;fill-rule:nonzero;stroke:none"
             d="M 0,0 C 0.015,0.077 0.08,0.144 0.154,0.13 0.246,0.114 0.299,0.028 0.282,-0.055 0.266,-0.145 0.189,-0.207 0.098,-0.189 0.02,-0.174 -0.017,-0.091 0,0"
             inkscape:connector-curvature="0" />
        </g>
        <g
           transform="translate(63.953605,750.80681)"
           id="g3233">
          <path
             id="path3235"
             style="fill:#dd1438;fill-opacity:1;fill-rule:nonzero;stroke:none"
             d="M 0,0 C 0.02,0.094 0.093,0.141 0.221,0.117 0.32,0.099 0.36,0.03 0.342,-0.065 0.322,-0.167 0.26,-0.247 0.158,-0.228 0.029,-0.205 -0.019,-0.101 0,0"
             inkscape:connector-curvature="0" />
        </g>
        <g
           transform="translate(63.141005,750.04511)"
           id="g3237">
          <path
             id="path3239"
             style="fill:#dd1438;fill-opacity:1;fill-rule:nonzero;stroke:none"
             d="M 0,0 C 0.02,0.108 0.11,0.156 0.229,0.138 0.321,0.118 0.378,0.028 0.36,-0.067 0.342,-0.155 0.255,-0.224 0.169,-0.206 0.044,-0.184 -0.017,-0.088 0,0"
             inkscape:connector-curvature="0" />
        </g>
        <g
           transform="translate(64.238105,749.96781)"
           id="g3241">
          <path
             id="path3243"
             style="fill:#dd1438;fill-opacity:1;fill-rule:nonzero;stroke:none"
             d="M 0,0 C 0.021,0.105 0.108,0.15 0.213,0.128 0.311,0.115 0.382,0.035 0.36,-0.064 0.342,-0.157 0.244,-0.222 0.154,-0.205 0.047,-0.186 -0.02,-0.096 0,0"
             inkscape:connector-curvature="0" />
        </g>
        <g
           transform="translate(56.550405,753.01581)"
           id="g3245">
          <path
             id="path3247"
             style="fill:#ffffff;fill-opacity:1;fill-rule:nonzero;stroke:none"
             d="m 0,0 c -0.518,-0.145 -0.905,-0.544 -1.061,-0.943 -0.001,-0.115 0.287,-0.236 0.296,-0.28 0.139,-0.04 0.615,0.043 0.782,0.041 0.565,-0.006 1.208,0.255 1.046,0.578 0,0 -0.544,0.749 -1.063,0.604"
             inkscape:connector-curvature="0" />
        </g>
        <g
           transform="translate(63.881305,752.04341)"
           id="g3249">
          <path
             id="path3251"
             style="fill:#ffffff;fill-opacity:1;fill-rule:nonzero;stroke:none"
             d="M 0,0 C 0.143,0.229 -0.492,1.082 -0.897,1.042 -1.303,1.001 -1.606,0.848 -1.926,0.353 -1.944,0.324 -1.918,0.194 -1.937,0.161 c 0.152,-0.254 0.584,-0.438 1.094,-0.436 0.163,0 0.321,0.02 0.462,0.056 C -0.373,-0.06 -0.141,-0.23 0,0"
             inkscape:connector-curvature="0" />
        </g>
        <g
           transform="translate(59.723905,738.91551)"
           id="g3253">
          <path
             id="path3255"
             style="fill:#2f1e18;fill-opacity:1;fill-rule:evenodd;stroke:none"
             d="M 0,0 C 0.432,-0.11 0.836,0.127 0.903,0.434 0.95,0.656 0.883,0.858 0.807,0.996 0.735,1.131 0.658,1.207 0.502,1.307 0.345,1.418 0.103,1.396 0.026,1.371 L -0.042,1.34 C -0.47,1.173 -0.724,0.185 0,0 M -3.769,5.897 C -3.782,5.277 -3.787,4.661 -3.799,3.821 -3.732,3.71 -3.645,3.58 -3.525,3.415 -3.32,3.129 -3.025,4.093 -2.668,3.891 -2.286,3.675 -2.305,3 -1.897,2.68 -1.654,2.49 -1.203,3.57 -0.965,2.979 -0.708,2.34 -0.247,2.193 0.251,1.939 0.474,2.135 0.8,2.162 1.073,2.484 1.329,2.786 1.482,3.094 1.671,3.153 1.963,3.244 2.135,2.523 2.451,2.638 2.965,2.827 2.875,3.775 3.352,3.903 3.594,3.968 3.633,3.552 3.919,3.509 4.204,3.465 4.476,4.464 4.623,4.879 4.697,5.084 4.802,5.143 4.961,5.083 5.186,4.998 5.2,4.695 5.221,4.173 5.253,3.44 5.59,2.737 5.999,2.247 6.407,1.758 5.368,2.029 4.961,3.09 4.707,3.75 4.778,3.755 4.589,3.415 c 0,0 -0.35,-0.606 -0.576,-0.666 C 3.724,2.671 3.449,3.095 3.449,3.095 3.449,3.095 3.11,1.917 2.53,1.914 1.985,1.912 1.802,2.493 1.674,2.268 1.577,2.101 1.457,1.852 0.968,1.673 1.23,1.473 1.456,1.266 1.555,0.904 l 0,-0.001 C 1.742,0.042 1.103,-0.502 0.35,-0.558 c -0.543,-0.037 -1.201,0.192 -1.375,0.702 -0.191,0.649 0.211,1.242 0.601,1.521 -0.361,0.095 -0.648,0.341 -0.859,0.649 0,0 -0.306,-0.422 -0.758,-0.342 C -2.329,2.023 -2.715,2.59 -2.853,3.074 -2.86,3.096 -3.172,2.649 -3.539,2.709 -4.03,2.789 -4.024,3.15 -4.262,3.503 -4.315,3.581 -4.49,3.836 -4.526,3.617 -4.554,3.439 -4.614,3.193 -4.75,2.922 -5,2.42 -5.723,1.863 -6.04,2.074 c 0.283,0.114 0.755,0.675 0.901,1.176 0.162,0.559 0.202,1.085 0.142,1.632 -0.047,0.436 0.384,0.195 0.67,-0.104 l 0.014,0.282 c 0.017,0.313 0.02,0.664 0.023,0.999 0.001,0.148 -0.067,0.425 -0.24,0.624 -0.178,0.213 -0.452,0.657 -0.608,0.883 0,0 -0.183,0.291 -0.3,0.507 -0.106,0.199 -0.205,0.428 -0.349,0.833 -0.118,0.335 -0.244,0.836 -0.313,1.461 -0.074,0.642 -0.062,0.791 -0.081,1.202 0.085,-0.389 0.21,-1.033 0.256,-1.237 0.212,-0.93 0.387,-1.36 0.714,-1.923 0.326,-0.586 0.741,-1.053 1.135,-1.466 0.231,-0.242 0.707,-0.636 1.01,-0.88 C -2.66,5.738 -2.479,5.591 -2.022,5.303 -1.617,5.048 -0.872,4.53 0.15,4.542 1.111,4.553 1.633,4.93 1.946,5.11 2.618,5.499 2.967,5.805 3.434,6.242 3.971,6.744 4.245,6.995 4.571,7.376 4.994,7.87 5.383,8.398 5.735,9.642 5.927,10.322 6.051,11.117 6.13,11.561 6.141,11.403 6.165,11.224 6.116,10.611 6.07,10.166 6.024,9.759 5.927,9.352 5.786,8.759 5.657,8.361 5.422,7.929 5.179,7.484 5.114,7.445 4.706,6.833 4.421,6.429 4.41,6.413 4.398,6.107 4.389,4.822 4.103,3.058 3.881,5.845 2.468,4.645 1.253,3.889 0.102,3.876 -1.029,3.863 -2.21,4.611 -3.769,5.897 m 6.847,8.589 C 2.841,14.409 2.471,14.073 2.342,13.878 2.181,13.636 2.08,13.201 1.873,13.194 1.793,13.222 1.87,13.402 1.749,13.389 1.593,13.354 1.499,13.218 1.54,13.057 c 0.03,-0.081 0.1,-0.142 0.211,-0.155 0.37,-0.048 0.426,0.293 0.567,0.489 0.119,0.163 0.364,0.414 0.495,0.488 0.121,0.07 0.298,0.123 0.45,0.004 C 3.352,13.807 3.264,13.641 3.198,13.607 3.029,13.593 2.869,13.655 2.789,13.638 2.708,13.621 2.588,13.403 2.57,13.133 c 0.178,-0.072 0.221,0.063 0.396,0.066 0.282,0.004 0.559,-0.181 0.703,-0.039 0.145,0.144 0.141,0.405 0.14,0.518 0.24,-0.01 0.349,-0.349 0.248,-0.524 C 3.977,13.062 3.783,13.08 3.784,12.909 4.603,12.744 4.68,13.085 4.743,13.27 4.788,13.419 4.771,13.541 4.702,13.745 4.462,14.353 3.733,14.7 3.078,14.486 M -4.5,12.933 c 0.145,-0.076 0.453,-0.225 0.697,-0.154 0.029,0.094 -0.051,0.139 -0.103,0.14 -0.154,0.006 -0.263,0.143 -0.259,0.207 0.018,0.209 0.234,0.547 0.488,0.681 0.232,0.165 0.411,0.076 0.479,-0.052 -0.005,-0.1 -0.041,-0.176 -0.127,-0.195 -0.133,-0.03 -0.229,0.085 -0.328,0.042 -0.187,-0.196 -0.114,-0.432 -0.047,-0.513 0.067,-0.081 0.146,-0.112 0.174,-0.086 0.125,0.159 0.426,0.156 0.729,0.131 0.129,0.091 0.136,0.311 0.172,0.499 0.216,0.245 0.324,-0.248 0.467,-0.444 0.094,-0.128 0.196,-0.281 0.324,-0.294 0.219,-0.022 0.504,0.154 0.395,0.476 -0.063,0.083 -0.236,-0.084 -0.305,-0.029 -0.262,0.249 -0.026,0.757 -0.57,1.029 -0.582,0.292 -1.485,0.191 -1.846,-0.263 C -4.3,13.932 -4.453,13.737 -4.567,13.439 -4.622,13.241 -4.674,13.036 -4.5,12.933 M 1.057,10.726 C 0.7,10.833 0.617,10.451 0.254,10.452 c -0.509,0 -0.615,0.326 -0.885,0.298 -0.222,-0.025 -0.337,-0.362 -0.488,-0.385 -0.121,0.024 -0.096,-0.18 0.057,-0.219 0.306,-0.077 0.239,0.179 0.441,0.108 0.119,-0.046 0.144,-0.25 0.487,-0.407 0.341,-0.155 0.681,0.03 0.987,0.307 0.194,0.188 0.561,0.175 0.467,0.291 -0.082,0.039 -0.141,0.245 -0.263,0.281 m 0.742,4.652 c 0.024,-0.099 0.374,-10e-4 0.538,0.062 0.126,0.049 0.232,0.104 0.392,0.137 0.11,0.023 0.269,0.039 0.377,0.04 C 3.354,15.618 3.514,15.615 3.728,15.58 4.066,15.524 4.703,15.191 4.755,15.337 4.813,15.611 4.573,15.831 4.391,15.93 3.94,16.173 3.252,16.299 2.637,16.05 2.431,15.952 2.361,15.869 2.167,15.737 2.032,15.646 1.784,15.499 1.799,15.378 m -2.433,-7.17 c 0.079,0.003 0.388,0.033 0.468,0.04 C 0.62,8.321 1.34,8.118 2.066,8.326 1.816,8.094 1.612,7.731 1.253,7.556 0.869,7.368 0.167,7.367 -0.385,7.406 -0.943,7.444 -1.399,7.748 -1.789,7.958 -1.894,7.643 -1.725,7.522 -1.483,7.307 -1.209,7.062 -0.782,6.728 -0.138,6.711 0.795,6.687 1.53,6.777 1.998,7.548 2.141,7.801 2.527,8.32 2.929,8.512 3.154,8.619 3.669,8.86 3.584,8.993 3.431,9.189 3.127,9.154 2.909,9.105 2.743,9.071 2.693,8.767 2.416,8.745 1.76,8.66 1.123,8.89 0.314,8.864 -0.268,8.847 -0.727,8.712 -1.349,8.663 -1.949,8.615 -2.157,8.932 -2.72,9.001 -2.976,9.034 -3.023,8.886 -2.829,8.642 -2.647,8.455 -2.331,8.277 -2.08,8.281 -1.57,8.28 -1.14,8.174 -0.634,8.208 m -1.622,7.289 c -0.14,0.036 -0.222,0.091 -0.4,0.112 -0.111,0.013 -0.271,0.023 -0.379,0.017 -0.246,-0.014 -0.37,-0.012 -0.619,-0.076 -0.332,-0.085 -0.948,-0.449 -1.011,-0.306 -0.053,0.192 0.047,0.365 0.172,0.49 0.441,0.142 0.805,0.226 1.368,0.448 0.18,-0.005 0.36,-0.034 0.531,-0.095 0.183,-0.075 0.321,-0.178 0.49,-0.283 0.137,-0.085 0.405,-0.218 0.388,-0.336 -0.035,-0.1 -0.371,-0.016 -0.54,0.029"
             inkscape:connector-curvature="0" />
        </g>
      </g>
    </g>
  </g>
</svg>
